<svg width="38" height="38" fill="none" xmlns="http://www.w3.org/2000/svg"><path d="M12.71 29.83c0 .16-.18.28-.4.28-.25.02-.43-.1-.43-.28 0-.15.18-.27.4-.27.23-.03.43.1.43.27Zm-2.38-.34c-.06.15.1.33.33.37.2.08.43 0 .47-.15.05-.15-.1-.33-.33-.4-.2-.05-.42.03-.47.18Zm3.38-.13c-.22.05-.37.2-.35.37.02.16.22.26.45.2.23-.05.38-.2.36-.35-.03-.15-.23-.24-.46-.22ZM18.75 0C8.13 0 0 8.07 0 18.7a19.2 19.2 0 0 0 12.99 18.32c.98.18 1.32-.43 1.32-.93l-.02-4.7s-5.36 1.15-6.5-2.28c0 0-.86-2.23-2.12-2.8 0 0-1.76-1.21.12-1.19 0 0 1.91.15 2.96 1.98 1.68 2.96 4.49 2.1 5.58 1.6a4.26 4.26 0 0 1 1.23-2.58c-4.28-.48-8.6-1.1-8.6-8.47 0-2.1.58-3.16 1.8-4.51-.2-.5-.85-2.55.2-5.2 1.6-.5 5.29 2.07 5.29 2.07a18 18 0 0 1 9.62 0s3.69-2.58 5.29-2.07c1.05 2.66.4 4.7.2 5.2 1.22 1.36 1.97 2.41 1.97 4.51 0 7.4-4.5 7.98-8.79 8.47.7.6 1.3 1.75 1.3 3.55l-.02 6.4c0 .5.35 1.11 1.32.93C32.81 34.46 38 27.2 38 18.7 38 8.06 29.38 0 18.75 0ZM7.45 26.42c-.1.08-.08.26.05.4.12.12.3.18.4.08.1-.08.08-.25-.05-.4-.13-.12-.3-.18-.4-.08Zm-.83-.62c-.05.1.02.23.18.3.12.08.27.06.33-.05.05-.1-.03-.22-.18-.3-.15-.05-.28-.02-.33.05Zm2.48 2.73c-.12.1-.07.33.1.48.18.17.4.2.5.07.1-.1.05-.33-.1-.47-.17-.18-.4-.2-.5-.08Zm-.87-1.13c-.12.08-.12.28 0 .46.12.17.33.25.43.17.12-.1.12-.3 0-.47-.11-.18-.3-.26-.43-.16Z" fill="#fff"/></svg>