<svg width="130" height="40" fill="none" xmlns="http://www.w3.org/2000/svg"><g clip-path="url(#a)"><path d="M37.27 28.35c-.2-.49-.4-1-.6-1.44l-.95-2.09-.03-.03c-2.8-6-5.8-12.1-8.98-18.1l-.12-.25c-.32-.59-.64-1.24-.97-1.84-.41-.71-.8-1.48-1.46-2.2a6.74 6.74 0 0 0-5.22-2.43A6.87 6.87 0 0 0 13.7 2.4a15.2 15.2 0 0 0-1.45 2.2c-.32.65-.64 1.29-.97 1.87l-.13.25c-3.12 6-6.16 12.1-8.97 18.1l-.07.08c-.29.65-.62 1.32-.94 2.05-.2.44-.4.91-.6 1.44a8.35 8.35 0 0 0 1.23 8.33 8.82 8.82 0 0 0 7.94 3.2c1.43-.18 2.81-.65 4.05-1.37a20.53 20.53 0 0 0 5.04-4.15 21.66 21.66 0 0 0 5.03 4.16c1.56.9 3.32 1.4 5.12 1.44 2.1 0 4.12-.73 5.7-2.06a8.44 8.44 0 0 0 2.9-5.23 7.3 7.3 0 0 0-.32-4.37v.01Zm-18.3 2.07c-2.2-2.75-3.63-5.27-4.11-7.43-.2-.8-.24-1.64-.13-2.45.1-.64.33-1.2.67-1.68a4.35 4.35 0 0 1 3.56-1.76 4.27 4.27 0 0 1 3.57 1.75c.33.5.58 1.05.65 1.69.13.72.08 1.56-.12 2.45-.49 2.12-1.92 4.67-4.1 7.43Zm16.23 1.85a5.89 5.89 0 0 1-3.7 4.7c-.96.4-2.03.5-3.08.4a8.09 8.09 0 0 1-3.08-1.06 19.84 19.84 0 0 1-4.63-3.87c2.68-3.25 4.3-6.22 4.9-8.85.3-1.25.34-2.38.21-3.42a6.83 6.83 0 0 0-1.1-2.75A6.8 6.8 0 0 0 19 14.57a7 7 0 0 0-5.73 2.84 6.4 6.4 0 0 0-1.09 2.76 8.07 8.07 0 0 0 .2 3.42c.62 2.63 2.28 5.63 4.91 8.87a18.17 18.17 0 0 1-4.62 3.9c-1.06.6-2.07.91-3.09 1.04a6.15 6.15 0 0 1-4.45-1.18 5.93 5.93 0 0 1-2.33-3.9c-.12-1-.03-2 .37-3.13.13-.4.32-.8.53-1.28.28-.65.6-1.32.93-2l.05-.09a405.71 405.71 0 0 1 8.88-18l.13-.26c.32-.6.63-1.24.97-1.84.33-.63.68-1.25 1.14-1.75a4.22 4.22 0 0 1 3.25-1.48 4.3 4.3 0 0 1 3.24 1.48c.45.5.82 1.12 1.15 1.75.32.6.63 1.25.97 1.84l.12.25a491.37 491.37 0 0 1 8.93 18.01l.03.04c.34.65.62 1.38.93 2 .2.49.41.88.54 1.29.24 1.12.37 2.12.24 3.12Zm17.74-2.12a6.5 6.5 0 0 1-5.03-2.29 8.1 8.1 0 0 1-2.04-5.6 8.6 8.6 0 0 1 2.11-5.72 6.75 6.75 0 0 1 5.2-2.33 5.57 5.57 0 0 1 4.72 2.4l.13-1.96h3.72v15.1h-3.73l-.13-2.2a5.72 5.72 0 0 1-4.95 2.6Zm.97-3.6c.74 0 1.4-.2 2-.56.56-.4 1.02-.93 1.38-1.57.32-.63.48-1.4.48-2.25a4.2 4.2 0 0 0-1.87-3.8 3.81 3.81 0 0 0-3.98 0c-.56.4-1.02.93-1.37 1.57-.34.7-.5 1.47-.49 2.25a4.2 4.2 0 0 0 1.88 3.8c.6.36 1.24.56 1.97.56Zm14.21-15.98c0 .44-.07.84-.28 1.17-.2.31-.48.6-.85.8-.37.2-.77.27-1.17.27-.41 0-.82-.07-1.19-.27-.35-.2-.64-.47-.85-.8-.2-.36-.3-.76-.28-1.17 0-.45.08-.85.28-1.16a2 2 0 0 1 .85-.8c.37-.2.76-.29 1.19-.29a2.38 2.38 0 0 1 2.03 1.08c.19.36.28.77.27 1.17ZM63.8 29.7V14.62h4.05v15.1h-4.06v-.02Zm14.88-11.13v.05c-.19-.08-.44-.12-.63-.16-.26-.05-.46-.05-.7-.05-1.14 0-2 .33-2.55 1-.61.69-.9 1.65-.9 2.89v7.41h-4.06v-15.1h3.73l.13 2.29c.41-.8.9-1.4 1.58-1.85a4 4 0 0 1 2.3-.63c.3 0 .58.03.82.08l.28.07v4Zm1.64 11.13V8.42h4.05v8.13a6.4 6.4 0 0 1 2.04-1.73 6.51 6.51 0 0 1 7.75 1.64 8.1 8.1 0 0 1 2.04 5.61 8.6 8.6 0 0 1-2.12 5.73 6.74 6.74 0 0 1-5.2 2.32 5.57 5.57 0 0 1-4.71-2.4l-.13 1.97-3.72.03v-.02Zm7.83-3.15c.73 0 1.38-.2 2-.56.55-.4 1.01-.93 1.37-1.57.33-.63.48-1.4.48-2.25 0-.83-.15-1.6-.48-2.23a4.72 4.72 0 0 0-1.38-1.57 3.81 3.81 0 0 0-3.97 0c-.58.4-1.02.93-1.4 1.57-.33.7-.5 1.47-.48 2.25a4.2 4.2 0 0 0 1.88 3.8c.6.36 1.25.56 1.98.56Zm9.58 3.16v-15.1h3.73l.13 1.96a5 5 0 0 1 4.51-2.36 5.3 5.3 0 0 1 4.87 3.05c.44.95.69 2.13.69 3.44v9.05h-4.07v-8.53a3.9 3.9 0 0 0-.73-2.48 2.44 2.44 0 0 0-1.98-.93c-.62 0-1.15.13-1.62.4-.45.29-.82.65-1.1 1.16-.28.52-.42 1.1-.4 1.7v8.64h-4.03Zm15.95 0V8.41h4.07v8.13a5.92 5.92 0 0 1 4.75-2.37 6.5 6.5 0 0 1 5.04 2.3 8.11 8.11 0 0 1 2.02 5.6 8.58 8.58 0 0 1-2.11 5.72 6.75 6.75 0 0 1-5.2 2.32 5.57 5.57 0 0 1-4.72-2.4l-.11 1.96-3.74.04Zm7.88-3.16c.74 0 1.39-.2 1.99-.56.57-.4 1.02-.93 1.39-1.57a5 5 0 0 0 .48-2.25 4.2 4.2 0 0 0-1.87-3.8 3.82 3.82 0 0 0-3.98 0 4.45 4.45 0 0 0-1.86 3.81 4.2 4.2 0 0 0 1.87 3.8c.6.37 1.22.57 1.98.57Z" fill="#FF385C"/></g><defs><clipPath id="a"><path fill="#fff" d="M0 0h130v40H0z"/></clipPath></defs></svg>