<svg width="134" height="40" fill="none" xmlns="http://www.w3.org/2000/svg"><path fill-rule="evenodd" clip-rule="evenodd" d="m84.1 12.23-2.17-3.66-3.87 1.83-2.18-3.66L72 8.57 69.84 4.9l-3.86 1.84-2.18-3.67-3.87 1.84-2.17-3.68-3.88 1.84-8.2 26.5 9.97 3.04a5.25 5.25 0 0 1 5.82-3.63 5.3 5.3 0 0 1 4.5 5.16v.1c.03.48-.03.96-.17 1.44l10.13 3.08 8.17-26.53Z" fill="#D61920"/><path fill-rule="evenodd" clip-rule="evenodd" d="M54.23 27.4a1.07 1.07 0 0 1-.9-1.06V13.36a1.06 1.06 0 0 1 .68-1c.13-.05.27-.08.42-.08h9.44a4.27 4.27 0 0 1 3.93 2.59c.21.5.32 1.05.32 1.6v9.87a1.07 1.07 0 0 1-.82 1.04 1.1 1.1 0 0 1-.47.01 1.07 1.07 0 0 1-.89-1.05v-9.85a2.05 2.05 0 0 0-2.07-2.06h-2.06v11.9a1.08 1.08 0 0 1-.77 1.04c-.16.05-.34.06-.51.02a1.07 1.07 0 0 1-.9-1.05v-11.9h-4.11v11.88a1.07 1.07 0 0 1-.81 1.06 1.1 1.1 0 0 1-.48.01Zm15.71 5.65a1.07 1.07 0 0 1-.9-1.07 1.1 1.1 0 0 1 1.08-1.08c.93 0 1.73-.59 1.99-1.46l1.12-3.71-3.67-12.18a1.07 1.07 0 0 1 1.54-1.28c.25.14.44.36.53.63l2.72 9.08 2.77-9.08c.13-.5.69-.84 1.25-.73l.08.01c.59.19.91.8.74 1.38l-3.78 12.5-1.2 4a4.27 4.27 0 0 1-4.27 3Z" fill="#FEFEFE"/><path fill-rule="evenodd" clip-rule="evenodd" d="M3.36 25.03h2.13a2.15 2.15 0 0 0 2.15-2.13v-6.24a2.12 2.12 0 0 0-1.32-1.97c-.26-.11-.54-.17-.82-.17H3.36v10.51Zm-1.34 2.22a1.11 1.11 0 0 1-.93-1.1V6.78a1.1 1.1 0 0 1 .33-.8 1.12 1.12 0 0 1 1-.33c.54.11.94.57.94 1.12v5.51h2.13a4.43 4.43 0 0 1 4.08 2.7c.22.53.33 1.1.33 1.67v6.24a4.36 4.36 0 0 1-4.4 4.36H2.22a1 1 0 0 1-.22 0h.02ZM17.58 14.43a2.21 2.21 0 0 0-1.9.59 2.1 2.1 0 0 0-.61 1.51v6.5A2.1 2.1 0 0 0 16.39 25a2.15 2.15 0 0 0 2.97-1.97v-6.49c0-1.05-.75-1.92-1.78-2.1Zm-1.14 12.92a4.4 4.4 0 0 1-3.64-4.31v-6.5a4.3 4.3 0 0 1 1.3-3.1 4.4 4.4 0 0 1 3.11-1.27 4.42 4.42 0 0 1 4.4 4.37v6.5a4.34 4.34 0 0 1-2.72 4.05 4.4 4.4 0 0 1-2.45.26Zm12.85-12.9a2.2 2.2 0 0 0-1.89.58 2.1 2.1 0 0 0-.62 1.51v6.5A2.1 2.1 0 0 0 28.1 25a2.15 2.15 0 0 0 1.65 0 2.14 2.14 0 0 0 1.32-1.97v-6.5c0-1.04-.75-1.91-1.78-2.1Zm-1.14 12.9a4.4 4.4 0 0 1-3.63-4.31v-6.5a4.35 4.35 0 0 1 3.27-4.21 4.45 4.45 0 0 1 4.51 1.4 4.35 4.35 0 0 1 1.04 2.81v6.5a4.3 4.3 0 0 1-1.31 3.1 4.38 4.38 0 0 1-3.88 1.21Zm9.01.04a1.11 1.11 0 0 1-.93-1.1V6.78a1.09 1.09 0 0 1 .79-1.07c.17-.06.36-.07.53-.03.55.08.95.55.95 1.1v11.54l5.2-5.79a1.16 1.16 0 0 1 1.59-.1 1.11 1.11 0 0 1 .12 1.6l-3.94 4.35 4.07 7.38a1.07 1.07 0 0 1-.45 1.5c-.23.14-.5.18-.76.13a1.13 1.13 0 0 1-.79-.54l-3.66-6.68-1.39 1.53v4.6a1.12 1.12 0 0 1-1.13 1.12c-.08 0-.15 0-.22-.03h.02Zm49.9 0a4.2 4.2 0 0 1-2.93-2.05 1.14 1.14 0 0 1-.11-.86c.08-.29.27-.52.52-.67.23-.13.5-.17.76-.12.33.05.62.25.79.54.3.5.76.82 1.34.92a2.02 2.02 0 0 0 1.67-.48c.44-.4.66-.97.6-1.53a1.83 1.83 0 0 0-.81-1.45l-3.05-2.15a4.1 4.1 0 0 1-1.75-3.03 3.97 3.97 0 0 1 1.34-3.25 4.1 4.1 0 0 1 3.36-1.04c1.28.21 2.33.95 2.93 1.99a1.14 1.14 0 0 1-.41 1.53c-.24.13-.5.18-.77.13a1.13 1.13 0 0 1-.78-.54 1.81 1.81 0 0 0-1.29-.87 1.79 1.79 0 0 0-1.32 3.25l3.05 2.1a4.13 4.13 0 0 1 1.77 3.17 4 4 0 0 1-1.36 3.34 4.23 4.23 0 0 1-3.47 1.09l-.08-.03Zm8.76.03a1.14 1.14 0 0 1-.94-1.1V6.8a1.1 1.1 0 0 1 .7-1.04c.13-.06.28-.09.43-.08h.22c.54.11.91.56.91 1.12v5.51h2.15a4.42 4.42 0 0 1 4.07 2.7c.22.53.33 1.1.33 1.67v9.62a1.1 1.1 0 0 1-.83 1.08 1.13 1.13 0 0 1-1.42-1.09v-9.62a2.1 2.1 0 0 0-1.33-1.96c-.26-.1-.54-.16-.82-.16h-2.15V26.3a1.1 1.1 0 0 1-.83 1.09c-.16.04-.33.05-.5.02Zm15.55-12.97a2.16 2.16 0 0 0-2.32 1.2c-.13.28-.2.59-.2.9v6.5a2.1 2.1 0 0 0 1.32 1.97 2.14 2.14 0 0 0 2.97-1.97v-6.5c0-1.05-.74-1.93-1.78-2.1h.01Zm-1.15 12.89a4.4 4.4 0 0 1-3.63-4.3v-6.5a4.35 4.35 0 0 1 3.26-4.22 4.44 4.44 0 0 1 4.52 1.4 4.34 4.34 0 0 1 1.03 2.82v6.5a4.28 4.28 0 0 1-1.3 3.09 4.38 4.38 0 0 1-3.88 1.21ZM132.8 13.56a1.09 1.09 0 0 0-.1-.82 1.18 1.18 0 0 0-.75-.52 1.13 1.13 0 0 0-1.3.82c0 .05-1.22 4.93-2.17 8.64l-.02.07-.03-.07-2.18-8.63a1.05 1.05 0 0 0-.87-.83 1.2 1.2 0 0 0-.2-.03c-.5 0-.93.35-1.07.85-.01.05-1.23 4.93-2.18 8.64l-.02.07-.02-.07c-.93-3.71-2.18-8.59-2.18-8.64a1.1 1.1 0 0 0-1.43-.78 1.11 1.11 0 0 0-.72.76 1.1 1.1 0 0 0-.01.54l3.28 13a1.12 1.12 0 0 0 1.08.85c.53 0 .96-.35 1.06-.85l2.18-8.64.04-.07.02.07c.96 3.76 2.18 8.65 2.18 8.65a1.14 1.14 0 0 0 1.76.6c.2-.15.33-.36.38-.6l3.27-13.01Z" fill="#333545"/></svg>