<svg width="140" height="40" fill="none" xmlns="http://www.w3.org/2000/svg"><path d="M15.16 6.62V17.9H4.88V6.62H0v26.93h4.88V22.64h10.28v10.91h4.88V6.62h-4.88ZM35.66 24.85a4.09 4.09 0 0 1-4.04 4.07 4.02 4.02 0 0 1-4.03-4.07V13.3h-4.63v11.54c0 2.31.9 4.53 2.53 6.17a8.62 8.62 0 0 0 12.25 0 8.76 8.76 0 0 0 2.54-6.17V13.3h-4.62v11.54ZM69.96 14.5c0-2.36 1.56-3.11 3.26-3.11 1.37 0 3.18 1.05 4.36 2.32l3.03-3.6a9.53 9.53 0 0 0-7.1-3.49c-5.02 0-8.65 2.97-8.65 7.88 0 9.12 11.06 6.23 11.06 11.33 0 1.57-1.52 2.96-3.25 2.96-2.74 0-3.63-1.35-4.89-2.77l-3.36 3.52c2.15 2.67 4.8 4.02 7.99 4.02 4.77 0 8.6-3 8.6-7.7 0-10.12-11.05-6.97-11.05-11.36M138.37 29.25c-2.73 0-3.51-1.2-3.51-3.02v-8.08h4.25v-4.1h-4.25v-5.4l-4.7 2.11v16.48c0 4.21 2.89 6.33 6.84 6.33a9.4 9.4 0 0 0 1.85-.15l1.15-4.25c-.52.04-1.11.08-1.63.08M53.28 13.45c-2.29 0-3.89.67-5.44 2.2V6.78h-4.63v16.43c0 6.16 4.4 10.37 9.37 10.37 5.5 0 10.33-4.29 10.33-10.06 0-5.7-4.45-10.07-9.63-10.07Zm-.02 15.43a5.23 5.23 0 0 1-4.86-3.28 5.34 5.34 0 0 1 3.83-7.23 5.22 5.22 0 0 1 5.4 2.26 5.33 5.33 0 0 1-.65 6.7 5.24 5.24 0 0 1-3.72 1.55ZM103.63 23.27c0-5.79-4.83-10.06-10.34-10.06-4.95 0-9.37 4.21-9.37 10.36v16.44h4.64v-8.88a7.08 7.08 0 0 0 5.44 2.2c5.18 0 9.63-4.36 9.63-10.06Zm-4.39-.06a5.33 5.33 0 0 1-3.25 4.9 5.22 5.22 0 0 1-7.17-3.86 5.34 5.34 0 0 1 2.24-5.45 5.23 5.23 0 0 1 6.64.66c.99 1 1.54 2.35 1.54 3.75Z" fill="#33475B"/><path d="M118.61 12.98v-4.7a3.6 3.6 0 0 0 2.07-3.25v-.11a3.63 3.63 0 0 0-3.59-3.62h-.1a3.57 3.57 0 0 0-3.6 3.62v.1a3.65 3.65 0 0 0 2.08 3.26v4.7a10.12 10.12 0 0 0-4.83 2.14L97.86 5.1c.1-.33.14-.67.15-1.01A4.1 4.1 0 0 0 95.5.3a4.01 4.01 0 0 0-5.5 2.96 4.1 4.1 0 0 0 1.7 4.19 4.02 4.02 0 0 0 4.24.14l12.58 9.87a10.32 10.32 0 0 0 .16 11.57l-3.83 3.85a3.3 3.3 0 0 0-4.02 1.91 3.37 3.37 0 0 0 .72 3.65 3.31 3.31 0 0 0 5.5-3.33l3.8-3.82a10.17 10.17 0 0 0 15.6-4.11 10.38 10.38 0 0 0-3.56-12.5 10.16 10.16 0 0 0-4.29-1.71Zm-1.57 15.44a5.2 5.2 0 0 1-4.83-3.26 5.31 5.31 0 0 1 3.82-7.2 5.2 5.2 0 0 1 5.37 2.25 5.31 5.31 0 0 1-.65 6.66 5.22 5.22 0 0 1-3.7 1.55" fill="#FF7A59"/></svg>