<?xml version="1.0" standalone="no"?>
<!DOCTYPE svg PUBLIC "-//W3C//DTD SVG 20010904//EN"
 "http://www.w3.org/TR/2001/REC-SVG-20010904/DTD/svg10.dtd">
<svg version="1.0" xmlns="http://www.w3.org/2000/svg"
 width="700.000000pt" height="700.000000pt" viewBox="0 0 700.000000 700.000000"
 preserveAspectRatio="xMidYMid meet">
<metadata>
Created by potrace 1.14, written by Peter Selinger 2001-2017
</metadata>
<g transform="translate(0.000000,700.000000) scale(0.100000,-0.100000)"
fill="#000000" stroke="none">
<path d="M2693 6001 c-6 -3 -9 -124 -9 -284 1 -176 -3 -281 -9 -285 -5 -4
-451 -7 -990 -7 l-980 0 -3 -2216 -2 -2216 2800 0 2800 0 -2 2216 -3 2216
-975 1 c-536 1 -982 2 -990 3 -13 1 -15 40 -15 288 l0 288 -807 1 c-443 1
-810 -1 -815 -5z m1387 -298 c1 -94 1 -238 0 -260 0 -17 -34 -18 -577 -17
-318 1 -580 2 -583 3 -7 2 -5 324 2 336 4 7 211 10 582 10 l576 0 0 -72z
m1984 -1440 c-1 -511 -2 -930 -3 -933 -2 -9 -1729 -5 -1738 3 -4 5 -8 108 -8
230 l0 222 -816 3 -815 2 0 -230 c1 -145 -3 -231 -9 -233 -9 -3 -1723 -1
-1735 2 -4 1 -6 1850 -1 1859 0 1 1154 2 2564 2 l2562 0 -1 -927z m-1989 -711
c6 -4 10 -135 10 -350 l0 -342 -585 2 -584 3 -1 340 c0 187 1 343 2 347 5 9
1145 9 1158 0z m-1390 -694 l0 -233 815 0 815 0 1 225 c1 124 2 228 3 233 1 4
394 7 874 7 l872 0 0 -932 0 -933 -2565 0 -2565 0 0 933 -1 932 876 0 875 0 0
-232z"/>
</g>
</svg>
