<?xml version="1.0" standalone="no"?>
<!DOCTYPE svg PUBLIC "-//W3C//DTD SVG 20010904//EN"
 "http://www.w3.org/TR/2001/REC-SVG-20010904/DTD/svg10.dtd">
<svg version="1.0" xmlns="http://www.w3.org/2000/svg"
 width="1472.000000pt" height="1472.000000pt" viewBox="0 0 1472.000000 1472.000000"
 preserveAspectRatio="xMidYMid meet">
<metadata>
Created by potrace 1.14, written by Peter Selinger 2001-2017
</metadata>
<g transform="translate(0.000000,1472.000000) scale(0.100000,-0.100000)"
fill="#000000" stroke="none">
<path d="M593 10452 l-43 -3 0 -3145 0 -3144 768 2 767 3 0 1265 0 1265 110 5
c61 3 117 2 126 -2 9 -4 19 -5 23 -1 5 5 75 7 94 3 4 -1 12 -1 17 0 13 3 227
3 240 0 6 -1 13 -1 18 0 4 1 23 2 42 2 19 0 38 -1 43 -2 4 -1 11 -2 16 -1 11
2 431 2 442 0 5 -1 14 0 19 1 6 1 57 1 115 0 58 0 110 -1 115 -1 6 1 75 1 155
1 307 1 334 1 340 6 3 3 5 271 6 595 l0 589 -956 0 -956 0 0 663 1 662 1278 0
c844 0 1277 3 1278 10 4 45 3 1198 -1 1212 -5 17 -84 18 -2010 18 -1103 0
-2024 -1 -2047 -3z"/>
<path d="M5125 10452 c-1 -2 2 -22 7 -45 5 -23 11 -49 13 -57 2 -8 13 -51 25
-95 12 -44 23 -88 25 -98 2 -9 11 -45 21 -80 9 -34 18 -71 19 -82 2 -11 4 -20
5 -20 1 0 4 -11 6 -25 3 -14 14 -56 25 -95 12 -38 22 -79 24 -91 1 -11 5 -25
8 -31 3 -5 8 -20 10 -34 3 -13 13 -53 22 -89 9 -36 18 -72 20 -80 3 -16 36
-144 116 -460 28 -107 52 -205 55 -217 2 -12 9 -35 15 -50 6 -16 10 -29 9 -31
-4 -10 26 -122 33 -122 4 0 6 -4 3 -9 -3 -4 -1 -23 5 -42 6 -19 12 -43 14 -54
8 -33 13 -55 44 -175 53 -205 111 -434 116 -455 11 -48 16 -75 15 -77 -1 -2 4
-16 10 -33 7 -16 13 -37 15 -45 2 -8 10 -42 19 -75 9 -33 18 -69 20 -80 2 -11
9 -40 16 -65 7 -25 14 -52 16 -60 2 -8 8 -33 14 -55 6 -22 12 -47 15 -55 2 -8
15 -62 30 -120 14 -58 27 -109 29 -115 1 -5 9 -37 16 -70 15 -67 15 -64 22
-85 6 -15 44 -165 53 -207 3 -13 7 -31 10 -40 6 -24 25 -94 29 -113 3 -8 9
-35 15 -60 7 -25 13 -52 16 -60 19 -73 37 -143 41 -160 2 -11 6 -28 9 -37 32
-123 47 -182 51 -202 3 -14 14 -57 25 -97 11 -40 22 -81 23 -91 2 -10 20 -80
40 -155 19 -76 38 -148 40 -160 3 -13 10 -41 16 -63 14 -54 17 -63 29 -115 7
-25 13 -52 15 -60 10 -38 29 -111 46 -180 10 -41 27 -109 39 -150 11 -41 22
-86 25 -100 3 -14 19 -76 36 -139 17 -63 32 -124 35 -135 2 -12 18 -75 35
-141 17 -66 33 -129 35 -140 10 -42 15 -62 31 -120 9 -33 17 -67 19 -75 2 -13
114 -15 928 -18 892 -2 927 -1 936 16 9 17 13 32 27 102 2 14 12 50 20 80 9
30 18 66 21 79 2 14 18 77 34 140 17 64 32 127 35 141 3 14 7 33 10 42 3 9 7
25 9 35 3 10 14 54 25 98 12 44 23 91 26 104 3 14 14 56 24 95 11 39 22 82 24
96 3 14 28 115 56 225 28 110 52 209 55 220 2 11 4 21 6 23 2 3 2 3 19 77 16
70 13 60 28 110 6 22 13 51 16 65 2 14 5 25 6 25 1 0 3 7 5 15 1 8 15 62 30
120 15 58 28 112 30 120 2 8 11 44 20 80 9 36 18 72 20 80 2 8 11 44 20 80 9
36 18 72 20 80 2 8 20 80 40 160 20 80 38 153 40 163 2 10 7 28 11 40 4 12 9
29 10 37 4 23 5 29 145 580 71 283 131 524 133 535 2 11 4 20 5 20 2 0 4 7 6
15 2 8 6 26 9 40 11 54 14 67 26 110 7 25 13 50 14 57 1 7 4 15 7 17 5 6 80
-289 115 -454 2 -14 8 -34 11 -45 7 -21 8 -25 16 -65 3 -14 17 -72 32 -130 15
-58 28 -112 30 -120 2 -8 8 -35 14 -60 7 -25 14 -56 17 -70 3 -14 28 -115 55
-225 28 -110 51 -207 51 -215 0 -8 3 -24 8 -35 9 -22 39 -142 47 -190 7 -38 9
-46 16 -65 3 -8 8 -26 10 -40 3 -14 8 -35 11 -47 3 -13 8 -31 10 -40 9 -38 49
-204 77 -318 17 -66 32 -129 35 -140 9 -46 13 -62 23 -93 5 -18 10 -36 11 -40
3 -20 13 -63 26 -116 9 -32 18 -71 20 -85 6 -30 20 -92 34 -141 5 -19 28 -111
50 -205 23 -93 50 -207 61 -251 11 -45 22 -88 23 -95 2 -8 6 -25 9 -39 6 -24
112 -460 157 -645 12 -49 24 -101 27 -115 2 -14 8 -28 12 -33 4 -4 423 -6 932
-5 l924 3 23 85 c13 47 25 94 27 105 4 17 14 61 21 88 1 4 3 9 4 12 4 7 6 16
15 60 4 22 11 47 15 55 5 8 11 31 14 50 3 19 10 51 16 70 6 19 13 42 15 50 1
8 9 35 15 60 7 25 14 52 15 60 1 8 5 22 8 30 4 8 29 103 56 210 28 107 71 274
96 370 25 96 48 186 51 200 2 14 9 36 14 50 4 14 14 50 21 80 7 30 14 57 14
60 1 3 5 19 9 35 4 17 10 37 13 45 3 8 8 24 10 35 2 11 20 80 39 153 20 74 38
144 40 156 9 38 12 51 14 51 1 0 3 7 5 15 1 8 15 60 29 115 15 55 29 111 32
124 3 14 14 58 25 98 11 41 23 86 25 100 3 14 9 34 15 45 5 10 8 18 5 18 -3 0
0 15 5 33 6 17 12 39 14 47 1 8 13 51 25 95 12 44 25 96 30 115 4 19 18 71 30
115 22 82 27 102 36 145 3 14 14 54 25 90 10 36 20 74 22 85 2 11 9 40 16 65
7 25 15 53 17 62 10 44 13 55 23 81 6 15 9 27 6 27 -2 0 1 15 6 33 10 30 14
45 23 85 3 9 14 53 26 97 11 44 22 87 24 95 2 8 10 35 17 60 7 25 13 50 15 55
1 6 27 109 59 230 31 121 58 227 60 235 2 8 19 74 38 145 36 134 48 183 52
200 2 6 10 37 19 70 9 33 19 68 21 78 2 9 11 45 20 80 9 34 18 67 19 72 1 6 5
16 9 23 5 6 6 12 3 12 -2 0 5 33 16 73 11 39 22 81 24 92 1 11 17 70 34 130
16 61 33 123 36 139 2 16 7 32 9 36 2 3 6 17 9 31 7 36 14 60 26 99 6 19 13
51 16 70 3 19 10 43 15 53 5 9 8 17 5 17 -3 0 2 16 10 35 8 19 12 35 10 35 -3
0 1 18 9 40 8 22 12 40 10 40 -2 0 2 18 10 39 7 22 16 55 19 73 3 19 8 42 12
51 4 12 1 17 -12 17 -137 3 -1627 0 -1630 -3 -5 -4 -11 -29 -20 -77 -2 -14 -7
-36 -10 -50 -3 -14 -7 -36 -9 -50 -2 -14 -20 -104 -40 -200 -20 -96 -38 -186
-40 -200 -2 -14 -6 -34 -9 -45 -2 -11 -14 -69 -26 -130 -12 -60 -24 -119 -26
-130 -3 -11 -7 -31 -10 -45 -2 -14 -7 -36 -10 -50 -3 -14 -8 -36 -10 -50 -2
-14 -6 -36 -9 -50 -3 -14 -8 -38 -11 -55 -3 -16 -9 -48 -14 -70 -5 -22 -11
-53 -14 -70 -3 -16 -15 -73 -26 -125 -11 -52 -23 -111 -25 -130 -3 -19 -8 -42
-10 -50 -2 -8 -7 -31 -11 -50 -12 -70 -40 -213 -49 -250 -3 -14 -8 -36 -10
-50 -4 -27 -21 -109 -30 -150 -8 -35 -25 -119 -31 -155 -2 -16 -7 -37 -10 -46
-2 -10 -7 -30 -9 -45 -5 -38 -27 -147 -51 -259 -5 -25 -12 -60 -19 -100 -7
-34 -44 -219 -51 -250 -2 -11 -6 -31 -9 -45 -8 -43 -14 -74 -20 -100 -10 -45
-15 -74 -21 -110 -3 -19 -8 -38 -9 -41 -2 -3 -7 -28 -11 -55 -3 -27 -8 -52
-10 -55 -2 -3 -6 -19 -8 -35 -3 -16 -8 -40 -11 -54 -3 -14 -8 -41 -11 -60 -3
-19 -7 -42 -9 -50 -2 -8 -7 -31 -10 -50 -3 -19 -11 -55 -16 -80 -13 -55 -18
-77 -24 -110 -9 -49 -15 -75 -21 -105 -4 -16 -8 -39 -10 -50 -3 -21 -5 -28
-34 -175 -11 -52 -22 -110 -25 -129 -3 -19 -8 -37 -10 -41 -3 -4 -6 -22 -9
-41 -2 -19 -8 -47 -12 -64 -4 -16 -8 -41 -10 -55 -1 -14 -3 -25 -4 -25 -1 0
-4 -11 -7 -25 -2 -14 -6 -32 -8 -40 -2 -8 -4 -22 -5 -30 -2 -20 -16 17 -25 61
-3 19 -8 48 -11 64 -3 17 -10 38 -15 48 -5 9 -8 17 -5 17 3 0 -1 21 -9 47 -8
26 -12 49 -10 51 2 2 -1 15 -6 29 -8 21 -33 123 -54 219 -3 12 -18 77 -34 145
-17 68 -32 135 -35 149 -2 14 -16 75 -31 135 -37 152 -36 147 -42 180 -3 17
-9 38 -14 48 -5 9 -8 17 -5 17 3 0 -3 30 -20 95 -3 11 -7 29 -9 40 -2 11 -8
38 -14 60 -5 22 -12 51 -15 65 -6 31 -10 47 -31 130 -9 36 -18 76 -21 90 -3
14 -21 90 -40 170 -20 80 -37 154 -39 165 -5 26 -20 91 -45 195 -11 47 -23 96
-26 110 -3 14 -9 42 -15 63 -6 21 -12 50 -14 65 -2 15 -15 70 -29 122 -21 83
-82 342 -90 381 -2 8 -6 25 -9 39 -15 57 -77 321 -82 347 -2 15 -9 43 -14 61
-5 17 -8 32 -6 32 3 0 0 11 -5 26 -6 14 -12 38 -15 55 -3 16 -12 55 -20 87 -9
31 -18 73 -21 92 -3 19 -10 43 -15 53 -5 9 -8 17 -5 17 2 0 0 16 -6 36 -5 20
-11 44 -13 53 -2 9 -11 46 -19 84 -9 37 -23 97 -32 135 -8 37 -17 75 -19 85
-2 10 -7 27 -10 37 -3 10 -8 29 -10 42 -4 20 -47 203 -62 263 -3 11 -6 28 -6
38 -1 14 -12 17 -67 17 -662 4 -1614 0 -1620 -7 -6 -7 -51 -178 -65 -248 -2
-11 -11 -48 -20 -82 -9 -35 -18 -72 -21 -83 -9 -40 -13 -57 -34 -140 -12 -47
-23 -89 -24 -95 -6 -25 -30 -131 -31 -135 -9 -32 -105 -421 -110 -450 -2 -8
-4 -15 -5 -15 -1 0 -4 -11 -6 -24 -2 -14 -12 -52 -20 -85 -9 -34 -18 -71 -20
-83 -2 -12 -9 -35 -15 -50 -6 -16 -10 -29 -9 -31 1 -1 -4 -27 -10 -57 -6 -30
-10 -56 -9 -57 1 -2 -3 -12 -9 -24 -6 -11 -14 -33 -17 -47 -3 -15 -7 -39 -10
-53 -3 -14 -17 -71 -31 -127 -14 -56 -27 -113 -30 -127 -3 -14 -10 -43 -16
-65 -6 -22 -12 -44 -14 -50 -14 -64 -48 -202 -60 -249 -9 -32 -18 -71 -20 -85
-3 -14 -9 -40 -15 -58 -5 -17 -12 -44 -15 -60 -8 -41 -10 -46 -17 -68 -3 -11
-9 -31 -11 -45 -3 -14 -12 -52 -21 -85 -16 -66 -22 -91 -30 -132 -3 -16 -9
-37 -12 -48 -9 -26 -11 -34 -18 -70 -3 -16 -10 -43 -15 -60 -5 -16 -11 -41
-14 -55 -2 -14 -11 -52 -20 -86 -8 -33 -18 -71 -20 -85 -2 -13 -5 -24 -6 -24
-2 0 -5 -13 -14 -51 -2 -12 -25 -105 -50 -207 -25 -102 -48 -196 -50 -209 -3
-13 -5 -24 -7 -25 -1 -2 -2 -6 -3 -10 -8 -31 -17 -71 -21 -88 -2 -11 -18 -76
-35 -145 -17 -69 -33 -132 -35 -140 -2 -8 -19 -80 -39 -160 -20 -80 -36 -153
-36 -162 0 -10 -4 -18 -10 -18 -5 0 -10 8 -11 18 0 9 -2 24 -4 32 -2 8 -6 24
-8 35 -6 23 -46 227 -53 265 -2 14 -7 36 -9 50 -3 14 -7 36 -10 50 -3 14 -10
50 -16 80 -6 30 -15 75 -20 100 -5 25 -12 59 -15 75 -3 17 -7 39 -9 50 -1 11
-5 31 -9 45 -3 14 -8 36 -10 50 -2 14 -7 36 -10 50 -3 14 -8 36 -10 50 -3 14
-7 36 -10 50 -3 14 -8 39 -11 55 -11 68 -20 113 -36 183 -5 23 -12 59 -15 80
-4 20 -7 42 -8 47 -24 111 -28 131 -41 203 -3 15 -10 48 -16 74 -6 25 -12 57
-14 70 -2 12 -9 50 -15 83 -17 86 -18 90 -20 90 -1 0 -3 11 -4 25 -4 30 -15
89 -22 111 -2 9 -7 32 -9 50 -3 19 -7 45 -10 59 -12 52 -37 176 -39 195 -2 11
-6 29 -9 40 -3 11 -9 36 -12 55 -3 19 -8 46 -10 60 -8 40 -15 73 -20 100 -5
25 -10 51 -20 100 -2 14 -7 36 -9 50 -3 14 -19 95 -36 180 -17 85 -33 166 -35
180 -3 14 -7 36 -10 50 -5 22 -15 71 -30 150 -3 14 -10 50 -16 80 -25 124 -29
146 -34 173 -3 15 -7 38 -10 52 -3 14 -7 36 -10 50 -3 14 -8 37 -11 53 -3 15
-7 36 -9 47 -1 11 -13 70 -25 130 -21 106 -27 137 -33 180 -2 12 -7 26 -11 33
-4 7 -5 12 -2 12 2 0 -2 28 -10 62 -8 35 -17 78 -20 98 -6 34 -18 95 -27 135
-3 11 -11 53 -18 93 l-13 72 -41 0 c-324 3 -1597 4 -1600 2z"/>
</g>
</svg>
