<svg width="25" height="24" fill="none" xmlns="http://www.w3.org/2000/svg"><rect x="1" y=".5" width="23" height="23" rx="11.5" stroke="#515458"/><path d="M17.26 16.5c-.57-.02-1.13-.02-1.7 0-.13 0-.16-.03-.16-.15v-3.06c0-.23-.01-.46-.08-.68a1 1 0 0 0-1.62-.5c-.31.25-.44.6-.44 1v3.26c.02.11-.04.14-.13.13h-1.76c-.1 0-.13-.03-.13-.14l.01-2.6-.01-3.2c0-.12.02-.14.13-.14h1.76c.1 0 .13.02.13.13v.7l.07-.07c.54-.78 1.29-1 2.18-.86 1.03.17 1.68.88 1.85 1.97.04.26.05.52.05.78v3.28c0 .1-.02.15-.15.15ZM10.14 13.46v2.87c0 .13-.03.17-.15.17-.57-.02-1.15 0-1.72 0-.11 0-.14-.03-.14-.14v-5.8c0-.1.03-.14.14-.14h1.76c.13 0 .14.04.14.15-.03.96-.03 1.91-.03 2.89ZM10.24 8.83c-.14.55-.7.86-1.34.75a1.05 1.05 0 0 1-.82-1.44c.16-.4.56-.65 1.06-.64.77-.01 1.28.6 1.1 1.33Z" fill="#515458"/></svg>