<svg width="25" height="24" fill="none" xmlns="http://www.w3.org/2000/svg"><rect x="1" y=".5" width="23" height="23" rx="11.5" stroke="#515458"/><path d="M16.86 9.75v.29c0 3-2.21 6.46-6.24 6.46-1.24 0-2.4-.38-3.37-1.01l.52.02c1.02 0 1.97-.36 2.73-.97a2.18 2.18 0 0 1-2.05-1.58 1.96 1.96 0 0 0 1-.04c-1.01-.2-1.77-1.12-1.77-2.22v-.03c.3.18.63.28 1 .3a2.3 2.3 0 0 1-.98-1.9c0-.43.11-.82.3-1.15a6.17 6.17 0 0 0 4.51 2.38 2.13 2.13 0 0 1-.06-.52c0-1.27.98-2.28 2.2-2.28.63 0 1.2.28 1.6.71.5-.1.96-.29 1.4-.55-.17.54-.52.97-.97 1.26.45-.06.87-.17 1.26-.36a4.1 4.1 0 0 1-1.08 1.19Z" fill="#515458"/></svg>