<svg width="76" height="76" fill="none" xmlns="http://www.w3.org/2000/svg"><path d="M56.39 9.8H30.65V7.36h1.22c.68 0 1.23-.54 1.23-1.22v-4.9C33.1.55 32.55 0 31.87 0H14.71c-.68 0-1.23.55-1.23 1.23v4.9c0 .68.55 1.22 1.23 1.22h1.23v3.3a8.58 8.58 0 0 0-4.9 7.74v49.03A8.6 8.6 0 0 0 19.6 76H56.4a8.6 8.6 0 0 0 8.58-8.58V18.39a8.6 8.6 0 0 0-8.58-8.58Zm6.13 8.59v19.1l-4.9-4.9V20.84a3.68 3.68 0 0 0-3.68-3.68H42.18l-4.9-4.9h19.1a6.14 6.14 0 0 1 6.14 6.13Zm-7.36 11.75L44.64 19.6h9.3c.67 0 1.22.55 1.22 1.23v9.3ZM15.94 2.45h14.7V4.9h-14.7V2.45Zm2.45 4.9h9.8v2.46h-8.58c-.41 0-.82.04-1.22.1V7.34Zm38 66.2H19.6a6.14 6.14 0 0 1-6.13-6.13V18.39a6.14 6.14 0 0 1 6.13-6.13h14.2l28.7 28.7v26.46a6.14 6.14 0 0 1-6.12 6.13Z" fill="#fff"/><path d="M32.74 15.07a1.22 1.22 0 0 0-.87-.36H20.84a4.9 4.9 0 0 0-4.9 4.9V66.2c0 2.7 2.2 4.9 4.9 4.9h34.32c2.7 0 4.9-2.2 4.9-4.9V42.9c0-.32-.12-.63-.35-.86L32.74 15.07ZM57.6 66.19c0 1.36-1.1 2.45-2.45 2.45H20.84a2.45 2.45 0 0 1-2.45-2.45V19.61c0-1.35 1.1-2.45 2.45-2.45h10.52l26.25 26.25V66.2Z" fill="#fff"/><path d="M28.2 54.85c0 4.53 3.24 8.32 7.54 8.83a8.6 8.6 0 0 0 9.62-8.52v-.3c0-2.42-.61-4.8-1.77-6.92L37.85 37.4c-.43-.79-1.72-.79-2.15 0l-5.74 10.53a14.48 14.48 0 0 0-1.77 6.91Zm3.9-5.74 4.67-8.55 4.67 8.55a12.01 12.01 0 0 1 1.46 5.74v.31a6.13 6.13 0 0 1-6.88 6.09c-3.01-.36-5.37-3.17-5.37-6.4 0-2 .5-3.98 1.46-5.74Z" fill="#fff"/><path d="M41.68 55.16h-2.45c0 1.35-1.1 2.45-2.46 2.45v2.45c2.7 0 4.9-2.2 4.9-4.9Z" fill="#fff"/></svg>