<svg width="76" height="76" fill="none" xmlns="http://www.w3.org/2000/svg"><path d="m45.14 43.14.42-2.34 4.67.83-.4 2.33-4.69-.82ZM61.9 61.66l1.2-.44-.8-2.23-1.22.44a7.12 7.12 0 0 0-.77-1.1l.84-.99-1.83-1.53-.83 1c-.38-.23-.79-.42-1.21-.57l.22-1.28-2.33-.4-.23 1.26c-.45 0-.9.04-1.33.12l-.44-1.2-2.24.8.44 1.21-.57.36c-.18.13-.33.29-.5.43l-1.01-.85-1.53 1.82 1 .84a7 7 0 0 0-.57 1.21l-1.28-.23-.42 2.34 1.28.23c0 .44.04.9.12 1.33l-1.22.44.81 2.24 1.22-.45c.22.4.48.76.77 1.1l-.84 1 1.82 1.52.83-1c.39.23.8.42 1.22.57l-.23 1.28 2.34.4.23-1.27h.07c.42 0 .85-.04 1.27-.12l.44 1.22 2.23-.81-.45-1.23c.2-.11.4-.21.58-.34.18-.13.33-.3.5-.43l1.02.84 1.52-1.81-1-.84c.23-.39.42-.8.57-1.21l1.28.23.41-2.34-1.27-.23c0-.44-.04-.89-.12-1.33Zm-7.02-3.46a4.72 4.72 0 1 1-3.26 1.31 4.72 4.72 0 0 1 3.27-1.32Z" fill="#fff"/><path d="m53.54 63.9.41-2.33 2.34.41-.41 2.34-2.34-.41Z" fill="#fff"/><path d="M71.6 43.04a8.26 8.26 0 0 0-5.36-3.42l-4.05-.7-7.33-16.7a5.93 5.93 0 0 0-4.4-3.47L20.2 13.42a5.95 5.95 0 0 0-6.87 4.81L8.18 47.48a3.56 3.56 0 0 0 2.9 4.12l.97.18a1.19 1.19 0 0 0 1.2-.52 10.68 10.68 0 0 1 19.28 3.4 1.19 1.19 0 0 0 .95.9l4.21.74-3.15 7.36a1.19 1.19 0 0 0 0 .93l2.85 6.66h-5.33v2.38h14.25v-2.38H41l2.85-6.66a1.19 1.19 0 0 0 0-.93l-2.91-6.8 3.87.69a1.18 1.18 0 0 0 1.19-.51 10.68 10.68 0 0 1 19.28 3.4 1.19 1.19 0 0 0 .95.89l.98.17a3.56 3.56 0 0 0 4.13-2.89l1.65-9.35a8.26 8.26 0 0 0-1.37-6.22Zm-34.17 19.9 1.76-4.11 1.76 4.1h-3.52Zm3.52 2.37-1.76 4.11-1.76-4.1h3.52Zm11.74-42.14 6.69 15.24-15.36-2.7 2.68-15.2 3.34.6a3.55 3.55 0 0 1 2.65 2.06Zm-37.01-4.52a3.56 3.56 0 0 1 4.12-2.89l24.56 4.33-2.68 15.2-28.07-4.94 2.07-11.7Zm-3.3 18.71 1.16.2-.4 2.35-1.18-.2.41-2.35Zm-.66 11.95-.23-.05a1.2 1.2 0 0 1-.97-1.37l.2-1.17 3 .52c-.74.62-1.41 1.3-2 2.07Zm12.7-5a13.06 13.06 0 0 0-10.07 2.4l.3-1.71-3.51-.62.41-2.34 1.17.2a2.37 2.37 0 0 0 2.75-1.93l.41-2.33a2.37 2.37 0 0 0-1.92-2.75l-1.17-.2.41-2.34 28.07 4.94-2.89 16.38-3.75-.67a13.06 13.06 0 0 0-10.21-9.03Zm32.74 5.77a13.05 13.05 0 0 0-12.69 5l-3.75-.66 2.89-16.37 22.22 3.92a5.9 5.9 0 0 1 4.23 3.16l-3.48-.62a2.37 2.37 0 0 0-2.75 1.92l-.41 2.34a2.38 2.38 0 0 0 1.92 2.75l4.68.83-.4 2.34-3.52-.62-.3 1.71a13.04 13.04 0 0 0-8.64-5.7Zm13.48-1.24-.2 1.17-4.68-.83.41-2.34 4.56.8c.01.4-.02.8-.09 1.2Zm-3.02 10.32-.24-.04c-.29-.91-.68-1.79-1.16-2.61l2.98.52-.2 1.17a1.19 1.19 0 0 1-1.38.96Z" fill="#fff"/><path d="M20.19 61.75H5.94a3.56 3.56 0 0 0-3.57 3.56v4.75a3.56 3.56 0 0 0 3.57 3.56h14.25a3.56 3.56 0 0 0 3.56-3.56v-4.75a3.56 3.56 0 0 0-3.56-3.56Zm-2.45 6.08-.85 3.42h-2.3l.81-3.27c.07-.28.04-.57-.09-.82l-1.51-3.03h2.1l1.84 3.7Zm-7.17-.67-1.52-3.03h2.1l1.84 3.7-.85 3.42h-2.3l.81-3.27c.07-.28.04-.57-.08-.82Zm-5.82 2.9v-4.75a1.19 1.19 0 0 1 1.19-1.19h.45l1.85 3.7-.85 3.43H5.94a1.19 1.19 0 0 1-1.19-1.19Zm16.63 0a1.19 1.19 0 0 1-1.2 1.19h-.85l.82-3.27c.07-.28.04-.57-.09-.82l-1.51-3.03h1.64a1.19 1.19 0 0 1 1.18 1.18v4.75ZM10.69 54.63h2.37v4.74H10.7v-4.74ZM15.47 59.12l1.2-4.75 2.3.57-1.2 4.75-2.3-.57ZM4.81 54.9l2.3-.57 1.2 4.74-2.31.58-1.19-4.75Z" fill="#fff"/></svg>