<svg width="76" height="76" fill="none" xmlns="http://www.w3.org/2000/svg"><path d="M64.97 31.87h-23.3v-2.45h1.93l6.07-10.12A12.75 12.75 0 0 0 38.74 0h-1.48a12.76 12.76 0 0 0-10.93 19.3l6.07 10.12h1.92v2.45H11.03a3.68 3.68 0 0 0-3.68 3.68v36.77A3.68 3.68 0 0 0 11.03 76h53.94a3.68 3.68 0 0 0 3.68-3.68V35.55a3.68 3.68 0 0 0-3.68-3.68ZM44.13 73.55h-4.9V61.29h7.35v-7.35h4.9v-9.81h-9.8v-4.9h19.61v12.25h-4.9v7.36h-4.9v7.35h-7.36v7.36Zm4.9-60.8c0 .82-.11 1.63-.3 2.42A11.04 11.04 0 0 1 41.67 4.9V2.88a10.3 10.3 0 0 1 7.35 9.86Zm-14.7-9.87V4.9c0 4.58-2.86 8.64-7.05 10.27a10.3 10.3 0 0 1 7.05-12.29Zm-5.9 15.16-.29-.57A13.5 13.5 0 0 0 36.77 4.9V2.48c.17-.01.33-.03.5-.03h1.47l.49.03V4.9a13.5 13.5 0 0 0 8.63 12.56c-.1.2-.18.4-.3.58l-5.35 8.93h-8.42l-5.36-8.93Zm10.8 11.38v14.7h-2.46v-14.7h2.46Zm-4.9 14.7h-4.91v-4.9h4.9v4.9ZM9.8 72.33V35.55c0-.68.55-1.23 1.22-1.23h23.3v2.45h-7.36v9.81h22.06v4.9h-4.9v7.36h-7.36v14.7H11.03c-.67 0-1.22-.54-1.22-1.22Zm56.38 0c0 .68-.55 1.23-1.22 1.23H46.58v-4.9h7.36v-7.36h4.9v-7.35h4.9V36.77H41.68v-2.45h23.29c.67 0 1.22.55 1.22 1.23v36.77Z" fill="#fff"/><path d="M12.26 46.58h12.26v-9.8H12.26v9.8Zm2.45-7.35h7.35v4.9h-7.35v-4.9ZM12.26 71.1h9.8V49.03h-9.8V71.1Zm2.45-2.45v-2.46h4.9v2.46h-4.9Zm4.9-7.36v2.45h-4.9V61.3h4.9Zm-4.9-2.45v-2.45h4.9v2.45h-4.9Zm4.9-7.36v2.46h-4.9v-2.46h4.9Z" fill="#fff"/></svg>