<svg width="76" height="76" fill="none" xmlns="http://www.w3.org/2000/svg"><g clip-path="url(#a)" fill="#fff"><path d="M17.17 56.39h2.45v2.45h-2.45v-2.45Z"/><path d="M71 9.19 48.74.29a4.06 4.06 0 0 0-5.23 2.26l-1.56 3.88a4.06 4.06 0 0 0 .42 3.72L38.8 18.4h-1.58l-3.58-8.23a4.05 4.05 0 0 0 .41-3.76L32.5 2.56A4 4 0 0 0 27.24.29L5.01 9.19a4.03 4.03 0 0 0-2.27 5.26l1.55 3.84a4.02 4.02 0 0 0 3.48 2.53l11.2 25.76h-3.03a3.68 3.68 0 0 0-2.6 6.26c.22.24.48.42.76.58a6.32 6.32 0 0 0-1.65 5.8L16.18 76H54.9l5.33-22.17a9.75 9.75 0 0 0 8.42-9.7 9.8 9.8 0 0 0-6.53-9.23l6.11-14.08a4.02 4.02 0 0 0 3.5-2.52l1.55-3.88A4.02 4.02 0 0 0 71 9.19Zm-28.63 7.14 3.74 1.57.95-2.26-3.71-1.56 1.02-2.36 21.42 8.57-1.2 2.74-15.25-6.42-.95 2.26 15.23 6.41-1.2 2.77-14.63-6.15a3.67 3.67 0 0 0-3.66-3.5h-2.66l.9-2.07ZM29.45 48.6a7.35 7.35 0 1 1 12.2 8.22 7.35 7.35 0 0 1-12.2-8.22Zm2.43-5.7c-1.44 0-2.71-.8-3.32-2.1-.06-.11-.08-.23-.12-.35h14.24a3.65 3.65 0 0 1-3.45 2.46h-7.35Zm-13-2.7 4.71-1.97c.42.96 1.24 1.7 2.25 2.03l.08.4-5.79 2.44-1.25-2.9Zm25.25-19.36c.68 0 1.23.55 1.23 1.23v6.13H34.33a3.68 3.68 0 0 0 0 7.35h11.03v1.23c0 .67-.55 1.22-1.23 1.22H26.97c-.67 0-1.22-.55-1.22-1.22v-6.2c0-.58.13-1.14.38-1.64l3.03-6.06a3.72 3.72 0 0 1 3.3-2.04h11.67Zm5.23 25.74h-6.17a9.77 9.77 0 0 0-1.7-1.66 6.07 6.07 0 0 0 3.53-3.73l4.1 1.72a9.4 9.4 0 0 0 .24 3.67Zm-4-13.48H34.33a1.2 1.2 0 0 1-.88-.37 1.17 1.17 0 0 1-.35-.85c0-.68.55-1.23 1.23-1.23h11.03v2.45Zm-21.42-5.26a6 6 0 0 0-.6 2.05l-7.57 3.18-1.2-2.77 10.31-4.34-.94 1.88Zm-.64 4.73v3.12l-5.4 2.27-1.15-2.64 6.55-2.75Zm21.32 16.46h5.75a9.73 9.73 0 0 0 2.12 2.55l-1.85 4.8h-6.02c.47-1.15.74-2.39.74-3.67 0-1.28-.27-2.51-.74-3.68Zm5.13-8.51-2.94-1.24c.62-.66 1-1.53 1-2.5v-.5l3.58 1.51a9.7 9.7 0 0 0-1.64 2.73Zm3.68-4.53-5.62-2.37V30.5l9.41 3.96a9.56 9.56 0 0 0-3.79 1.53Zm6.8-2.92-12.42-5.23v-3.27l13.63 5.73-1.2 2.77ZM32.46 18.39a6.2 6.2 0 0 0-5.48 3.4l-.4.8-12.98 5.46-1.2-2.77 21.25-8.95.9 2.06h-2.09Zm-25.89-1-1.53-3.82a1.59 1.59 0 0 1 .89-2.1l22.2-8.9c.94-.34 1.79.1 2.1.9l1.54 3.82a1.58 1.58 0 0 1-.88 2.1l-3.15 1.25.9 2.27 3-1.2 1.04 2.38-21.26 8.95-1.2-2.75 16-6.4-.92-2.27-16.64 6.66-.25.08c-.77.1-1.55-.25-1.84-.98Zm14.55 27.96 5.86-2.47a6 6 0 0 0 2.65 2.04 9.78 9.78 0 0 0-1.7 1.66h-6.27l-.54-1.23Zm31.86 28.2H18.15l-3.3-14.87a3.9 3.9 0 0 1 7.4-2.35l5.13 12.32h7.17a3.67 3.67 0 0 0 7.13-1.23c0-.15-.03-.3-.04-.44l4.27-2.14-1.1-2.2-4.26 2.14a3.66 3.66 0 0 0-6 1.41h-5.54l-4.5-10.8a6.33 6.33 0 0 0-5.86-3.9h-2.7a1.2 1.2 0 0 1-.88-.38 1.17 1.17 0 0 1-.35-.85c0-.67.55-1.23 1.22-1.23h10.54a9.77 9.77 0 0 0-.73 3.68 9.78 9.78 0 0 0 17.44 6.13h9.14l5.89-15.32a.96.96 0 0 1 1.82.57l-7.07 29.46Zm-16.2-6.13a1.23 1.23 0 0 1 2.46 0 1.23 1.23 0 0 1-2.45 0ZM66.2 44.13a7.3 7.3 0 0 1-5.33 7.06l1.57-6.54a3.41 3.41 0 0 0-6.5-2.01l-2.49 6.47a7.3 7.3 0 0 1-1.95-4.98 7.25 7.25 0 0 1 2.83-5.8 7.22 7.22 0 0 1 5.92-1.41 7.35 7.35 0 0 1 5.95 7.21Zm4.8-30.6-1.55 3.86c-.24.6-.82 1-1.48 1l-.29-.02a2.01 2.01 0 0 1-.3-.09l-22.22-8.9a1.64 1.64 0 0 1-.5-.3l-.01-.01a1.58 1.58 0 0 1-.4-1.76l1.55-3.85a1.59 1.59 0 0 1 2.07-.9l22.23 8.9a1.59 1.59 0 0 1 .9 2.08Z"/><path d="M38 52.71c0 .36-.08.7-.25 1.06l2.22 1.05a4.88 4.88 0 0 0-6.52-6.53l1.05 2.22c1.68-.8 3.5.5 3.5 2.2ZM35.55 57.61c.72 0 1.43-.16 2.1-.48l-1.04-2.22c-1.69.8-3.5-.49-3.5-2.2 0-.36.07-.7.24-1.05l-2.22-1.05a4.88 4.88 0 0 0 4.42 7ZM40.45 23.3h2.46v2.45h-2.46V23.3ZM35.55 23.3H38v2.45h-2.45V23.3ZM30.65 23.3h2.45v2.45h-2.45V23.3Z"/></g><defs><clipPath id="a"><path fill="#fff" d="M0 0h76v76H0z"/></clipPath></defs></svg>