<svg width="63" height="63" fill="none" xmlns="http://www.w3.org/2000/svg"><g clip-path="url(#a)"><path d="M49.21 29.43V12.8L24.62.5 0 12.8v16.3a30.47 30.47 0 0 0 13.59 25.4l11.02 7.34 8.49-5.66A16.72 16.72 0 1 0 49.2 29.43Zm-24.6 30.04-9.93-6.61A28.5 28.5 0 0 1 1.97 29.1V14L24.6 2.7l22.64 11.32v15.2c-.33-.02-.65-.05-.98-.05-.34 0-.66.03-.99.05V15.23L24.61 4.89 3.94 15.23V29.1c-.01 8.89 4.43 17.2 11.83 22.12l8.84 5.88 6.44-4.29c.27.6.59 1.19.93 1.75l-7.37 4.91Zm5.7-8.53-5.7 3.8-7.74-5.16c-.38-.26-.75-.52-1.12-.8v-8.8h-1.97v7.15c-1.08-1-2.07-2.1-2.95-3.28v-5.72c0-1.35.92-2.53 2.23-2.86l6.68-1.68a4.92 4.92 0 0 0 3.88 4.33v4.03h1.97v-4.03a4.91 4.91 0 0 0 3.89-4.33l4.38 1.1c-4 4.4-5.35 10.59-3.55 16.25ZM19.7 21.28h2.72c1.52 0 3.02-.34 4.4-.98h.26l2.46 3.28v4.1l-3.28 2.46h-3.28l-3.28-2.46v-6.4Zm-1.89-1.97c.2-1.23.99-2.3 2.1-2.84a9.94 9.94 0 0 1 6.92-.44l.23.33h1.5c.54 0 .98.44.98.98v2.96l-1.48-1.97h-1.7l-.21.1a8.4 8.4 0 0 1-3.73.88H17.8Zm9.76 12.3v1.48a2.95 2.95 0 0 1-5.9 0v-1.47l.65.49h4.6l.65-.5Zm1.97-.03v-1.44l1.97-1.48V17.34a2.95 2.95 0 0 0-2.95-2.95h-.66c-1.42-.87-4.97-1.04-7.48-.26a6.13 6.13 0 0 0-4.66 6.17v.98h1.97v7.38l1.97 1.48v1.43l-7.1 1.79a4.91 4.91 0 0 0-3.73 4.77v2.66a24.58 24.58 0 0 1-2.95-11.7V16.46l18.7-9.36 18.7 9.36v12.98a16.66 16.66 0 0 0-7.8 3.65l-5.98-1.5Zm16.74 29.08a14.77 14.77 0 1 1 0-29.54 14.77 14.77 0 0 1 0 29.54Z" fill="#02133C"/><path d="M51.19 17.34H63v1.97H51.19v-1.97ZM51.19 21.28h7.87v1.97H51.2v-1.97ZM51.19 25.22h3.93v1.97H51.2v-1.97Z" fill="#E30B0B"/><circle cx="45.94" cy="45.94" r="17.06" fill="#C40B0B"/><path d="m43.87 46.22-3.67-3.31-3.45 3.13 7.12 6.46 11.26-12.61-3.46-3.14-7.8 9.47Z" fill="#fff"/></g><defs><clipPath id="a"><path fill="#fff" d="M0 0h63v63H0z"/></clipPath></defs></svg>