<svg width="63" height="63" fill="none" xmlns="http://www.w3.org/2000/svg"><g clip-path="url(#a)"><path d="M63 33.6v-4.2c0-.58-.47-1.05-1.05-1.05H48.82v-21c0-.58-.47-1.05-1.05-1.05H36.63a7.32 7.32 0 0 0 2.22-5.25C38.85.47 38.38 0 37.8 0a7.35 7.35 0 0 0-6.3 3.58A7.35 7.35 0 0 0 25.2 0c-.58 0-1.05.47-1.05 1.05 0 1.98.8 3.87 2.22 5.25H15.22c-.57 0-1.04.47-1.04 1.05v21H1.04c-.58 0-1.05.47-1.05 1.05v4.2c0 .58.47 1.05 1.05 1.05h34.48l-6.3 2.1H13.65c-.28 0-.55.11-.74.3L8.4 41.58 7.04 40.2a1.05 1.05 0 0 0-1.48 0L.3 45.46a1.05 1.05 0 0 0 0 1.48L16.06 62.7c.4.41 1.07.41 1.48 0l5.25-5.25c.41-.4.41-1.07 0-1.48l-.17-.18 6.07-4.33h20.66c.26 0 .52-.1.71-.28l11.42-10.46a4.69 4.69 0 0 0 .7-6.1c.48-.1.82-.52.82-1.01ZM36.62 2.23a5.27 5.27 0 0 1-3.94 3.94 5.27 5.27 0 0 1 3.94-3.94Zm-6.3 3.94a5.27 5.27 0 0 1-3.94-3.94 5.27 5.27 0 0 1 3.94 3.94ZM16.27 8.4h30.45v19.95H16.27V8.4ZM2.1 32.55v-2.1h58.8v2.1H2.1Zm42.78 2.7a4.22 4.22 0 0 0-.4-.6h9.46l-7.09 6.3h-3.73a4.21 4.21 0 0 0 1.76-5.7ZM16.8 60.47 2.53 46.2l3.77-3.77L20.57 56.7l-3.77 3.77Zm43.26-21.3L48.94 49.34H28.35c-.22 0-.43.07-.61.2l-6.63 4.73L9.88 43.05l4.2-4.2H29.4c.11 0 .22-.02.33-.05l10.74-3.58a2.12 2.12 0 1 1 1.23 4.05l-6.14 1.68h-3.01v2.1h14.7c.26 0 .5-.1.7-.26l8.41-7.48a2.6 2.6 0 0 1 1.73-.66h.21a2.6 2.6 0 0 1 1.76 4.51Z" fill="#02133C"/><path d="M63 33.6v-4.2c0-.58-.47-1.05-1.05-1.05H48.82v-21c0-.58-.47-1.05-1.05-1.05H36.63a7.32 7.32 0 0 0 2.22-5.25C38.85.47 38.38 0 37.8 0a7.35 7.35 0 0 0-6.3 3.58A7.35 7.35 0 0 0 25.2 0c-.58 0-1.05.47-1.05 1.05 0 1.98.8 3.87 2.22 5.25H15.22c-.57 0-1.04.47-1.04 1.05v21H1.04c-.58 0-1.05.47-1.05 1.05v4.2c0 .58.47 1.05 1.05 1.05l61.13-.05c.48-.1.82-.52.82-1ZM36.62 2.23a5.27 5.27 0 0 1-3.94 3.94 5.27 5.27 0 0 1 3.94-3.94Zm-6.3 3.94a5.27 5.27 0 0 1-3.94-3.94 5.27 5.27 0 0 1 3.94 3.94ZM16.27 8.4h30.45v19.95H16.27V8.4ZM54.08 4.2h-2.1v2.1h2.1V4.2Z" fill="#C40B0B"/><path d="M56.17 2.1h-2.1v2.1h2.1V2.1ZM58.27 4.2h-2.1v2.1h2.1V4.2ZM56.17 6.3h-2.1v2.1h2.1V6.3ZM63 1.05h-2.1v2.1H63v-2.1ZM54.6 12.6h-2.1v2.1h2.1v-2.1ZM8.93 11.55h-2.1v2.1h2.1v-2.1ZM8.93 15.75h-2.1v2.1h2.1v-2.1ZM11.03 13.65h-2.1v2.1h2.1v-2.1ZM6.82 13.65h-2.1v2.1h2.1v-2.1ZM2.1 6.3H0v2.1h2.1V6.3ZM11.55 1.05h-2.1v2.1h2.1v-2.1ZM31.5 28.88 21.25 16.14h20.5L31.5 28.88Z" fill="#C40B0B"/><path d="M41.75 16.15h-20.5l3.54-5.65H38.2l3.54 5.65Z" fill="#E30B0B"/><path d="m36.15 16.15 2.06-5.65H24.78l2.07 5.65h9.3Z" fill="#C40B0B"/><path d="m36.1 16.15-4.6-5.65-4.6 5.65h9.2Z" fill="#FE6F6F"/><path d="m26.85 16.15 4.65 12.73 4.65-12.73h-9.3Z" fill="#CB465F"/></g><defs><clipPath id="a"><path fill="#fff" d="M0 0h63v63H0z"/></clipPath></defs></svg>