<svg width="63" height="63" fill="none" xmlns="http://www.w3.org/2000/svg"><g clip-path="url(#a)"><path d="M41.98 16.34a6.1 6.1 0 0 1 4.97-4.08l1.56-3.67-5.38-5.37-3.17 2.06c-1.2-.68-2.48-1.2-3.8-1.58L35.37 0h-7.74l-.79 3.7c-1.32.37-2.6.9-3.8 1.58l-3.17-2.06-5.38 5.37 1.54 3.66c2.33.3 4.2 2 4.95 4.19l.36-.78A11.22 11.22 0 0 1 31.5 9.15c4.31 0 8.29 2.52 10.12 6.43l.36.76Z" fill="#C40B0B"/><path d="m39.84 27.71-4.28-1.07v-.49a7.14 7.14 0 0 0 3.05-5.83v-1.77c0-3.95-3.09-7.25-6.9-7.37a7.04 7.04 0 0 0-5.16 2 7.05 7.05 0 0 0-2.16 5.11v2.03c0 2.33 1.15 4.51 3.05 5.83v.5l-4.28 1.06a5.07 5.07 0 0 0-3.85 4.93v1.8l2.83-.63a11.44 11.44 0 0 1 5.98.27l4.66 1.48c.5 0 1 .07 1.48.21l6.39 1.83h1.01l2.03-1.07v-3.89a5.07 5.07 0 0 0-3.85-4.93Z" fill="#C40B0B"/><path d="M63 26.42h-2.28l-3.4 1.79a5.05 5.05 0 0 0-1.22-.5l-4.28-1.07v-.49a7.14 7.14 0 0 0 3.05-5.83v-1.77c0-3.95-3.1-7.25-6.9-7.37a7.06 7.06 0 0 0-5.16 2 7.05 7.05 0 0 0-2.16 5.11v2.03c0 2.33 1.15 4.51 3.04 5.83v.5l-4.06 1 .21.06c.95.24 1.76.73 2.4 1.39l3.49-.87V25l-.51-.3a5.1 5.1 0 0 1-2.54-4.39V18.3c0-1.39.55-2.68 1.54-3.65 1-.96 2.32-1.48 3.7-1.43a5.25 5.25 0 0 1 4.92 5.34v1.77a5.1 5.1 0 0 1-2.54 4.4l-.51.3v3.2l5.08 1.28-13.46 7.08h-.62l-6.25-1.78c-.5-.14-1-.2-1.5-.22l-4.6-1.47c-2.1-.67-4.37-.77-6.52-.3l-5.78 1.29.08-.29.04-1.88-5.36-3.12 2.31-.58V25l-.5-.3a5.1 5.1 0 0 1-2.55-4.39V18.3c0-1.39.55-2.68 1.54-3.65 1-.96 2.32-1.48 3.7-1.43a5.25 5.25 0 0 1 4.92 5.34v1.77a5.1 5.1 0 0 1-2.54 4.4l-.5.3v3.2l3.48.88a5.05 5.05 0 0 1 2.4-1.39l.21-.05-4.06-1.02v-.49a7.14 7.14 0 0 0 3.04-5.83v-1.77c0-3.95-3.09-7.25-6.89-7.37a7.06 7.06 0 0 0-5.17 2 7.05 7.05 0 0 0-2.16 5.11v2.03c0 2.33 1.15 4.51 3.05 5.83v.5l-2.8.69-5.06-2.95H0v21.05l10 3.33h1.94l.25-.85 3.06 1.84c.05 1.67 1.39 3 3.05 3.07a3.16 3.16 0 0 0 3.05 3.05 3.16 3.16 0 0 0 3.05 3.04 3.17 3.17 0 0 0 4.94 2.51l.9.8c.56.5 1.29.77 2.04.77h.2a3.1 3.1 0 0 0 3.08-3.05 3.1 3.1 0 0 0 3.05-3.05 3.1 3.1 0 0 0 3.05-3.05 3.12 3.12 0 0 0 3.03-3.42L63 41.27V26.42Zm-60.97 0h.74l7.31 4.26L6.4 45.43l-4.36-1.45V26.42Zm8.3 20.32-2-.66 3.58-14.33 2.32 1.35v.29L10.4 46.74h-.08Zm6.94 2.93c0-.3.13-.6.34-.8l1.78-1.8c.22-.2.51-.33.8-.33a1.14 1.14 0 0 1 .82 1.95l-1.8 1.78c-.2.22-.5.34-.8.34-.62 0-1.14-.51-1.14-1.14Zm3.05 3.05c0-.3.12-.6.34-.81l1.78-1.79a1.14 1.14 0 0 1 1.61 1.61l-1.78 1.8a1.14 1.14 0 0 1-1.94-.8Zm3.05 3.04c0-.3.12-.59.33-.8l1.8-1.79a1.14 1.14 0 0 1 1.61 1.61l-1.8 1.79a1.14 1.14 0 0 1-1.94-.8Zm4.19 4.2a1.14 1.14 0 0 1-.8-1.95l1.78-1.79a1.14 1.14 0 0 1 1.61 1.61l-1.79 1.79c-.2.21-.5.33-.8.33Zm4.91 1h-.19c-.25 0-.5-.09-.7-.26l-.76-.67.77-.76c.27-.27.48-.6.64-.95l.92.77a1.06 1.06 0 0 1-.68 1.88Zm9.11-9.14h-.17c-.26 0-.5-.09-.7-.25l-5.51-4.6-1.3 1.57L39.25 53a1.06 1.06 0 0 1-.68 1.87h-.22c-.25 0-.49-.09-.68-.25l-5.52-4.6-1.3 1.57 5.35 4.46a1.06 1.06 0 0 1-.68 1.87c-.39 0-.77-.14-1.07-.39l-2.27-1.89a3.16 3.16 0 0 0-2.72-1.77 3.16 3.16 0 0 0-3.05-3.05 3.16 3.16 0 0 0-3.05-3.05 3.17 3.17 0 0 0-5.4-2.13l-1.79 1.78c-.1.11-.2.23-.28.35l-3.13-1.87 2.74-9.58 6.86-1.52c1.8-.4 3.7-.32 5.45.24l1.5.48-5.08 2.54a3.39 3.39 0 0 0-1.88 3.04v.2a3.4 3.4 0 0 0 5.16 2.92l3.78-2.26a2.1 2.1 0 0 1 2.44.23l8.59 7.73a1.1 1.1 0 0 1-.73 1.9Zm19.39-11.8-17.12 8.56a2.77 2.77 0 0 0-.18-.17l-8.58-7.73a4.08 4.08 0 0 0-4.84-.47l-3.79 2.27c-.21.13-.45.2-.7.2-.76 0-1.37-.62-1.37-1.37v-.2c0-.53.29-1 .76-1.23l5.66-2.84c.97-.48 2.12-.59 3.17-.29l6.39 1.82 1.54.04 19.06-10.03v11.44Z" fill="#02133C"/></g><defs><clipPath id="a"><path fill="#fff" d="M0 0h63v63H0z"/></clipPath></defs></svg>