<svg width="18" height="18" fill="none" xmlns="http://www.w3.org/2000/svg"><path fill-rule="evenodd" clip-rule="evenodd" d="M1 0h3.5a1 1 0 0 1 1 1c0 1.25.2 2.45.57 3.57a1 1 0 0 1-.25 1.02l-2.2 2.2a15.15 15.15 0 0 0 6.59 6.59l2.2-2.2a1.02 1.02 0 0 1 1.02-.24c1.12.37 2.33.57 3.57.57a1 1 0 0 1 1 1V17a1 1 0 0 1-1 1A17 17 0 0 1 0 1a1 1 0 0 1 1-1Zm2.54 2c.06.89.21 1.76.45 2.59l-1.2 1.2c-.41-1.2-.67-2.47-.76-3.79h1.51Zm9.86 12.02c.85.24 1.72.39 2.6.45v1.49a15.43 15.43 0 0 1-3.8-.75l1.2-1.19Z" fill="#C40B0B"/></svg>