<svg width="63" height="63" fill="none" xmlns="http://www.w3.org/2000/svg"><g clip-path="url(#a)"><path d="M38.61 21.34h-.7a11.12 11.12 0 0 1-12.82 0h-.7L19.3 32.52h2.03c.56 0 1.02.45 1.02 1.01v12.2c0 2.8 2.27 5.08 5.08 5.08h8.12c2.8 0 5.09-2.28 5.09-5.08v-12.2c0-.56.45-1.01 1.01-1.01h2.03l-5.08-11.18Z" fill="#C40B0B"/><path d="M31.5 18.29a6.1 6.1 0 0 0 3.88-1.4l-1.3-1.56a4.07 4.07 0 1 1 .96-1.13l1.77 1a6.1 6.1 0 1 0-5.31 3.09ZM11.18 20.32a5.09 5.09 0 1 0 0 10.18 5.09 5.09 0 0 0 0-10.18Zm2.86 4.07h-1.85v-1.85c.86.3 1.54.99 1.85 1.85Zm-3.88-1.85v1.85H8.32c.3-.86.98-1.54 1.84-1.85Zm-1.84 3.88h1.84v1.84a3.05 3.05 0 0 1-1.84-1.84Zm3.87 1.84v-1.84h1.85c-.3.86-.99 1.54-1.85 1.84ZM51.82 20.32a5.09 5.09 0 1 0 .01 10.18 5.09 5.09 0 0 0 0-10.18Zm2.86 4.07h-1.84v-1.85c.86.3 1.54.99 1.84 1.85Zm-3.87-1.85v1.85h-1.85c.3-.86.99-1.54 1.85-1.85Zm-1.85 3.88h1.85v1.84a3.05 3.05 0 0 1-1.85-1.84Zm3.88 1.84v-1.84h1.84c-.3.86-.98 1.54-1.84 1.84ZM31.5 31.5a5.09 5.09 0 1 0 .01 10.17 5.09 5.09 0 0 0-.01-10.17Zm0 8.13a3.05 3.05 0 1 1 0-6.1 3.05 3.05 0 0 1 0 6.1Z" fill="#02133C"/><path d="M63 33.53A31.47 31.47 0 0 0 39.58 3.1a12.13 12.13 0 0 0-16.16 0A31.47 31.47 0 0 0 0 33.53v1.02h2.06A29.5 29.5 0 0 0 31.5 63a29.5 29.5 0 0 0 29.44-28.45H63v-1.02ZM31.5 2.03a10.17 10.17 0 0 1 0 20.32 10.17 10.17 0 0 1 0-20.32ZM21 6.01a12.1 12.1 0 0 0 2 14.9l-5.36 11.6H2.05a29.43 29.43 0 0 1 18.96-26.5Zm10.5 54.96A27.46 27.46 0 0 1 4.09 34.55h14.85l5.68-12.3a12.12 12.12 0 0 0 13.76 0l5.68 12.3h10.81v-2.03h-9.51l-5.35-11.6A12.15 12.15 0 0 0 41.99 6a29.43 29.43 0 0 1 18.96 26.5H56.9v2.04h2.01A27.46 27.46 0 0 1 31.5 60.97Z" fill="#02133C"/></g><defs><clipPath id="a"><path fill="#fff" d="M0 0h63v63H0z"/></clipPath></defs></svg>