<svg width="63" height="63" fill="none" xmlns="http://www.w3.org/2000/svg"><g clip-path="url(#a)"><path d="M20.32 34.55a3.05 3.05 0 1 1 .01-6.1 3.05 3.05 0 0 1 0 6.1ZM42.68 34.55a3.05 3.05 0 1 1 0-6.1 3.05 3.05 0 0 1 0 6.1Z" fill="#C40B0B"/><path d="M60.97 56.9V0h-6.1v3.63l-2.66-1.6H10.8l-2.66 1.6V0h-6.1v56.9H0V63h10.16v-6.1H8.13V46.74h5.08a4.07 4.07 0 0 0 8.13 0v-4.06h20.32v4.06a4.07 4.07 0 0 0 8.13 0h5.08V56.9h-2.03V63H63v-6.1h-2.03ZM58.94 2.03v50.8H56.9V2.04h2.04ZM45.73 36.58v2.03h4.06a1.02 1.02 0 0 1 0 2.04H13.21a1.02 1.02 0 0 1 0-2.04h30.48v-2.03H15.24V29.1c0-.48.35-.9.82-1l4.26-.85V18.3c0-.56.46-1.02 1.02-1.02h20.32c.56 0 1.02.46 1.02 1.02v8.96l4.26.86c.47.09.82.5.82 1v7.47h-2.03Zm1.61-10.47-2.63-.52v-7.3a3.05 3.05 0 0 0-3.05-3.05H21.34a3.05 3.05 0 0 0-3.05 3.05v7.3l-2.63.52a3.06 3.06 0 0 0-2.45 3v.36H8.13V10.74l4.34-2.61h38.05l4.35 2.6v18.74H49.8v-.37c0-1.45-1.03-2.7-2.45-2.99Zm-36-22.05h40.31L54.87 6v2.37L51.1 6.1H11.9L8.13 8.37V6l3.22-1.94ZM6.1 2.03v50.8H4.06V2.04H6.1ZM4.06 56.9v-2.03H6.1v2.03H4.06Zm4.07-12.19V31.5h5.08v5.08a3.05 3.05 0 0 0 0 6.1v2.03H8.13Zm41.66 0v-2.03a3.05 3.05 0 0 0 0-6.1V31.5h5.08v13.21H49.8Zm7.11 10.16h2.04v2.03H56.9v-2.03Z" fill="#02133C"/><path d="M22.35 26.42h18.3V19.3h-18.3v7.1ZM37.6 32.52H25.4v2.03h12.2v-2.03ZM37.6 28.45H25.4v2.03h12.2v-2.03Z" fill="#02133C"/><path d="M58.94 48.77H56.9v2.04h2.04v-2.04ZM58.94 44.71H56.9v2.03h2.04v-2.03ZM6.1 48.77H4.06v2.04H6.1v-2.04ZM6.1 44.71H4.06v2.03H6.1v-2.03Z" fill="#C40B0B"/></g><defs><clipPath id="a"><path fill="#fff" d="M0 0h63v63H0z"/></clipPath></defs></svg>