<svg width="63" height="63" fill="none" xmlns="http://www.w3.org/2000/svg"><g clip-path="url(#a)"><path d="M62.3 13.5c.6.73.82 1.67.64 2.58l-4.33 21a3.1 3.1 0 0 1-3.03 2.47H17.32l.91 4.42H55.3a1.55 1.55 0 1 1 0 3.1H18.23a3.1 3.1 0 0 1-3.03-2.47L7.72 8.27.93 5.32a1.54 1.54 0 1 1 1.23-2.84l6.8 2.95a3.1 3.1 0 0 1 1.79 2.21l.97 4.72h48.19c.93 0 1.8.42 2.4 1.14Zm-6.72 22.96 4.33-21H12.36l4.33 21h38.89Z" fill="#02133C"/><path d="m59.9 15.46-4.32 21h-38.9l-4.32-21h47.55Zm-11.14 6.48c0-.85-.69-1.54-1.55-1.54H25.05a1.55 1.55 0 1 0 0 3.09H47.2c.86 0 1.55-.7 1.55-1.55Zm-1.2 8.04c0-.86-.7-1.55-1.55-1.55H26.26a1.55 1.55 0 1 0 0 3.1H46c.85 0 1.54-.7 1.54-1.55Z" fill="#C40B0B"/><path d="M45.85 49.57a5.55 5.55 0 1 1-.01 11.09 5.55 5.55 0 0 1 .01-11.1ZM47.21 20.4a1.55 1.55 0 1 1 0 3.09H25.05a1.55 1.55 0 1 1 0-3.1H47.2ZM46 28.43a1.55 1.55 0 1 1 0 3.1H26.27a1.55 1.55 0 1 1 0-3.1H46ZM26.42 49.57a5.55 5.55 0 1 1-.02 11.1 5.55 5.55 0 0 1 .02-11.1Z" fill="#02133C"/></g><defs><clipPath id="a"><path fill="#fff" d="M0 0h63v63H0z"/></clipPath></defs></svg>