<svg width="63" height="63" fill="none" xmlns="http://www.w3.org/2000/svg"><g clip-path="url(#a)"><path d="m53.7 28.37-2.3-7.08-13.15 4.27a2.32 2.32 0 0 1-3.03-2.2V9.54h-7.44v13.82a2.32 2.32 0 0 1-3.03 2.2L11.6 21.3l-2.3 7.08 13.15 4.27c1.5.49 2.08 2.3 1.16 3.57l-8.13 11.18 6.02 4.37 8.13-11.18a2.32 2.32 0 0 1 3.74 0l8.13 11.18 6.02-4.37-8.13-11.18a2.32 2.32 0 0 1 1.16-3.57l13.15-4.27Z" fill="#C40B0B"/><path d="M34.97 31.5a3.47 3.47 0 1 1-6.94 0 3.47 3.47 0 0 1 6.94 0Z" fill="#02133C"/><path d="M59.62 17.28a31.78 31.78 0 0 0-9.06-10.86.92.92 0 0 0-1.11 1.47 29.93 29.93 0 0 1 8.52 10.22 29.34 29.34 0 0 1 3.18 13.39c0 7.92-3.08 15.37-8.68 20.97a29.46 29.46 0 0 1-20.97 8.68 29.46 29.46 0 0 1-20.97-8.68A29.46 29.46 0 0 1 1.85 31.5c0-7.92 3.08-15.37 8.68-20.97A29.46 29.46 0 0 1 31.5 1.85c5.3 0 10.5 1.41 15.04 4.09a.92.92 0 1 0 .94-1.6A31.47 31.47 0 0 0 31.5 0 31.3 31.3 0 0 0 9.23 9.23 31.3 31.3 0 0 0 0 31.5a31.3 31.3 0 0 0 9.23 22.27A31.3 31.3 0 0 0 31.5 63a31.3 31.3 0 0 0 22.27-9.23A31.3 31.3 0 0 0 63 31.5c0-5-1.14-9.79-3.38-14.22Z" fill="#02133C"/><path d="M31.5 11.23A20.3 20.3 0 0 0 11.23 31.5 20.3 20.3 0 0 0 31.5 51.77 20.3 20.3 0 0 0 51.77 31.5 20.3 20.3 0 0 0 31.5 11.23Zm13.27 7.5-3.74 4.96-3.06 1c-.43.14-.89.06-1.25-.2a1.38 1.38 0 0 1-.58-1.13v-2.48l4.2-5.55c1.64.9 3.14 2.05 4.43 3.4Zm1.24 1.42c.4.5.76 1.03 1.1 1.57l-3.02.98 1.92-2.55Zm-9.87-6.49c.86.23 1.7.51 2.5.85l-2.5 3.3v-4.15Zm-1.84-.38v10.08c0 1.05.48 2 1.33 2.62.57.41 1.3.82 2.9.46l9.5-3.08c.82 1.65 1.4 3.45 1.69 5.33l-9.45 3.07a3.2 3.2 0 0 0-2.08 2.08 3.2 3.2 0 0 0 .46 2.9l5.74 7.91a18.41 18.41 0 0 1-8.74 4.8l.08-4.06.78 1.07a.92.92 0 0 0 1.5-1.08l-3.89-5.34a3.2 3.2 0 0 0-2.62-1.34c-1.05 0-2 .49-2.62 1.34l-5.73 7.88a18.5 18.5 0 0 1-4.54-3.27l5.74-7.9c.62-.85.79-1.9.46-2.9a3.2 3.2 0 0 0-2.08-2.09L13.3 28.7c.28-1.88.86-3.68 1.68-5.33l8.22 2.67c.63.15 1.03-.2 1.16-.6.16-.48-.1-1-.6-1.16l-1.48-.48-3.75-5.36a18.52 18.52 0 0 1 4.53-3.3l3.8 5.45v2.78c0 .42-.17.8-.49 1.07a.92.92 0 0 0-.1 1.3c.18.21.84.5 1.3.1a3.3 3.3 0 0 0 1.14-2.47V13.28a18.51 18.51 0 0 1 5.6 0Zm15.54 20.08-4.13-1.42 4.2-1.37a37 37 0 0 1-.07 2.8Zm-5.65 7.88 2.4.83c-.3.41-.6.81-.92 1.2l-1.48-2.03Zm-1.9-2.61-2.15-2.97a1.38 1.38 0 0 1-.2-1.25c.14-.43.47-.75.9-.9l1.96-.63 6.75 2.34a18.29 18.29 0 0 1-1.95 5.24l-5.3-1.83Zm-15.87 7.93-.05 2.64c-.5-.15-1-.32-1.5-.5l1.55-2.14ZM13.1 30.57l3.19 1.04-3.19.97c-.02-.36-.02-1.7 0-2Zm6.25 2.04 2.81.9c.43.15.76.47.9.9.14.43.07.89-.2 1.25l-1.6 2.22-6.23 1.89a18.28 18.28 0 0 1-1.72-5.32l6.04-1.84Zm.1 7.74-2.12 2.92c-.49-.59-.94-1.2-1.36-1.86l3.48-1.06Zm-.1-17.5-3.46-1.13c.41-.66.87-1.3 1.36-1.9l2.1 3.02Zm7.5-5.49-2.1-3.01c.69-.27 1.39-.5 2.1-.69v3.7Zm1.36 32.27.1-5.67 2.06-2.84c.27-.36.68-.57 1.13-.57.45 0 .86.2 1.13.57l1.3 1.8-.13 6.87a18.55 18.55 0 0 1-5.6-.16Z" fill="#02133C"/><path d="M27.1 31.5a4.4 4.4 0 1 0 8.8-.01 4.4 4.4 0 0 0-8.8.01Zm6.95 0a2.55 2.55 0 1 1-5.1 0 2.55 2.55 0 0 1 5.1 0Z" fill="#000"/></g><defs><clipPath id="a"><path fill="#fff" d="M0 0h63v63H0z"/></clipPath></defs></svg>