<svg width="63" height="63" fill="none" xmlns="http://www.w3.org/2000/svg"><g clip-path="url(#a)"><path d="M7.11 30.48a3.05 3.05 0 1 0 .01 6.1 3.05 3.05 0 0 0 0-6.1Zm0 4.07a1.02 1.02 0 1 1 0-2.04 1.02 1.02 0 0 1 0 2.04Z" fill="#02133C"/><path d="M59.95 0H21.78c-1.3 0-2.47.84-2.89 2.09l-.32.96h-3.33A3.05 3.05 0 0 0 12.2 6.1V7.4a7.12 7.12 0 0 0-2.66 12.15 11.25 11.25 0 0 0-4.3 7.12 7.12 7.12 0 0 0 1.88 13.97h1.02V38.6H7.1a5.09 5.09 0 1 1 4.4-7.62l1.76-1.02c-.1-.17-.22-.34-.34-.5h1.3v-8.13a7.12 7.12 0 0 0 0-14.23V6.1c0-.56.45-1.02 1.01-1.02h4.8l.78-2.35c.14-.42.53-.7.97-.7h.67a5.09 5.09 0 0 0 9.95 0h4.17v11.2a5.03 5.03 0 0 0-3.05-1.04 5.09 5.09 0 1 0 4.98 6.1h16.36v11.18h-13.2v2.03H56.9V16.26h3.05A3.05 3.05 0 0 0 63 13.2V3.05A3.05 3.05 0 0 0 59.95 0ZM12.2 28.56a7.15 7.15 0 0 0-4.85-2.13c.54-2.34 2-4.4 4.03-5.7.26.12.54.22.82.3v7.53Zm7.12-14.33a5.09 5.09 0 0 1-7.9 4.22l-.03-.06-.03.02a5.08 5.08 0 1 1 7.96-4.18Zm8.13-10.17a3.04 3.04 0 0 1-2.87-2.03h5.73a3.04 3.04 0 0 1-2.86 2.03Zm6.1 16.26a3.05 3.05 0 1 1 0-6.1 3.05 3.05 0 0 1 0 6.1Zm15.23-4.06H38.61V2.03h3.08a5.03 5.03 0 0 0-1.04 3.05c0 2.8 2.27 5.08 5.08 5.08 1.14 0 2.2-.4 3.04-1.04v7.14Zm-3.04-8.13a3.05 3.05 0 1 1 0-6.1 3.05 3.05 0 0 1 0 6.1Zm15.24 5.08c0 .56-.46 1.02-1.02 1.02H56.9v-2.04h-2.03v4.07h-4.06V5.08c0-1.15-.4-2.2-1.05-3.05h5.11v8.13h2.03V2.03h3.05c.56 0 1.02.46 1.02 1.02V13.2Z" fill="#02133C"/><path d="M11.18 14.23a3.05 3.05 0 1 0 6.1-.01 3.05 3.05 0 0 0-6.1 0Zm4.06 0a1.02 1.02 0 1 1-2.03 0 1.02 1.02 0 0 1 2.03 0Z" fill="#02133C"/><path d="M31.5 63h-8.13v-4.58a16.05 16.05 0 0 1-4.19-1.74l-3.24 3.24-5.75-5.75 3.24-3.24a16.05 16.05 0 0 1-1.74-4.19H7.11v-8.13h4.58c.38-1.47.96-2.87 1.74-4.19l-3.24-3.24 5.75-5.75 3.24 3.24a16.05 16.05 0 0 1 4.2-1.74v-4.58h8.12v4.58c1.47.38 2.87.96 4.19 1.74l3.24-3.24 5.75 5.75-3.24 3.24a16.05 16.05 0 0 1 1.74 4.2h4.58v8.12h-4.58a16.05 16.05 0 0 1-1.74 4.2l3.24 3.23-5.75 5.75-3.24-3.24a16.05 16.05 0 0 1-4.19 1.74V63Z" fill="#C40B0B"/><path d="M27.44 52.84a10.17 10.17 0 0 1 0-20.32 10.17 10.17 0 0 1 7.2 17.32L33.2 48.4a8.14 8.14 0 1 0-13.9-5.73 8.14 8.14 0 0 0 12.48 6.87l1.08 1.72a10.12 10.12 0 0 1-5.42 1.57Z" fill="#02133C"/><path d="M27.44 48.77a6.1 6.1 0 1 1 0-12.2 6.1 6.1 0 0 1 0 12.2Zm0-10.16a4.07 4.07 0 1 0 0 8.14 4.07 4.07 0 0 0 0-8.14Z" fill="#02133C"/></g><defs><clipPath id="a"><path fill="#fff" d="M0 0h63v63H0z"/></clipPath></defs></svg>