<svg width="63" height="63" fill="none" xmlns="http://www.w3.org/2000/svg"><g clip-path="url(#a)"><path d="M39.63 5.08H5.08v18.3h34.55V5.07Z" fill="#C40B0B"/><path d="M58.94 41.76V31.5a3.05 3.05 0 0 0-6.1 0v21.34h2.03v5.08a3.05 3.05 0 0 1-3.05 3.05H19.31a3.05 3.05 0 0 1-3.05-3.05V42.68h12.2v13.2a3.05 3.05 0 0 0 3.04 3.06h10.16a3.05 3.05 0 0 0 3.05-3.05v-3.05h2.03v-8.96a3.04 3.04 0 0 1 2.03 2.86v6.1h2.04v-6.1c0-2.45-1.75-4.5-4.07-4.98V31.5c0-1.32-.85-2.44-2.03-2.86V0H0v42.68h14.23v15.24c0 2.8 2.27 5.08 5.08 5.08h32.51c2.8 0 5.08-2.28 5.08-5.08v-5.08h2.04v-8.96a3.04 3.04 0 0 1 2.03 2.86v6.1H63v-6.1c0-2.45-1.75-4.5-4.06-4.98ZM42.68 55.9c0 .56-.46 1.01-1.02 1.01H31.5c-.56 0-1.02-.45-1.02-1.01V42.68h10.17v10.16h2.03v3.05Zm1.01-25.4c.56 0 1.02.45 1.02 1.01v1.02h-2.03V31.5c0-.56.45-1.02 1.01-1.02ZM42.68 50.8V34.55h2.03V50.8h-2.03ZM2.03 2.03h40.65v26.6a3.04 3.04 0 0 0-2.03 2.87v9.15H2.03V2.03ZM55.9 30.48c.56 0 1.01.46 1.01 1.02v1.02h-2.03V31.5c0-.56.46-1.02 1.02-1.02Zm-1.02 20.33V34.55h2.03V50.8h-2.03Z" fill="#02133C"/><path d="M22.35 8.13c-10.7 0-14 7.41-14.14 7.73l1.87.8c.11-.26 2.96-6.5 12.27-6.5 9.32 0 12.17 6.24 12.28 6.5l1.87-.8c-.14-.32-3.44-7.73-14.15-7.73Z" fill="#02133C"/><path d="M24.03 18.6a5.01 5.01 0 0 0-6.76 4.77h2.04a3.05 3.05 0 0 1 6.1 0h2.03c0-1.48-.65-2.8-1.66-3.73l3.54-5.9-1.74-1.05-3.55 5.9ZM22.35 26.42a6.1 6.1 0 1 0 .02 12.2 6.1 6.1 0 0 0-.02-12.2Zm0 10.16a4.07 4.07 0 1 1 .01-8.14 4.07 4.07 0 0 1 0 8.14Z" fill="#02133C"/><path d="M44.71 34.55h-2.03v2.03h2.03v-2.03ZM56.9 34.55h-2.03v2.03h2.03v-2.03Z" fill="#C40B0B"/></g><defs><clipPath id="a"><path fill="#fff" d="M0 0h63v63H0z"/></clipPath></defs></svg>