<?xml version="1.0" standalone="no"?>
<!DOCTYPE svg PUBLIC "-//W3C//DTD SVG 20010904//EN"
 "http://www.w3.org/TR/2001/REC-SVG-20010904/DTD/svg10.dtd">
<svg version="1.0" xmlns="http://www.w3.org/2000/svg"
 width="700.000000pt" height="700.000000pt" viewBox="0 0 700.000000 700.000000"
 preserveAspectRatio="xMidYMid meet">
<metadata>
Created by potrace 1.14, written by Peter Selinger 2001-2017
</metadata>
<g transform="translate(0.000000,700.000000) scale(0.100000,-0.100000)"
fill="#000000" stroke="none">
<path d="M2445 6838 c-16 -6 -33 -16 -37 -22 -25 -36 11 -96 57 -96 32 0 65
33 65 65 0 24 -31 66 -47 64 -5 0 -21 -5 -38 -11z"/>
<path d="M4225 6600 c-24 -27 -22 -70 5 -92 30 -25 56 -23 85 7 30 29 31 45 4
79 -25 32 -68 35 -94 6z"/>
<path d="M3176 6579 c-50 -39 -24 -109 41 -109 61 0 85 71 37 109 -15 12 -32
21 -39 21 -7 0 -24 -9 -39 -21z"/>
<path d="M5441 6378 c-26 -28 -26 -48 0 -82 23 -29 54 -33 87 -10 34 24 27 50
-22 84 l-45 30 -20 -22z"/>
<path d="M1822 6269 c-53 -20 -51 -98 3 -119 52 -20 96 25 81 84 -7 29 -51 47
-84 35z"/>
<path d="M2640 5982 c-54 -17 -67 -77 -24 -111 15 -12 32 -21 39 -21 26 0 65
41 65 69 0 39 -45 75 -80 63z"/>
<path d="M4967 5839 c-27 -16 -39 -55 -25 -84 22 -48 99 -46 116 2 21 62 -36
114 -91 82z"/>
<path d="M3850 5820 c-40 -40 -11 -110 45 -110 32 0 65 33 65 65 0 32 -33 65
-65 65 -14 0 -34 -9 -45 -20z"/>
<path d="M852 5784 c-23 -27 -42 -52 -42 -55 0 -4 13 -12 29 -19 33 -13 64 -2
81 30 14 27 12 45 -8 70 l-18 23 -42 -49z"/>
<path d="M2450 5692 c-46 -22 -75 -79 -65 -129 6 -34 46 -85 73 -94 23 -8 3
-69 -27 -80 -64 -25 -120 -110 -121 -184 0 -53 35 -121 82 -158 26 -21 52 -31
95 -36 32 -4 68 -12 80 -19 35 -19 121 -15 171 9 82 40 121 142 92 243 -11 39
-10 47 7 72 12 20 18 47 18 90 0 53 -4 69 -30 106 -39 55 -96 88 -155 88 -43
0 -46 2 -61 38 -11 26 -27 44 -51 55 -45 21 -64 21 -108 -1z"/>
<path d="M5870 5560 c-11 -11 -20 -30 -20 -43 0 -29 39 -67 68 -67 31 0 62 35
62 68 0 57 -69 83 -110 42z"/>
<path d="M1196 5259 c-30 -24 -34 -57 -8 -89 36 -44 112 -17 112 41 0 28 -39
69 -65 69 -7 0 -24 -9 -39 -21z"/>
<path d="M3257 5152 c-51 -57 21 -140 82 -95 32 24 38 56 17 89 -20 30 -75 33
-99 6z"/>
<path d="M4620 5060 c-11 -11 -20 -31 -20 -45 0 -14 9 -34 20 -45 11 -11 31
-20 45 -20 14 0 34 9 45 20 11 11 20 31 20 45 0 14 -9 34 -20 45 -11 11 -31
20 -45 20 -14 0 -34 -9 -45 -20z"/>
<path d="M2390 4881 c0 -22 5 -43 10 -46 6 -4 10 -70 10 -166 l0 -159 -219 0
-219 0 -6 -27 c-3 -16 -35 -248 -71 -518 -36 -269 -68 -505 -71 -522 l-6 -33
1741 0 1742 0 -6 33 c-7 39 -155 1065 -155 1074 0 3 -520 2 -1156 -2 l-1157
-8 5 207 5 206 -223 0 -224 0 0 -39z"/>
<path d="M1695 4770 c-24 -27 -22 -70 5 -92 30 -25 56 -23 85 7 30 29 31 45 4
79 -25 32 -68 35 -94 6z"/>
<path d="M3921 4744 c-12 -15 -21 -32 -21 -39 0 -23 41 -65 65 -65 34 0 68 32
68 63 0 64 -74 90 -112 41z"/>
<path d="M5591 4694 c-12 -15 -21 -35 -21 -45 0 -28 36 -59 68 -59 57 0 83 69
42 110 -28 28 -64 25 -89 -6z"/>
<path d="M6545 4505 c-28 -27 -30 -37 -14 -68 16 -29 28 -37 60 -37 56 0 83
77 39 112 -30 25 -56 23 -85 -7z"/>
<path d="M487 4252 c-58 -64 33 -151 91 -89 12 13 22 33 22 45 0 52 -79 82
-113 44z"/>
<path d="M5985 3755 c-29 -28 -31 -51 -9 -83 32 -46 114 -18 114 39 0 30 -9
43 -37 58 -31 16 -41 14 -68 -14z"/>
<path d="M1312 3707 c-39 -46 -11 -110 48 -110 38 0 60 23 60 64 0 15 -7 35
-16 43 -19 19 -77 21 -92 3z"/>
<path d="M162 3354 c-28 -19 -30 -74 -4 -97 25 -23 68 -21 92 3 26 26 25 51
-1 84 -23 29 -54 33 -87 10z"/>
<path d="M1990 2999 l0 -281 -22 6 c-13 4 -50 14 -83 24 -45 13 -99 17 -220
17 -137 0 -171 -3 -239 -23 -98 -28 -170 -62 -230 -108 l-46 -35 -87 12 c-162
21 -352 -6 -488 -71 -78 -37 -175 -124 -199 -178 l-18 -39 -73 16 c-41 8 -77
12 -80 9 -11 -10 95 -265 178 -430 445 -880 1244 -1532 2193 -1792 323 -88
569 -120 919 -120 333 -1 559 27 869 105 976 246 1813 925 2262 1834 81 165
177 398 165 403 -4 1 -31 -8 -60 -22 l-53 -24 -66 67 c-113 114 -258 167 -480
178 -120 6 -123 7 -137 33 -22 43 -99 107 -174 145 -163 82 -381 103 -598 59
l-33 -6 0 251 0 251 -1600 0 -1600 0 0 -281z m2703 80 c14 -6 30 -22 36 -36 8
-17 11 -217 11 -667 0 -619 -1 -645 -19 -667 l-19 -24 -374 -3 c-368 -3 -375
-2 -401 18 l-27 21 0 655 c0 445 3 662 11 675 6 11 20 24 32 29 33 13 721 12
750 -1z m-1425 -406 l2 -253 -390 0 -390 0 0 248 c0 137 3 252 7 255 4 4 178
6 387 5 l381 -3 3 -252z"/>
<path d="M3990 2860 l0 -131 148 3 147 3 3 128 3 127 -151 0 -150 0 0 -130z"/>
<path d="M4360 2860 l0 -131 143 3 142 3 3 128 3 127 -146 0 -145 0 0 -130z"/>
<path d="M3990 2530 l0 -121 148 3 147 3 3 118 3 117 -151 0 -150 0 0 -120z"/>
<path d="M4360 2530 l0 -121 143 3 142 3 3 118 3 117 -146 0 -145 0 0 -120z"/>
<path d="M3990 2235 l0 -105 150 0 151 0 -3 103 -3 102 -147 3 -148 3 0 -106z"/>
<path d="M4367 2334 c-4 -4 -7 -52 -7 -106 l0 -98 145 0 146 0 -3 103 -3 102
-136 3 c-74 1 -138 -1 -142 -4z"/>
<path d="M3990 1915 l0 -135 150 0 150 0 0 135 0 135 -150 0 -150 0 0 -135z"/>
<path d="M4360 1915 l0 -135 145 0 145 0 0 135 0 135 -145 0 -145 0 0 -135z"/>
<path d="M6276 2916 c-30 -29 -33 -52 -10 -84 10 -15 25 -22 48 -22 80 0 92
107 14 125 -21 5 -33 1 -52 -19z"/>
</g>
</svg>
