<svg width="65" height="53" fill="none" xmlns="http://www.w3.org/2000/svg"><path d="M32.5 0c-7.84 0-14.182 6.347-14.182 14.194a14.18 14.18 0 0 0 10.37 13.671.477.477 0 0 1 .279.219L32.5 34.19l3.533-6.107a.477.477 0 0 1 .28-.218c5.982-1.667 10.369-7.148 10.369-13.672C46.682 6.346 40.34 0 32.5 0Zm0 4.213c5.53 0 10.03 4.494 10.03 10.03 0 5.535-4.5 10.029-10.03 10.029-5.53 0-10.03-4.494-10.03-10.03 0-5.535 4.5-10.029 10.03-10.029Zm-2.61 2.78a.427.427 0 0 0-.122.814c.34.167.53.337.632.461.1.125.122.196.121.304-.004.216-.19.59-.45.996s-.586.845-.606 1.42c-.011.288.076.598.279.863.202.264.494.498.898.704a.429.429 0 1 0 .389-.765c-.33-.168-.513-.326-.607-.45a.43.43 0 0 1-.11-.315c.009-.222.213-.588.474-.996.261-.408.587-.866.595-1.445a1.37 1.37 0 0 0-.316-.862c-.21-.26-.51-.477-.923-.68a.428.428 0 0 0-.206-.048.36.36 0 0 0-.048 0Zm2.306.73a.427.427 0 0 0-.254.716c.269.303.282.449.255.619-.028.17-.153.395-.316.668-.164.273-.373.61-.389 1.044-.016.433.19.894.643 1.336a.428.428 0 1 0 .596-.607c-.346-.338-.383-.539-.377-.705.007-.165.1-.36.255-.619.156-.259.36-.562.425-.971.066-.409-.062-.9-.45-1.336h.001a.427.427 0 0 0-.352-.146h-.037Zm-5.342 5.742a.427.427 0 0 0-.34.413s-.01.752.049 1.676c.06.923.175 2.006.522 2.804.407.939 1.23 1.796 1.857 2.417.082.079.19.123.304.121h3.898a.427.427 0 0 0 .303-.121c.571-.565 1.302-1.322 1.736-2.161.038-.004.211-.02.461-.06.277-.046.592-.103.863-.22.611-.263 1.207-.668 1.566-1.153.215-.29.44-.65.522-1.08a1.577 1.577 0 0 0-.389-1.36c-.23-.254-.526-.335-.825-.401a5.379 5.379 0 0 0-.923-.11c-.227-.009-.409-.003-.583 0v-.351a.427.427 0 0 0-.425-.414h-8.512a.43.43 0 0 0-.084 0Zm9.01 1.615c.167-.003.345-.009.558 0 .269.011.558.036.777.085.22.049.365.146.376.158.21.23.226.393.183.62-.044.225-.19.492-.365.728-.203.273-.737.663-1.226.874a3.768 3.768 0 0 1-.644.158c.183-.682.272-1.46.316-2.15.011-.17.018-.318.024-.473Z" fill="#E09446"/><path d="m10.056 41.597-1.17.492a3.388 3.388 0 0 0-.368-.814 2.43 2.43 0 0 0-.547-.628 2.283 2.283 0 0 0-.718-.41c-.269-.1-.563-.151-.882-.151-.342 0-.656.057-.943.17-.283.11-.538.263-.766.459a3.28 3.28 0 0 0-.588.683 4.71 4.71 0 0 0-.677 1.743 5.381 5.381 0 0 0-.082.924c0 .478.055.954.164 1.428.114.474.292.9.534 1.279.246.378.563.685.95.922.387.233.857.349 1.408.349.292 0 .567-.048.827-.144.26-.1.495-.234.704-.403.215-.173.401-.376.56-.608.16-.233.288-.483.384-.752l1.182.471c-.173.433-.41.814-.71 1.142-.301.324-.645.593-1.033.807a4.777 4.777 0 0 1-1.237.478c-.438.11-.88.164-1.326.164-.483 0-.948-.059-1.395-.178a5.189 5.189 0 0 1-1.237-.505 5.06 5.06 0 0 1-1.046-.793 5.175 5.175 0 0 1-.8-1.032 5.27 5.27 0 0 1-.513-1.231 5.416 5.416 0 0 1-.177-1.395c0-.483.059-.945.177-1.387.123-.447.294-.86.513-1.237.223-.383.49-.73.8-1.04a5.063 5.063 0 0 1 2.283-1.298 5.642 5.642 0 0 1 2.755-.014c.447.11.861.276 1.244.499.383.219.723.497 1.019.834.3.333.537.724.71 1.176Zm11.518 2.693v.13c-.01.383-.05.78-.123 1.19-.069.41-.167.82-.294 1.23-.128.41-.28.816-.458 1.217a9.8 9.8 0 0 1-.602 1.148c-.219.37-.456.713-.71 1.032a6.305 6.305 0 0 1-.808.855l-1.018-.588c.16-.269.303-.563.43-.882.133-.314.251-.645.356-.991.105-.346.194-.702.267-1.066a15.5 15.5 0 0 0 .341-3.145c0-.246-.002-.524-.006-.834 0-.314-.019-.633-.055-.957a6.37 6.37 0 0 0-.164-.944 2.76 2.76 0 0 0-.349-.827 1.75 1.75 0 0 0-.588-.58c-.237-.146-.533-.22-.888-.22-.315 0-.586.055-.814.165a1.73 1.73 0 0 0-.574.43 2.18 2.18 0 0 0-.376.622 4.797 4.797 0 0 0-.219.752c-.05.26-.084.524-.102.793-.014.265-.02.515-.02.752v1.907h2.945v1.128H14.8V49h-2.714v-5.004c0-.715.114-1.38.342-1.996.228-.615.55-1.148.964-1.6a4.43 4.43 0 0 1 1.504-1.066c.588-.26 1.242-.39 1.962-.39a4.3 4.3 0 0 1 1.367.212 4.447 4.447 0 0 1 2.105 1.442c.279.333.509.698.691 1.094a5.839 5.839 0 0 1 .554 2.598ZM26.618 49h-2.714v-9.844h7.069v1.258h-4.355v3.042h3.363v1.251h-3.363V49Zm13.405 0h-7.069v-9.844h7.069v1.258h-4.355v3.042h3.364v1.251h-3.364v3.035h4.355V49Zm3.5 0h-1.259v-9.844h1.764l5.982 6.761v-6.76h1.25V49h-1.763l-5.975-6.754V49Zm19.898-4.71v.13c-.009.383-.05.78-.123 1.19-.068.41-.166.82-.294 1.23-.127.41-.28.816-.458 1.217a9.784 9.784 0 0 1-.602 1.148c-.218.37-.455.713-.71 1.032a6.31 6.31 0 0 1-.807.855l-1.019-.588c.16-.269.303-.563.431-.882.132-.314.25-.645.355-.991.105-.346.194-.702.267-1.066a15.5 15.5 0 0 0 .342-3.145c0-.246-.002-.524-.007-.834 0-.314-.018-.633-.055-.957a6.37 6.37 0 0 0-.164-.944 2.756 2.756 0 0 0-.348-.827 1.749 1.749 0 0 0-.588-.58c-.237-.146-.533-.22-.889-.22-.314 0-.586.055-.813.165a1.731 1.731 0 0 0-.575.43c-.154.178-.28.385-.375.622a4.797 4.797 0 0 0-.22.752c-.05.26-.084.524-.102.793-.014.265-.02.515-.02.752v1.907h2.946v1.128h-2.946V49h-2.714v-5.004c0-.715.114-1.38.342-1.996.227-.615.549-1.148.964-1.6a4.43 4.43 0 0 1 1.503-1.066c.588-.26 1.242-.39 1.962-.39a4.3 4.3 0 0 1 1.367.212 4.45 4.45 0 0 1 2.105 1.442c.279.333.51.698.691 1.094a5.839 5.839 0 0 1 .554 2.598Z" fill="#000"/></svg>