<?xml version="1.0" standalone="no"?>
<!DOCTYPE svg PUBLIC "-//W3C//DTD SVG 20010904//EN"
 "http://www.w3.org/TR/2001/REC-SVG-20010904/DTD/svg10.dtd">
<svg version="1.0" xmlns="http://www.w3.org/2000/svg"
 width="656.000000pt" height="656.000000pt" viewBox="0 0 656.000000 656.000000"
 preserveAspectRatio="xMidYMid meet">
<metadata>
Created by potrace 1.14, written by Peter Selinger 2001-2017
</metadata>
<g transform="translate(0.000000,656.000000) scale(0.100000,-0.100000)"
fill="#000000" stroke="none">
<path d="M3038 6555 c-2 -1 -34 -5 -73 -9 -122 -11 -167 -17 -315 -47 -80 -16
-149 -31 -155 -33 -5 -1 -30 -8 -55 -15 -338 -92 -700 -263 -984 -467 -34 -24
-65 -47 -71 -52 -5 -4 -25 -19 -44 -32 -19 -14 -42 -32 -51 -40 -9 -8 -41 -35
-70 -60 -62 -52 -300 -285 -300 -293 0 -4 -10 -17 -23 -30 -40 -42 -74 -83
-142 -173 -37 -49 -73 -97 -81 -107 -8 -9 -14 -19 -14 -21 0 -2 -22 -36 -49
-77 -72 -110 -94 -149 -179 -319 -70 -140 -150 -326 -155 -361 -2 -8 -5 -18
-8 -24 -9 -15 -57 -166 -63 -197 -2 -15 -7 -31 -10 -36 -3 -5 -7 -19 -10 -33
-3 -13 -15 -64 -26 -114 -20 -87 -28 -128 -35 -184 -2 -14 -4 -26 -5 -26 -1 0
-3 -13 -5 -30 -2 -16 -6 -46 -9 -66 -28 -204 -28 -675 0 -834 3 -16 7 -48 10
-70 6 -58 10 -85 23 -146 6 -30 13 -63 15 -74 3 -16 29 -124 40 -170 26 -103
136 -418 165 -473 6 -9 33 -66 62 -127 58 -120 131 -251 203 -360 60 -92 69
-105 81 -119 6 -6 37 -47 70 -91 33 -44 67 -87 75 -95 8 -9 40 -45 71 -81 77
-88 139 -150 245 -244 49 -44 91 -82 94 -85 3 -3 37 -30 75 -60 39 -30 71 -58
73 -62 2 -5 10 -8 18 -8 8 0 14 -4 14 -10 0 -5 6 -10 14 -10 8 0 16 -4 18 -8
8 -21 291 -194 398 -244 141 -66 230 -106 260 -117 19 -8 49 -19 65 -26 17 -7
84 -29 150 -49 66 -20 134 -41 152 -47 35 -11 63 -17 103 -24 14 -2 48 -8 75
-14 28 -6 62 -13 78 -16 15 -3 37 -7 50 -10 13 -2 43 -7 67 -9 25 -3 74 -8
110 -13 36 -4 162 -7 280 -7 226 0 305 5 460 30 19 3 51 8 70 10 19 3 64 11
100 19 36 8 76 17 90 19 14 3 41 10 60 16 19 6 45 13 58 16 21 4 190 58 222
71 8 3 20 7 25 9 6 1 36 14 68 28 31 14 57 23 57 20 0 -3 14 4 30 16 17 12 30
19 30 15 0 -5 88 36 145 68 11 6 45 24 75 40 294 156 617 414 860 687 125 140
370 486 370 521 0 5 3 9 8 9 4 0 12 10 18 23 6 12 36 72 67 132 81 160 200
454 227 560 1 6 4 15 6 20 13 41 74 310 80 350 3 28 7 52 9 55 4 7 17 111 32
260 9 89 9 443 0 560 -9 114 -20 197 -32 254 -2 12 -7 38 -10 58 -2 20 -14 79
-26 130 -11 51 -22 100 -24 109 -7 32 -47 166 -72 239 -64 184 -154 388 -252
565 -34 62 -197 312 -215 331 -6 6 -22 26 -36 44 -27 37 -107 135 -155 190
-45 53 -263 270 -316 315 -69 59 -80 67 -165 133 -83 62 -208 148 -259 176
-16 9 -43 25 -60 36 -54 34 -246 130 -261 130 -8 0 -14 4 -14 8 0 9 -172 79
-179 73 -2 -1 -7 1 -10 6 -3 5 -53 24 -111 42 -58 18 -112 36 -120 39 -8 3
-17 6 -20 7 -25 6 -237 56 -255 60 -5 2 -46 8 -90 15 -44 6 -96 14 -115 17
-19 3 -53 7 -75 9 -49 5 -512 13 -517 9z m397 -670 c102 -7 145 -12 255 -30
56 -9 199 -44 275 -67 39 -12 75 -22 81 -24 14 -2 179 -68 236 -94 l40 -18
-33 -15 c-73 -31 -91 -36 -218 -61 -131 -26 -273 -67 -321 -91 -14 -7 -54 -28
-90 -46 -253 -127 -466 -348 -598 -619 -39 -81 -87 -210 -96 -261 -3 -13 -5
-25 -7 -26 -2 -4 -4 -11 -14 -68 -4 -27 -10 -57 -11 -65 -2 -8 -6 -35 -9 -59
-9 -63 -59 -189 -104 -257 -45 -71 -130 -158 -191 -199 -25 -17 -46 -33 -48
-37 -2 -5 -8 -8 -13 -8 -6 0 -28 -9 -51 -20 -47 -22 -126 -46 -183 -54 -22 -3
-51 -8 -65 -11 -14 -2 -49 -10 -78 -16 -81 -16 -178 -52 -277 -100 -50 -24
-94 -47 -100 -52 -5 -4 -35 -24 -66 -45 -189 -125 -365 -333 -465 -548 -36
-78 -97 -244 -89 -244 3 0 0 -11 -5 -24 -5 -13 -11 -41 -15 -63 -3 -21 -7 -48
-9 -60 -3 -11 -7 -38 -10 -59 -20 -124 -77 -257 -145 -336 l-34 -40 -12 29
c-7 15 -12 30 -12 33 0 3 -9 23 -20 45 -29 58 -84 221 -118 355 -18 70 -20 80
-29 131 -3 19 -8 45 -11 59 -3 14 -8 45 -11 70 -3 25 -8 52 -9 61 -18 94 -24
421 -11 564 16 164 26 223 71 425 51 226 176 519 330 772 21 35 109 164 122
178 33 39 60 72 83 102 42 57 281 291 365 358 88 70 296 210 313 210 6 0 12 4
14 9 3 8 247 131 261 131 4 0 26 9 50 19 51 24 205 76 267 91 25 6 63 16 85
21 22 6 47 11 55 13 8 1 29 5 45 9 17 3 48 9 70 12 22 4 51 8 65 10 14 3 63 7
110 11 47 3 86 8 88 9 4 4 194 -3 297 -10z m1521 -667 c65 -59 157 -155 200
-208 16 -19 31 -37 34 -40 19 -17 120 -151 120 -159 0 -6 4 -11 8 -11 5 0 15
-12 23 -27 8 -16 18 -32 22 -38 23 -29 77 -121 77 -131 0 -17 -100 -108 -161
-146 -97 -60 -141 -77 -269 -98 -85 -14 -105 -18 -105 -20 0 -1 -9 -3 -20 -5
-16 -3 -52 -11 -62 -14 -2 -1 -5 -1 -8 -1 -13 0 -128 -46 -195 -77 -80 -37
-217 -123 -272 -170 -58 -49 -173 -167 -203 -208 -17 -22 -32 -42 -35 -45 -3
-3 -24 -34 -47 -70 -69 -108 -126 -230 -160 -344 -22 -72 -39 -152 -48 -216
-10 -76 -30 -161 -45 -195 -4 -11 -14 -35 -22 -52 -7 -18 -16 -33 -20 -33 -5
0 -8 -6 -8 -14 0 -12 -56 -95 -88 -131 -9 -10 -108 -98 -128 -115 -7 -4 -44
-25 -84 -44 -71 -36 -147 -59 -225 -70 -73 -11 -149 -28 -195 -43 -25 -8 -53
-16 -63 -18 -9 -2 -23 -7 -30 -12 -6 -4 -17 -8 -23 -9 -23 -4 -180 -87 -239
-126 -124 -84 -249 -201 -329 -308 -22 -30 -43 -57 -46 -60 -15 -15 -95 -164
-123 -230 -16 -36 -32 -74 -37 -85 -26 -60 -65 -226 -77 -325 -11 -95 -95
-296 -117 -283 -173 100 -419 309 -600 510 l-29 32 94 99 c52 55 113 128 136
163 24 35 47 69 52 75 36 43 140 301 156 386 3 18 8 42 10 53 2 11 4 20 5 20
1 0 6 31 14 95 27 209 142 395 321 516 59 41 182 90 245 99 88 12 206 37 265
57 363 122 638 366 805 713 26 55 53 118 60 140 6 22 14 47 17 55 15 36 38
143 48 220 3 25 8 61 11 80 20 130 98 284 194 380 110 109 253 179 400 196
138 15 344 81 445 141 22 13 48 26 58 30 9 3 17 9 17 14 0 5 6 9 13 9 6 0 53
34 102 74 50 41 93 75 97 75 3 1 32 -23 64 -51z m755 -1288 c2 -13 6 -29 9
-32 2 -3 5 -18 13 -63 3 -16 8 -41 12 -55 5 -23 8 -40 21 -130 15 -105 17
-155 17 -370 0 -211 -4 -305 -17 -365 -2 -11 -7 -45 -12 -75 -8 -57 -10 -68
-13 -72 -2 -2 -4 -16 -6 -33 -2 -16 -7 -41 -11 -55 -4 -14 -8 -29 -9 -35 -1
-5 -3 -12 -4 -15 -3 -6 -7 -23 -15 -59 -7 -29 -54 -179 -65 -206 -5 -11 -19
-47 -31 -80 -50 -132 -127 -279 -265 -504 -21 -35 -99 -136 -107 -139 -4 -2
-8 -10 -8 -18 0 -8 -4 -14 -8 -14 -4 0 -24 -21 -44 -47 -105 -137 -339 -347
-518 -467 -47 -31 -90 -61 -97 -66 -7 -6 -15 -10 -18 -10 -3 0 -30 -16 -60
-35 -30 -19 -55 -32 -55 -28 0 3 -8 0 -17 -8 -38 -30 -222 -109 -362 -155
-141 -46 -167 -54 -188 -59 -10 -2 -52 -11 -93 -20 -41 -9 -91 -18 -110 -20
-19 -3 -48 -7 -65 -10 -187 -30 -490 -36 -655 -11 -136 20 -146 22 -200 36
-25 7 -54 14 -65 16 -11 2 -39 8 -62 15 l-41 11 39 85 c21 47 39 93 39 103 0
11 4 21 9 24 7 5 34 104 45 169 3 15 7 35 10 45 2 9 8 44 11 77 4 32 8 62 10
65 2 4 6 18 9 32 16 91 97 236 178 318 122 125 251 189 433 215 166 24 387
107 506 191 27 19 51 34 54 34 6 0 24 15 114 92 71 61 121 113 167 174 16 22
35 45 42 52 43 46 180 317 198 391 2 9 12 50 23 91 11 41 22 95 25 120 28 212
89 344 220 476 109 109 243 175 401 198 51 8 110 17 120 20 115 29 202 60 290
103 79 39 138 72 145 82 7 8 43 30 53 30 4 1 8 -3 8 -9z"/>
</g>
</svg>
