<svg width="40" height="40" fill="none" xmlns="http://www.w3.org/2000/svg"><g clip-path="url(#a)" stroke="#0070F0" stroke-width="2.5" stroke-linecap="round" stroke-linejoin="round"><path d="M7.86 26.43a6.43 6.43 0 1 0 0-12.86 6.43 6.43 0 0 0 0 12.86ZM32.14 38.57a6.43 6.43 0 1 0 0-12.86 6.43 6.43 0 0 0 0 12.86ZM32.14 14.29a6.43 6.43 0 1 0 0-12.86 6.43 6.43 0 0 0 0 12.86ZM13.6 17.14l12.8-6.43M13.6 22.86l12.8 6.43"/></g><defs><clipPath id="a"><path fill="#fff" d="M0 0h40v40H0z"/></clipPath></defs></svg>