<svg width="40" height="40" fill="none" xmlns="http://www.w3.org/2000/svg"><g clip-path="url(#a)" stroke="#FF9752" stroke-width="3" stroke-linecap="round" stroke-linejoin="round"><path d="M38.57 30v5.71a2.86 2.86 0 0 1-2.86 2.86H30M30 1.43h5.71a2.86 2.86 0 0 1 2.86 2.86V10M1.43 10V4.29a2.86 2.86 0 0 1 2.86-2.86H10M10 38.57H4.29a2.86 2.86 0 0 1-2.86-2.86V30M20 18.57a5.71 5.71 0 1 0 0-11.43 5.71 5.71 0 0 0 0 11.43ZM29.03 30a10 10 0 0 0-18.06 0"/></g><defs><clipPath id="a"><path fill="#fff" d="M0 0h40v40H0z"/></clipPath></defs></svg>