<svg width="16" height="14" fill="none" xmlns="http://www.w3.org/2000/svg"><g opacity=".3" clip-path="url(#a)"><path fill-rule="evenodd" clip-rule="evenodd" d="M15.93 2.19c-2.39 1.21-3.58 2.64-3.58 4.28a3.9 3.9 0 0 1 2.52 1.29c.67.74 1 1.6 1 2.57 0 1.03-.32 1.9-.97 2.6A3.15 3.15 0 0 1 12.47 14c-1.1 0-2.05-.46-2.85-1.38a4.93 4.93 0 0 1-1.2-3.36c0-3.95 2.13-7.03 6.4-9.26l1.11 2.19Zm-8.42 0c-2.4 1.21-3.6 2.64-3.6 4.28a3.93 3.93 0 0 1 3.54 3.86 3.7 3.7 0 0 1-.98 2.6A3.2 3.2 0 0 1 4.02 14c-1.1 0-2.04-.46-2.83-1.38A4.97 4.97 0 0 1 0 9.26C0 5.31 2.12 2.23 6.37 0L7.5 2.19Z" fill="#2EC5CE"/></g><defs><clipPath id="a"><path fill="#fff" d="M0 0h16v14H0z"/></clipPath></defs></svg>