<svg width="143" height="120" fill="none" xmlns="http://www.w3.org/2000/svg"><g opacity=".3" clip-path="url(#a)"><path fill-rule="evenodd" clip-rule="evenodd" d="M142.37 18.74c-21.32 10.41-31.98 22.65-31.98 36.7 9.09 1.05 16.6 4.73 22.54 11.07 5.95 6.33 8.92 13.66 8.92 22 0 8.84-2.88 16.3-8.65 22.38-5.77 6.07-13.02 9.11-21.76 9.11-9.8 0-18.27-3.95-25.44-11.84-7.16-7.9-10.75-17.49-10.75-28.77 0-33.84 19.06-60.3 57.16-79.39l9.96 18.74Zm-75.25 0c-21.5 10.41-32.25 22.65-32.25 36.7 9.26 1.05 16.87 4.73 22.81 11.07 5.94 6.33 8.91 13.66 8.91 22 0 8.84-2.92 16.3-8.78 22.38-5.85 6.07-13.15 9.11-21.9 9.11-9.78 0-18.21-3.95-25.3-11.84C3.55 100.26 0 90.67 0 79.39 0 45.55 18.96 19.1 56.9 0l10.22 18.74Z" fill="#0070F0"/></g><defs><clipPath id="a"><path fill="#fff" d="M0 0h143v120H0z"/></clipPath></defs></svg>