<svg width="29" height="28" fill="none" xmlns="http://www.w3.org/2000/svg"><g clip-path="url(#a)"><path d="M4.82 28h9.24v-9.95h-3.32v-3.28h3.32v-4.1c0-2.27 1.86-4.1 4.15-4.1h4.15v3.27h-3.32c-.92 0-1.66.74-1.66 1.64v3.29h4.83l-.55 3.28h-4.28V28h7.47A4.13 4.13 0 0 0 29 23.9V4.1C29 1.84 27.14 0 24.85 0H4.82A4.13 4.13 0 0 0 .67 4.1v19.8c0 2.26 1.86 4.1 4.15 4.1ZM2.32 4.1a2.48 2.48 0 0 1 2.5-2.46h20.03c1.37 0 2.49 1.1 2.49 2.46v19.8a2.48 2.48 0 0 1-2.49 2.46h-5.81v-6.67h4.02l1.1-6.57h-5.12v-1.64h4.98V4.92h-5.81a5.78 5.78 0 0 0-5.81 5.74v2.46H9.08v6.57h3.32v6.67H4.82a2.48 2.48 0 0 1-2.5-2.46V4.1Z" fill="#fff"/></g><defs><clipPath id="a"><path fill="#fff" transform="translate(.67)" d="M0 0h28.33v28H0z"/></clipPath></defs></svg>