<svg width="29" height="28" fill="none" xmlns="http://www.w3.org/2000/svg"><path d="M5.6 28h17.13c3.09 0 5.6-2.49 5.6-5.54V5.54A5.58 5.58 0 0 0 22.73 0H5.6C2.5 0 0 2.49 0 5.54v16.92A5.58 5.58 0 0 0 5.6 28ZM1.78 5.54c0-2.09 1.72-3.79 3.84-3.79h17.12c2.11 0 3.83 1.7 3.83 3.8v16.9c0 2.1-1.72 3.8-3.83 3.8H5.6a3.82 3.82 0 0 1-3.84-3.8V5.56Z" fill="#fff"/><path d="M14.17 21.15A7.2 7.2 0 0 0 21.4 14a7.2 7.2 0 0 0-7.23-7.15A7.2 7.2 0 0 0 6.93 14a7.2 7.2 0 0 0 7.24 7.15Zm0-12.55a5.44 5.44 0 0 1 5.46 5.4c0 2.98-2.45 5.4-5.46 5.4A5.44 5.44 0 0 1 8.7 14c0-2.98 2.45-5.4 5.47-5.4ZM21.67 8.59c1.17 0 2.04-.86 2.04-2 0-1.2-.92-2.02-2.04-2.02-1.16 0-2.04.87-2.04 2.01 0 1.2.92 2 2.04 2Zm.21-2.2c.38.32-.48.72-.48.2 0-.32.44-.24.48-.2Z" fill="#fff"/></svg>