<svg width="221" height="112" fill="none" xmlns="http://www.w3.org/2000/svg"><path d="M220.5 50c0 13.49-12.1 25.87-32.07 34.9-19.92 9.01-47.47 14.6-77.93 14.6-30.46 0-58.01-5.59-77.93-14.6C12.61 75.87.5 63.49.5 50c0-13.49 12.1-25.87 32.07-34.9C52.5 6.09 80.04.5 110.5.5c30.46 0 58.01 5.59 77.93 14.6 19.96 9.03 32.07 21.41 32.07 34.9Z" stroke="#FF4040"/><path d="M220.5 62c0 13.49-12.1 25.87-32.07 34.9-19.92 9.01-47.47 14.6-77.93 14.6-30.46 0-58.01-5.59-77.93-14.6C12.61 87.87.5 75.49.5 62c0-13.49 12.1-25.87 32.07-34.9 19.92-9.01 47.47-14.6 77.93-14.6 30.46 0 58.01 5.59 77.93 14.6 19.96 9.03 32.07 21.41 32.07 34.9Z" stroke="#FF4040"/></svg>