<svg width="14" height="12" fill="none" xmlns="http://www.w3.org/2000/svg"><path d="M6.05 1.94h1.9c.89 0 1.65.6 1.86 1.46.01.08.08.13.15.13h2.93a.16.16 0 0 0 .16-.16v-1.6A1.27 1.27 0 0 0 11.77.5H2.23A1.27 1.27 0 0 0 .95 1.78v1.59a.16.16 0 0 0 .16.16h2.93c.07 0 .14-.05.15-.13a1.9 1.9 0 0 1 1.86-1.46ZM.64 4.48a.64.64 0 0 0-.64.64v3.34c0 .3.21.56.5.62.08.02.14.08.14.16v1.29a.64.64 0 1 0 1.27 0V9.25a.16.16 0 0 1 .16-.16h9.86a.16.16 0 0 1 .16.16v1.28a.64.64 0 1 0 1.27 0v-1.3c0-.07.06-.13.13-.15.3-.06.51-.32.51-.62V5.12a.64.64 0 0 0-.64-.64H.64Z" fill="#000"/></svg>