<svg width="17" height="16" fill="none" xmlns="http://www.w3.org/2000/svg"><path fill-rule="evenodd" clip-rule="evenodd" d="M15.33 9.33a.67.67 0 0 1 .67.71A6.34 6.34 0 0 1 9.67 16H6.33A6.34 6.34 0 0 1 0 10.04a.68.68 0 0 1 .67-.7h2.4c.16 0 .29-.1.33-.24.17-.55.69-.93 1.27-.93H8c.58 0 1.1.38 1.27.93.04.14.17.23.32.23h3.58c.18 0 .33-.15.33-.33V2a.67.67 0 0 0-1.11-.5l-.28.28a.33.33 0 0 0-.08.34 1.9 1.9 0 0 1-.45 1.96l-.13.13a.67.67 0 0 1-.95 0L8.74 2.45a.67.67 0 0 1 0-.94l.14-.14C9.4.87 10.15.7 10.83.92c.12.04.25.01.34-.08l.3-.3A2 2 0 0 1 14.84 2v7c0 .18.15.33.34.33h.16ZM7.67 13.5c.18 0 .33-.15.33-.33V9.83a.33.33 0 0 0-.33-.33H5a.33.33 0 0 0-.33.33v3.34c0 .18.15.33.33.33h2.67Z" fill="#000"/><path d="M6 4.06c.1 0 .2-.02.28-.06l1.21-.56a.67.67 0 1 0-.56-1.21l-1.2.56A.67.67 0 0 0 6 4.06ZM9.41 7.67c.34.15.73-.01.88-.35l.52-1.23a.67.67 0 0 0-1.22-.52L9.07 6.8c-.15.34 0 .73.34.87ZM7 6.05c.25.26.67.26.93 0l.95-.93a.67.67 0 0 0-.94-.95L7 5.11a.67.67 0 0 0 0 .94Z" fill="#000"/></svg>