<svg width="16" height="16" fill="none" xmlns="http://www.w3.org/2000/svg"><path d="M4.67 3c.36 0 .66-.3.66-.67V.67A.67.67 0 1 0 4 .67v1.66c0 .37.3.67.67.67ZM3 4.67C3 4.3 2.7 4 2.33 4H.67a.67.67 0 0 0 0 1.33h1.66c.37 0 .67-.3.67-.66ZM2.33 10.67H.67a.67.67 0 0 0 0 1.33h1.66a.67.67 0 0 0 0-1.33ZM11.33 0c-.36 0-.66.3-.66.67v1.66a.67.67 0 0 0 1.33 0V.67c0-.37-.3-.67-.67-.67ZM4.67 13c-.37 0-.67.3-.67.67v1.66a.67.67 0 1 0 1.33 0v-1.66c0-.37-.3-.67-.66-.67ZM11.33 13c-.36 0-.66.3-.66.67v1.66a.67.67 0 0 0 1.33 0v-1.66c0-.37-.3-.67-.67-.67ZM13.67 5.33h1.66a.67.67 0 1 0 0-1.33h-1.66a.67.67 0 1 0 0 1.33ZM15.33 10.67h-1.66a.67.67 0 0 0 0 1.33h1.66a.67.67 0 0 0 0-1.33Z" fill="#000"/><path fill-rule="evenodd" clip-rule="evenodd" d="M11.33 4c.37 0 .67.3.67.67v6.66c0 .37-.3.67-.67.67H4.67a.67.67 0 0 1-.67-.67V4.67c0-.37.3-.67.67-.67h6.66Zm-1 6.67c.19 0 .34-.15.34-.34V5.67a.33.33 0 0 0-.34-.34H5.67a.33.33 0 0 0-.34.34v4.66c0 .19.15.34.34.34h4.66Z" fill="#000"/></svg>