<svg width="128" height="34" fill="none" xmlns="http://www.w3.org/2000/svg"><path fill-rule="evenodd" clip-rule="evenodd" d="M105.23 22.26c2.49 0 4.46-2.69 4.46-6v-8h2v8c0 4.4-2.88 7.95-6.42 7.95s-6.42-3.55-6.42-7.95v-8h2v8c-.08 3.36 1.89 6.05 4.37 6.05l.01-.05Zm-48.17 2.07h-2V22.9a7.69 7.69 0 0 1-4.4 1.39 8 8 0 1 1 6-13.23l-1.47 1.31a6 6 0 1 0-4.46 10c1.68 0 3.28-.73 4.38-2h-5.4v-2h7.37l-.02 5.96ZM23.23 8.39h-2v15.92h8v-2h-6V8.39Zm12.23 12a6 6 0 1 0 0-12 6 6 0 0 0 0 12Zm0-2a4 4 0 1 0 0-7.96 4 4 0 0 0 0 7.94v.02Zm4 5.94v-2h-8v2h8Zm30.96-9.9a6 6 0 0 0-6-6l.02-.04a6 6 0 0 0-6.02 6.04 6 6 0 0 0 12 0Zm-6 4a4 4 0 1 0-4-4 4 4 0 0 0 4.02 3.94l-.02.06Zm4 5.94v-2h-8v2h8Zm4.13-15.98h2v15.9h-2V8.39Zm6.77 0h-2v15.93h2v-4h.31a6 6 0 1 0 0-11.93h-.31Zm0 2v.05h-.01l.01-.05Zm0 .05a4 4 0 1 1 .31 7.86h-.31v-7.86Zm14.38-.87.03-.03-.01.05-.02-.02ZM90.9 8.44a3.74 3.74 0 0 1 2.79 1.13l-1.45 1.14a1.94 1.94 0 0 0-3.33 1.13V12c0 .88.61 1.47 1.8 1.55 4.58.28 6.68 2.43 6.68 5.27V19a5.9 5.9 0 0 1-10.17 3.42l1.53-1.18a3.6 3.6 0 0 0 2.8 1.14c2 .1 3.73-1.39 3.92-3.38v-.14c0-2.67-2.62-3.16-4.89-3.38-2.1-.2-3.61-1.51-3.61-3.4V12a3.85 3.85 0 0 1 3.93-3.56Zm34.13 15.82h2l-.02-15.87-6.6 8.69-6.6-8.69v15.9h2v-9.93l4.61 6 4.61-6v9.9Z" fill="#fff"/><path fill-rule="evenodd" clip-rule="evenodd" d="M11.63 6A5.44 5.44 0 1 0 .75 6v16.45l4.48 3.21v7.82h1.92v-7.82l4.48-3.21V6Zm-1.92 9.2-2.56 2.56v-2.4l2.56-2.56v2.4Zm-4.44.16L2.71 12.8v2.4l2.56 2.56v-2.4Zm4.44-5.28L6.19 13.6 2.67 10V7.6l3.52 3.52L9.71 7.6v2.48Zm-.12-4.99a3.54 3.54 0 0 0-3.4-2.61v-.04c-1.6.01-3 1.1-3.4 2.65l3.4 3.39 3.4-3.39ZM2.67 21.48v-3.6l2.56 2.56v2.86l-2.56-1.82Zm4.48-1.04v2.87l2.56-1.84v-3.59l-2.56 2.56Z" fill="#FFAC12"/></svg>