<svg width="73" height="13" fill="none" xmlns="http://www.w3.org/2000/svg"><path d="M7.27 2.17V4.1h-4v2.07h2.99v1.86h-3V12H.86V2.17h6.4Zm2.46 1.2a1.5 1.5 0 0 1-1.04-.36c-.26-.25-.39-.56-.39-.92 0-.38.13-.68.4-.93C8.95.91 9.3.8 9.72.8c.4 0 .74.12 1 .37.28.25.41.55.41.93 0 .36-.13.67-.4.92-.27.24-.6.37-1.01.37Zm1.19.82V12h-2.4V4.19h2.4Zm4.13 1.3a3.1 3.1 0 0 1 1.05-1c.42-.26.88-.39 1.4-.39v2.54h-.66c-.6 0-1.05.13-1.34.39-.3.25-.45.7-.45 1.34V12h-2.4V4.19h2.4v1.3Zm6.77 6.62a4.5 4.5 0 0 1-1.82-.35 3.14 3.14 0 0 1-1.26-.95c-.3-.41-.48-.87-.52-1.37h2.37c.03.27.15.49.38.66.22.16.5.25.82.25.3 0 .53-.06.69-.17a.55.55 0 0 0 .25-.46c0-.23-.12-.39-.35-.5a6.5 6.5 0 0 0-1.13-.36c-.56-.13-1.03-.26-1.4-.4-.38-.15-.7-.38-.97-.69a1.9 1.9 0 0 1-.4-1.27c0-.45.11-.86.36-1.22.25-.37.61-.67 1.09-.88a4.23 4.23 0 0 1 1.72-.32c.98 0 1.75.24 2.31.72.57.49.9 1.13.98 1.94h-2.21a.94.94 0 0 0-.36-.65 1.2 1.2 0 0 0-.79-.24c-.28 0-.5.06-.64.17a.5.5 0 0 0-.23.44c0 .22.12.39.35.5.25.11.62.22 1.12.34.58.15 1.05.3 1.42.44.36.14.68.38.95.7.28.32.42.75.43 1.3 0 .45-.13.86-.39 1.22-.25.36-.62.64-1.1.84-.48.2-1.04.31-1.67.31Zm8.98-2.14V12h-1.22a3 3 0 0 1-2.03-.63c-.48-.43-.72-1.12-.72-2.09v-3.1h-.96v-2h.96v-1.9h2.39v1.9h1.57v2h-1.57V9.3c0 .24.06.4.17.5.11.1.3.16.56.16h.85Z" fill="#1F384F"/><path d="M45.66 2.17 43.1 12h-2.9l-1.57-6.47L37.01 12h-2.9l-2.5-9.83h2.57l1.41 7.16 1.75-7.16h2.64l1.68 7.16 1.42-7.16h2.58Zm.72 5.91c0-.8.15-1.5.45-2.11.31-.61.73-1.08 1.25-1.4.52-.33 1.1-.5 1.75-.5.55 0 1.03.12 1.44.34.42.23.74.52.97.88V4.2h2.39V12h-2.4v-1.1c-.23.36-.55.65-.97.88-.41.22-.9.33-1.45.33-.63 0-1.2-.16-1.73-.49-.52-.33-.94-.8-1.25-1.41a4.82 4.82 0 0 1-.45-2.13Zm5.86.01c0-.6-.17-1.06-.5-1.41a1.6 1.6 0 0 0-1.21-.52c-.48 0-.88.17-1.22.52-.33.34-.49.8-.49 1.4 0 .6.16 1.07.49 1.43.34.34.74.52 1.22.52.47 0 .88-.18 1.2-.52.34-.35.5-.82.5-1.42Zm7.64 1.67 1.69-5.57h2.55L61.35 12h-2.96l-2.77-7.81h2.56l1.7 5.57Zm12.61-1.8c0 .23-.01.47-.04.7h-5.42c.04.5.2.87.46 1.13.28.25.62.38 1.02.38.6 0 1.02-.26 1.25-.76h2.55c-.13.51-.37.98-.72 1.39-.33.4-.76.73-1.27.96-.51.24-1.09.35-1.72.35-.77 0-1.45-.16-2.05-.49-.6-.32-1.06-.8-1.4-1.4-.33-.6-.5-1.31-.5-2.13 0-.8.16-1.52.49-2.12.34-.61.8-1.08 1.4-1.4.6-.33 1.28-.5 2.06-.5.75 0 1.43.16 2.01.48.6.32 1.05.77 1.38 1.36.33.59.5 1.27.5 2.06Zm-2.45-.62c0-.41-.14-.74-.42-.98a1.55 1.55 0 0 0-1.05-.37c-.4 0-.74.12-1.02.35-.27.24-.44.57-.5 1h2.99Z" fill="#D9D9D9"/></svg>