<svg width="14" height="20" fill="none" xmlns="http://www.w3.org/2000/svg"><path fill-rule="evenodd" clip-rule="evenodd" d="m0 8.7.02-1.86.01-.95C.03 2.49 2.17 0 5.11 0h3.78c2.94 0 5.08 2.48 5.08 5.89a221.02 221.02 0 0 1 0 8.22c0 3.4-2.14 5.89-5.08 5.89H5.11C2.17 20 .03 17.52.03 14.1.02 12.82 0 11.5 0 10.17V8.69Zm8.28 8.94v.16c0 .67-.56 1.2-1.28 1.2-.7 0-1.28-.53-1.28-1.2v-.16c0-.66.58-1.2 1.28-1.2.72 0 1.28.54 1.28 1.2ZM2.02 6.44 2 7.65 2 8.61l.02 2.56c0 2.22 1.53 3.83 3.63 3.83h2.7c2.1 0 3.63-1.61 3.63-3.83a131.06 131.06 0 0 0 0-5.34C11.98 3.6 10.45 2 8.35 2h-2.7c-2.1 0-3.63 1.61-3.63 3.83v.61Z" fill="#0070F0" fill-opacity=".9"/></svg>