<svg width="86" height="30" fill="none" xmlns="http://www.w3.org/2000/svg"><path d="M83.93 10.01a7.77 7.77 0 0 0-6.12-3.04 7.65 7.65 0 0 0-6.12 3.04 8.24 8.24 0 0 0-1.46 4.8 8.24 8.24 0 0 0 1.46 4.8 7.77 7.77 0 0 0 6.12 3.05 7.65 7.65 0 0 0 6.12-3.05 8.24 8.24 0 0 0 1.45-4.8 8.24 8.24 0 0 0-1.45-4.8Zm-2.43 6.6c-.55 1.69-1.87 3-3.7 3.05-1.83.04-3.15-1.36-3.7-3.05a5.64 5.64 0 0 1 0-3.6c.56-1.68 1.88-3 3.7-3.04 1.82-.04 3.15 1.36 3.7 3.04.4 1.17.4 2.43 0 3.6Zm-55.72 5.64c0 .12-.05.23-.13.32a.43.43 0 0 1-.31.13H22.8a.43.43 0 0 1-.31-.13.45.45 0 0 1-.13-.32V1.05c0-.12.04-.24.13-.32.08-.08.19-.13.3-.13h2.55c.11 0 .23.05.3.13.09.08.14.2.14.31v21.21Zm-5.98 0c0 .12-.04.23-.12.32a.43.43 0 0 1-.31.13h-2.55a.43.43 0 0 1-.3-.13.45.45 0 0 1-.13-.32V1.05c0-.12.04-.23.12-.32.08-.08.2-.13.3-.13h2.55c.12 0 .23.05.31.13.08.08.13.2.13.31v21.21Zm49.86-14.4v1.8a.47.47 0 0 1-.16.42.46.46 0 0 1-.43.1c-2.88-.6-4.64.69-4.64 3.38v8.7c0 .12-.05.23-.13.32a.43.43 0 0 1-.31.13h-2.54a.43.43 0 0 1-.31-.13.45.45 0 0 1-.13-.32v-8.88a6.08 6.08 0 0 1 1.87-4.5 6.55 6.55 0 0 1 4.66-1.9c.6 0 1.18.05 1.77.16.3.1.35.29.35.75v-.03Zm-10.89 6.96a8.13 8.13 0 0 0-1.45-4.8 7.77 7.77 0 0 0-6.12-3.04A7.65 7.65 0 0 0 45.08 10a8.53 8.53 0 0 0 0 9.6 7.55 7.55 0 0 0 6.12 3.04c1.55 0 3.07-.46 4.36-1.33v1.9c0 2.57-2.22 3.04-3.64 3.13-.98.03-1.95-.03-2.92-.17-.39-.06-.66 0-.66.43v2.28a.4.4 0 0 0 .25.35c.05.02.1.02.15.02 3.3.29 5.51.23 7.18-.74a5.5 5.5 0 0 0 2.43-3.13c.3-1.02.43-2.08.42-3.14v-7.44Zm-7.57 4.83c-1.83 0-3.15-1.35-3.7-3.04a5.64 5.64 0 0 1 0-3.6c.55-1.68 1.87-3.04 3.7-3.04 4.09 0 4.22 4.23 4.22 4.84 0 .61-.13 4.84-4.22 4.84Zm-37.14-6.39c0-2.04-.45-3.6-1.42-4.67-.97-1.07-2.92-1.6-4.73-1.6-1.82-.02-3.6.47-5.17 1.39a.33.33 0 0 0-.16.29l.13 2.25a.4.4 0 0 0 .26.31.4.4 0 0 0 .4-.07c2.2-1.39 4.87-1.65 6.22-.95a2.38 2.38 0 0 1 1.19 2.17v.33h-3.7c-1.59 0-6.46.6-6.46 5.14v.05a4.46 4.46 0 0 0 1.58 3.64 6.18 6.18 0 0 0 3.95 1.15h7.48c.11 0 .22-.05.3-.13.09-.08.13-.2.13-.31v-9 .01Zm-3.28 6.66H6.36a2.7 2.7 0 0 1-1.57-.56 1.76 1.76 0 0 1-.74-1.48c0-.8.54-2.43 3.23-2.43h3.5v4.47ZM35.14 6.97c-4.53 0-6.5 3.08-7.14 5.68-.17.7-.26 1.43-.26 2.15a8.24 8.24 0 0 0 1.45 4.8 7.79 7.79 0 0 0 6.12 3.04c2.44.1 4.08-.33 5.32-1.05a.7.7 0 0 0 .3-.76v-2c0-.4-.24-.6-.6-.35a7.63 7.63 0 0 1-4.91 1.2 4 4 0 0 1-2.66-1.06 4.1 4.1 0 0 1-1.29-2.58h10.05c.11 0 .21-.05.3-.12a.42.42 0 0 0 .12-.3c.17-2.79-.63-8.65-6.8-8.65Zm-3.62 6.3a3.5 3.5 0 0 1 2.29-3.11c.43-.15.88-.22 1.33-.19a3 3 0 0 1 2.35.91 3.09 3.09 0 0 1 .87 2.4h-6.84Z" fill="#FF5A00"/></svg>