<svg width="92" height="29" fill="none" xmlns="http://www.w3.org/2000/svg"><path fill-rule="evenodd" clip-rule="evenodd" d="M57.03 22.5c-5.32 3.92-13.05 6.02-19.73 6.02a35.77 35.77 0 0 1-24.1-9.19c-.49-.45-.07-1.06.54-.7 6.87 4 15.34 6.38 24.11 6.38 5.9 0 12.41-1.23 18.4-3.77.9-.36 1.65.6.78 1.25Z" fill="#000"/><path fill-rule="evenodd" clip-rule="evenodd" d="M59.25 19.95c-.67-.87-4.5-.42-6.22-.2-.51.07-.6-.38-.13-.7 3.07-2.16 8.06-1.52 8.64-.81.58.7-.16 5.74-3.03 8.12-.45.36-.87.16-.67-.32.64-1.61 2.1-5.19 1.41-6.1Z" fill="#fff"/><path fill-rule="evenodd" clip-rule="evenodd" d="M53.13 3.9V1.8c0-.32.23-.52.52-.52h9.34c.3 0 .55.23.55.52v1.77c0 .3-.26.68-.7 1.32L58 11.8c1.8-.03 3.7.23 5.32 1.13.35.2.45.52.48.8v2.23c0 .32-.32.68-.68.48a10.66 10.66 0 0 0-9.86.04c-.32.16-.68-.17-.68-.49v-2.13c0-.32 0-.9.36-1.41l5.6-8.03h-4.86c-.3 0-.55-.22-.55-.51ZM19.06 16.88h-2.84c-.25-.03-.48-.22-.51-.48V1.83c0-.29.26-.51.55-.51h2.64c.29 0 .48.22.51.48v1.9h.07c.68-1.84 2-2.7 3.74-2.7 1.77 0 2.9.86 3.67 2.7A4.04 4.04 0 0 1 30.82 1a4 4 0 0 1 3.3 1.6c.9 1.23.7 3 .7 4.58v9.22c0 .3-.26.52-.55.52h-2.8c-.29-.04-.52-.26-.52-.52V8.67c0-.62.07-2.16-.06-2.74-.23-.97-.84-1.26-1.68-1.26a1.9 1.9 0 0 0-1.7 1.2c-.3.73-.26 1.96-.26 2.8v7.73c0 .3-.26.52-.55.52h-2.84c-.29-.04-.51-.26-.51-.52V8.67c0-1.62.25-4.03-1.74-4.03-2.03 0-1.97 2.32-1.97 4.03v7.73a.57.57 0 0 1-.58.48ZM71.6 1c4.22 0 6.51 3.61 6.51 8.22 0 4.45-2.51 8-6.51 8-4.13 0-6.38-3.61-6.38-8.13C65.18 4.54 67.47 1 71.6 1Zm0 3c-2.1 0-2.22 2.87-2.22 4.64 0 1.78-.04 5.58 2.19 5.58 2.19 0 2.32-3.06 2.32-4.93 0-1.23-.07-2.71-.42-3.87-.32-1.03-.97-1.42-1.87-1.42Zm11.96 12.9h-2.84c-.29-.04-.51-.26-.51-.52V1.77a.56.56 0 0 1 .54-.49h2.65c.25 0 .45.2.51.42v2.23h.07c.8-2 1.9-2.94 3.86-2.94 1.26 0 2.52.46 3.32 1.71.75 1.16.75 3.13.75 4.55v9.18c-.04.26-.26.45-.55.45h-2.84c-.26-.03-.48-.22-.51-.45V8.5c0-1.6.19-3.93-1.78-3.93-.67 0-1.32.45-1.64 1.16a6.7 6.7 0 0 0-.45 2.77v7.87a.59.59 0 0 1-.58.51ZM45.68 9.91c0 1.1.04 2.03-.51 3.03-.45.8-1.16 1.3-1.97 1.3-1.1 0-1.74-.85-1.74-2.07 0-2.42 2.16-2.87 4.22-2.87v.61Zm2.87 6.93c-.2.16-.45.2-.67.07-.94-.78-1.13-1.16-1.65-1.9-1.55 1.57-2.67 2.06-4.67 2.06-2.39 0-4.26-1.48-4.26-4.42a4.82 4.82 0 0 1 3.03-4.64c1.55-.68 3.71-.8 5.35-1v-.35c0-.68.07-1.49-.35-2.07a1.9 1.9 0 0 0-1.58-.74c-1.1 0-2.06.55-2.29 1.71-.06.26-.22.52-.48.52l-2.74-.3c-.23-.06-.48-.22-.42-.57.64-3.36 3.64-4.35 6.35-4.35 1.39 0 3.19.35 4.29 1.41 1.38 1.3 1.25 3.03 1.25 4.9v4.42c0 1.32.55 1.9 1.07 2.64.19.26.22.58 0 .74-.62.49-1.65 1.39-2.23 1.87ZM8.45 9.92c0 1.1.04 2.03-.51 3.03-.45.8-1.16 1.3-1.97 1.3-1.1 0-1.74-.85-1.74-2.07 0-2.42 2.16-2.87 4.23-2.87v.61Zm2.84 6.93c-.2.16-.45.2-.67.07-.94-.78-1.13-1.16-1.65-1.9-1.55 1.57-2.67 2.06-4.67 2.06-2.39 0-4.26-1.48-4.26-4.42a4.82 4.82 0 0 1 3.03-4.64c1.55-.68 3.71-.8 5.35-1v-.35c0-.68.07-1.49-.35-2.07-.36-.51-1-.74-1.58-.74-1.1 0-2.06.55-2.29 1.71-.06.26-.22.52-.48.52l-2.74-.3c-.23-.06-.49-.22-.42-.57C1.2 1.86 4.2.87 6.9.87c1.38 0 3.19.35 4.29 1.41 1.38 1.3 1.25 3.03 1.25 4.9v4.42c0 1.32.55 1.9 1.07 2.64.19.26.22.58 0 .74-.62.49-1.65 1.39-2.23 1.87Z" fill="#000"/></svg>