<svg width="105" height="20" fill="none" xmlns="http://www.w3.org/2000/svg"><g clip-path="url(#a)"><path d="M.05.11h7.7c1.46 0 2.56.38 3.37 1 .9.75 1.38 1.83 1.38 3.16 0 1.55-.6 2.5-1.83 3.09v.08c1.63.54 2.57 2.04 2.57 3.83 0 1.7-.65 3.04-1.71 3.87-.9.67-2.04.96-3.58.96H.05V.1Zm6.92 6.25c.82 0 1.43-.46 1.43-1.42 0-.92-.61-1.37-1.47-1.37H4.3V6.3h2.68v.05Zm.37 6.2c.93 0 1.62-.58 1.62-1.62 0-1.13-.73-1.63-1.62-1.63H4.33v3.3h3v-.05ZM13.93.11h4.03v16.03h-4.03V.11Zm4.84 10.33c0-3.63 2.28-6.04 5.82-6.04 3.54 0 5.78 2.46 5.78 6.04 0 3.62-2.24 6.03-5.78 6.03s-5.82-2.41-5.82-6.03Zm7.57 0c0-2-.61-3.25-1.83-3.25-1.22 0-1.8 1.25-1.8 3.25s.58 3.29 1.8 3.29c1.22-.05 1.83-1.3 1.83-3.3Zm4.47 0c0-3.63 2.28-6.04 5.82-6.04 3.54 0 5.74 2.41 5.74 6.04 0 3.62-2.24 6.03-5.78 6.03-3.5 0-5.78-2.41-5.78-6.03Zm7.57 0c0-2-.6-3.25-1.83-3.25-1.22 0-1.79 1.25-1.79 3.25s.57 3.29 1.8 3.29c1.21-.05 1.82-1.3 1.82-3.3Zm4.8-5.75h3.75v1.7H47a3.54 3.54 0 0 1 3.38-2.03c1.42 0 2.48.7 3 1.95h.09a3.69 3.69 0 0 1 3.46-1.95c2.6 0 3.7 1.95 3.7 4.58v7.16h-3.9V9.65c0-1.17-.37-1.92-1.35-1.92-.98 0-1.46.92-1.46 2.17v6.2h-3.91V9.65c0-1.17-.37-1.92-1.34-1.92-.98 0-1.47.92-1.47 2.17v6.2h-4.03V4.7Zm22.38 9.91h-.04v1.5h-3.74V.1h3.9v5.75h.09c.73-1 1.75-1.54 3.17-1.54 2.8 0 4.44 2.58 4.44 6.03 0 3.88-1.75 6.12-4.68 6.12a3.43 3.43 0 0 1-3.14-1.87Zm3.79-4.29c0-1.83-.65-3.04-1.83-3.04-1.22 0-1.96 1.21-1.96 3.04s.78 3.04 1.96 3.04 1.83-1.16 1.83-3.04Zm4.47.08c0-3.58 2.32-6.03 5.66-6.03 1.67 0 2.93.54 3.9 1.5 1.3 1.29 1.88 3.29 1.84 5.62h-7.5c.17 1.41.82 2.16 2 2.16.7 0 1.3-.33 1.55-1.08h3.78c-.65 2.62-2.64 3.91-5.45 3.91-3.46-.04-5.78-2.45-5.78-6.08Zm3.9-1.2h3.59c-.08-1.38-.81-2.08-1.75-2.08-1.1-.05-1.7.75-1.83 2.08Zm11.93-2.54h.08c.82-1.58 1.87-2.2 3.22-2.2.32 0 .53.03.65.12v3.5h-.08c-2.32-.42-3.67.7-3.67 3.28v4.79h-3.94V4.69h3.74v1.96ZM94 16.14h3.79c.16.5.65.96 1.58.96 1.27 0 1.71-.8 1.71-2v-.83H101a3.31 3.31 0 0 1-2.68 1.29c-2.4 0-4.52-1.83-4.52-5.41 0-3.3 1.71-5.83 4.31-5.83 1.5 0 2.4.62 3.02 1.58h.08V4.65h3.74v9.9c0 1.84-.61 3.26-1.55 4.09-.97.87-2.36 1.25-3.94 1.25-3.01.04-5.09-1.21-5.46-3.75Zm7.25-6.16c0-1.42-.65-2.58-1.8-2.58-1.1 0-1.78 1-1.78 2.58 0 1.54.69 2.62 1.79 2.62s1.79-1.12 1.79-2.62Z" fill="#000"/></g><defs><clipPath id="a"><path fill="#fff" d="M0 0h105v20H0z"/></clipPath></defs></svg>