<svg width="118" height="24" fill="none" xmlns="http://www.w3.org/2000/svg"><g clip-path="url(#a)"><path fill="#fff" d="M0 0h118v24H0z"/><path d="M4.87.4h11.21l.51-.01h1.14c.55 0 1.45-.03 2.71-.08l.48-.02c-.07.96-.09 1.34-.09 1.85v1.48l-.01 1.4v7.82c0 4.93-1.14 6.6-6.55 9.22l-3.3 1.62-.26.15-.28.14-.28-.14-.27-.15c-1.14-.58-2.3-1.1-3.2-1.53-4.96-2.39-6.54-4.08-6.54-9.3V5.01l-.02-1.4V2.14C.12 1.25.1.96.02.3L.5.31C1.75.36 2.68.4 3.22.4h1.65" fill="#211E1E"/><path d="m10.43 23.49 2.13-1.03.06-.02-.02-.04v-9.63l-.02-.06.07.01h7.72l.07.02-.02-.08V8.58l.02-.07-.07.02h-7.72l-.07.01.02-.06V.82l.02-.06-.06.02H8.33L8.26.76l.02.06v7.66l.02.06H.57L.51 8.5l.02.07v4.12l-.02.04.06-.02H8.3l-.02.07v9.59l-.02.07.05.02 2.12 1.02" fill="#fff"/><path d="M.6.78.5.76l.03.07v7.66l-.02.06.1-.02h7.62l.06.02V.76l-.06.02H.61ZM12.69.78l-.1-.02.01.07v7.72l.08-.02h7.69l.07.02-.02-.06V.8l.02-.05-.07.02h-7.68ZM8.26 12.73H.56L.5 12.7l.02.05v.45c0 4.21 1.43 6.26 5.84 8.35l1.4.66.48.22.04.05V12.7l-.03.02ZM12.64 12.73l-.05-.02.01.04v9.72l.04-.06.44-.2c5.99-2.76 7.34-4.4 7.34-8.96v-.48l.02-.07-.07.02h-7.73" fill="#EE2E4F"/><path d="m1.78 8.91.05.05.05.06.06.06.05.05a1 1 0 0 0-.03.03l-.06.06-.06.06-.02.02v.06c0 .53.14.89.44 1.13l.05.04-.05.03H2.2l-.13-.02-.1-.01-.07-.02-.07.47h-.1l-.06-.47-.07.02a.78.78 0 0 1-.1.01l-.14.02H1.3c-.03 0-.05 0-.05-.02l.03-.04.1-.07c.08-.07.14-.14.24-.33a.56.56 0 0 0 .06-.22c0-.14.02-.25.05-.25l.01-.24v-.1l-.02-.01-.05-.06-.07-.06-.02-.03.05-.05.15-.17Zm2.53 0 .15.17.06.05-.03.03-.07.06-.05.06-.03.02v.09l.02.24c.02.35.22.75.42.86l.06.04a.03.03 0 0 1-.03.03h-.09l-.13-.01-.1-.02-.07-.02-.07.48h-.09l-.06-.48-.07.02-.12.02-.12.01H3.82c-.03 0-.05 0-.05-.02l.03-.04.1-.07c.09-.07.11-.1.24-.33.04-.1.07-.17.07-.22 0-.14.02-.25.04-.25l.01-.24v-.1l-.01-.01-.06-.06-.07-.06-.02-.03.05-.05.06-.06.05-.06.05-.05Zm-1.26 1.45.05.06.04.05.06.06.06.05-.03.03-.06.06-.06.05-.02.03v.06c0 .54.13.88.44 1.13l.05.04-.05.04h-.06L3.34 12l-.11-.02-.07-.02-.06.48H3l-.07-.48-.06.02-.11.02-.13.01h-.06L2.5 12l.04-.05.1-.07c.21-.16.36-.6.36-1.07v-.06l-.02-.03-.06-.05-.06-.06-.04-.03c.1-.08.16-.13.22-.22Zm2.53 0c.07.09.12.14.22.22l-.04.03-.06.06-.06.05-.02.03v.06c0 .35.1.78.23.92l.13.15.07.06.07.04-.06.04H6L5.88 12l-.12-.02-.06-.02-.07.48h-.1l-.06-.48-.07.02-.11.02-.13.01H5.1L5.05 12c0-.02.01-.03.03-.05l.1-.07c.2-.16.36-.6.36-1.07v-.06l-.02-.03-.06-.05-.06-.06-.03-.03.06-.05a.65.65 0 0 0 .06-.06l.05-.05.04-.06Zm1.27-1.45.15.17.06.05-.03.03-.07.06-.05.06-.03.02.01.09.01.24c.02.34.22.75.42.86l.06.04c0 .02-.01.03-.03.03h-.08l-.13-.01a.65.65 0 0 1-.12-.02l-.06-.02-.06.48h-.1l-.06-.48-.07.02-.11.02-.13.01H6.36c-.03 0-.05 0-.05-.02l.03-.04.1-.07c.09-.07.12-.11.24-.33.04-.1.07-.17.07-.22 0-.14.02-.25.04-.25l.01-.24v-.1l-.01-.01-.06-.06-.06-.06-.04-.03a1.32 1.32 0 0 0 .17-.17l.05-.05Zm7.2-.01.04.06.05.05.06.06c0 .02.03.03.06.06l-.04.02-.06.06-.06.05-.02.03v.06c0 .52.18.98.44 1.12.04.03.06.04.06.06v.01l-.06.01h-.06c-.08 0-.21-.02-.3-.05l-.07.47h-.1l-.06-.47c-.1.03-.23.05-.3.05h-.07c-.04 0-.05 0-.05-.02s.01-.04.05-.06c.26-.13.44-.6.44-1.12v-.06l-.02-.03-.06-.05-.06-.06-.03-.02.06-.06a.6.6 0 0 0 .06-.06l.05-.05.04-.06Zm2.53 0 .05.06.06.05.05.06.06.06-.04.02-.05.06-.07.05-.02.03v.06c0 .52.19.99.44 1.12.04.03.06.04.06.06v.01l-.06.01H17c-.07 0-.21-.02-.3-.05l-.07.47h-.1l-.06-.47c-.1.04-.22.05-.33.05-.07 0-.09 0-.09-.02s.02-.04.06-.06a.67.67 0 0 0 .2-.2c.11-.17.17-.31.17-.4 0-.14.03-.25.05-.25l.01-.24.01-.09-.03-.03-.15-.13.06-.06.06-.06.05-.05.04-.06Zm-1.26 1.45.04.05.06.06.05.06.06.05-.03.03-.06.06-.06.05-.02.03v.09l.02.24c.02.36.2.74.42.86.04.02.05.03.05.05V12l-.05.01h-.06a1.2 1.2 0 0 1-.3-.05l-.08.47h-.09l-.07-.47c-.09.03-.22.06-.33.06-.07 0-.09-.01-.09-.04 0-.01.02-.03.06-.04a1.02 1.02 0 0 0 .38-.6c0-.15.02-.26.04-.26l.02-.24v-.09l-.02-.03-.06-.05-.06-.06-.03-.03.05-.05c.1-.09.1-.1.16-.17Zm2.56 0 .04.05.06.06.06.06.05.05-.02.03-.07.06-.06.05-.02.03v.09l.02.24c.02.36.2.74.42.86.04.02.06.03.06.05l-.01.01-.05.01h-.06a1.2 1.2 0 0 1-.3-.05l-.08.47h-.08l-.08-.47c-.09.03-.22.06-.33.06-.07 0-.09-.01-.09-.04 0-.01.02-.03.06-.04a.68.68 0 0 0 .21-.21c.1-.18.18-.32.18-.4 0-.14.01-.25.03-.25l.02-.24v-.09l-.02-.03-.06-.05-.06-.06-.03-.03.05-.05c.1-.09.1-.1.16-.17Zm1.26-1.45.05.06.06.05.05.06.06.06-.04.02-.05.06-.07.05-.01.03v.06c0 .52.18.99.43 1.12.04.03.06.04.06.06v.01l-.06.01h-.05c-.08 0-.22-.02-.31-.05l-.07.47h-.1l-.06-.47c-.1.04-.22.05-.33.05-.07 0-.09 0-.09-.02s.02-.04.06-.06a.68.68 0 0 0 .2-.2c.11-.17.17-.31.17-.4 0-.14.03-.25.05-.25l.01-.24.01-.09-.03-.03-.05-.05-.06-.06-.03-.02.05-.06.06-.06.05-.05.04-.06Zm-9.86 6.75.15.17.05.06-.02.02-.07.06-.05.06-.03.03v.08l.02.24c.01.22.1.5.21.65.08.1.16.19.21.2.04.03.06.04.06.06 0 .02-.02.03-.1.03-.1 0-.24-.02-.32-.05l-.07.47h-.09l-.07-.47a1.3 1.3 0 0 1-.3.05H8.8c-.04 0-.06-.01-.06-.02 0-.02.02-.04.06-.06a.63.63 0 0 0 .2-.21c.12-.2.17-.32.17-.4 0-.13.02-.25.05-.25v-.24l.02-.08-.02-.03-.06-.06-.06-.06-.04-.02a.48.48 0 0 1 .06-.06.9.9 0 0 0 .06-.06.55.55 0 0 0 .05-.05.6.6 0 0 1 .05-.06Zm2.38 0a1.17 1.17 0 0 0 .2.23l-.02.02-.07.06-.05.06-.03.03v.08l.02.24c.01.22.1.5.21.65.08.1.16.19.21.2.04.03.06.04.06.06 0 .02-.02.03-.1.03-.1 0-.23-.02-.32-.05l-.07.47h-.1l-.06-.47a1.3 1.3 0 0 1-.3.05h-.06c-.04 0-.06-.01-.06-.02 0-.02.02-.04.06-.06a.63.63 0 0 0 .2-.21c.12-.2.18-.32.18-.4 0-.13.01-.25.04-.25v-.24l.02-.08-.02-.03-.12-.12-.04-.02a.82.82 0 0 1 .06-.06 1.37 1.37 0 0 0 .11-.12l.05-.05Zm-1.22 2.12.03.07.07.04.06.07.05.05-.03.03-.06.05-.06.06-.02.03v.08l.02.24c.02.36.22.77.42.86.04.02.06.03.06.05l-.01.01-.05.02h-.06l-.13-.02a.6.6 0 0 1-.11-.02h-.06l-.08.46h-.08l-.07-.47-.07.01-.11.02-.13.02h-.06c-.03 0-.05 0-.05-.03 0-.02.01-.03.05-.05a.64.64 0 0 0 .2-.21c.13-.2.18-.32.18-.4 0-.14.02-.25.04-.25l.02-.24v-.09l-.02-.02-.06-.06-.06-.05-.03-.03.05-.05.06-.07.06-.05.04-.06Zm-1.18 2.16.05.06.05.05.06.07.05.06-.03.02-.06.05-.06.06-.02.02v.09l.02.24c.02.36.21.74.42.86.04.02.06.03.06.05v.01l-.06.01h-.06c-.05 0-.15 0-.3-.04L9.3 22h-.1l-.06-.46c-.14.03-.25.05-.33.05-.07 0-.09-.01-.09-.04l.06-.04a.65.65 0 0 0 .2-.21 1 1 0 0 0 .18-.4c0-.14.02-.25.04-.25l.01-.24.01-.09-.03-.02-.05-.06-.07-.05-.02-.03.05-.05.06-.07.05-.05.04-.06Zm2.4 0 .04.06.05.05.05.07.06.05-.02.03-.07.05-.05.05-.03.03v.09l.02.24c.01.21.1.49.21.65.08.1.16.18.21.2.04.02.06.04.06.06 0 .02-.02.03-.09.03-.08 0-.19-.02-.33-.05l-.07.46h-.1l-.06-.46-.3.04h-.06c-.04 0-.06 0-.06-.02s.02-.04.06-.05a.6.6 0 0 0 .2-.21c.12-.2.18-.32.18-.4 0-.14.01-.25.04-.25v-.24l.02-.09-.02-.03-.06-.05-.06-.05-.04-.03.06-.05.06-.07.05-.05.05-.06Zm-1.22-6.4.04.05.06.05.06.07.05.05-.03.03-.06.06-.06.05-.02.02V14l.02.24c.02.35.22.78.42.86.04.01.05.03.05.05 0 .02-.01.03-.08.03-.09 0-.2-.02-.33-.05l-.08.47h-.08l-.07-.47-.3.05h-.07c-.04 0-.05-.01-.05-.03 0-.02.01-.03.05-.05a.62.62 0 0 0 .2-.21c.13-.2.18-.32.18-.4 0-.14.02-.25.04-.25l.02-.24v-.09l-.02-.02-.06-.05-.06-.07-.03-.02.05-.05.06-.07.06-.05.04-.06ZM9.24 1.58l.05.05.05.06.06.06.06.05-.03.02-.07.06-.06.06-.02.02v.1l.02.23c.02.23.12.54.22.65l.13.15.07.06.06.05-.06.03h-.06l-.12-.02-.12-.02-.06-.01-.08.45-.08.02-.06-.47-.07.01-.11.02-.13.01-.07.01c-.03 0-.04 0-.04-.02 0-.01 0-.03.02-.04l.1-.08c.09-.06.11-.1.24-.33.05-.1.07-.17.07-.22 0-.14.02-.25.04-.25l.01-.24.01-.09-.03-.02-.05-.06-.07-.06-.02-.02a.5.5 0 0 0 .05-.05l.15-.17Zm2.42 0a1.05 1.05 0 0 0 .2.22l-.02.02-.07.06-.05.06-.03.02v.1l.02.23c.02.34.22.76.42.86l.06.05-.03.03h-.08l-.14-.02c-.03 0-.07 0-.11-.02l-.06-.01-.07.47h-.1l-.06-.47h-.07l-.1.03-.13.02H11.17c-.03 0-.05 0-.05-.02l.03-.04.1-.08c.09-.06.12-.1.23-.33.05-.1.08-.17.08-.22 0-.14.01-.25.04-.25v-.24l.02-.09-.02-.02-.06-.06-.06-.05-.04-.03.06-.05.06-.06.05-.06.05-.05Zm-1.23 2.04.05.05.05.07.06.06.05.05-.03.03-.06.06-.06.05-.02.02v.09l.01.22c.02.36.22.77.43.88.04.02.06.04.06.06l-.06.02h-.06a1.2 1.2 0 0 1-.3-.06l-.07.48h-.1l-.06-.48a1.1 1.1 0 0 1-.34.06c-.07 0-.08 0-.08-.03 0-.02.01-.03.06-.05a.63.63 0 0 0 .2-.21c.1-.17.17-.31.17-.4 0-.13.02-.25.05-.25l.01-.24v-.09a.16.16 0 0 1-.02-.02l-.05-.05-.07-.06-.03-.03.06-.05.06-.07.05-.06a.54.54 0 0 0 .04-.05Zm-1.2 2.04.05.06.05.05.06.06.06.06-.03.02-.06.06-.08.08v.06c0 .35.1.78.22.9l.14.17.08.06.05.04-.05.04h-.06l-.13-.02-.11-.02-.07-.01-.07.47H9.2l-.07-.47-.06.01-.12.02-.12.01H8.75l-.05-.01.03-.04.1-.08c.22-.17.37-.6.37-1.07v-.06l-.02-.02-.06-.06-.06-.06-.04-.02a1.95 1.95 0 0 1 .12-.12l.05-.05.05-.06Zm2.41 0 .05.06.05.05.06.06.06.06a.4.4 0 0 0-.04.02l-.14.14.01.1.01.23c.02.36.17.65.42.86l.06.04-.06.04h-.06l-.12-.02-.12-.02-.06-.01-.07.47h-.1l-.07-.5c-.12.03-.12.05-.16.06l-.14.01h-.06l-.04-.01c0-.02 0-.03.02-.04l.1-.08c.09-.07.12-.1.24-.33a.53.53 0 0 0 .07-.22c0-.14.02-.25.04-.25l.01-.24.01-.09-.03-.02-.05-.06-.07-.06-.02-.02.05-.06c.1-.09.1-.1.15-.17Zm-5-1.05.04.1.05.2c.08.38.15.48.34.48.1 0 .2-.06.22-.15l.04-.13c0-.03.03-.05.06-.05.07 0 .11.08.11.24l.05.32.03.3c0 .07-.01.1-.04.2l.04.4c0 .16-.03.3-.09.39.03.1.04.15.04.24 0 .08 0 .15-.02.22l-.04.23.02.08.02.08c0 .02-.01.03-.02.03l-.13-.05-.15-.08a.61.61 0 0 1-.15-.11c-.13.11-.17.13-.51.22a.5.5 0 0 0-.15.06c-.04.03-.07.04-.09.04-.05 0-.08-.09-.08-.27 0-.14.01-.27.04-.37a.75.75 0 0 0-.24-.06l-.1.02H5.9c-.02 0-.03-.03-.03-.06l.04-.15.07-.15a.57.57 0 0 1 .16-.2.39.39 0 0 1 .17-.09l.24-.05c.14-.02.23-.1.23-.2 0-.09-.07-.15-.21-.2L6.28 6a1.76 1.76 0 0 1-.26-.12c-.16-.1-.18-.1-.22-.1-.06 0-.1.03-.1.1 0 .12.08.2.2.2h.06a.24.24 0 0 1 .07-.03c.03 0 .05.02.05.05v.03l-.02.11c0 .1-.07.21-.21.4l-.06.07a.9.9 0 0 1-.36.52.71.71 0 0 0-.07.05 1 1 0 0 1-.19.25c-.05.06-.1.1-.17.15a.53.53 0 0 0-.13.12l-.07.1a.06.06 0 0 1-.05.04c-.06 0-.12-.06-.15-.16-.02-.08-.05-.1-.1-.1-.02 0-.06 0-.11.02l-.1.01h-.24a1.15 1.15 0 0 0-.43.09c-.02 0-.03 0-.04-.04a.08.08 0 0 1-.02-.05c0-.12.09-.35.2-.53.07-.11.1-.14.18-.2-.02-.12-.1-.2-.19-.23l-.1-.03c-.02 0-.03-.02-.03-.03 0-.04.05-.08.15-.14.13-.06.26-.1.36-.1.12 0 .22.04.35.14.18.14.23.16.31.16.15 0 .28-.12.28-.26 0-.09-.05-.19-.18-.35-.18-.23-.24-.35-.24-.53 0-.1.04-.24.08-.3l.07-.1a.1.1 0 0 0 .02-.07c0-.04-.05-.07-.12-.07-.1 0-.31.07-.47.17-.08.05-.14.1-.14.14 0 .02.01.04.03.05l.08.05a.03.03 0 0 1 .01.03l-.03.05-.13.17c-.09.1-.18.2-.28.28l-.07.07-.05.1a1 1 0 0 1-.3.29.78.78 0 0 0-.09.07 1.9 1.9 0 0 1-.3.43l-.18.19c-.06.05-.11.16-.2.4-.04.15-.08.23-.1.23-.02 0-.04-.01-.06-.04-.13-.14-.24-.23-.3-.23-.02 0-.04 0-.08.03a.48.48 0 0 1-.18.07l-.24.04c-.2.04-.26.08-.37.2l-.06.04c-.02 0-.04-.03-.04-.07l.01-.06.03-.18c.04-.19.09-.33.14-.42l.11-.2a.22.22 0 0 0 .03-.12c0-.15-.15-.28-.35-.3-.05 0-.07-.02-.07-.04 0-.04.06-.1.13-.16.14-.1.3-.17.42-.17.07 0 .17.03.3.08l.15.06.15.03c.15 0 .3-.14.49-.45a.67.67 0 0 0 .12-.33c0-.17-.08-.27-.21-.27-.1 0-.21.05-.3.12-.06.07-.1.14-.1.2v.1c0 .06-.01.1-.05.1-.06 0-.15-.1-.42-.4-.2-.24-.23-.34-.24-.57-.23-.28-.28-.4-.28-.6V4.1c-.15-.18-.2-.28-.2-.45 0-.07.01-.1.05-.18a.68.68 0 0 1-.13-.25L.9 3.09a.7.7 0 0 0-.1-.24c-.07-.09-.07-.1-.07-.13 0-.07.05-.1.29-.16L1 2.42l.02-.16.05-.24.03-.21c0-.05-.01-.08-.05-.21a.63.63 0 0 0-.06-.15.22.22 0 0 1-.04-.09c0-.02.01-.04.04-.04.07 0 .24.1.42.25.39.31.47.44.52.81l.02.14c.18.13.28.29.28.46a.8.8 0 0 1-.14.42l-.13.2a.4.4 0 0 0-.06.22c0 .12.04.23.13.39.1.18.19.25.3.25.17 0 .33-.3.33-.64v-.38l.03-.2V3c0-.04-.01-.08-.06-.13l-.15-.15c-.21-.23-.33-.44-.33-.6 0-.2.15-.35.34-.35.04 0 .08 0 .14.02v-.04c0-.29.07-.5.15-.5h.03l.12.11.14.1.04.03c0-.08.01-.09.1-.18l.09-.13.06-.1.03-.05c.02-.04.04-.05.06-.05.02 0 .03.02.06.1.01.04.02.05.14.15l.08.09.05.13.02.05a.38.38 0 0 1 .13-.12l.1-.06a.24.24 0 0 1 .08-.03l.03.04.06.1c.07.12.09.18.09.23v.15c.22.06.3.18.3.4 0 .17-.09.36-.26.56-.11.14-.13.16-.13.26 0 .48.34.76.95.77h.45c.28.01.45.04.72.12.32.1.41.13.5.13l.09-.03c.02-.01.04-.04.04-.06 0-.09-.16-.16-.7-.3-1.1-.32-1.57-.75-1.57-1.47 0-.55.47-.97 1.07-.97.2 0 .5.05.67.1l.28.1c.04.02.09.03.14.03.1 0 .14-.07.14-.23 0-.08.02-.1.08-.1.08 0 .2.09.3.23.11.15.18.32.18.43 0 .15-.07.26-.23.35a.65.65 0 0 1-.58.32c-.2 0-.47-.1-.92-.36-.16-.08-.24-.11-.32-.11-.12 0-.2.06-.2.17 0 .09.08.15.27.22.3.1.36.14.47.25.34.06.5.12.7.28.6.18.95.57.95 1.02 0 .44-.3.75-.72.75-.1 0-.16 0-.31-.04Zm12.45 0 .03.1.05.2c.09.38.16.48.34.48.1 0 .2-.06.22-.15l.04-.13.03-.03.04-.01c.07 0 .1.08.11.23l.04.32.03.3c0 .07-.01.11-.04.2l.01.07.03.24c0 .28-.01.37-.08.48.03.1.03.15.03.23 0 .05 0 .12-.02.23l-.03.2.01.11.03.08c0 .02-.01.03-.03.03l-.13-.05-.15-.08a.61.61 0 0 1-.15-.11.54.54 0 0 1-.3.16 1.34 1.34 0 0 0-.44.16c-.05 0-.09-.1-.09-.24 0-.2.01-.32.05-.4a.83.83 0 0 0-.25-.06l-.1.02h-.02c-.02 0-.03-.03-.03-.06 0-.07.04-.2.1-.3.09-.15.23-.27.33-.29L19 6.5c.14-.02.23-.1.23-.2 0-.09-.06-.15-.2-.2l-.29-.1a1.67 1.67 0 0 1-.41-.2.14.14 0 0 0-.07-.03c-.07 0-.1.04-.1.11 0 .11.09.2.2.2h.06a.26.26 0 0 1 .06-.03c.03 0 .05.03.05.07 0 .12-.07.32-.15.42l-.08.1-.06.07c-.02.17-.19.41-.36.52a.39.39 0 0 0-.07.05l-.06.1a1 1 0 0 1-.13.15c-.05.06-.1.1-.17.15a.62.62 0 0 0-.13.12l-.06.1c-.02.03-.04.04-.06.04-.06 0-.11-.06-.15-.16-.02-.08-.04-.1-.1-.1-.02 0-.06 0-.1.02l-.1.01h-.24a1.16 1.16 0 0 0-.44.09c-.03 0-.05-.03-.05-.1 0-.2.16-.52.38-.73-.04-.12-.1-.2-.19-.22l-.11-.03c-.02 0-.03-.02-.03-.03 0-.04.05-.08.16-.14.19-.08.24-.1.35-.1.12 0 .22.04.35.14.18.14.23.16.32.16.14 0 .27-.12.27-.26 0-.1-.05-.19-.17-.35-.18-.22-.24-.36-.24-.55 0-.13.02-.2.14-.38a.16.16 0 0 0 .03-.07c0-.04-.06-.07-.13-.07a.71.71 0 0 0-.28.08c-.2.09-.32.17-.32.23 0 .02.01.04.03.05l.07.05a.03.03 0 0 1 .01.02l-.03.06a4.3 4.3 0 0 0-.13.17c-.1.12-.18.2-.28.28a.23.23 0 0 0-.07.07l-.05.1a1.1 1.1 0 0 1-.28.29.9.9 0 0 0-.1.07 1.9 1.9 0 0 1-.3.43l-.19.19c-.05.05-.12.2-.2.4-.05.16-.08.23-.1.23l-.06-.04c-.13-.14-.24-.23-.3-.23a.23.23 0 0 0-.08.03.52.52 0 0 1-.18.06l-.23.05c-.2.04-.29.08-.38.2-.02.03-.04.04-.05.04-.03 0-.04-.03-.04-.08v-.05l.04-.18c.03-.19.08-.34.13-.43l.12-.2a.2.2 0 0 0 .03-.1c0-.15-.14-.28-.36-.31-.04 0-.06-.02-.06-.05 0-.03.05-.09.13-.15.14-.1.3-.17.4-.17.08 0 .18.03.31.08l.15.06.15.03c.15 0 .3-.14.5-.45a.66.66 0 0 0 .11-.33c0-.17-.08-.27-.2-.27a.4.4 0 0 0-.3.12c-.07.08-.1.15-.1.21v.1c0 .06-.01.08-.05.08-.06 0-.11-.05-.23-.18l-.19-.22c-.2-.23-.24-.32-.25-.56-.23-.28-.28-.44-.28-.6V4.1c-.15-.19-.19-.27-.19-.45 0-.09 0-.11.04-.18a.67.67 0 0 1-.12-.25l-.04-.14a.7.7 0 0 0-.1-.24c-.06-.09-.07-.1-.07-.12 0-.07.07-.12.23-.16l.06-.01-.02-.15.02-.15.05-.24.03-.22-.04-.2a.7.7 0 0 0-.07-.15l-.04-.09c0-.02.02-.04.05-.04l.07.02c.23.12.47.31.65.5.15.17.2.3.23.67.2.15.28.29.28.5 0 .13-.04.25-.13.39l-.14.2a.43.43 0 0 0-.06.22c0 .12.04.23.13.39.1.17.19.25.3.25.17 0 .33-.3.33-.63V3.6l.02-.15.01-.2.01-.15V3c0-.06 0-.08-.21-.3-.23-.23-.33-.44-.33-.62s.15-.32.34-.32l.14.02V1.57l.04-.17c.04-.14.05-.16.1-.16h.03l.12.11.15.1.04.03c0-.08.01-.1.08-.18l.1-.13.07-.1.03-.05c.03-.04.04-.05.06-.05.02 0 .03.02.05.1 0 .02.03.05.06.08l.09.07c.07.06.11.15.14.27a.37.37 0 0 1 .14-.12l.1-.06a.31.31 0 0 1 .07-.03l.03.04.06.1c.08.13.1.15.1.24l-.01.06v.08c.22.05.3.17.3.4 0 .18-.08.36-.25.56-.12.14-.14.18-.14.28 0 .46.36.74.96.75h.44c.29.01.46.04.72.12.31.1.41.13.5.13.07 0 .13-.04.13-.08 0-.1-.16-.17-.7-.32-1.1-.3-1.57-.74-1.57-1.45 0-.56.47-.98 1.08-.98.2 0 .5.05.66.1l.28.1c.04.02.1.03.14.03.1 0 .13-.05.14-.23.01-.07.04-.1.09-.1.06 0 .2.1.3.23.1.14.17.32.17.44 0 .14-.07.25-.23.34a.65.65 0 0 1-.58.32c-.19 0-.51-.12-.92-.36-.16-.09-.23-.11-.32-.11-.12 0-.2.06-.2.17 0 .1.08.15.27.22.32.1.39.15.48.25.34.06.49.12.7.28.6.19.95.56.95 1.03 0 .43-.3.74-.72.74-.1 0-.16 0-.32-.04ZM6.78 16.97c.06.14.08.21.08.3l.02.28c0 .27.1.41.28.41.06 0 .11-.02.14-.05l.08-.07h.03c.04 0 .07.03.07.08l-.01.1c0 .05 0 .15.03.3l.02.27c0 .14-.01.2-.07.32.05.13.08.27.08.4 0 .14-.03.23-.08.31a.92.92 0 0 1 0 .47c-.02.14-.03.25-.02.32v.01c0 .04-.01.07-.04.07-.02 0-.05-.02-.08-.06-.04-.05-.07-.07-.1-.07-.05 0-.06.03-.13.22a.9.9 0 0 1-.16.25.6.6 0 0 0-.12.18l-.04.14c0 .02-.02.03-.04.03-.12 0-.24-.23-.37-.66-.04-.13-.08-.18-.15-.18a.14.14 0 0 0-.12.07l-.04.1-.03.02c-.05 0-.14-.1-.19-.21a.86.86 0 0 1-.06-.3c0-.21.15-.36.62-.62.2-.11.28-.25.28-.51 0-.2-.07-.32-.24-.45-.14-.1-.23-.15-.3-.15-.07 0-.11.04-.11.1 0 .06.03.1.12.13.1.03.15.07.15.11 0 .04-.05.13-.12.24a.6.6 0 0 1-.21.22c-.03.18-.12.29-.32.42a.64.64 0 0 1-.14.24l-.13.18a.58.58 0 0 0-.1.2c-.02.1-.03.12-.07.12-.05 0-.16-.1-.27-.23a.32.32 0 0 1-.08-.21c-.07.05-.1.06-.23.07a.64.64 0 0 0-.18.05.52.52 0 0 1-.16.07c-.02 0-.03-.02-.03-.06l-.01-.15a1 1 0 0 1 .2-.58.66.66 0 0 0-.33-.17c-.04 0-.05-.01-.05-.02 0-.03.03-.08.07-.12a.9.9 0 0 1 .12-.14c.09-.08.25-.13.38-.13.09 0 .22.03.38.09l.16.03c.07 0 .12-.04.12-.13 0-.12-.06-.3-.2-.6-.09-.2-.13-.34-.13-.43 0-.23.1-.46.24-.53a.27.27 0 0 0-.14-.04.39.39 0 0 0-.2.07c-.1.05-.16.1-.16.13 0 .02.02.04.05.06.06.04.06.05.06.1 0 .16-.13.38-.32.51a.57.57 0 0 1-.36.47.67.67 0 0 1-.15.3c-.18.24-.22.32-.25.45-.02.07-.03.1-.05.1-.03 0-.09-.04-.16-.11a1.41 1.41 0 0 1-.1-.13.65.65 0 0 1-.07-.2.27.27 0 0 1-.1.01h-.16c-.15 0-.3.03-.38.08a.14.14 0 0 1-.06.02c-.05 0-.08-.09-.08-.2 0-.23.07-.43.22-.64l-.12-.12a.25.25 0 0 0-.06-.04l-.07-.04c-.03-.02-.04-.03-.04-.05 0-.03.1-.12.21-.2a.62.62 0 0 1 .33-.11c.1 0 .16.02.3.14.1.08.16.12.2.12.04 0 .07-.02.1-.06a.17.17 0 0 0 .03-.1c0-.12-.15-.33-.32-.44a.75.75 0 0 0-.4-.13.45.45 0 0 0-.41.24l-.07.15c-.02.03-.04.05-.07.05-.04 0-.06-.02-.21-.19l-.18-.2a.51.51 0 0 1-.1-.16.29.29 0 0 0-.04-.09.24.24 0 0 0-.07-.05c-.13-.1-.23-.28-.28-.55l-.02-.08c-.16-.2-.26-.44-.26-.65l.01-.09c-.1-.1-.1-.12-.18-.37a.97.97 0 0 0-.15-.34l-.03-.05c0-.03.06-.06.16-.08l.13-.01h.13v-.17c0-.1 0-.17.03-.3l.02-.14-.01-.1a.79.79 0 0 0-.04-.16c0-.02.02-.03.04-.03s.05 0 .09.02l.28.17c.24.18.42.45.42.62v.05l-.02.1c0 .03.02.06.05.1l.07.1c.06.09.1.19.1.26 0 .06 0 .09-.11.24-.09.11-.12.2-.12.3 0 .1.05.26.14.4.07.14.16.21.25.21.15 0 .22-.12.24-.47 0-.17.03-.33.05-.5v-.09c0-.04 0-.06-.06-.13l-.2-.22c-.19-.22-.25-.34-.25-.5 0-.17.12-.3.3-.3l.08.01v-.05c0-.04 0-.1.03-.18.04-.14.1-.25.13-.25l.06.04.12.04c.04.01.06.03.13.07a.55.55 0 0 1 .1-.23c.1-.11.2-.2.23-.2.02 0 .06.03.1.08l.13.13.08.12.02.07a.88.88 0 0 1 .08-.05.77.77 0 0 1 .11-.06l.12-.06a.23.23 0 0 1 .07-.03c.03 0 .04.04.09.25.03.15.04.18.04.29.22.03.32.15.32.37s-.1.43-.34.66c-.06.07-.07.1-.07.16 0 .58.2.76.94.84.46.04.59.07 1.14.23.28.09.45.12.55.12.13 0 .2-.04.2-.12 0-.12-.1-.16-.62-.27-1.24-.26-1.72-.67-1.72-1.47 0-.57.43-1 1.01-1 .26 0 .49.08.85.28.33.2.4.23.48.23.09 0 .13-.06.13-.2 0-.1.02-.14.08-.14s.14.06.21.14c.1.13.15.2.15.37 0 .24-.13.4-.38.46l-.06.07c-.13.15-.26.2-.47.2-.2 0-.43-.08-.6-.2l-.31-.21c-.14-.1-.24-.14-.34-.14-.14 0-.22.08-.22.21s.1.24.23.29l.3.09c.11.03.16.05.3.12a.8.8 0 0 1 .14-.02c.2 0 .4.05.57.14l.12.05.16.05a1 1 0 0 1 .69.92c0 .47-.3.75-.8.75h-.15Zm11.6-.1c.11.15.28.25.41.25l.18-.03.09-.01c.03 0 .05.01.05.04l-.04.12a.54.54 0 0 0-.04.12l-.02.14-.07.12-.1.08-.02.02v.1c0 .15-.05.25-.18.33l-.05.03-.01.06c-.03.12-.05.2-.07.22l-.12.19c-.09.1-.14.19-.17.27-.03.06-.05.08-.1.08-.06 0-.12-.08-.14-.18l-.03.04-.08.06-.13.08a.95.95 0 0 0-.1.08l-.07.07a.06.06 0 0 1-.04.02c-.04 0-.07-.05-.1-.16l-.07-.22a.76.76 0 0 1-.03-.21c0-.1 0-.15.05-.23a.85.85 0 0 0-.24.04.25.25 0 0 1-.06.02c-.02 0-.04-.02-.04-.04a.4.4 0 0 1 .03-.1l.09-.22c.07-.18.28-.33.45-.33l.18.03c.04.02.07.02.1.02.07 0 .13-.05.13-.12 0-.04-.02-.08-.05-.09l-.24-.07c-.11-.03-.17-.07-.3-.21-.08-.1-.12-.14-.15-.14s-.04.02-.04.05v.12c0 .19-.05.36-.18.6l-.19.33a.8.8 0 0 0-.13.4c0 .13.06.25.14.27l.1.03.03.01.02.04-.03.06-.12.15c-.12.15-.19.2-.33.25-.08.19-.21.3-.44.38l-.03.04c-.08.14-.26.26-.37.26h-.03a.5.5 0 0 1-.23.34l-.15.1a.31.31 0 0 0-.04.06c-.02.07-.05.1-.1.1-.06 0-.12-.07-.16-.2l-.06.05-.13.08c-.03.02-.1.04-.23.07-.17.04-.3.1-.34.16l-.06.1-.03.01c-.03 0-.07-.04-.09-.1a1.7 1.7 0 0 1-.06-.37c0-.23.08-.38.32-.62v-.05c0-.37.28-.61.7-.61h.06l.23.01h.02c.13 0 .24-.04.36-.14.17-.13.21-.21.21-.36 0-.05-.01-.1-.06-.26-.03-.11-.05-.21-.05-.31 0-.27.2-.6.47-.8.08-.04.13-.1.13-.14 0-.01 0-.03-.02-.03l-.09.05a.72.72 0 0 1-.15.1l-.11.05-.12.05c-.04.01-.06.03-.06.06l.02.06.01.05-.03.07-.1.15c-.09.15-.15.21-.27.26-.07.22-.18.33-.34.35-.13.25-.24.34-.46.36a.8.8 0 0 1-.2.3l-.08.1c-.06.1-.06.1-.09.1s-.1-.04-.15-.1a.48.48 0 0 1-.06-.07l-.06-.1c-.02-.04-.04-.06-.06-.06h-.05l-.14.03a.46.46 0 0 0-.27.15l-.08.11-.01.02h-.02c-.06 0-.1-.13-.1-.34 0-.19.03-.31.1-.4l.18-.26a.2.2 0 0 0 .04-.1.13.13 0 0 0-.03-.08c-.04-.05-.08-.07-.1-.08l-.15-.02c-.02 0-.03 0-.03-.02s0-.03.02-.04c.05-.06.1-.11.17-.15.16-.1.27-.14.38-.14.11 0 .24.04.35.12l.2.12c.02.02.05.03.09.03.09 0 .15-.05.22-.17.06-.12.09-.2.09-.3a.41.41 0 0 0-.43-.43.58.58 0 0 0-.35.13.22.22 0 0 0-.07.07l-.05.12c-.01.03-.03.05-.05.05-.03 0-.1-.1-.17-.22a1.36 1.36 0 0 1-.15-.56l.01-.18a.67.67 0 0 1-.07-.63.47.47 0 0 1-.08-.3l.01-.07.02-.1.01-.07c-.06-.09-.08-.14-.14-.43a.79.79 0 0 0-.11-.31c0-.04.1-.08.2-.08l.1.01a.31.31 0 0 1-.03-.13c0-.09.01-.18.05-.26a.5.5 0 0 0 .04-.16.6.6 0 0 0-.03-.2l-.06-.13a.24.24 0 0 1-.01-.07c0-.01 0-.02.03-.02.13 0 .38.14.58.32.2.18.26.33.26.6l-.02.14c.19.16.27.29.27.43 0 .1-.04.17-.14.27-.18.17-.22.26-.22.49 0 .34.1.53.3.53.17 0 .3-.18.33-.45l.02-.25c0-.08.02-.16.03-.23l.02-.17c0-.1-.06-.2-.23-.4-.2-.22-.25-.33-.25-.5 0-.2.14-.35.33-.35.05 0 .07 0 .13.04 0-.12 0-.14.08-.3.05-.12.1-.21.13-.21l.04.02c.02.03.05.05.09.07l.06.05.06.06a.62.62 0 0 1 .2-.33c.1-.1.14-.12.15-.12.02 0 .04.01.05.03l.08.1.11.13c.05.05.06.09.08.2l.07-.04.1-.06a.82.82 0 0 0 .09-.05l.04-.02.03.05.04.15.09.17c.02.05.03.09.03.17v.04h.05c.13 0 .24.15.24.33 0 .23-.19.53-.43.69a.49.49 0 0 0-.03.17c0 .52.14.63.95.75a4.54 4.54 0 0 1 1.08.28c.17.06.3.09.39.09.1 0 .15-.03.15-.08 0-.1-.13-.17-.54-.33l-.58-.22c-.59-.23-.87-.58-.87-1.1 0-.6.47-1.06 1.08-1.06.24 0 .46.05.8.17.41.14.43.15.48.15.08 0 .13-.05.14-.17 0-.1.04-.13.1-.13.07 0 .16.07.23.19.05.1.08.23.08.34 0 .22-.11.36-.32.4a.65.65 0 0 1-.54.27c-.27 0-.4-.05-.85-.33-.16-.1-.23-.12-.35-.12-.16 0-.28.1-.28.23 0 .11.1.2.32.25.13.03.15.04.22.11l.11-.02c.22 0 .49.12.71.3.41.13.78.57.78.93 0 .4-.36.77-.76.77-.1 0-.32-.04-.51-.08" fill="#211E1E"/><path d="M7.3 7.48a.75.75 0 0 1-.02-.15v-.05l.03-.1v-.1c0-.08 0-.15-.04-.19l-.08-.1a.47.47 0 0 1-.07-.13.14.14 0 0 1-.01-.05c0-.03.02-.05.05-.05l.08.04.07.02c.04 0 .06-.06.06-.18s-.01-.2-.04-.22l-.1-.11-.09-.08c-.02-.01-.03-.04-.03-.05 0-.03.02-.05.05-.05l.15.03.03.01c.03 0 .04-.02.04-.06V5.9l-.02-.14-.04-.14c-.02-.05-.02-.06-.05-.06h-.02l-.17.04h-.02c-.22 0-.45-.18-.52-.4l-.14-.43c-.04-.13-.14-.26-.32-.4-.05-.04-.1-.07-.13-.07l-.12-.02c-.02 0-.04-.01-.04-.03 0-.03.03-.04.09-.04l.22.02c.08 0 .2.04.36.1.2.06.33.09.44.09.34 0 .53-.18.53-.47 0-.2-.1-.44-.27-.58-.1-.08-.18-.15-.22-.15-.02 0-.03.02-.03.04v.08c0 .04-.01.07-.04.07s-.07-.05-.11-.13c-.13-.26-.33-.42-.54-.42-.03 0-.06.02-.06.04l.04.1.05.11a.2.2 0 0 1 .02.06c0 .01-.01.02-.03.02-.03 0-.08-.03-.11-.06L6.03 3l-.09-.13a.6.6 0 0 0-.27-.23l-.16-.08a.17.17 0 0 0-.09-.03c-.02 0-.03.01-.03.04l.02.07c.05.07.07.1.07.12 0 .03-.01.05-.03.05-.05 0-.16-.1-.26-.25a.67.67 0 0 1-.11-.36c0-.29.2-.5.49-.5.14 0 .33.07.5.17l.31.19c.11.07.27.12.37.12l.2-.04a.3.3 0 0 0 .07-.03c.02-.01.03-.02.03-.04l-.01-.02L7 2.04l-.15-.02a2.57 2.57 0 0 1-.51-.23 1.37 1.37 0 0 0-.22-.13c-.06-.01-.1-.04-.1-.06 0-.02.02-.03.04-.03s.05.01.07.03c.1.06.18.1.25.1l.28.09c.15.05.35.09.45.09.05 0 .11-.02.15-.06.04-.04.07-.1.07-.16 0-.07-.05-.19-.12-.28-.02-.02-.03-.04-.05-.04-.02 0-.04.02-.04.06l.01.05.01.08c0 .08-.06.15-.13.15l-.1-.02-.44-.14a2.29 2.29 0 0 0-.71-.15c-.52 0-.92.35-.92.8 0 .53.37.86 1.3 1.17.9.31 1.03.39 1.03.61 0 .13-.14.25-.29.25l-.16-.01-.45-.1a3.4 3.4 0 0 0-.83-.1c-.66 0-1.02.11-1.33.41-.08.08-.1.1-.2.1l-.04-.01h-.1c-.09 0-.14.03-.2.11l-.1.18a.1.1 0 0 1-.09.04c-.05 0-.1-.05-.16-.2a.53.53 0 0 0-.14-.2l-.13-.12-.04-.05.03-.06a.5.5 0 0 0 .1-.17c.01-.09.01-.1.05-.1s.05.05.06.2c0 .04.02.1.05.17l.08.16c0 .02.03.03.05.03.07 0 .16-.16.19-.32.01-.14.03-.19.06-.19.01 0 .02 0 .03.02l.06.12.08.1.09.04c.06 0 .07-.04.09-.16v-.06l-.01-.1v-.06c0-.04 0-.07.03-.07.02 0 .03.01.05.03l.07.07c.04.04.09.06.13.06.05 0 .09-.02.09-.06 0-.03-.01-.06-.06-.15l-.05-.08c-.05-.1-.1-.14-.14-.14h-.07l-.08.04a.15.15 0 0 1-.05.01c-.02 0-.03-.01-.03-.02 0-.06.04-.16.12-.27.05-.08.09-.26.1-.52.03-.34.07-.56.12-.56.03 0 .05.03.05.1v.16c0 .06 0 .1.02.1.06 0 .13-.08.18-.21a.4.4 0 0 0 .04-.14l-.01-.03-.14-.24-.13-.04c-.02 0-.04-.02-.04-.03v-.16l-.02-.08-.03-.06-.03-.07a.71.71 0 0 0-.26.2c-.06.06-.09.09-.11.09a.03.03 0 0 1-.04-.04l.02-.1.01-.04c0-.14-.09-.28-.23-.37l-.04.05-.05.07-.08.1a.4.4 0 0 0-.08.2v.03c0 .06 0 .07-.03.07h-.02L3.1 1.7l-.07-.08-.12-.07-.06-.05-.03.06a.31.31 0 0 0-.03.1v.1l-.01.12v.02c0 .06-.01.08-.05.08a.23.23 0 0 1-.08-.03.2.2 0 0 0-.1-.03c-.1 0-.16.07-.16.18 0 .13.03.25.1.34l.09.11c.02.03.07.06.07.04l.01-.13-.02-.12V2.3c0-.04.02-.06.04-.06.04 0 .06.04.09.15l.05.24.05.3c.02.1.04.18.08.27.05.12.1.2.12.23.07.09.08.1.08.12 0 .02-.02.03-.03.03a.13.13 0 0 1-.06-.02.3.3 0 0 0-.08-.02h-.05c-.11 0-.13.08-.13.52 0 .26.05.63.12.8l.15.35c.02.05.03.1.03.16 0 .48-.65 1.22-1.36 1.57-.26.13-.34.25-.36.53l-.01.09.23-.1c.2-.04.24-.07.27-.16l.02-.09c.01-.03.03-.04.18-.12a.3.3 0 0 0 .1-.08c.04-.06.07-.09.09-.09.01 0 .02 0 .02.02v.03l-.07.18v.05c0 .14.07.25.21.32.03-.15.05-.2.1-.27l.11-.19a.48.48 0 0 0 .07-.28l-.02-.2v-.05c0-.04.01-.05.04-.05l.05.01.02.13c0 .03.03.04.07.04.06 0 .14-.08.23-.22a.35.35 0 0 0 .05-.18v-.09l-.03-.1v-.01c0-.05.02-.08.06-.08l.03.02.04.15c.01.05.05.08.09.08.04 0 .12-.07.16-.16a.58.58 0 0 0 .06-.27c0-.14.02-.18.07-.18.02 0 .03 0 .03.02l.03.08c0 .03.03.06.05.06.02 0 .1-.09.15-.17a.1.1 0 0 0 .02-.06c0-.03-.02-.05-.06-.09-.07-.06-.08-.06-.08-.15 0-.08.02-.13.08-.23l.09-.16c.08-.16.1-.2.14-.2.03 0 .05.03.05.06l-.01.05a.2.2 0 0 0-.03.08c0 .03.02.05.05.05.03 0 .07-.02.11-.04.02-.01.08-.04.2-.07l.21-.08a.38.38 0 0 1 .14-.02l.11.01.16.03c.03 0 .06-.01.08-.03a.11.11 0 0 0 .03-.08c0-.04-.04-.13-.1-.2-.03-.02-.04-.05-.04-.06v-.03l.05-.02c.04 0 .14.11.24.25.57.89.78 1.1 1.17 1.22.39.12.5.2.5.44 0 .12-.08.27-.22.46-.29.4-.36.56-.36.82v.05a.68.68 0 0 0 .08-.03.48.48 0 0 1 .1-.04l.17-.04c.05 0 .1-.07.1-.13v-.02l-.03-.14v-.02c0-.05.03-.11.06-.14a.04.04 0 0 1 .04-.01c.02 0 .04.01.05.04l.1.22c.05.09.1.13.24.2ZM1.94 2.74c-.04 0-.07.05-.07.14L1.84 3l-.01.16c0 .09.02.16.06.16.04 0 .11-.08.14-.17L2.06 3c0-.05 0-.1-.03-.15-.02-.07-.06-.1-.1-.1Z" fill="#FDDC02"/><path d="M1.32 1.72v.06c0 .08-.02.18-.09.43a.5.5 0 0 0-.02.12c0 .04.02.09.06.15l.06.06.08.04.01.1c0 .03 0 .08.02.14.02.06.03.13.03.2 0 .05 0 .07-.02.07s-.07-.07-.1-.17c-.07-.16-.13-.22-.22-.22a.43.43 0 0 0-.2.06l.03.05.06.11.1.18.1.2.1.1.1.06c.04.01.06.04.06.06 0 .03-.02.05-.06.05l-.08-.01-.05-.01c-.03 0-.04.02-.04.07 0 .18.14.38.4.56l.05.07c0 .03-.03.04-.05.04a.28.28 0 0 1-.09-.02.1.1 0 0 0-.05-.02c-.03 0-.05.03-.05.07 0 .05.04.14.12.3.06.1.14.17.23.21l.3.12.02.02v.05l-.04.02h-.06l-.05.01h-.1c-.04 0-.06 0-.06.02 0 .04.04.12.1.22.07.12.13.18.17.18.02 0 .04-.01.05-.03l.07-.15a.55.55 0 0 1 .17-.13.53.53 0 0 1 .19-.08l.12-.01c.03-.01.05-.03.05-.07V5l-.02-.13-.02-.13-.01-.13-.02-.14c0-.04 0-.06-.03-.06l-.06.05c-.1.16-.18.21-.29.21-.35 0-.62-.61-.62-1.42l.01-.27.02-.34c0-.35-.07-.6-.23-.75l-.09-.1-.06-.06Zm.86 4.78a.83.83 0 0 1-.2-.04l-.12-.05a.65.65 0 0 0-.25-.07c-.1 0-.19.03-.28.11l.06.05.13.09.13.1c.03.02.07.04.1.04.14 0 .25-.06.43-.23Zm2.57 1.2c.04-.09.05-.1.13-.17.19-.16.28-.28.28-.37V7c0-.08.01-.1.05-.1l.05.01.03.08c0 .02.03.03.06.03.02 0 .06-.03.1-.08l.06-.09a.22.22 0 0 0 .05-.13.2.2 0 0 0-.02-.07l-.04-.1a.26.26 0 0 1-.03-.1c0-.05.02-.08.06-.08.02 0 .04.01.05.03l.05.06a.07.07 0 0 0 .05.02c.02 0 .05-.02.07-.05l.05-.1a.15.15 0 0 0 .02-.06c0-.03-.02-.05-.06-.06l-.08-.04c-.12-.06-.2-.24-.2-.42l.01-.07.05-.11a.29.29 0 0 0 .02-.1.37.37 0 0 0-.07-.21 1.2 1.2 0 0 1-.09-.14c-.04-.1-.06-.13-.09-.13h-.03l-.05.03-.07.04-.1.1-.08.05c-.06.03-.11.15-.11.24 0 .17.02.22.25.6a.8.8 0 0 1 .13.38c0 .27-.24.46-.73.57l-.31.07c-.23.06-.36.21-.4.47.09-.05.12-.05.29-.05h.11c.09 0 .1-.01.16-.09a.49.49 0 0 1 .22-.18l.1-.05.1-.04h.02c.02 0 .04 0 .04.02s-.03.07-.07.1a.34.34 0 0 0-.1.26c0 .07.01.1.07.17" fill="#FDDC02"/><path d="M3.9 6.68c.08.05.15.1.2.18.07.08.08.09.14.09l.1-.01.06-.02c.11-.02.15-.03.15-.06 0-.01-.01-.04-.04-.05l-.07-.07-.07-.06a.36.36 0 0 0-.22-.08c-.08 0-.13.02-.24.08Zm2.17.35h.04l.06-.01h.09c.15 0 .29-.11.29-.24 0-.05-.04-.07-.12-.07-.18 0-.3.1-.36.32Zm13.68.45a.46.46 0 0 1-.02-.11v-.1l.03-.25a.2.2 0 0 0-.05-.13l-.08-.1c-.05-.07-.07-.12-.07-.18 0-.04 0-.05.03-.05h.03l.06.04.07.02c.04 0 .06-.06.06-.19 0-.17-.03-.25-.13-.32l-.1-.08a.07.07 0 0 1-.02-.05c0-.03.02-.05.05-.05l.07.01.08.02h.03c.02 0 .03-.01.03-.05V5.9l-.02-.14c-.02-.14-.05-.2-.09-.2h-.01l-.17.04h-.03c-.21 0-.46-.2-.52-.4l-.13-.43a.88.88 0 0 0-.32-.4.35.35 0 0 0-.14-.07l-.12-.02c-.02 0-.04-.01-.04-.03 0-.03.03-.04.08-.04.17 0 .35.04.59.11.22.07.34.1.44.1.34 0 .54-.17.54-.45a.87.87 0 0 0-.13-.44c-.06-.1-.17-.2-.31-.29l-.06-.02c-.01 0-.03.02-.03.04v.08c0 .04-.01.07-.04.07s-.07-.04-.11-.13c-.13-.26-.32-.41-.53-.41-.04 0-.07.01-.07.04l.04.09a.65.65 0 0 1 .07.17c0 .01 0 .02-.03.02s-.08-.03-.1-.06c-.08-.07-.1-.1-.1-.11l-.1-.13a.65.65 0 0 0-.26-.23l-.17-.08a.2.2 0 0 0-.09-.03c-.02 0-.03.01-.03.03l.03.08c.04.05.07.1.07.12 0 .03-.02.05-.04.05-.05 0-.13-.09-.25-.25a.61.61 0 0 1-.12-.36c0-.28.21-.5.5-.5.13 0 .31.07.5.17l.31.19c.12.07.27.12.37.12a.6.6 0 0 0 .18-.04c.04 0 .07-.02.1-.03v-.01l.02-.03c0-.02-.02-.04-.06-.04a1.9 1.9 0 0 1-.66-.25l-.22-.13c-.06-.02-.1-.04-.1-.07l.03-.01h.04l.3.11.27.1c.14.05.36.09.45.09.13 0 .22-.09.22-.2a.4.4 0 0 0-.05-.2c-.04-.07-.1-.14-.11-.14-.03 0-.04.03-.04.07v.04l.01.08c0 .09-.05.15-.13.15l-.1-.02-.44-.14a2.19 2.19 0 0 0-.7-.15c-.53 0-.93.35-.93.8 0 .53.37.86 1.3 1.17.91.31 1.03.38 1.03.62 0 .13-.13.24-.29.24l-.16-.01-.45-.1c-.28-.07-.51-.1-.83-.1-.66 0-.98.1-1.32.41-.08.08-.12.09-.2.09H16.2c-.09 0-.14.03-.2.11l-.1.18a.09.09 0 0 1-.08.04c-.06 0-.1-.05-.17-.2a.5.5 0 0 0-.13-.2l-.14-.12-.03-.05c0-.01 0-.03.03-.06l.06-.1a.22.22 0 0 0 .03-.07l.01-.06c0-.02.02-.03.05-.03.04 0 .05.03.05.19 0 .04.02.1.05.17l.08.16c0 .02.03.03.06.03.07 0 .15-.16.18-.32.02-.14.03-.19.06-.19s.04.02.1.13c.02.04.04.07.08.1a.2.2 0 0 0 .08.05c.06 0 .08-.04.09-.16v-.16l-.01-.06c0-.04.01-.07.03-.07.02 0 .04.01.05.03l.07.07c.05.04.09.06.14.06.05 0 .09-.03.09-.06 0-.04-.01-.05-.07-.15l-.05-.09c-.05-.1-.08-.13-.13-.13h-.07l-.09.04a.16.16 0 0 1-.05.01c-.01 0-.02-.01-.02-.03 0-.05.04-.15.11-.26.05-.07.08-.25.11-.52l.04-.3c.02-.2.04-.26.08-.26l.02.01.03.1v.08c0 .1 0 .17.02.17s.07-.03.1-.08a.59.59 0 0 0 .1-.3c0-.16-.06-.22-.27-.28l-.04-.02v-.16l-.02-.09-.02-.06-.04-.07-.05.03a.72.72 0 0 0-.21.16c-.06.08-.09.1-.11.1-.02 0-.03-.02-.03-.03l.03-.11v-.02c0-.15-.09-.28-.23-.39l-.05.05-.05.07-.08.09a.3.3 0 0 0-.07.2v.04c0 .05 0 .07-.03.07l-.02-.01-.05-.06-.07-.08-.12-.07-.06-.05c-.06.14-.06.15-.06.33v.05c0 .06-.02.1-.05.1a.2.2 0 0 1-.09-.04.2.2 0 0 0-.1-.02c-.1 0-.16.08-.16.19 0 .12.02.2.1.33.06.09.12.16.16.16l.02-.15-.02-.1v-.06c0-.04 0-.07.03-.07.04 0 .06.05.09.15l.05.25.05.3.08.27.12.22c.07.1.08.11.08.13 0 .02-.01.03-.03.03a.14.14 0 0 1-.06-.02.3.3 0 0 0-.08-.02l-.05-.01c-.1 0-.13.09-.13.52 0 .27.06.63.13.8l.14.35c.02.06.03.11.03.17 0 .48-.66 1.24-1.35 1.57-.27.12-.35.26-.38.62l.24-.1c.2-.05.24-.08.26-.16l.03-.09c.01-.03.04-.05.17-.12a.28.28 0 0 0 .11-.09c.03-.05.06-.08.08-.08.02 0 .03.01.03.03v.01l-.08.19v.05c0 .13.07.25.22.32l.02-.08.06-.2.13-.18c.05-.06.06-.1.06-.28l-.01-.2V6.5c0-.03 0-.05.04-.05l.04.02.02.13c0 .02.03.04.07.04.06 0 .15-.08.23-.23a.3.3 0 0 0 .05-.15c0-.07 0-.14-.02-.2v-.04c0-.04.02-.06.05-.06l.03.01.05.16c.01.05.05.08.09.08.1 0 .2-.2.21-.42.01-.14.03-.19.07-.19l.03.01.03.09c0 .03.03.05.05.05l.1-.07a.88.88 0 0 0 .05-.09.15.15 0 0 0 .02-.07c0-.03 0-.04-.06-.08a.17.17 0 0 1-.07-.14c0-.1.04-.2.16-.4.1-.18.12-.2.15-.2.02 0 .04.02.04.05l-.01.06a.2.2 0 0 0-.03.08c0 .02.02.05.05.05a.3.3 0 0 0 .12-.04l.18-.08a5.08 5.08 0 0 1 .37-.1l.11.02a.9.9 0 0 0 .16.03.1.1 0 0 0 .07-.03.1.1 0 0 0 .03-.08.28.28 0 0 0-.04-.11.8.8 0 0 0-.06-.1l-.04-.05.01-.03.04-.02c.05 0 .15.1.25.25.52.84.77 1.1 1.16 1.22.4.12.5.2.5.43 0 .13-.08.28-.21.47-.27.36-.37.58-.37.82v.05l.08-.03a.49.49 0 0 1 .1-.05l.17-.03c.05-.01.1-.07.1-.14v-.01l-.02-.15v-.02c0-.08.04-.15.09-.15.02 0 .04.02.05.04l.1.23c.05.09.1.13.24.2ZM14.28 3v.17c0 .1.01.15.05.15.05 0 .12-.08.15-.17a.64.64 0 0 0 .03-.18.3.3 0 0 0-.03-.12c-.03-.07-.06-.1-.1-.1-.06 0-.08.07-.1.25" fill="#FDDC02"/><path d="M13.76 1.72v.06c0 .06-.01.17-.04.28l-.04.15a.6.6 0 0 0-.02.12c0 .09.05.18.12.21l.07.04.01.1c0 .03 0 .08.02.14.02.06.03.13.03.2 0 .05 0 .07-.02.07s-.06-.07-.1-.17c-.07-.16-.13-.22-.22-.22a.43.43 0 0 0-.2.06l.19.34c.1.23.14.28.31.36.04.02.06.04.06.06 0 .03-.02.05-.06.05l-.1-.01-.04-.01c-.03 0-.04.02-.04.07 0 .18.15.39.4.56.04.03.05.05.05.07 0 .01 0 .02-.02.03a.04.04 0 0 1-.03.01.3.3 0 0 1-.08-.02.1.1 0 0 0-.05-.02c-.03 0-.05.03-.05.08 0 .06.04.16.12.28.07.11.15.19.22.22l.3.12c.02.01.03.02.03.04s-.02.04-.04.05h-.06l-.05.01h-.09c-.05 0-.07 0-.07.02 0 .04.03.1.1.22s.13.18.17.18l.04-.03.07-.15a.71.71 0 0 1 .17-.13.44.44 0 0 1 .19-.08c.16-.02.18-.03.18-.09l-.03-.13c0-.03 0-.08-.02-.14V4.6l-.02-.14c0-.04-.01-.06-.04-.06l-.05.05c-.08.13-.2.2-.29.2-.37 0-.62-.57-.62-1.43v-.25l.03-.31v-.11a1 1 0 0 0-.23-.67l-.1-.1-.06-.06Zm.86 4.78a1.03 1.03 0 0 1-.32-.1.6.6 0 0 0-.25-.06c-.1 0-.18.03-.28.11l.06.05.13.09.13.1c.03.02.07.04.11.04.13 0 .24-.06.42-.23Zm2.57 1.2c.04-.09.06-.1.13-.17.2-.16.28-.28.28-.37V7c0-.08.01-.1.06-.1l.04.01.03.08c0 .02.03.03.06.03.05 0 .08-.03.16-.17.04-.05.05-.09.05-.12s0-.06-.02-.08a2.87 2.87 0 0 0-.04-.1.31.31 0 0 1-.03-.1c0-.05.02-.07.06-.07.02 0 .04 0 .05.02l.05.06.04.02c.02 0 .07-.02.08-.05l.05-.1a.13.13 0 0 0 .02-.07c0-.02-.02-.04-.05-.05l-.1-.04c-.1-.05-.2-.23-.2-.41l.03-.08.04-.11a.34.34 0 0 0 .02-.11.39.39 0 0 0-.07-.2 1.42 1.42 0 0 1-.08-.14c-.04-.1-.06-.13-.1-.13-.02 0-.04 0-.08.03l-.06.04-.1.1-.1.05c-.05.03-.1.15-.1.25 0 .14.03.21.25.6.09.16.13.28.13.37 0 .26-.27.48-.72.57-.54.11-.66.2-.73.54.1-.05.14-.05.3-.05h.11c.1 0 .1-.01.16-.09a.48.48 0 0 1 .22-.18l.1-.05.1-.04h.02c.03 0 .04 0 .04.02s-.02.06-.07.1c-.06.08-.1.16-.1.22 0 .1.02.14.07.21" fill="#FDDC02"/><path d="M16.35 6.68c.08.05.14.1.2.18.07.08.07.09.14.09l.1-.01.05-.02c.12-.02.15-.03.15-.06 0-.02 0-.04-.03-.05l-.08-.07-.07-.06a.35.35 0 0 0-.2-.08.47.47 0 0 0-.26.08Zm2.16.35H18.71c.06 0 .1 0 .13-.03a.59.59 0 0 0 .13-.15.16.16 0 0 0 .02-.07c0-.05-.04-.07-.11-.07-.19 0-.3.1-.37.32ZM6.66 20.85l.04-.08.1-.1c.07-.08.12-.2.12-.33a.7.7 0 0 0-.04-.21.5.5 0 0 1-.03-.12c0-.04.04-.08.07-.08l.05.03.1.11c.06.07.08.09.16.1v-.09l.01-.1a.74.74 0 0 0-.14-.45c-.06-.07-.08-.1-.08-.13 0-.02.02-.05.04-.05l.02.02.12.06c.03 0 .06-.07.06-.16a.62.62 0 0 0-.14-.37 1.46 1.46 0 0 1-.08-.1.06.06 0 0 1-.01-.03c0-.03.02-.05.06-.05.02 0 .04 0 .08.03a.1.1 0 0 0 .05.02c.05 0 .07-.07.07-.26v-.2c-.02-.14-.03-.16-.09-.16h-.05c-.33 0-.48-.2-.56-.75-.06-.4-.21-.67-.4-.73-.1-.04-.14-.06-.14-.1 0-.01.03-.03.06-.03a.4.4 0 0 1 .13.04c.26.1.49.15.68.15.32 0 .57-.23.57-.52a.9.9 0 0 0-.3-.64.39.39 0 0 0-.17-.1l-.04.02v.1l.04.06v.02c0 .02-.01.03-.03.03a.07.07 0 0 1-.05-.03l-.12-.17a.64.64 0 0 0-.46-.26c-.05 0-.09.02-.09.06 0 .02.02.05.05.08.03.04.06.08.06.1l-.01.03-.03.03c-.04 0-.05-.02-.2-.18-.12-.13-.36-.26-.49-.26-.02 0-.03 0-.05.02l-.01.02c0 .02.02.05.05.08.04.03.07.08.07.1l-.04.02c-.04 0-.12-.05-.28-.18-.25-.19-.36-.37-.36-.58 0-.25.18-.45.42-.45.14 0 .32.06.45.16l.32.24c.15.11.34.17.53.17.04 0 .08 0 .11-.03.03-.01.05-.03.05-.04l-.06-.03a.76.76 0 0 1-.28-.12l-.33-.24c-.13-.1-.22-.16-.27-.18-.17-.1-.2-.11-.2-.13 0-.01.01-.02.03-.02l.06.01.17.07c.06.03.16.08.29.17.35.23.53.3.74.3.2 0 .35-.13.35-.32a.26.26 0 0 0-.03-.11l-.03-.07c-.01-.02-.03-.04-.04-.03l-.02.02-.02.14-.02.05a.25.25 0 0 1-.05.06c-.03.04-.07.05-.12.05-.1 0-.22-.06-.53-.25-.32-.2-.6-.3-.83-.3a.88.88 0 0 0-.61.25.85.85 0 0 0-.26.6c0 .65.41.95 1.7 1.22.48.1.7.24.7.46 0 .2-.17.31-.42.31l-.18-.01c-.04 0-.27-.07-.69-.18-.28-.08-.6-.13-.89-.13-.5 0-.84.15-1.07.47-.03.03-.05.06-.07.06l-.05-.03-.1-.07a.46.46 0 0 0-.24-.1c-.05.01-.1.03-.14.07l-.07.04c-.03 0-.1-.08-.16-.19-.07-.15-.11-.3-.11-.44 0-.07.02-.12.05-.12.02 0 .04.02.05.06l.05.19c.03.1.1.19.14.19.02 0 .06-.03.1-.08a.28.28 0 0 0 .05-.1c.04-.11.05-.13.09-.13.04 0 .05.02.08.14 0 .02.01.06.04.11l.08.12c.03.03.05.04.07.04.06 0 .12-.1.12-.2v-.03l-.01-.13c0-.04 0-.06.03-.06.02 0 .03.01.05.04a.35.35 0 0 0 .2.12c.03 0 .05-.01.07-.03l.03-.06c0-.01-.02-.04-.1-.11a.86.86 0 0 1-.13-.26c-.02-.06-.04-.09-.06-.09l-.05.01-.08.04-.06.02h-.02c-.03 0-.06-.01-.06-.04 0-.02.07-.1.14-.15a.24.24 0 0 0 .08-.18c0-.11.03-.2.05-.2l.02-.22a2.15 2.15 0 0 1 .13-.5c.02 0 .03.05.03.1V14.64c0 .08.01.12.04.12s.06-.04.09-.11l.06-.15a.36.36 0 0 0 .03-.12c0-.13-.08-.22-.19-.22h-.05a.18.18 0 0 1-.04.02c-.04 0-.07-.04-.07-.08v-.23l-.03-.14v-.06l-.07.03-.07.06-.1.09-.1.07a.08.08 0 0 1-.04.02c-.05 0-.06-.02-.06-.12v-.03c0-.08-.03-.14-.17-.3l-.04-.04-.02.05-.07.11-.08.19-.01.12c0 .03-.02.06-.03.06-.02 0-.04-.02-.07-.05a.51.51 0 0 0-.28-.19l-.02.05-.04.13v.23c0 .03-.02.05-.04.05l-.04-.04-.08-.02c-.13 0-.2.07-.2.17 0 .08.02.14.14.33.06.08.12.14.15.14.01 0 .03-.04.03-.1l-.01-.07a.32.32 0 0 1-.02-.1c0-.04 0-.06.03-.06.06 0 .12.17.14.41l.03.24c.01.1.04.18.08.26.06.12.12.2.18.24.06.05.1.1.1.12 0 .02-.02.03-.04.03a2.1 2.1 0 0 1-.13-.04h-.06c-.13 0-.18.07-.18.29 0 .27.19.66.4.83l.3.24c.16.12.28.33.28.47 0 .2-.22.38-.58.5l-.22.09c-.17.06-.24.17-.31.48a.56.56 0 0 1 .19-.03h.13c.08 0 .15-.05.15-.13v-.05c0-.02.02-.05.06-.06l.1-.05.06-.06.04-.01c.02 0 .04.02.04.04a.2.2 0 0 1-.01.06.59.59 0 0 0-.04.22c0 .16.03.25.1.37a.5.5 0 0 1 .03-.09l.11-.18c.1-.13.18-.3.18-.4v-.02l-.02-.15a.1.1 0 0 1 .03-.07.08.08 0 0 1 .04-.02c.03 0 .05.02.07.06.02.04.04.06.05.06.02 0 .07-.06.1-.13l.03-.14c0-.03 0-.05-.02-.08a.21.21 0 0 1-.02-.08c0-.01 0-.02.03-.04l.03-.01.04.01.06.04a.1.1 0 0 0 .05.02c.03 0 .07-.03.1-.07.06-.09.1-.16.1-.19 0-.02-.02-.03-.06-.05-.13-.1-.22-.24-.22-.35l.02-.1.07-.17.06-.14.02-.01c.02 0 .03.02.03.05l-.01.08a.38.38 0 0 0-.03.12c0 .05.02.07.07.07a.3.3 0 0 0 .1-.02c.2-.09.37-.13.46-.13.1 0 .15.01.25.08l.06.03.04-.03.01-.03c0-.03-.01-.06-.04-.09-.03-.04-.04-.06-.04-.1 0-.01 0-.02.03-.02.1 0 .27.32.43.84.12.4.15.44.55.66.33.19.46.37.46.67 0 .3-.08.67-.26 1.16a1.1 1.1 0 0 0-.07.35 1.92 1.92 0 0 0 .11.46.8.8 0 0 0 .05.1" fill="#FDDC02"/><path d="M5.12 19.94c.03-.1.05-.11.12-.23.11-.16.15-.24.15-.32v-.1c0-.1.02-.15.06-.15l.03.02.04.06a.05.05 0 0 0 .04.02c.02 0 .06-.02.08-.05a.46.46 0 0 0 .07-.23V18.8c0-.04.01-.06.05-.06.02 0 .03.01.06.06.01.03.03.06.05.06.01 0 .04-.02.05-.05l.06-.07.03-.06.01-.03c0-.02 0-.04-.04-.06-.13-.1-.18-.23-.2-.47 0-.18 0-.3-.03-.36l-.11-.28a1.53 1.53 0 0 1-.08-.23c-.02-.06-.04-.08-.09-.08-.18 0-.32.15-.32.35 0 .12.05.3.15.53.12.32.16.43.16.54 0 .24-.1.35-.44.47-.38.13-.56.32-.62.67l.06-.03a.72.72 0 0 1 .1-.03l.1-.02c.1-.03.17-.08.18-.13l.03-.1a.06.06 0 0 1 .04-.04l.06-.02.06-.03.01.03-.02.08a.54.54 0 0 0-.02.15c0 .15.03.23.12.34Zm-3.59-6.05.02.07-.03.17-.01.13c0 .12.02.24.06.35l.04.15v.02c0 .03-.02.05-.03.05l-.07-.04a.37.37 0 0 0-.24-.1l-.12.01.04.08.1.24.14.2.15.1c0 .02.02.03.04.05l.02.04-.03.02h-.14c-.02 0-.03.02-.03.03l.05.2.07.19.11.1.12.09c.04.02.06.05.06.07 0 .02 0 .04-.02.04h-.07c-.02 0-.03.03-.03.06 0 .05.04.14.13.25.1.14.18.19.3.19h.1c.04 0 .07.02.07.06 0 .03-.02.05-.06.05-.1.02-.12.04-.12.08l.03.08.06.07c.04.06.09.1.12.1.02 0 .06-.02.1-.06a.44.44 0 0 1 .21-.15c.24-.05.28-.08.28-.13 0-.02 0-.05-.02-.08a.6.6 0 0 1-.1-.32c0-.08-.02-.13-.05-.13-.02 0-.04.02-.06.05a.3.3 0 0 1-.23.14c-.23 0-.51-.36-.65-.83a1.28 1.28 0 0 1-.05-.35c0-.13.02-.26.05-.4l.08-.32v-.1c0-.15-.15-.36-.39-.52" fill="#FDDC02"/><path d="M2.01 14.8c-.05.09-.1.3-.1.42 0 .08.04.14.07.14l.03-.03.08-.13.05-.08.04-.1c0-.08-.07-.17-.17-.22Zm.74 2.95.03.03.05.05c.14.13.15.15.22.15.05 0 .18-.04.25-.07.02-.01.04-.03.04-.05l-.06-.07-.08-.06c-.05-.05-.14-.1-.18-.1-.07 0-.15.04-.27.12Zm1.54 1.18.14.06a1 1 0 0 0 .1.07l.11.01.08-.01.14-.05.14-.05c.03 0 .05-.03.05-.05 0 0-.02-.02-.07-.03a.78.78 0 0 1-.1-.04c-.16-.06-.19-.07-.24-.07a.46.46 0 0 0-.35.16ZM6 20.24c.04-.1.07-.12.22-.13.17 0 .33-.3.33-.51l-.01-.04-.05.02c-.03.02-.06.05-.1.06l-.2.09a.44.44 0 0 0-.23.36c0 .04 0 .08.03.15Zm12.15-1.56.02-.07.03-.1.07-.1c.07-.1.1-.2.1-.33a.26.26 0 0 0-.03-.12.18.18 0 0 1-.02-.07l.01-.03.03-.02c.02 0 .05.02.07.05l.07.05c.03 0 .06-.05.08-.12l.01-.07a.55.55 0 0 0-.06-.18.17.17 0 0 1-.02-.07c0-.02.02-.04.04-.04s.05.02.09.06c.02.02.04.02.05.02.04 0 .07-.04.1-.14a.6.6 0 0 0 .03-.1c0-.02 0-.03-.02-.03h-.11a.58.58 0 0 1-.37-.17l-.19-.22a2.29 2.29 0 0 1-.16-.22l-.16-.1c-.02-.01-.04-.03-.04-.05 0-.03.03-.04.07-.04l.34.12c.2.08.5.14.68.14.32 0 .58-.25.58-.56 0-.17-.08-.32-.27-.54-.03-.04-.1-.08-.12-.08-.02 0-.04.02-.04.04l.02.08.02.06c0 .03-.01.04-.04.04-.04 0-.08-.06-.12-.18-.04-.15-.13-.23-.33-.34a.8.8 0 0 0-.21-.07c-.01 0-.02.01-.02.03 0 .02 0 .05.03.08l.05.12c0 .03-.02.05-.04.05-.04 0-.05-.01-.15-.16a.76.76 0 0 0-.3-.22.31.31 0 0 0-.11-.03c-.03 0-.05.01-.05.03l.03.06.01.03c0 .02-.01.04-.03.04-.04 0-.17-.1-.26-.2a.65.65 0 0 1-.18-.4c0-.25.25-.47.52-.47.07 0 .13 0 .17.03l.23.12.28.17c.15.1.37.18.5.18.05 0 .09 0 .21-.04.07-.02.1-.04.1-.07l-.02-.02h-.15a1.3 1.3 0 0 1-.4-.19l-.32-.2-.27-.1-.03-.04c0-.02.01-.03.03-.03l.07.02.26.07c.06.02.16.06.3.14.28.14.46.2.6.2.15 0 .26-.1.26-.24a.8.8 0 0 0-.02-.19.24.24 0 0 0-.04-.08l-.04-.03c-.02 0-.03.02-.03.05v.05l.01.04c0 .12-.05.16-.18.16-.12 0-.26-.04-.6-.18a1.96 1.96 0 0 0-.72-.17c-.5 0-.94.4-.94.87 0 .4.27.7.82.91l.56.24c.47.18.64.32.64.5 0 .15-.14.24-.36.24-.1 0-.21-.03-.43-.1a4 4 0 0 0-1.18-.23c-.5 0-.84.13-1.13.43-.03.04-.05.05-.09.05l-.1-.04a.34.34 0 0 0-.14-.05c-.05 0-.12.04-.16.09l-.07.08c-.02.03-.04.04-.05.04-.05 0-.14-.08-.2-.17a.51.51 0 0 1-.06-.17 1.13 1.13 0 0 1-.01-.18v-.12l.02-.13.02-.12.03-.02c.04 0 .05.03.05.1v.07c0 .19.08.36.16.36.06 0 .12-.12.17-.34 0-.05.03-.07.05-.07.03 0 .04.03.06.13.02.06.06.15.1.2.03.04.06.06.08.06.05 0 .09-.08.12-.27 0-.07.03-.12.05-.12l.03.01.05.08c.02.03.04.05.07.06l.08.03a.1.1 0 0 0 .06-.03l.05-.05-.04-.06a.65.65 0 0 1-.12-.21l-.06-.16-.03-.04h-.06l-.14.04h-.05c-.02 0-.03 0-.03-.03 0-.02.03-.05.06-.07.16-.13.27-.35.3-.67.03-.2.05-.27.14-.39l.04-.04c.02 0 .04.02.04.06l-.02.1a.21.21 0 0 0-.02.07v.03l.02.04.07-.03.08-.1a.48.48 0 0 0 .09-.26.2.2 0 0 0-.06-.15c-.04-.05-.07-.07-.1-.07h-.09c-.04 0-.07 0-.07-.03l.02-.05v-.07l-.04-.17-.03-.08-.02-.06-.05.03-.1.06a.39.39 0 0 0-.08.07c-.1.12-.1.12-.14.12-.02 0-.03 0-.03-.02v-.03l.02-.14a.61.61 0 0 0-.19-.38c-.14.13-.21.28-.21.41v.08c0 .03-.01.05-.03.05-.02 0-.04-.02-.05-.04l-.08-.1-.1-.09a.72.72 0 0 1-.06-.04l-.03.05a.68.68 0 0 0-.1.32c0 .08 0 .11-.02.11l-.04-.01c-.1-.06-.11-.07-.16-.07-.12 0-.2.09-.2.21 0 .05.03.13.08.22.06.1.16.2.2.2l.01-.03v-.13l-.02-.09c0-.03.01-.04.03-.04.06 0 .11.17.16.51.04.3.12.52.26.64l.05.07c0 .01-.01.02-.03.02a.2.2 0 0 1-.08-.03.14.14 0 0 0-.08-.02c-.06 0-.14.07-.15.16l-.06.37-.05.52c0 .1 0 .23.04.4l.05.3c0 .4-.25.7-.66.82l-.43.13c-.26.08-.4.25-.43.57.07-.06.09-.06.2-.08l.12-.02.11-.03.08-.07.1-.13c.05-.05.1-.07.12-.07l.02.04c0 .02-.01.06-.04.1a.33.33 0 0 0-.05.17c0 .09.02.14.1.26l.03-.08.1-.14c.1-.12.16-.24.16-.3 0-.1.01-.13.04-.13.02 0 .03 0 .04.07l.02.04.04.02.05-.02a.39.39 0 0 0 .17-.2l.04-.14v-.08c0-.02 0-.04.02-.04.01 0 .05.03.07.07.02.03.02.03.04.03a.1.1 0 0 0 .07-.02c.08-.08.13-.18.13-.25v-.12l-.03-.1c0-.03.01-.04.03-.04.03 0 .06.04.1.13.03.05.05.07.07.07.03 0 .05-.02.12-.11l.06-.09a.1.1 0 0 0 .02-.06.1.1 0 0 0-.02-.07l-.06-.08a.12.12 0 0 1-.01-.06c0-.1.03-.2.1-.31l.09-.16c0-.03.02-.04.03-.04.02 0 .03.01.03.03l-.01.07v.1c0 .03.03.04.06.04a.2.2 0 0 0 .07-.01l.16-.06.16-.07c.26-.15.34-.18.47-.18.08 0 .17.03.31.1a.2.2 0 0 0 .07.02c.02 0 .04-.02.06-.04a.09.09 0 0 0 .02-.05.16.16 0 0 0-.03-.08.35.35 0 0 1-.04-.1l.03-.02c.02 0 .04.02.05.03l.16.26c.12.22.28.37.42.4l.3.07c.09.02.11.05.11.16 0 .2-.1.39-.27.5l-.24.14c-.08.06-.16.2-.16.33 0 .08.02.23.05.34l.05-.05.11-.06.1-.1.05-.14.06-.13c.02-.07.05-.1.08-.1.02 0 .03.03.03.09v.04c0 .1.01.14.09.28" fill="#FDDC02"/><path d="M14.2 20.66c.08-.07.09-.08.32-.12.18-.04.26-.12.3-.3.03-.12.05-.15.17-.22a.3.3 0 0 0 .08-.06l.04-.03c.01 0 .02.01.02.03 0 .02-.01.06-.04.1a.23.23 0 0 0-.03.13c0 .1.02.18.08.26.04-.08.07-.1.17-.18.13-.1.18-.2.2-.43.02-.1.04-.15.06-.15.02 0 .03 0 .03.02l.05.1.04.02c.02 0 .06-.02.09-.05l.09-.09c.04-.03.06-.12.08-.27 0-.05.02-.09.05-.09l.03.03.04.13c0 .03.03.05.05.05 0 0 .02 0 .05-.03a.57.57 0 0 0 .1-.1.2.2 0 0 0 .04-.13v-.1c0-.03 0-.06.03-.08 0-.02.02-.03.03-.03.01 0 .03.02.03.04l.03.07c.01.03.04.05.06.05.04 0 .07-.03.13-.1a.35.35 0 0 1 .04-.06c.03-.03.04-.06.04-.08l-.02-.05a.7.7 0 0 1-.15-.44c0-.22.08-.4.34-.74.15-.2.24-.4.24-.53 0-.03-.02-.05-.05-.05-.03 0-.05 0-.08.02a.17.17 0 0 1-.05.02c-.02 0-.03 0-.05-.02l-.05-.06-.03-.05a.07.07 0 0 0-.05-.03l-.05.01h-.06c-.07.01-.1.04-.1.1v.07c0 .06-.05.15-.12.2l-.12.12c-.16.13-.28.35-.28.5 0 .06.02.16.06.28.06.2.08.29.08.35 0 .32-.5.73-1.4 1.18-.46.23-.57.37-.57.68v.11Zm-.44-6.86v.17c0 .03 0 .07-.02.1a.53.53 0 0 0 .07.46c.04.08.07.16.07.22 0 .03-.02.05-.03.05l-.03-.02-.06-.08c-.04-.05-.08-.07-.19-.07l-.11.01.08.23c.05.21.06.23.18.33s.13.12.13.16c0 .03-.02.05-.05.05h-.07c-.04 0-.07.06-.07.13a.48.48 0 0 0 .09.24l.07.07a.1.1 0 0 1 .02.07c0 .03-.02.06-.04.06l-.06-.03a.12.12 0 0 0-.05 0c-.03 0-.04.01-.04.05l.01.1.04.16c.01.04.04.08.08.13a.3.3 0 0 0 .1.07l.13.06.02.06c0 .02-.02.04-.05.04l-.07-.01h-.06c-.07 0-.07 0-.07.05v.1l.04.1c.02.12.06.17.1.17.01 0 .03 0 .05-.02.1-.07.29-.14.41-.14a1.38 1.38 0 0 1 .38.05c.02 0 .03-.02.03-.08l.01-.11.03-.2.02-.16v-.08l-.06.04c-.1.1-.18.14-.3.14-.3 0-.48-.34-.48-.93a6.07 6.07 0 0 1 .13-1.16c0-.21-.14-.42-.38-.58" fill="#FDDC02"/><path d="m14.21 15.27.06-.06.06-.05a.3.3 0 0 0 .09-.2l-.02-.1c-.03-.05-.07-.09-.1-.09-.02 0-.04.05-.05.14l-.02.1-.02.1v.16Zm-.59 2.67c.07.03.08.04.16.12.09.1.14.13.26.13l.1-.01.08-.03.07-.02c.03 0 .05-.02.05-.03 0-.01-.05-.06-.13-.11l-.16-.1a.36.36 0 0 0-.15-.03.5.5 0 0 0-.28.08Zm.91 1.92.3-.15.19-.1c.12-.06.18-.11.18-.14 0-.05-.08-.07-.2-.07-.27 0-.48.17-.48.38l.01.08Zm2.7-1.66c.1-.02.13-.05.18-.05h.12l.08-.04.1-.07c.13-.09.13-.1.13-.12 0-.04-.05-.06-.16-.06-.21 0-.34.1-.44.34" fill="#FDDC02"/><path d="m3.57 2.44-.04-.1V2.3c0-.05.02-.08.1-.1a.6.6 0 0 0 .22-.13L3.93 2c.02 0 .04.02.04.05 0 .08-.1.23-.19.39-.07.11-.1.19-.13.19s-.06-.05-.07-.11l-.01-.08Zm-.4-.26.12.05c.03.02.04.04.04.07v.04c-.02.05 0 .11 0 .14-.01.12-.1.11-.14.11-.02 0-.01 0-.06-.07l-.15-.16a.6.6 0 0 1-.1-.3v-.01c0-.04.01-.05.04-.05.02 0 .05.01.07.03l.18.14Zm.4.68.11-.07.06.01c.08 0 .1.02.1.1 0 .12-.08.17-.21.5-.06.14-.07.23-.16.23-.1 0-.17-.08-.25-.27l-.09-.2a.87.87 0 0 1-.08-.3c0-.05.04-.08.1-.08a.2.2 0 0 1 .09.03l.08.05h.25Zm12.46-.4-.05-.11-.01-.06c0-.05.02-.08.1-.1a.83.83 0 0 0 .23-.13l.07-.06c.03 0 .04.02.04.04 0 .09-.08.22-.17.38-.07.11-.12.2-.14.2-.04 0-.07-.04-.08-.1l.01-.06Zm-.41-.28.1.05.05.04v.07l-.03.12-.02.13-.03.02a.32.32 0 0 1-.15-.09l-.1-.16a.57.57 0 0 1-.09-.18.66.66 0 0 1-.03-.12v-.01c0-.04.01-.05.04-.05l.08.03.18.14Zm.4.68.1-.07h.04c.07 0 .16.06.16.14 0 .06-.09.1-.12.2l-.08.29c-.05.14-.12.2-.2.2-.1 0-.18-.07-.26-.26l-.08-.2a.87.87 0 0 1-.09-.28c0-.06.04-.1.1-.1a.2.2 0 0 1 .1.03l.07.05h.26ZM3.01 14.4l-.04-.1v-.03s0-.02.02-.02a.2.2 0 0 1 .08.04c.03.03.05.03.1.04.18.04.22.08.22.16v.11l-.04.1c0 .04-.02.06-.04.06a.54.54 0 0 1-.14-.1l-.07-.1-.1-.16Zm.8.16-.08.15-.04.04c-.04 0-.07-.08-.08-.16v-.13c0-.06.03-.08.12-.1a.41.41 0 0 0 .13-.04.8.8 0 0 1 .1-.07h.02c.02 0 .03.02.03.03v.01l-.05.12-.15.15Zm-.17.45.1-.06a.1.1 0 0 1 .06 0c.05 0 .09.03.09.1s-.06.17-.14.32c-.1.15-.16.26-.23.26-.1 0-.23-.15-.36-.4a.44.44 0 0 1-.05-.18c0-.09.04-.13.1-.13.04 0 .06 0 .08.02l.06.04a.28.28 0 0 0 .3.03Zm11.58-.8.1.06.13.07c.1.05.14.06.14.1l-.01.07a.38.38 0 0 0-.02.1c-.01.09-.07.1-.1.1-.05 0-.1-.06-.17-.19a1.77 1.77 0 0 1-.1-.26l-.01-.02c0-.02 0-.03.03-.03h.01Zm.9.23-.15.15c-.05.08-.05.14-.07.15a.07.07 0 0 1-.04.02h-.01a.07.07 0 0 1-.07-.07l-.01-.11V14.46c0-.04.02-.06.05-.07l.14-.04.15-.07a.25.25 0 0 1 .06-.03c.02 0 .03.02.03.04l-.01.04-.07.11Zm-.67.45.1.07.09.02a.4.4 0 0 0 .16-.04l.08-.04.05-.01c.06 0 .1.05.1.12 0 .1-.07.2-.17.34l-.08.15c-.06.08-.1.12-.14.12-.08 0-.12-.05-.24-.28a.83.83 0 0 1-.12-.35c0-.07.04-.12.1-.12.01 0 .04 0 .07.02" fill="#211E1E"/><path d="M3.43 3.05h-.09a.04.04 0 0 0-.03.01l-.02.04.04.15.02.14c.02.08.05.1.1.1.07 0 .11-.04.12-.12l.01-.14.02-.15-.02-.04a.04.04 0 0 0-.04-.02l-.11.03Zm12.44 0h-.08a.04.04 0 0 0-.03.01l-.02.04.03.15.03.14c.01.08.02.1.08.1.07 0 .12-.04.13-.12l.01-.14a10.5 10.5 0 0 0 0-.2.04.04 0 0 0-.04 0l-.11.02ZM3.49 15.16l-.08-.01c-.05 0-.07.02-.07.07 0 .07.05.19.12.28a.06.06 0 0 0 .05.03c.05 0 .08-.08.1-.21l.02-.1v-.02c0-.04-.01-.05-.05-.05h-.01l-.08.01Zm12.05.09v.12c0 .06.05.11.1.11.06 0 .1-.09.13-.22l.01-.1c0-.05-.01-.06-.07-.06h-.12c-.04 0-.05.03-.05.12v.03Z" fill="#FDDC02"/><path d="M8.03 8.91h.7c.08-.16.2-.24.36-.24.17 0 .28.07.37.24h.58a.4.4 0 0 1 .38-.24c.15 0 .3.1.36.24h.54c.08-.15.2-.24.35-.24.15 0 .27.07.36.2l.03.04h.74v3.39h-.65v1.3h-.77v-1.3H9.45v1.3h-.77v-1.31h-.65V8.9Z" fill="#211E1E"/><path d="M8.3 12.04h4.25V9.19H8.3v2.85Z" fill="#EE2E4F"/><path d="M8.75 9.84a.2.2 0 0 0-.14.06.2.2 0 0 0-.06.14c0 .1.09.2.2.2a.2.2 0 0 0 .18-.13.2.2 0 0 0 0-.15.2.2 0 0 0-.1-.1.2.2 0 0 0-.08-.02" fill="#FDDC02"/><path d="M8.75 9.84a.2.2 0 0 0-.14.06.2.2 0 0 0-.06.14c0 .1.09.2.2.2a.2.2 0 0 0 .18-.13.2.2 0 0 0 0-.15.2.2 0 0 0-.1-.1.2.2 0 0 0-.08-.02Z" stroke="#211E1E" stroke-width=".43"/><path d="M12.08 9.84a.2.2 0 0 0-.14.06.2.2 0 0 0-.06.14c0 .1.09.2.2.2a.2.2 0 0 0 .14-.06.2.2 0 0 0-.07-.32.2.2 0 0 0-.07-.02Z" fill="#FDDC02"/><path d="M12.08 9.84a.2.2 0 0 0-.14.06.2.2 0 0 0-.06.14c0 .1.09.2.2.2a.2.2 0 0 0 .14-.06.2.2 0 0 0-.07-.32.2.2 0 0 0-.07-.02Z" stroke="#211E1E" stroke-width=".43"/><path d="M8.75 11.4a.2.2 0 0 0-.14.05.2.2 0 0 0-.06.14c0 .1.09.2.2.2a.2.2 0 0 0 .14-.34.2.2 0 0 0-.14-.06" fill="#FDDC02"/><path d="M8.75 11.4a.2.2 0 0 0-.14.05.2.2 0 0 0-.06.14c0 .1.09.2.2.2a.2.2 0 0 0 .14-.34.2.2 0 0 0-.14-.06Z" stroke="#211E1E" stroke-width=".43"/><path d="M12.08 11.4a.2.2 0 0 0-.15.05.2.2 0 0 0 0 .28.2.2 0 0 0 .29 0 .2.2 0 0 0 0-.28.2.2 0 0 0-.14-.06Z" fill="#FDDC02"/><path d="M12.08 11.4a.2.2 0 0 0-.15.05.2.2 0 0 0 0 .28.2.2 0 0 0 .29 0 .2.2 0 0 0 0-.28.2.2 0 0 0-.14-.06Z" stroke="#211E1E" stroke-width=".43"/><path d="M9.38 10.79c.27.34.62.5 1.04.5.4 0 .67-.14.99-.5a1.31 1.31 0 0 0-1-.45c-.42 0-.79.16-1.03.45Z" fill="#FDDC02"/><path d="M9.58 10.79c.28-.21.52-.3.81-.3.3 0 .52.08.81.3-.25.25-.47.34-.81.34-.3 0-.57-.11-.8-.34Z" fill="#211E1E"/><path d="M9.93 10.72c.16.1.3.15.45.15.19 0 .34-.05.5-.15a1.14 1.14 0 0 0-.49-.1.98.98 0 0 0-.46.1Z" fill="#FDDC02"/><path d="M8.25 9.48h4.36v-.15H8.25v.15Z" fill="#211E1E" stroke="#211E1E" stroke-width=".14"/><path d="M8.92 9.15v.4c0 .1.07.18.17.18.12 0 .19-.06.19-.17v-.4c0-.16-.06-.26-.17-.26l-.08.02-.05.03a.17.17 0 0 0-.04.05.25.25 0 0 0-.02.08v.07Zm1.3.33v.08c0 .1.08.17.19.17.12 0 .18-.06.18-.17v-.4c0-.16-.06-.26-.17-.26-.12 0-.2.1-.2.25v.33Zm1.28-.33v.4c0 .1.08.18.18.18.11 0 .18-.06.18-.17v-.4c0-.16-.06-.26-.17-.26l-.08.02-.04.03a.18.18 0 0 0-.05.05.29.29 0 0 0-.02.08v.07ZM8.82 13.1h.4v-.5h-.4v.5Zm0 .27h.4v-.16h-.4v.16Zm2.7-.27h.4v-.5h-.4v.5Zm0 .27h.4v-.16h-.4v.16Z" fill="#FDDC02"/><path d="M33.31.44v.3h-.2c-.3 0-.8 0-.8.9v3.74c0 2.3-1.01 3.4-3.1 3.4-2.35 0-3.45-.92-3.45-2.9V1.65c0-.91-.5-.91-.95-.91h-.1v-.3h3.53v.3h-.1c-.43 0-.97 0-.97.9V5.7c0 1.75.74 2.6 2.26 2.6 1.49 0 2.27-.92 2.27-2.65v-4c0-.9-.5-.9-.88-.9h-.2v-.3h2.69Zm3.8 7.87v.3h-2.97v-.3h.12c.98 0 1.1-.73 1.1-1.56v-4.9c0-.79-.46-1.11-1.11-1.11h-.1v-.3h2.33l5.06 6.08V1.9c0-1.05-.74-1.16-1.06-1.16h-.21v-.3h3v.3h-.13c-.53 0-1.09.12-1.09 1.55v6.35h-.44l-5.74-6.8v4.9c0 .83.12 1.57 1.13 1.57h.12Zm15.95-1.44 1.84-5.02C55.22 1 55 .74 54.26.74h-.16v-.3h2.37v.3h-.05c-.26 0-.56.07-.79.63l-2.77 7.26h-.53l-3.01-7.19c-.24-.6-.52-.7-1.03-.7h-.07v-.3h3.44v.3h-.22c-.59 0-.7.36-.53.8l2.15 5.33ZM66.96.82v3.62h.71c1.3 0 1.87-.57 1.87-1.9 0-1.07-.71-1.77-1.78-1.77-.25 0-.59.02-.8.05Zm1.28-.38C70.08.44 71 1.1 71 2.47c0 1.17-.93 1.75-1.66 2.04l-.05.02 2.04 3.05c.33.5.6.69 1.16.72v.3h-2.14l-2.47-3.83h-.92v2.54c0 .92.42 1 1 1h.17v.3H64.5v-.3h.16c.41 0 .88-.18.88-.69V1.68c0-.94-.57-.94-.88-.94h-.16v-.3h3.73ZM76.89 7.05c0-.99-.87-1.38-1.68-1.8-.95-.48-2.05-.98-2.05-2.5 0-1.45 1.14-2.4 2.75-2.4.67 0 1.41.14 1.74.2l.12 1.6-.31.03c-.15-.83-.6-1.47-1.55-1.47-.9 0-1.57.54-1.57 1.52 0 .92.87 1.3 1.68 1.7.99.48 2.12.99 2.12 2.5 0 1.7-1.53 2.45-2.94 2.45-.57 0-1.35-.11-1.98-.46l-.2-1.77.3-.05c.24 1.17 1 1.85 2 1.85.96 0 1.57-.57 1.57-1.4ZM82.83.44v.3h-.12c-.47 0-.9.08-.9.72v6.12c-.01.64.43.73.9.73h.12v.3h-3.48v-.3h.12c.47 0 .91-.1.91-.73V1.46c0-.64-.44-.72-.9-.72h-.13v-.3h3.48Zm-35.09 0v.3h-.12c-.47 0-.9.08-.9.72v6.12c0 .64.43.73.9.73h.12v.3h-3.48v-.3h.12c.48 0 .92-.1.92-.73V1.46c0-.64-.44-.72-.92-.72h-.12v-.3h3.48ZM117.04 12.23l.03 2.17-.35.09c-.08-.95-.3-1.72-1.84-1.72h-2.08v4h1.78c.88 0 1.11-.48 1.21-1.3h.36v3.35h-.36c-.05-.8-.24-1.42-1.2-1.42h-1.79v3.52c0 1.02.9 1.02 1.85 1.02 1.7 0 2.5-.1 2.97-1.8l.35.08-.48 2.25h-7.75v-.37h.15c.6 0 1.14-.11 1.14-.9V13.5c0-.8-.55-.9-1.14-.9h-.15v-.38h7.3M73.2 12.71l-.01 4.54h.9c1.62 0 2.33-.71 2.33-2.38 0-1.35-.88-2.22-2.22-2.22-.31 0-.71.02-1 .06Zm1.6-.48c2.3 0 3.45.84 3.45 2.55 0 1.46-1.15 2.2-2.07 2.56l-.07.03 2.57 3.82c.4.62.74.86 1.45.9v.38h-2.68l-3.1-4.8h-1.16v3.18c0 1.16.52 1.25 1.26 1.25h.21v.37h-4.54v-.37h.2c.51 0 1.1-.23 1.1-.86v-7.45c0-1.18-.7-1.18-1.1-1.18h-.2v-.38h4.68Zm10.32 0v.37h-.14c-.6 0-1.15.11-1.15.9v7.7c0 .79.55.9 1.15.9h.14v.37h-4.36v-.37h.15c.6 0 1.14-.11 1.14-.9v-7.7c0-.79-.55-.9-1.14-.9h-.15v-.37h4.36ZM84.64.44h5.5c.28 0 .64-.07.7-.43h.26l-.2 2.13h-.3c-.02-.49-.1-1.2-.9-1.2h-1.68v6.3c0 .98.48 1.07 1.02 1.07h.17v.3h-3.8v-.3h.19c.63 0 1.01-.05 1.01-1.04V.94h-1.7c-.86 0-.95.37-1.11 1.2h-.3l.19-2.1h.24c.12.33.42.4.7.4ZM99.62.44v.3c-.48.03-.77.35-.99.65l-2.11 3.2v2.6c0 1.04.38 1.12 1.02 1.12h.17v.3h-3.8v-.3h.18c.66 0 1.02-.17 1.02-1.02V4.78l-2.3-3.22c-.34-.5-.6-.82-1.16-.82h-.07v-.3h3.44v.3h-.11c-.66 0-.7.34-.43.73l1.78 2.7 1.57-2.44c.37-.53.47-1-.42-1h-.14v-.3h2.35ZM103.69 4.17c0 2.01.9 4.18 2.9 4.18 1.83 0 2.72-1.24 2.72-3.8 0-1.87-1.02-3.86-2.92-3.86-2.5 0-2.7 2.66-2.7 3.48Zm-1.55.41a4.25 4.25 0 0 1 4.28-4.32c2.6 0 4.43 1.66 4.43 4.04 0 2.6-1.84 4.48-4.38 4.48-2.5 0-4.33-1.76-4.33-4.2ZM111.8 8.6v-.3h.12c.48 0 .91-.08.91-.72V1.46c0-.64-.43-.72-.91-.72h-.12v-.3h5.82l.02 1.73-.28.07c-.06-.7-.23-1.37-1.22-1.37h-1.9v3.19h1.67c.69 0 .78-.53.79-.96h.27v2.62h-.27c0-.51-.13-1.16-.98-1.16h-1.48v3.02c0 .73.62.73 1.17.73h.1v.3h-3.7M25.38 17.34c0-1.52.63-3.02 1.71-3.97A5.7 5.7 0 0 1 30.91 12c1.34 0 2.45.24 3.54.74l.1 2.37-.33.04c-.4-1.37-1.05-2.63-3.27-2.63-2.27 0-3.68 1.76-3.68 4.6 0 2.53 1.14 4.93 3.9 4.93 1.56 0 2.67-.58 3.5-1.63l.28.5a5.02 5.02 0 0 1-4.06 1.83c-3.36 0-5.51-1.95-5.51-5.4Zm22.52-3.13-.35 6.33c-.06 1.4.38 1.52 1.34 1.56h.1v.37h-3.53v-.37h.14c1.18-.05 1.25-.7 1.3-1.64l.42-6.48c.05-.88-.44-1.38-1.27-1.38h-.12v-.38h2.95L52.43 20l3.36-7.77h2.9v.38h-.06c-1.18 0-1.39.36-1.3 1.8l.4 6.8c.07.8.5.87 1.3.9v.37h-4.34v-.38h.03c.7-.04 1.21-.07 1.21-.76v-.74l-.33-6.55-3.61 8.5h-.31l-3.78-8.33Zm41.94-1.5v8.05c0 1.09.46 1.26 1.58 1.26 2.64 0 3.84-2.23 3.84-4.41 0-3.4-1.42-4.94-4.36-4.94-.26 0-.81.02-1.06.05Zm-3.07 9.76v-.37h.15c.6 0 1.14-.11 1.14-.9v-7.7c0-.79-.55-.9-1.14-.9h-.15v-.37h4.67c1.73 0 3.19.42 4.2 1.35 1 .91 1.53 2.2 1.53 3.74 0 1.44-.58 2.83-1.6 3.82a5.45 5.45 0 0 1-3.9 1.33h-4.9Zm19.3-.53v-2.5c0-.55-.42-.85-1.19-.85h-.12v-.36h4.02v.36h-.13c-.56 0-.86.3-.86.84v2.8c-.95.3-2.24.54-3.67.54-3.45 0-5.67-2.2-5.67-5.58 0-3.6 2.94-5.25 5.7-5.25 1.24 0 2.51.24 3.32.5l.16 2.45-.34.02c-.44-1.76-1.24-2.45-3.04-2.45-2.42 0-3.9 1.75-3.9 4.57 0 2.6 1.25 5.17 4.02 5.17.64.01 1.3-.08 1.7-.26ZM65.71 16.9c1.31.1 2.01.38 2.6.97.46.46.7 1.04.7 1.71 0 1.61-1.5 2.9-3.46 2.9h-5.12v-.37h.2c.52 0 1.1-.24 1.1-.88V13.8c0-1.18-.7-1.18-1.1-1.18h-.2v-.38h4.64c2.18 0 3.37.77 3.37 2.24 0 1.62-1.45 2.22-2.73 2.42Zm-2.14-4.28v4.11h.78c1.44 0 2.23-.69 2.23-2 0-1.44-.7-2.11-2.07-2.11h-.94Zm0 4.56v3.6c0 1 .32 1.29 1.38 1.29 1.27 0 2.23-1.03 2.23-2.43 0-1.57-.98-2.46-2.61-2.46h-1ZM39.4 14.32l1.46 3.99h-2.92l1.46-4Zm.18-2.1-3.31 8.85c-.25.63-.68 1.01-1.33 1.01h-.03v.39h3.18v-.39h-.14c-.77 0-1.29-.24-.96-1.2l.76-2.07h3.3l.81 2.25c.24.71-.07 1.03-.85 1.03h-.1v.38h4.05v-.38h-.03c-.54 0-.9-.27-1.16-.98l-3.4-8.88h-.79ZM62.85.45l.03 1.73-.28.07c-.07-.76-.24-1.38-1.47-1.38h-1.66v3.2h1.42c.7 0 .89-.38.97-1.04h.28v2.66h-.28c-.04-.63-.2-1.12-.96-1.12h-1.43v2.8c0 .81.72.81 1.48.81 1.36 0 1.99-.08 2.37-1.43l.27.06-.38 1.8h-6.17v-.3h.11c.48 0 .91-.09.91-.72V1.46c0-.64-.43-.72-.9-.72h-.12v-.3h5.81" fill="#211E1E"/></g><defs><clipPath id="a"><path fill="#fff" d="M0 0h118v24H0z"/></clipPath></defs></svg>