<svg width="111" height="20" fill="none" xmlns="http://www.w3.org/2000/svg"><g clip-path="url(#a)"><path fill="#fff" d="M0 0h111v20H0z"/><path d="M98.27.53h-1.8a.2.2 0 0 0-.21.2V9.5c0 3.05-1.16 4.53-3.57 4.53-2.37 0-3.52-1.48-3.52-4.53V.74a.2.2 0 0 0-.2-.21h-1.81a.2.2 0 0 0-.2.2v8.65c0 4.44 1.98 6.78 5.73 6.78 3.78 0 5.78-2.34 5.78-6.78V.74a.2.2 0 0 0-.2-.21ZM105.7 3.69c-1.41 0-2.62.55-3.5 1.6l-.17-1.3a.2.2 0 0 0-.2-.17h-1.47a.2.2 0 0 0-.2.2v15.3c0 .1.09.2.2.2h1.7c.11 0 .2-.1.2-.2v-5.37c.79.9 2 1.4 3.44 1.4 3.12 0 5.3-2.4 5.3-5.83 0-3.55-2.08-5.83-5.3-5.83Zm3.15 5.83c0 2.3-1.33 3.84-3.32 3.84-1.97 0-3.3-1.56-3.3-3.89 0-2.24 1.36-3.8 3.3-3.8 1.99 0 3.32 1.55 3.32 3.85ZM41.25 2.2a4.04 4.04 0 0 1 4.18 3.19c.02.09.1.15.2.15h1.8a.2.2 0 0 0 .16-.07c.03-.05.05-.11.04-.17-.56-3.23-2.97-5.24-6.3-5.24-4.27 0-7.14 3.17-7.14 7.88 0 4.8 2.8 7.88 7.15 7.88 3.3 0 5.71-2 6.27-5.23 0-.06 0-.13-.05-.17a.2.2 0 0 0-.15-.08H45.6a.2.2 0 0 0-.2.16 4.02 4.02 0 0 1-4.15 3.18c-2.88 0-4.82-2.3-4.82-5.74 0-3.43 1.94-5.74 4.82-5.74ZM50.3.04c-.74 0-1.3.58-1.3 1.35 0 .77.56 1.35 1.3 1.35.75 0 1.3-.58 1.3-1.35A1.3 1.3 0 0 0 50.3.04ZM51.15 4.29h-1.7a.2.2 0 0 0-.2.2v11c0 .11.09.2.2.2h1.7c.11 0 .2-.09.2-.2v-11a.2.2 0 0 0-.2-.2ZM58.88 4.29h-.48c-1.8 0-2.62.72-3.08 1.32l-.15-1.15a.2.2 0 0 0-.2-.17h-1.48a.2.2 0 0 0-.2.2v11c0 .11.1.2.2.2h1.7c.12 0 .2-.09.2-.2v-5.6c0-1.3.35-3.46 2.64-3.46h.85c.11 0 .2-.1.2-.21V4.49a.2.2 0 0 0-.2-.2ZM64.62 6.14c1.38 0 2.44.83 2.76 2.15.02.1.1.16.2.16h1.72a.2.2 0 0 0 .15-.07c.04-.05.06-.11.05-.17a4.6 4.6 0 0 0-4.82-4.05c-3.24 0-5.42 2.33-5.42 5.8 0 3.5 2.15 5.86 5.36 5.86a4.68 4.68 0 0 0 4.88-4.09.2.2 0 0 0-.05-.17.2.2 0 0 0-.15-.07h-1.7a.2.2 0 0 0-.2.16c-.3 1.37-1.33 2.19-2.78 2.19-1.92 0-3.21-1.56-3.21-3.87 0-2.29 1.29-3.83 3.2-3.83ZM72.98.55h-1.71a.2.2 0 0 0-.2.21V15.5c0 .11.09.2.2.2h1.7c.11 0 .2-.09.2-.2V.76a.2.2 0 0 0-.2-.2ZM79.56 4.16c-3.13 0-5.24 2.34-5.24 5.83s2.2 5.83 5.47 5.83a4.73 4.73 0 0 0 4.81-3.98.21.21 0 0 0-.04-.17.2.2 0 0 0-.15-.08h-1.73a.2.2 0 0 0-.2.16c-.32 1.3-1.37 2.09-2.82 2.09-1.83 0-3.06-1.3-3.14-3.3h8.03c.1 0 .2-.1.2-.2.02-.26.04-.52.04-.77-.08-3.29-2.13-5.41-5.23-5.41Zm3.04 4.5h-5.96a2.98 2.98 0 0 1 2.94-2.54c1.64 0 2.8.97 3.02 2.54Z" fill="#000"/><path fill-rule="evenodd" clip-rule="evenodd" d="M7.64 0C3.42 0 0 3.55 0 7.91c0 4.37 3.42 7.91 7.64 7.91 4.2 0 7.63-3.55 7.63-7.91S11.84.01 7.64.01ZM30.54 8.4 23.95.28a.72.72 0 0 0-1.13 0l-6.6 8.14c-.2.24-.03.62.28.62h1.63c.28 0 .48-.18.57-.29l3.2-3.8c.13-.15.38-.05.38.15v10.3c0 .27.2.49.46.49h1.28c.25 0 .46-.22.46-.49V5.08c0-.21.25-.3.38-.15l3.21 3.83c.1.11.27.27.63.27h1.56c.31 0 .48-.38.28-.62Z" fill="#000"/></g><defs><clipPath id="a"><path fill="#fff" d="M0 0h111v20H0z"/></clipPath></defs></svg>