<svg width="53" height="48" fill="none" xmlns="http://www.w3.org/2000/svg"><g clip-path="url(#a)"><path d="M49.12 30.94h1.67c.48 0 1.21-.22 1.7-.64-.36-1.25-2.64-1.54-3.59-1.53l.22 2.17Z" fill="#FC0" stroke="#B79300" stroke-width=".8"/><path d="m44.62 30.95-.07 6.2 6.5-.5c1.01-.18 1.18-.69 1.2-1.25l.25-4.18s.04-.66 0-.83c-.06-.33-.31-.41-.5-.21-.25.24-.86.7-1.4.69l-5.98.08ZM3.68 30.96H2.01c-.48 0-1.21-.22-1.69-.63.35-1.26 2.63-1.55 3.58-1.53l-.22 2.16Z" fill="#FC0" stroke="#B79300" stroke-width=".8"/><path d="m8.18 30.98.07 6.19-6.5-.5C.74 36.5.57 35.99.55 35.42L.3 31.24s-.04-.65 0-.83c.06-.33.31-.4.5-.2.25.24.86.69 1.4.68l5.98.09Z" fill="#FC0" stroke="#B79300" stroke-width=".8"/><path fill-rule="evenodd" clip-rule="evenodd" d="M26.23.35c-1.08 0-2.1.59-2.65 1.53C20.43 8.66 19 8.45 11.96 8.67a3.06 3.06 0 0 0-2.58 4.53c4.1 6.07 3.42 7.2.21 13.23a3.08 3.08 0 0 0 2.62 4.5c7.56-.52 8.08 1.01 11.96 7 .57.9 1.51 1.42 2.57 1.4a3.16 3.16 0 0 0 2.62-1.46c3.29-6.63 4.47-6.74 11.36-6.79a3.1 3.1 0 0 0 2.64-1.52c.53-.94.54-2.1.02-3.03-4.23-6.1-3.17-7.34-.01-13.6.47-.93.43-2.05-.11-2.94-2.23 1.38-2.23 1.38 0 0a3.04 3.04 0 0 0-2.55-1.49c-7.6.5-8.23-.56-11.83-6.65a3.08 3.08 0 0 0-2.65-1.5Zm.01 3.06c3.89 6.59 6.06 8.8 14.4 8.15-3.4 6.72-4.68 9.77.06 16.46-7.48.06-10.44.9-13.96 8.26-4.14-6.44-6.13-9.07-14.44-8.4 3.47-6.54 4.37-9.53-.24-16.16 7.58-.24 10.79-.77 14.18-8.31Z" fill="#FC0"/><path clip-rule="evenodd" d="M26.33 2.73c2.55 6.33 5.94 9.74 14.3 8.83-3.38 6.72-4.67 9.77.07 16.46-7.48.06-10.44.9-13.96 8.26v0c-4.14-6.44-6.13-9.07-14.44-8.4 3.47-6.54 4.37-9.53-.24-16.16 7.58-.24 11.2-1.14 14.27-8.99v0Z" stroke="#B79300" stroke-width=".8" stroke-linecap="round" stroke-linejoin="round"/><path d="m24.2 30.12.04-.02.17-.09a15.18 15.18 0 0 0 2.84-1.9 9.63 9.63 0 0 0 2.36-2.9A8.3 8.3 0 0 0 30.4 23l.05-.26.06-.54.01-.14v-.13l.01-.29c.01-.19 0-.37 0-.56a17.2 17.2 0 0 0-.19-2.2 22.3 22.3 0 0 0-.43-2.13 31.29 31.29 0 0 0-2.64-6.86l-.13-.24.29-.16.14.25.36.68a35.58 35.58 0 0 1 2.44 6.2c.38 1.38.68 2.9.73 4.44l.01.58V22.06l-.01.15c-.01.2-.02.4-.05.58l-.04.28-.06.29a8.63 8.63 0 0 1-.75 2.15 10.79 10.79 0 0 1-2.45 3.14 13.3 13.3 0 0 1-2.98 2.07l-.19.1-.07.02-.03-.02a.7.7 0 0 1-.28-.7Z" fill="#FC0" stroke="#B79300" stroke-width=".8" stroke-miterlimit="10" stroke-linejoin="round"/><path clip-rule="evenodd" d="M26.23.35c-1.08 0-2.1.59-2.65 1.53C20.43 8.66 19 8.45 11.96 8.67a3.06 3.06 0 0 0-2.58 4.53c4.1 6.07 3.42 7.2.21 13.23a3.08 3.08 0 0 0 2.62 4.5c7.56-.52 8.08 1.01 11.96 7a3.06 3.06 0 0 0 5.2-.06c3.28-6.63 4.47-6.74 11.35-6.79a3.1 3.1 0 0 0 2.64-1.52c.53-.94.54-2.1.02-3.03-4.23-6.1-3.17-7.34-.01-13.6A3.04 3.04 0 0 0 40.7 8.5c-7.6.5-8.23-.55-11.83-6.64a3.08 3.08 0 0 0-2.65-1.5Z" stroke="#B79300" stroke-width=".8"/><path d="M24.74 26.84v7.18h3.3v-7.18h-3.3Z" fill="#FC0" stroke="#B79300" stroke-width=".8" stroke-miterlimit="10"/><path d="m28.03 28.7-3.25 1.2.06.2 3.19-1.18v-.23ZM24.76 29.07l3.24-1.2v-.23l-3.24 1.21v.22Z" fill="#B79300"/><path d="M22.47 5.4s4.58 1.04 4.78 5.13l-4.78-5.12Z" fill="#FC0"/><path d="M22.47 5.4s4.58 1.04 4.78 5.13" stroke="#B79300" stroke-width=".8" stroke-miterlimit="10"/><path d="M27.25 10.53v.02c0-.02-2.91.62-4.78-5.14" fill="#B79300"/><path d="M27.25 10.53v.02c0-.02-2.91.62-4.78-5.14" stroke="#B79300" stroke-width=".8" stroke-miterlimit="10"/><path d="M22.47 5.4c1.83 1.87 3.09 3.55 4.55 4.96l.23.18" stroke="#B79300" stroke-width=".8" stroke-miterlimit="10"/><path d="m25.41 5.31.99-2.66v23.72h-1.66V9.17c0-1.32.23-2.61.67-3.86Z" fill="#FC0"/><path d="m27.38 5.31-.98-2.66v23.72h1.65V9.17c0-1.32-.23-2.61-.67-3.86ZM28.03 32.8l-3.3 1.22v.23l3.3-1.21v-.23Z" fill="#B79300"/><path d="M28.56 34.98h-4.33a.37.37 0 0 1-.37-.37v-.6c0-.2.17-.37.37-.37h4.33c.2 0 .37.17.37.37v.6c0 .2-.17.37-.37.37Z" fill="#FC0" stroke="#B79300" stroke-width=".8" stroke-miterlimit="10"/><path d="m28.03 31.75-3.25 1.22v.23l3.25-1.22v-.23ZM28.03 30.73l-3.26 1.2v.24l3.26-1.2v-.24ZM28.03 29.72l-3.27 1.22v.22l3.27-1.22v-.22Z" fill="#B79300"/><path d="M26.4 25.67V2.7" stroke="#B79300" stroke-width=".8" stroke-miterlimit="10" stroke-linecap="round" stroke-linejoin="round"/><path d="M31.39 21.67a5.4 5.4 0 0 1-.1.03s-.11-4.07 3.27-6.3" fill="#FC0"/><path d="M31.39 21.67a4.8 4.8 0 0 1-.1.03s-.11-4.07 3.27-6.3" stroke="#B79300" stroke-width=".8" stroke-miterlimit="10"/><path d="m34.56 15.4.02-.02c0 .02.72 5.15-3.2 6.29" fill="#B79300"/><path d="m34.56 15.4.02-.02c0 .02.72 5.15-3.2 6.29" stroke="#B79300" stroke-width=".8" stroke-miterlimit="10"/><path d="M30.93 7.3s2.38 6.06-.95 8.16l.95-8.16Z" fill="#B79300"/><path d="M30.93 7.3s2.38 6.06-.95 8.16" stroke="#B79300" stroke-width=".8" stroke-miterlimit="10"/><path d="M29.98 15.46s-1.87-5.5.95-8.16l-.95 8.16Z" fill="#FC0"/><path d="M29.98 15.46s-1.87-5.5.95-8.16" stroke="#B79300" stroke-width=".8" stroke-miterlimit="10"/><path d="M35.53 22.23c-.06.58-.64 4.71-6.94 5.6l6.94-5.6Z" fill="#B79300"/><path d="M35.53 22.23c-.06.58-.64 4.71-6.94 5.6M26.36 2.83 25.4 5.3a11.44 11.44 0 0 0-.67 3.86v17.2H28.05V9.17c0-1.32-.23-2.61-.67-3.86l-1.02-2.48Z" stroke="#B79300" stroke-width=".8" stroke-miterlimit="10"/><path d="M23.07 16.04c2.64 2.2 5.19 3.88 7.7 5.84" stroke="#000" stroke-width=".8" stroke-miterlimit="10"/><path d="M23.07 16.04s5.96.61 7.68 5.72h-.06" fill="#FC0"/><path d="M23.07 16.04s5.96.61 7.68 5.72h-.06" stroke="#B79300" stroke-width=".8" stroke-miterlimit="10"/><path d="M30.7 21.76c-.6.04-5.42.25-7.63-5.72l7.62 5.72Z" fill="#B79300"/><path d="M30.7 21.76c-.6.04-5.42.25-7.63-5.72" stroke="#B79300" stroke-width=".8" stroke-miterlimit="10"/><path d="M23.07 16.04c2.64 2.2 5.19 3.88 7.7 5.84M34.57 15.38c-1.1 2.27-2.13 4.38-3.29 6.5M28.6 27.83s4.92-3.9 6.92-5.55" stroke="#B79300" stroke-width=".8" stroke-miterlimit="10"/><path d="M29.56 15.57c-2.26-1.45-4.51-2.84-6.36-4.8" stroke="#000" stroke-width=".8" stroke-miterlimit="10"/><path d="M30.93 7.3a144 144 0 0 1-.95 7.9v.26" stroke="#B79300" stroke-width=".8" stroke-miterlimit="10"/><path fill-rule="evenodd" clip-rule="evenodd" d="m8.35 30.95-3.79 5.94c5.66 7.3 12.57 10.9 21.82 10.84 9.25.06 16.15-3.54 21.82-10.84l-3.8-5.94c-2.8 6.18-9.86 10.72-18.02 10.7-8.16.02-15.22-4.52-18.03-10.7Z" fill="#FC0" stroke="#B79300" stroke-width=".8" stroke-linecap="round" stroke-linejoin="round"/><path d="M29.38 15.5c-.53.14-4.67.68-6.35-4.92l6.35 4.92Z" fill="#B79300"/><path d="M29.38 15.5c-.53.14-4.67.68-6.35-4.92" stroke="#B79300" stroke-width=".8" stroke-miterlimit="10"/><path d="M23.03 10.58s4.96.52 6.4 4.92h-.05" fill="#FC0"/><path d="M23.03 10.58s4.96.52 6.4 4.92h-.05M23.03 10.58c2.2 1.9 4.32 3.34 6.4 5.03" stroke="#B79300" stroke-width=".8" stroke-miterlimit="10"/><path d="m26.4 27.55-1.65.43-2.27-1.41 3.92.03" fill="#B79300"/><path d="m26.4 27.55-1.65.43-2.27-1.41 3.92.03" stroke="#B79300" stroke-width=".8" stroke-miterlimit="10" stroke-linecap="round" stroke-linejoin="round"/><path d="m26.4 27.55 1.81.43 1.87-1.4-3.68.02" fill="#B79300"/><path d="m26.4 27.55 1.81.43 1.87-1.4-3.68.02" stroke="#B79300" stroke-width=".8" stroke-miterlimit="10" stroke-linecap="round" stroke-linejoin="round"/><path d="M22.53 26.57h6.87" stroke="#000" stroke-width=".8" stroke-miterlimit="10"/><path d="m26.4 26.6 3.68-.03-2.03-1.51-1.65.43" fill="#FC0"/><path d="m26.4 26.6 3.68-.03-2.03-1.51-1.65.43" stroke="#B79300" stroke-width=".8" stroke-miterlimit="10" stroke-linecap="round" stroke-linejoin="round"/><path d="m26.4 26.6-3.92-.03 2.26-1.51 1.66.43" fill="#FC0"/><path d="m26.4 26.6-3.92-.03 2.26-1.51 1.66.43" stroke="#B79300" stroke-width=".8" stroke-miterlimit="10" stroke-linecap="round" stroke-linejoin="round"/><path d="M28.6 27.83c-.03 0 2.42-4.82 6.93-5.66v.06" fill="#FC0"/><path d="M28.6 27.83c-.03 0 2.42-4.82 6.93-5.66v.06" stroke="#B79300" stroke-width=".8" stroke-miterlimit="10"/><path d="m24.2 30.12.04-.02.17-.09a15.18 15.18 0 0 0 2.84-1.9 9.64 9.64 0 0 0 2.36-2.9A8.3 8.3 0 0 0 30.4 23l.05-.26.06-.54.01-.14v-.03c0-.01 0 0 0 0v-.1l.01-.29c.01-.19 0-.37 0-.56a17.2 17.2 0 0 0-.19-2.2c-.1-.73-.36-1.8-.53-2.49l.46-.12c.38 1.38.78 3.24.83 4.8l.01.57V22.06l-.01.15c-.01.2-.02.39-.05.58l-.04.28-.06.29a8.63 8.63 0 0 1-.75 2.15 10.79 10.79 0 0 1-2.45 3.14 13.3 13.3 0 0 1-3.17 2.16l-.07.03-.03-.02a.7.7 0 0 1-.28-.7Z" fill="#B79300" stroke="#B79300" stroke-width=".8" stroke-miterlimit="10" stroke-linejoin="round"/><path d="M29.88 15.15c.3 0 .56.25.56.55 0 .31-.26.56-.56.56a.56.56 0 0 1-.56-.56c0-.3.25-.55.56-.55Zm0-.21a.77.77 0 1 0 0 1.53c.42 0 .77-.34.77-.77a.77.77 0 0 0-.77-.76Z" fill="#B79300"/><path d="M29.88 16.38a.66.66 0 0 1-.67-.66c0-.37.3-.67.67-.67a.66.66 0 1 1 0 1.33Z" fill="url(#b)"/><path d="M30.75 21.3a.6.6 0 1 1 0 1.2.6.6 0 0 1 0-1.2Zm0-.22a.81.81 0 1 0 0 1.63.81.81 0 0 0 0-1.63Z" fill="#B79300"/><path d="M30.75 22.59a.7.7 0 1 1 0-1.41.7.7 0 0 1 0 1.41Z" fill="url(#c)"/><path d="M28.5 45.22a29 29 0 0 0 .63-.07c.3-.04.42-.16.34-.46l-.2-.76c-.01-.04-.04-.05-.08-.05l-.64.07.27-.8.9-.11c.09-.02.15 0 .18.02.04.02.07.08.1.17.22.76.45 1.51.7 2.27l-.8.44-.28-.82c-.1.27-.2.55-.32.82-.35.04-.7.08-1.04.1l.23-.82ZM19.75 41.8l-.77.15-.34.96c-.02.03 0 .04.02.05.46.16.92.3 1.39.42l-.34 1.29-.8-.23a29 29 0 0 1-.5.61c.52.17 1.06.32 1.6.45.2-.15.39-.3.57-.47l.44-1.99c.03-.15-.05-.22-.16-.25-.44-.1-.88-.21-1.31-.34l.2-.65ZM38.3 40.42l.15-.71c.64.19 1.3.36 1.98.5.04 0 .04-.02.02-.04l-.38-.52-.3.22-.22-.79a21.42 21.42 0 0 0 .5-.39c.12-.08.22-.07.31.05l.62.79c.04.05.04.1.02.15l-.32.56c.4.08.8.16 1.2.22l-.3.73a23.7 23.7 0 0 1-2.19-.48c-.04 0-.05 0-.03.03l.47.72.37-.25.27.7-.85.56c-.05.02-.09.01-.12-.04l-.69-1.1c-.03-.06-.03-.1 0-.13l.27-.55-.78-.23ZM34.2 45l-.42-1.39-.03-.07.05-.05.7-.43.49 1.37-.78.57Z" fill="#B79300"/><path d="M33.55 42.17a20.88 20.88 0 0 0 1.85-.69c.23-.1.4-.03.51.2l.92 2.02-.78.65-.77-1.9c-.02-.05-.06-.06-.13-.04-.52.21-1.05.4-1.6.56v-.8ZM31 45.77l-.26-1.43-.01-.08a25.45 25.45 0 0 0 .8-.38l.3 1.43c-.27.16-.55.31-.84.46Z" fill="#B79300"/><path d="M30.7 42.88a24.28 24.28 0 0 0 1.94-.44c.25-.07.4.02.48.27l.62 2.12c-.28.19-.56.36-.85.54l-.5-1.99c-.01-.05-.06-.07-.13-.05-.54.13-1.1.25-1.65.34l.1-.8ZM40.7 38.17l.31.74c.34-.28.67-.57 1-.87l.05-.05c.04-.04.08-.04.12 0l.53.56.35.36c-.38.36-.77.7-1.17 1.03l.23.74c.74-.6 1.45-1.25 2.13-1.92l-.27-.74-.36.36c-.3.3 0-.2-.23-.42l-1.01-1.01c-.12-.12-.25-.1-.34-.01-.43.43-.88.84-1.34 1.23ZM44.47 38.53l-.28-.7c.37-.39.72-.78 1.06-1.18-.27.05-.67.06-1.14.08-.13 0-.38-.01-.73-.06l-.35.36-.3-.8.46-.5c.03-.03.08-.04.15 0 .28.12.57.18.86.2.15 0 .37-.02.66-.05.06 0 .06-.03 0-.07l-.42-.35-.2.23-.38-.73.4-.5c.1-.12.2-.13.32-.04l.74.62-.2.82c.28-.04.62-.08.96-.17l.25.73c-.58.73-1.2 1.44-1.86 2.11ZM26.18 46.15l.1-.74a24.52 24.52 0 0 0 .83-.02l-.06-1.33-.43.01.11-.77.94-.05c.12 0 .2.04.22.2l.16 2.2-.41.45a31.26 31.26 0 0 1-1.46.05ZM17.23 42.4l.43-.65.73.3c.18.07.24.19.18.36l-.01.03-.37 1.01c-.31 0-.62-.02-.93-.05l.35-.84-.38-.16ZM14.23 39.81l-.73.43.32.22c-.35.62-.69 1.25-1.02 1.88.52.33 1.04.65 1.58.94.52.29.93.39 1.2.34.2-.03.42-.18.64-.46a46.22 46.22 0 0 0 1.1-1.41c.04-.09 0-.15-.1-.2l-.79-.4-.57.56.33.18-.74.82c-.06.07-.13.1-.2.1a.96.96 0 0 1-.41-.14 24.2 24.2 0 0 1-.93-.51l.19-.34c.2.12.42.23.63.34.1.06.2.06.27.01.42-.37.82-.75 1.22-1.13-.28-.15-.55-.31-.83-.48l-.7.47a23.07 23.07 0 0 0 .33.2l-.4.34c-.12.1-.22.08-.37-.01l.61-1.13c.06-.1.03-.18-.07-.24a24.5 24.5 0 0 1-.56-.38ZM12.17 38.24a31.87 31.87 0 0 0 1.2.96c.22.15.24.33.09.55l-1.3 1.78c-.32-.1-.63-.22-.94-.33l1.26-1.62c.03-.04.02-.08-.03-.13-.33-.25-.65-.51-.96-.77l.68-.44ZM23.08 46.09l.15-1.45v-.08l.07-.03c.27-.03.55-.07.82-.12l-.1 1.46-.94.22Z" fill="#B79300"/><path d="M23.58 43.22a23.7 23.7 0 0 0 2 .1c.25 0 .38.13.39.4l.01 2.2-.96.29.05-2.05c0-.06-.03-.09-.1-.09-.57-.02-1.13-.05-1.7-.11l.31-.74ZM9.03 34.33l-.78-.27-.75.69c-.03.01-.03.03 0 .06.32.36.66.71 1 1.06l-.96.93-.56-.59-.73.3c.36.4.73.77 1.1 1.15l.73-.1 1.44-1.46c.1-.1.08-.2 0-.3a52.7 52.7 0 0 1-.99-1l.5-.47ZM9.6 36.45l.74-.01c-.04.68-.06 1.36-.06 2.05 0 .04.01.04.04.02l.42-.48-.27-.25.73-.37a38.16 38.16 0 0 0 .5.43c.1.1.1.2 0 .3-.21.26-.43.5-.66.75-.04.05-.1.07-.14.05l-.61-.2v1.2c-.25-.03-.5-.08-.76-.13-.01-.75 0-1.49.03-2.23 0-.04-.01-.04-.03-.02l-.6.62.32.3-.62.42-.72-.69c-.04-.03-.03-.07.01-.12l.92-.93c.04-.04.08-.05.12-.03l.6.13c0-.27.02-.54.04-.8Z" fill="#B79300"/><path d="M49.12 30.94h1.67c.48 0 1.21-.22 1.7-.64-.36-1.25-2.64-1.54-3.59-1.53l.22 2.17Z" fill="#FC0" stroke="#B79300" stroke-width=".8"/><path d="m44.62 30.95-.07 6.2 6.5-.5c1.01-.18 1.18-.69 1.2-1.25l.25-4.18s.04-.66 0-.83c-.06-.33-.31-.41-.5-.21-.25.24-.86.7-1.4.69l-5.98.08ZM3.68 30.96H2.01c-.48 0-1.21-.22-1.69-.63.35-1.26 2.63-1.55 3.58-1.53l-.22 2.16Z" fill="#FC0" stroke="#B79300" stroke-width=".8"/><path d="m8.18 30.98.07 6.19-6.5-.5C.74 36.5.57 35.99.55 35.42L.3 31.24s-.04-.65 0-.83c.06-.33.31-.4.5-.2.25.24.86.69 1.4.68l5.98.09Z" fill="#FC0" stroke="#B79300" stroke-width=".8"/><path fill-rule="evenodd" clip-rule="evenodd" d="M26.23.35c-1.08 0-2.1.59-2.65 1.53C20.43 8.66 19 8.45 11.96 8.67a3.06 3.06 0 0 0-2.58 4.53c4.1 6.07 3.42 7.2.21 13.23a3.08 3.08 0 0 0 2.62 4.5c7.56-.52 8.08 1.01 11.96 7 .57.9 1.51 1.42 2.57 1.4a3.16 3.16 0 0 0 2.62-1.46c3.29-6.63 4.47-6.74 11.36-6.79a3.1 3.1 0 0 0 2.64-1.52c.53-.94.54-2.1.02-3.03-4.23-6.1-3.17-7.34-.01-13.6.47-.93.43-2.05-.11-2.94-2.23 1.38-2.23 1.38 0 0a3.04 3.04 0 0 0-2.55-1.49c-7.6.5-8.23-.56-11.83-6.65a3.08 3.08 0 0 0-2.65-1.5Zm.01 3.06c3.89 6.59 6.06 8.8 14.4 8.15-3.4 6.72-4.68 9.77.06 16.46-7.48.06-10.44.9-13.96 8.26-4.14-6.44-6.13-9.07-14.44-8.4 3.47-6.54 4.37-9.53-.24-16.16 7.58-.24 10.79-.77 14.18-8.31Z" fill="#FC0"/><path clip-rule="evenodd" d="M26.33 2.73c2.55 6.33 5.94 9.74 14.3 8.83-3.38 6.72-4.67 9.77.07 16.46-7.48.06-10.44.9-13.96 8.26v0c-4.14-6.44-6.13-9.07-14.44-8.4 3.47-6.54 4.37-9.53-.24-16.16 7.58-.24 11.2-1.14 14.27-8.99v0Z" stroke="#B79300" stroke-width=".8" stroke-linecap="round" stroke-linejoin="round"/><path d="m24.2 30.12.04-.02.17-.09a15.18 15.18 0 0 0 2.84-1.9 9.63 9.63 0 0 0 2.36-2.9A8.3 8.3 0 0 0 30.4 23l.05-.26.06-.54.01-.14v-.13l.01-.29c.01-.19 0-.37 0-.56a17.2 17.2 0 0 0-.19-2.2 22.3 22.3 0 0 0-.43-2.13 31.29 31.29 0 0 0-2.64-6.86l-.13-.24.29-.16.14.25.36.68a35.58 35.58 0 0 1 2.44 6.2c.38 1.38.68 2.9.73 4.44l.01.58V22.06l-.01.15c-.01.2-.02.4-.05.58l-.04.28-.06.29a8.63 8.63 0 0 1-.75 2.15 10.79 10.79 0 0 1-2.45 3.14 13.3 13.3 0 0 1-2.98 2.07l-.19.1-.07.02-.03-.02a.7.7 0 0 1-.28-.7Z" fill="#FC0" stroke="#B79300" stroke-width=".8" stroke-miterlimit="10" stroke-linejoin="round"/><path clip-rule="evenodd" d="M26.23.35c-1.08 0-2.1.59-2.65 1.53C20.43 8.66 19 8.45 11.96 8.67a3.06 3.06 0 0 0-2.58 4.53c4.1 6.07 3.42 7.2.21 13.23a3.08 3.08 0 0 0 2.62 4.5c7.56-.52 8.08 1.01 11.96 7a3.06 3.06 0 0 0 5.2-.06c3.28-6.63 4.47-6.74 11.35-6.79a3.1 3.1 0 0 0 2.64-1.52c.53-.94.54-2.1.02-3.03-4.23-6.1-3.17-7.34-.01-13.6A3.04 3.04 0 0 0 40.7 8.5c-7.6.5-8.23-.55-11.83-6.64a3.08 3.08 0 0 0-2.65-1.5Z" stroke="#B79300" stroke-width=".8"/><path d="M24.74 26.84v7.18h3.3v-7.18h-3.3Z" fill="#FC0" stroke="#B79300" stroke-width=".8" stroke-miterlimit="10"/><path d="m28.03 28.7-3.25 1.2.06.2 3.19-1.18v-.23ZM24.76 29.07l3.24-1.2v-.23l-3.24 1.21v.22Z" fill="#B79300"/><path d="M22.47 5.4s4.58 1.04 4.78 5.13l-4.78-5.12Z" fill="#FC0"/><path d="M22.47 5.4s4.58 1.04 4.78 5.13" stroke="#B79300" stroke-width=".8" stroke-miterlimit="10"/><path d="M27.25 10.53v.02c0-.02-2.91.62-4.78-5.14" fill="#B79300"/><path d="M27.25 10.53v.02c0-.02-2.91.62-4.78-5.14" stroke="#B79300" stroke-width=".8" stroke-miterlimit="10"/><path d="M22.47 5.4c1.83 1.87 3.09 3.55 4.55 4.96l.23.18" stroke="#B79300" stroke-width=".8" stroke-miterlimit="10"/><path d="m25.41 5.31.99-2.66v23.72h-1.66V9.17c0-1.32.23-2.61.67-3.86Z" fill="#FC0"/><path d="m27.38 5.31-.98-2.66v23.72h1.65V9.17c0-1.32-.23-2.61-.67-3.86ZM28.03 32.8l-3.3 1.22v.23l3.3-1.21v-.23Z" fill="#B79300"/><path d="M28.56 34.98h-4.33a.37.37 0 0 1-.37-.37v-.6c0-.2.17-.37.37-.37h4.33c.2 0 .37.17.37.37v.6c0 .2-.17.37-.37.37Z" fill="#FC0" stroke="#B79300" stroke-width=".8" stroke-miterlimit="10"/><path d="m28.03 31.75-3.25 1.22v.23l3.25-1.22v-.23ZM28.03 30.73l-3.26 1.2v.24l3.26-1.2v-.24ZM28.03 29.72l-3.27 1.22v.22l3.27-1.22v-.22Z" fill="#B79300"/><path d="M26.4 25.67V2.7" stroke="#B79300" stroke-width=".8" stroke-miterlimit="10" stroke-linecap="round" stroke-linejoin="round"/><path d="M31.39 21.67a5.4 5.4 0 0 1-.1.03s-.11-4.07 3.27-6.3" fill="#FC0"/><path d="M31.39 21.67a4.8 4.8 0 0 1-.1.03s-.11-4.07 3.27-6.3" stroke="#B79300" stroke-width=".8" stroke-miterlimit="10"/><path d="m34.56 15.4.02-.02c0 .02.72 5.15-3.2 6.29" fill="#B79300"/><path d="m34.56 15.4.02-.02c0 .02.72 5.15-3.2 6.29" stroke="#B79300" stroke-width=".8" stroke-miterlimit="10"/><path d="M30.93 7.3s2.38 6.06-.95 8.16l.95-8.16Z" fill="#B79300"/><path d="M30.93 7.3s2.38 6.06-.95 8.16" stroke="#B79300" stroke-width=".8" stroke-miterlimit="10"/><path d="M29.98 15.46s-1.87-5.5.95-8.16l-.95 8.16Z" fill="#FC0"/><path d="M29.98 15.46s-1.87-5.5.95-8.16" stroke="#B79300" stroke-width=".8" stroke-miterlimit="10"/><path d="M35.53 22.23c-.06.58-.64 4.71-6.94 5.6l6.94-5.6Z" fill="#B79300"/><path d="M35.53 22.23c-.06.58-.64 4.71-6.94 5.6M26.36 2.83 25.4 5.3a11.44 11.44 0 0 0-.67 3.86v17.2H28.05V9.17c0-1.32-.23-2.61-.67-3.86l-1.02-2.48Z" stroke="#B79300" stroke-width=".8" stroke-miterlimit="10"/><path d="M23.07 16.04c2.64 2.2 5.19 3.88 7.7 5.84" stroke="#000" stroke-width=".8" stroke-miterlimit="10"/><path d="M23.07 16.04s5.96.61 7.68 5.72h-.06" fill="#FC0"/><path d="M23.07 16.04s5.96.61 7.68 5.72h-.06" stroke="#B79300" stroke-width=".8" stroke-miterlimit="10"/><path d="M30.7 21.76c-.6.04-5.42.25-7.63-5.72l7.62 5.72Z" fill="#B79300"/><path d="M30.7 21.76c-.6.04-5.42.25-7.63-5.72" stroke="#B79300" stroke-width=".8" stroke-miterlimit="10"/><path d="M23.07 16.04c2.64 2.2 5.19 3.88 7.7 5.84M34.57 15.38c-1.1 2.27-2.13 4.38-3.29 6.5M28.6 27.83s4.92-3.9 6.92-5.55" stroke="#B79300" stroke-width=".8" stroke-miterlimit="10"/><path d="M29.56 15.57c-2.26-1.45-4.51-2.84-6.36-4.8" stroke="#000" stroke-width=".8" stroke-miterlimit="10"/><path d="M30.93 7.3a144 144 0 0 1-.95 7.9v.26" stroke="#B79300" stroke-width=".8" stroke-miterlimit="10"/><path fill-rule="evenodd" clip-rule="evenodd" d="m8.35 30.95-3.79 5.94c5.66 7.3 12.57 10.9 21.82 10.84 9.25.06 16.15-3.54 21.82-10.84l-3.8-5.94c-2.8 6.18-9.86 10.72-18.02 10.7-8.16.02-15.22-4.52-18.03-10.7Z" fill="#FC0" stroke="#B79300" stroke-width=".8" stroke-linecap="round" stroke-linejoin="round"/><path d="M29.38 15.5c-.53.14-4.67.68-6.35-4.92l6.35 4.92Z" fill="#B79300"/><path d="M29.38 15.5c-.53.14-4.67.68-6.35-4.92" stroke="#B79300" stroke-width=".8" stroke-miterlimit="10"/><path d="M23.03 10.58s4.96.52 6.4 4.92h-.05" fill="#FC0"/><path d="M23.03 10.58s4.96.52 6.4 4.92h-.05M23.03 10.58c2.2 1.9 4.32 3.34 6.4 5.03" stroke="#B79300" stroke-width=".8" stroke-miterlimit="10"/><path d="m26.4 27.55-1.65.43-2.27-1.41 3.92.03" fill="#B79300"/><path d="m26.4 27.55-1.65.43-2.27-1.41 3.92.03" stroke="#B79300" stroke-width=".8" stroke-miterlimit="10" stroke-linecap="round" stroke-linejoin="round"/><path d="m26.4 27.55 1.81.43 1.87-1.4-3.68.02" fill="#B79300"/><path d="m26.4 27.55 1.81.43 1.87-1.4-3.68.02" stroke="#B79300" stroke-width=".8" stroke-miterlimit="10" stroke-linecap="round" stroke-linejoin="round"/><path d="M22.53 26.57h6.87" stroke="#000" stroke-width=".8" stroke-miterlimit="10"/><path d="m26.4 26.6 3.68-.03-2.03-1.51-1.65.43" fill="#FC0"/><path d="m26.4 26.6 3.68-.03-2.03-1.51-1.65.43" stroke="#B79300" stroke-width=".8" stroke-miterlimit="10" stroke-linecap="round" stroke-linejoin="round"/><path d="m26.4 26.6-3.92-.03 2.26-1.51 1.66.43" fill="#FC0"/><path d="m26.4 26.6-3.92-.03 2.26-1.51 1.66.43" stroke="#B79300" stroke-width=".8" stroke-miterlimit="10" stroke-linecap="round" stroke-linejoin="round"/><path d="M28.6 27.83c-.03 0 2.42-4.82 6.93-5.66v.06" fill="#FC0"/><path d="M28.6 27.83c-.03 0 2.42-4.82 6.93-5.66v.06" stroke="#B79300" stroke-width=".8" stroke-miterlimit="10"/><path d="m24.2 30.12.04-.02.17-.09a15.18 15.18 0 0 0 2.84-1.9 9.64 9.64 0 0 0 2.36-2.9A8.3 8.3 0 0 0 30.4 23l.05-.26.06-.54.01-.14v-.03c0-.01 0 0 0 0v-.1l.01-.29c.01-.19 0-.37 0-.56a17.2 17.2 0 0 0-.19-2.2c-.1-.73-.36-1.8-.53-2.49l.46-.12c.38 1.38.78 3.24.83 4.8l.01.57V22.06l-.01.15c-.01.2-.02.39-.05.58l-.04.28-.06.29a8.63 8.63 0 0 1-.75 2.15 10.79 10.79 0 0 1-2.45 3.14 13.3 13.3 0 0 1-3.17 2.16l-.07.03-.03-.02a.7.7 0 0 1-.28-.7Z" fill="#B79300" stroke="#B79300" stroke-width=".8" stroke-miterlimit="10" stroke-linejoin="round"/><path d="M29.88 15.15c.3 0 .56.25.56.55 0 .31-.26.56-.56.56a.56.56 0 0 1-.56-.56c0-.3.25-.55.56-.55Zm0-.21a.77.77 0 1 0 0 1.53c.42 0 .77-.34.77-.77a.77.77 0 0 0-.77-.76Z" fill="#B79300"/><path d="M29.88 16.38a.66.66 0 0 1-.67-.66c0-.37.3-.67.67-.67a.66.66 0 1 1 0 1.33Z" fill="url(#d)"/><path d="M30.75 21.3a.6.6 0 1 1 0 1.2.6.6 0 0 1 0-1.2Zm0-.22a.81.81 0 1 0 0 1.63.81.81 0 0 0 0-1.63Z" fill="#B79300"/><path d="M30.75 22.59a.7.7 0 1 1 0-1.41.7.7 0 0 1 0 1.41Z" fill="url(#e)"/><path d="M28.5 45.22a29 29 0 0 0 .63-.07c.3-.04.42-.16.34-.46l-.2-.76c-.01-.04-.04-.05-.08-.05l-.64.07.27-.8.9-.11c.09-.02.15 0 .18.02.04.02.07.08.1.17.22.76.45 1.51.7 2.27l-.8.44-.28-.82c-.1.27-.2.55-.32.82-.35.04-.7.08-1.04.1l.23-.82ZM19.75 41.8l-.77.15-.34.96c-.02.03 0 .04.02.05.46.16.92.3 1.39.42l-.34 1.29-.8-.23a29 29 0 0 1-.5.61c.52.17 1.06.32 1.6.45.2-.15.39-.3.57-.47l.44-1.99c.03-.15-.05-.22-.16-.25-.44-.1-.88-.21-1.31-.34l.2-.65ZM38.3 40.42l.15-.71c.64.19 1.3.36 1.98.5.04 0 .04-.02.02-.04l-.38-.52-.3.22-.22-.79a21.42 21.42 0 0 0 .5-.39c.12-.08.22-.07.31.05l.62.79c.04.05.04.1.02.15l-.32.56c.4.08.8.16 1.2.22l-.3.73a23.7 23.7 0 0 1-2.19-.48c-.04 0-.05 0-.03.03l.47.72.37-.25.27.7-.85.56c-.05.02-.09.01-.12-.04l-.69-1.1c-.03-.06-.03-.1 0-.13l.27-.55-.78-.23ZM34.2 45l-.42-1.39-.03-.07.05-.05.7-.43.49 1.37-.78.57Z" fill="#B79300"/><path d="M33.55 42.17a20.88 20.88 0 0 0 1.85-.69c.23-.1.4-.03.51.2l.92 2.02-.78.65-.77-1.9c-.02-.05-.06-.06-.13-.04-.52.21-1.05.4-1.6.56v-.8ZM31 45.77l-.26-1.43-.01-.08a25.45 25.45 0 0 0 .8-.38l.3 1.43c-.27.16-.55.31-.84.46Z" fill="#B79300"/><path d="M30.7 42.88a24.28 24.28 0 0 0 1.94-.44c.25-.07.4.02.48.27l.62 2.12c-.28.19-.56.36-.85.54l-.5-1.99c-.01-.05-.06-.07-.13-.05-.54.13-1.1.25-1.65.34l.1-.8ZM40.7 38.17l.31.74c.34-.28.67-.57 1-.87l.05-.05c.04-.04.08-.04.12 0l.53.56.35.36c-.38.36-.77.7-1.17 1.03l.23.74c.74-.6 1.45-1.25 2.13-1.92l-.27-.74-.36.36c-.3.3 0-.2-.23-.42l-1.01-1.01c-.12-.12-.25-.1-.34-.01-.43.43-.88.84-1.34 1.23ZM44.47 38.53l-.28-.7c.37-.39.72-.78 1.06-1.18-.27.05-.67.06-1.14.08-.13 0-.38-.01-.73-.06l-.35.36-.3-.8.46-.5c.03-.03.08-.04.15 0 .28.12.57.18.86.2.15 0 .37-.02.66-.05.06 0 .06-.03 0-.07l-.42-.35-.2.23-.38-.73.4-.5c.1-.12.2-.13.32-.04l.74.62-.2.82c.28-.04.62-.08.96-.17l.25.73c-.58.73-1.2 1.44-1.86 2.11ZM26.18 46.15l.1-.74a24.52 24.52 0 0 0 .83-.02l-.06-1.33-.43.01.11-.77.94-.05c.12 0 .2.04.22.2l.16 2.2-.41.45a31.26 31.26 0 0 1-1.46.05ZM17.23 42.4l.43-.65.73.3c.18.07.24.19.18.36l-.01.03-.37 1.01c-.31 0-.62-.02-.93-.05l.35-.84-.38-.16ZM14.23 39.81l-.73.43.32.22c-.35.62-.69 1.25-1.02 1.88.52.33 1.04.65 1.58.94.52.29.93.39 1.2.34.2-.03.42-.18.64-.46a46.22 46.22 0 0 0 1.1-1.41c.04-.09 0-.15-.1-.2l-.79-.4-.57.56.33.18-.74.82c-.06.07-.13.1-.2.1a.96.96 0 0 1-.41-.14 24.2 24.2 0 0 1-.93-.51l.19-.34c.2.12.42.23.63.34.1.06.2.06.27.01.42-.37.82-.75 1.22-1.13-.28-.15-.55-.31-.83-.48l-.7.47a23.07 23.07 0 0 0 .33.2l-.4.34c-.12.1-.22.08-.37-.01l.61-1.13c.06-.1.03-.18-.07-.24a24.5 24.5 0 0 1-.56-.38ZM12.17 38.24a31.87 31.87 0 0 0 1.2.96c.22.15.24.33.09.55l-1.3 1.78c-.32-.1-.63-.22-.94-.33l1.26-1.62c.03-.04.02-.08-.03-.13-.33-.25-.65-.51-.96-.77l.68-.44ZM23.08 46.09l.15-1.45v-.08l.07-.03c.27-.03.55-.07.82-.12l-.1 1.46-.94.22Z" fill="#B79300"/><path d="M23.58 43.22a23.7 23.7 0 0 0 2 .1c.25 0 .38.13.39.4l.01 2.2-.96.29.05-2.05c0-.06-.03-.09-.1-.09-.57-.02-1.13-.05-1.7-.11l.31-.74ZM9.03 34.33l-.78-.27-.75.69c-.03.01-.03.03 0 .06.32.36.66.71 1 1.06l-.96.93-.56-.59-.73.3c.36.4.73.77 1.1 1.15l.73-.1 1.44-1.46c.1-.1.08-.2 0-.3a52.7 52.7 0 0 1-.99-1l.5-.47ZM9.6 36.45l.74-.01c-.04.68-.06 1.36-.06 2.05 0 .04.01.04.04.02l.42-.48-.27-.25.73-.37a38.16 38.16 0 0 0 .5.43c.1.1.1.2 0 .3-.21.26-.43.5-.66.75-.04.05-.1.07-.14.05l-.61-.2v1.2c-.25-.03-.5-.08-.76-.13-.01-.75 0-1.49.03-2.23 0-.04-.01-.04-.03-.02l-.6.62.32.3-.62.42-.72-.69c-.04-.03-.03-.07.01-.12l.92-.93c.04-.04.08-.05.12-.03l.6.13c0-.27.02-.54.04-.8Z" fill="#B79300"/></g><defs><radialGradient id="b" cx="0" cy="0" r="1" gradientUnits="userSpaceOnUse" gradientTransform="rotate(84.72 6.24 23.89) scale(1.51552 1.63211)"><stop stop-color="#FC0"/><stop offset="1" stop-color="#B79300"/></radialGradient><radialGradient id="c" cx="0" cy="0" r="1" gradientUnits="userSpaceOnUse" gradientTransform="rotate(95.79 5.57 24.71) scale(1.04082 1.20269)"><stop stop-color="#FC0"/><stop offset="1" stop-color="#B79300"/></radialGradient><radialGradient id="d" cx="0" cy="0" r="1" gradientUnits="userSpaceOnUse" gradientTransform="rotate(84.72 6.24 23.89) scale(1.51552 1.63211)"><stop stop-color="#FC0"/><stop offset="1" stop-color="#B79300"/></radialGradient><radialGradient id="e" cx="0" cy="0" r="1" gradientUnits="userSpaceOnUse" gradientTransform="rotate(95.79 5.57 24.71) scale(1.04082 1.20269)"><stop stop-color="#FC0"/><stop offset="1" stop-color="#B79300"/></radialGradient><clipPath id="a"><path fill="#fff" d="M0 0h52.8v48H0z"/></clipPath></defs></svg>