<svg width="94" height="30" fill="none" xmlns="http://www.w3.org/2000/svg"><g clip-path="url(#a)"><path d="M11.58 0h.83c2.9.07 5.76 1.2 7.8 3.23-.75.75-1.52 1.48-2.26 2.23a8.73 8.73 0 0 0-10.58-.88 8.45 8.45 0 0 0-1.83 12.54 8.51 8.51 0 0 0 6.15 2.96 8.3 8.3 0 0 0 6.12-2.05 6.47 6.47 0 0 0 2.03-4.26c-2.62 0-5.24.02-7.85 0V10.6H23c.57 3.4-.25 7.25-2.9 9.68a10.9 10.9 0 0 1-6.7 2.95c-2.42.23-4.91-.22-7.05-1.36A11.96 11.96 0 0 1 .72 15.6a11.13 11.13 0 0 1-.07-7.7C1.45 5.66 3 3.67 4.98 2.28A12.56 12.56 0 0 1 11.58 0Z" fill="#3780FF"/><path d="M74.82.8h3.38v22.03c-1.12 0-2.26.01-3.38-.02.02-7.32 0-14.67 0-22Z" fill="#38B137"/><path d="M30.52 8.44a8.07 8.07 0 0 1 6.06 1.26 7.48 7.48 0 0 1 1.45 10.81 7.79 7.79 0 0 1-6.49 2.76 7.73 7.73 0 0 1-5.74-3 7.57 7.57 0 0 1-1.04-7 7.44 7.44 0 0 1 5.76-4.83Zm.47 2.93c-.85.21-1.64.7-2.2 1.37a4.81 4.81 0 0 0 .25 6.37 4.26 4.26 0 0 0 6.68-.97 4.8 4.8 0 0 0-.85-5.8 4.32 4.32 0 0 0-3.88-.97Z" fill="#FA3913"/><path d="M47.24 8.44c2.38-.45 4.98.2 6.76 1.83a7.53 7.53 0 0 1 .74 10.24 7.77 7.77 0 0 1-6.32 2.76 7.67 7.67 0 0 1-5.9-3 7.45 7.45 0 0 1 4.72-11.83Zm.47 2.93c-.85.21-1.64.7-2.2 1.35a4.82 4.82 0 0 0 .16 6.31 4.28 4.28 0 0 0 6.79-.9 4.82 4.82 0 0 0-.89-5.8 4.3 4.3 0 0 0-3.86-.96Z" fill="#FCBD06"/><path d="M61.42 9.33a6.57 6.57 0 0 1 6.18-.46c.61.26 1.12.7 1.6 1.16.02-.42 0-.85.02-1.28l3.19.01v13.6c-.02 2.05-.55 4.23-2.07 5.72-1.65 1.66-4.2 2.16-6.48 1.82a7.3 7.3 0 0 1-5.52-4.3c.95-.45 1.94-.8 2.92-1.22a4.31 4.31 0 0 0 3.07 2.6c1.4.24 3.03-.1 3.95-1.24.98-1.17.98-2.77.93-4.2a5.62 5.62 0 0 1-2.57 1.53c-2.2.6-4.6-.14-6.3-1.59a7.48 7.48 0 0 1 1.08-12.15Zm3.26 1.98c-.96.15-1.86.67-2.47 1.4a4.84 4.84 0 0 0 .01 6.18 4.01 4.01 0 0 0 6.56-.54 5.11 5.11 0 0 0-.53-5.83 3.93 3.93 0 0 0-3.57-1.21Z" fill="#3780FF"/><path d="M82.25 10.12a7.24 7.24 0 0 1 7.24-1.4c2.3.84 3.77 2.99 4.5 5.2l-10.24 4.14c.47.88 1.2 1.68 2.17 2a4.5 4.5 0 0 0 5.33-1.8l2.6 1.7a7.63 7.63 0 0 1-5.51 3.27 7.68 7.68 0 0 1-6.67-2.52 7.78 7.78 0 0 1 .58-10.6Zm1.69 2.85a4.33 4.33 0 0 0-.74 2.6l6.86-2.8c-.38-.86-1.3-1.39-2.23-1.53a4.07 4.07 0 0 0-3.9 1.73Z" fill="#FA3913"/></g><defs><clipPath id="a"><path fill="#fff" d="M0 0h94v30H0z"/></clipPath></defs></svg>