<svg width="116" height="24" fill="none" xmlns="http://www.w3.org/2000/svg"><g clip-path="url(#a)"><path d="M116 10.86V8.88h-2.53V5.81l-.09.03-2.38.7-.04.01v2.33h-3.76v-1.3c0-.6.14-1.06.41-1.37.28-.3.67-.46 1.17-.46.35 0 .72.08 1.1.24l.09.04V3.95l-.05-.01a4.42 4.42 0 0 0-1.4-.18c-.74 0-1.41.15-2 .46-.58.31-1.05.75-1.37 1.31a3.8 3.8 0 0 0-.48 1.93v1.42h-1.77v1.98h1.77v8.32h2.53v-8.32h3.76v5.29c0 2.18 1.06 3.28 3.15 3.28a5.33 5.33 0 0 0 1.86-.36l.03-.01v-2l-.1.07c-.14.09-.31.16-.51.21-.2.06-.37.08-.5.08-.5 0-.86-.12-1.08-.38-.23-.25-.34-.7-.34-1.32v-4.86H116Zm-18.75 6.56c-.92 0-1.65-.29-2.16-.87a3.64 3.64 0 0 1-.77-2.48c0-1.09.26-1.95.77-2.54.52-.6 1.23-.9 2.14-.9.88 0 1.58.3 2.08.86.5.57.75 1.42.75 2.52 0 1.12-.24 1.98-.71 2.55-.47.58-1.18.86-2.1.86Zm.11-8.79c-1.75 0-3.15.5-4.14 1.48-1 .98-1.5 2.34-1.5 4.04 0 1.61.5 2.91 1.47 3.86a5.4 5.4 0 0 0 3.91 1.42c1.7 0 3.07-.5 4.06-1.5 1-1 1.5-2.34 1.5-4a5.3 5.3 0 0 0-1.4-3.88 5.26 5.26 0 0 0-3.9-1.42Zm-9.72 0c-1.19 0-2.18.3-2.93.88a2.77 2.77 0 0 0-1.14 2.29c0 .48.08.91.24 1.27.17.37.42.7.76.96.34.27.85.55 1.54.84.58.23 1 .42 1.28.57.27.15.46.3.56.45.1.15.16.34.16.59 0 .69-.54 1.02-1.64 1.02a5.27 5.27 0 0 1-2.8-.94l-.1-.07v2.36l.04.02a7.42 7.42 0 0 0 2.78.56c1.29 0 2.33-.3 3.09-.88a2.82 2.82 0 0 0 1.15-2.34c0-.7-.2-1.3-.62-1.77a5.34 5.34 0 0 0-2.1-1.3 5.5 5.5 0 0 1-1.5-.76c-.2-.19-.31-.45-.31-.8 0-.3.13-.53.38-.73.26-.2.63-.29 1.08-.29a4.54 4.54 0 0 1 2.4.7l.1.06V9.08l-.03-.01a7.16 7.16 0 0 0-2.39-.43Zm-10.67 8.8c-.92 0-1.65-.3-2.16-.88a3.64 3.64 0 0 1-.77-2.48c0-1.09.26-1.95.77-2.54.51-.6 1.23-.9 2.14-.9.87 0 1.57.3 2.07.86.5.57.76 1.42.76 2.52 0 1.12-.24 1.98-.71 2.55-.47.58-1.18.86-2.1.86Zm.1-8.8c-1.75 0-3.14.5-4.13 1.48-1 .98-1.5 2.34-1.5 4.04 0 1.61.5 2.91 1.46 3.86a5.4 5.4 0 0 0 3.92 1.42c1.7 0 3.07-.5 4.06-1.5 1-1 1.5-2.34 1.5-4a5.3 5.3 0 0 0-1.4-3.88 5.26 5.26 0 0 0-3.9-1.42Zm-9.47 2.04V8.88h-2.5v10.3h2.5v-5.27c0-.9.2-1.63.62-2.19.41-.54.96-.82 1.62-.82a3.03 3.03 0 0 1 1.34.33l.1.08V8.86l-.04-.01c-.23-.1-.56-.15-.98-.15-.63 0-1.19.2-1.67.58-.43.34-.73.8-.96 1.39h-.03Zm-6.98-2.04c-1.15 0-2.17.24-3.04.71a4.85 4.85 0 0 0-2.01 2 6.2 6.2 0 0 0-.02 5.61c.45.8 1.07 1.4 1.87 1.84.8.42 1.72.64 2.74.64 1.19 0 2.2-.23 3.01-.68l.04-.02V16.5l-.1.07a4.76 4.76 0 0 1-2.43.84c-.98 0-1.77-.3-2.34-.88a3.37 3.37 0 0 1-.87-2.45c0-1.04.3-1.89.9-2.51.6-.63 1.39-.94 2.35-.94.82 0 1.62.27 2.38.8l.1.08V9.18l-.03-.02a4.22 4.22 0 0 0-1.15-.38c-.48-.1-.96-.15-1.4-.15Zm-7.46.25h-2.5v10.3h2.5V8.88ZM51.93 4.5c-.4 0-.77.14-1.06.4-.3.28-.45.62-.45 1.02s.15.73.44.99c.3.26.65.4 1.07.4.42 0 .78-.14 1.08-.4.3-.26.45-.6.45-1 0-.38-.15-.71-.44-1a1.52 1.52 0 0 0-1.09-.4ZM45.7 8.12v11.06h2.55V4.81h-3.53l-4.49 10.67-4.36-10.67h-3.68v14.37h2.4V8.12h.09l4.6 11.06h1.8l4.54-11.06h.08Z" fill="#565555"/><path d="M11.77 11.4H0V0h11.77v11.4Z" fill="#F1511B"/><path d="M24.76 11.4H13V0h11.77v11.4Z" fill="#80CC28"/><path d="M11.77 24H0V12.6h11.77V24Z" fill="#00ADEF"/><path d="M24.76 24H13V12.6h11.77V24Z" fill="#FBBC09"/></g><defs><clipPath id="a"><path fill="#fff" d="M0 0h116v24H0z"/></clipPath></defs></svg>