<svg width="105" height="22" fill="none" xmlns="http://www.w3.org/2000/svg"><g clip-path="url(#a)"><path fill="#fff" d="M0 0h105v22H0z"/><path d="M11.56.1C5.2.1.06 4.97.06 11s5.14 10.9 11.5 10.9S23.07 17.03 23.07 11 17.92.1 11.57.1Zm0 19.2c-4.85 0-8.77-3.7-8.77-8.3 0-4.6 3.92-8.3 8.77-8.3s8.77 3.7 8.77 8.3c0 4.6-3.92 8.3-8.77 8.3Z" fill="#2456A6"/><path d="M16.56 8.18c-.07-.13-.22-.2-.35-.2H6.93a.41.41 0 0 0-.4.3.4.4 0 0 0 .18.44l4.45 2.57v4.7c0 .17.13.33.3.38.03.02.07.02.1.02.15 0 .29-.08.35-.2l4.63-7.6c.1-.14.1-.28.02-.41ZM37.57 14.06c0 1.07-.4 1.98-1.22 2.73a4.23 4.23 0 0 1-2.95 1.13h-.57a4.28 4.28 0 0 1-2.98-1.13 3.56 3.56 0 0 1-1.23-2.73v-6.6c0-1.07.4-1.96 1.23-2.7a4.27 4.27 0 0 1 2.98-1.13h.57c1.16 0 2.12.37 2.95 1.12a3.53 3.53 0 0 1 1.22 2.71v6.6Zm-3.13-6.18c0-.9-.62-1.57-1.3-1.57-.66 0-1.34.69-1.34 1.57v5.83c0 .9.66 1.53 1.35 1.53.72 0 1.3-.64 1.3-1.53V7.88ZM48.85 8.42c0 1.07-.4 1.96-1.21 2.7a4.12 4.12 0 0 1-2.93 1.12h-1.3c-.17 0-.23.07-.23.23v4.59c0 .36-.36.68-.78.68h-1.58a.7.7 0 0 1-.72-.68V4.5c0-.44.23-.66.72-.66h3.87c1.16 0 2.16.38 2.93 1.13.8.75 1.21 1.66 1.21 2.71v.74h.02Zm-3.1-.93c0-.6-.57-1.1-1.24-1.1H43.5c-.19 0-.27.07-.27.2v2.94c0 .15.08.21.27.21h1c.68 0 1.25-.51 1.25-1.12V7.5ZM59 17.01c0 .37-.37.72-.8.72H52c-.42 0-.8-.35-.8-.72V4.53c0-.4.34-.72.8-.72h6.02c.42 0 .8.32.8.72V5.7c0 .36-.38.71-.8.71h-3.47c-.18 0-.27.07-.27.23v2.3c0 .14.09.2.27.2h2.63c.42 0 .79.32.79.72v1.15c0 .36-.37.71-.8.71h-2.62c-.18 0-.27.08-.27.24v2.84c0 .16.09.24.27.24h3.66c.42 0 .79.35.79.72V17ZM70.64 17.04c0 .37-.34.69-.76.69h-1.43c-.33 0-.59-.2-.77-.56l-3.28-6.73v6.6c0 .37-.36.69-.78.69h-1.5a.7.7 0 0 1-.72-.69V4.51c0-.4.29-.7.72-.7h1.5c.39 0 .66.2.86.6l3.18 6.5V4.52c0-.4.37-.72.8-.72h1.42c.42 0 .76.32.76.72v12.51ZM82.08 17.01c0 .37-.33.72-.77.72h-.27c-.35 0-.64-.27-.86-.83 0 .01 0 .03-.02.05-.53.63-1.3.97-2.28.97h-.34a4.3 4.3 0 0 1-3.15-1.18 3.89 3.89 0 0 1-1.2-2.87V7.64c0-1.1.43-2.04 1.27-2.83a4.42 4.42 0 0 1 3.08-1.18h.17c1.2 0 2.22.4 3.04 1.18a3.71 3.71 0 0 1 1.26 2.83v.55c0 .4-.35.72-.77.72h-1.41c-.42 0-.8-.38-.8-.72V8c0-.92-.65-1.66-1.37-1.66-.74 0-1.38.74-1.38 1.66v5.6c0 .99.52 1.6 1.38 1.6.9 0 1.38-.53 1.38-1.6v-.56c0-.16-.09-.22-.26-.22h-.75c-.39 0-.8-.34-.8-.74v-.9c0-.37.36-.72.8-.72h3.28c.44 0 .77.38.77.72V17ZM93.56 14.06c0 1.07-.4 1.98-1.23 2.73a4.23 4.23 0 0 1-2.95 1.13h-.57a4.28 4.28 0 0 1-2.98-1.13 3.56 3.56 0 0 1-1.23-2.73v-6.6c0-1.07.4-1.96 1.23-2.7a4.27 4.27 0 0 1 2.98-1.13h.57c1.16 0 2.12.37 2.95 1.12a3.53 3.53 0 0 1 1.23 2.71v6.6ZM90.4 7.88c0-.9-.62-1.57-1.3-1.57-.67 0-1.34.69-1.34 1.57v5.83c0 .9.65 1.53 1.34 1.53.73 0 1.3-.64 1.3-1.53V7.88ZM102.16 17.09c-.09.43-.36.64-.78.64H99.2c-.38 0-.64-.2-.74-.64L95.61 4.64c-.02-.05-.02-.13-.02-.18 0-.43.22-.63.64-.63h1.53c.42 0 .66.19.76.55l1.8 8.33 1.77-8.33c.08-.36.35-.55.77-.55h1.52c.42 0 .62.19.62.57l-.03.24-2.81 12.45Z" fill="#2456A6"/></g><defs><clipPath id="a"><path fill="#fff" d="M0 0h105v22H0z"/></clipPath></defs></svg>