<svg width="88" height="40" fill="none" xmlns="http://www.w3.org/2000/svg"><path d="M23.32 18.8c-3.13 0-3.38-2.44-3.38-3.16 0-.85.2-2.43 2.23-3.2 2.03-.75 2.47-.84 3.92-1.3v-.36c0-.72 0-.85-.16-1.32-.25-.82-1.04-1.37-2.14-1.37-1.04 0-1.93.6-2.34 1.48l-.59-.36c.36-1.31 1.69-2.63 3.97-2.63 1.58 0 2.68.47 3.33 1.48.48.82.54 1.93.54 3.04 0 1.02-.06 2.14-.06 3.05 0 .6-.06 1.18-.06 1.5 0 .83.16 1.48.8 1.48.3 0 .36-.1.6-.25l.34.46c-.58.82-1.28 1.48-2.44 1.48-.9 0-1.54-.46-1.8-1.2-.37.51-1.32 1.17-2.76 1.17Zm2.77-6.2c-1.54.46-2.1.71-2.53.95-.7.36-1 1.02-1 1.87 0 .65.25 1.71 1.75 1.71.48 0 1.18-.1 1.83-.55v-4h-.05v.02ZM.22 18.16c0-1.17 0-2.17-.1-3.38h.7c0 .76.19 1.31.54 1.67.48.55 1.64.9 2.68.9 2.18 0 3.22-.84 3.22-2.68 0-1.57-.93-2.22-2.22-3.15l-.2-.16-1.38-.96C1.52 9.1.53 8.07.53 6c0-1.01.4-4.36 5.2-4.36 1.25 0 2.84.17 3.79.3 0 .16-.06.91-.06 1.57 0 .76 0 .95.06 1.86h-.59c0-.82-.25-1.31-.58-1.67C7.89 3.24 6.87 3 5.77 3c-2.58 0-2.87 1.3-2.87 2.32 0 1.38.7 1.87 2.22 2.88l1.75 1.18c1.48 1.02 2.87 1.97 2.87 4.51 0 4.25-3.93 4.7-5.57 4.7a8.3 8.3 0 0 1-3.95-.42ZM31.4 7.34c.58.06 1.48 0 2.34-.16.75-.16 1-.25 1.54-.5l.25.17v.91a5.47 5.47 0 0 1 3.38-1.12c2.1 0 3.44 1.02 3.82 2.8.1.46.16 1.5.16 2.13v3.45c0 1.92.1 2.49.46 2.83.19.17.58.36 1.15.36v.55c-.74-.06-2.1-.1-2.87-.1-1.04 0-2.22.06-2.87.1v-.55c.59-.06.94-.25 1.16-.4.35-.36.4-1.02.45-2.5 0-.46.06-1.37.06-2.03 0-.85 0-1.77-.1-2.68-.16-1.51-.94-2.23-2.45-2.23-1.04 0-1.68.26-2.18.5v6.18c0 1.92.1 2.49.46 2.83.19.17.64.36 1.1.36v.55c-.94-.06-2.1-.1-2.83-.1-1.54 0-2.04.06-2.93.1v-.58c.48 0 1-.2 1.24-.5.36-.4.4-1.41.4-3.38v-3.5c0-1.49-.06-2.08-.25-2.4-.16-.25-.54-.46-1.35-.46v-.66h-.1v.03h-.04Zm14.36 10.8c.48 0 1-.17 1.25-.5.35-.4.4-1.42.4-3.39v-5.9h-1.49V7.7a5.14 5.14 0 0 0 1.48-.82c0-1.06.06-2.39.2-3.15C48.05 1.3 49.58.1 52.2.1c1.16 0 2.23.4 2.93.96l.06.25-1.16 1.61h-.29c-.4-.95-1-1.5-2.03-1.5-.36 0-.84.1-1.16.4-.48.49-.59 1.26-.59 2.79v2.27h2.58v1.47h-2.58v6.54c0 1.57.06 2.33.25 2.63.3.49 1.35.55 1.83.55v.6c-.83-.06-2.18-.1-3.13-.1-1.45 0-2.39.05-3.13.1l-.02-.53Zm13.31.74c-3.51 0-5.6-2.22-5.6-5.97 0-2.92 1.53-6.33 5.85-6.33 3.51 0 5.6 2.23 5.6 5.97 0 2.93-1.54 6.33-5.85 6.33Zm.15-10.94c-.7 0-1.25.2-1.64.55-.94.82-1.4 2.23-1.4 4.3 0 .82.17 4.76 3 4.76.7 0 1.24-.2 1.63-.55.94-.82 1.4-2.22 1.4-4.3-.02-.8-.15-4.76-3-4.76Zm6.9-.66c.8.06 1.63-.06 2.53-.19.7-.1 1.15-.25 1.39-.4l.19.1v1.02a3.73 3.73 0 0 1 2.68-1.12c.9 0 1.48.25 2.03.71v.36l-1 1.84h-.48c-.29-.55-.89-1.06-1.93-1.06-.48 0-.9.1-1.24.36v6.03c0 1.56.06 2.26.25 2.58.29.49 1.28.55 1.83.49v.66c-.8-.06-2.19-.1-3.14-.1-1.1 0-2.22 0-3.13.1v-.6c.64-.06 1-.2 1.24-.5.36-.4.4-1.37.4-3.38V10.9c0-1.48 0-2.08-.25-2.4-.19-.25-.59-.4-1.35-.4v-.76l-.03-.06ZM82.37.81c.7 0 1.58-.17 2.73-.36.65-.1 1.04-.26 1.25-.3l.19.1c-.1.96-.1 3.15-.1 4.7v9.62c0 1.42 0 2.33.19 2.62.19.26.58.47 1.34.47v.6a15.43 15.43 0 0 0-3.76.55l-.3-.1v-1.02a5.18 5.18 0 0 1-3.21 1.12c-3.18 0-5.21-2.23-5.21-5.72 0-1.18.19-2.22.58-3.2a5.78 5.78 0 0 1 5.5-3.34c.94 0 1.75.1 2.23.2v-2.5c0-1.47 0-2.22-.25-2.58-.16-.25-.4-.36-1.24-.4V.79h.06v.02Zm-.41 16.34c.8 0 1.34-.1 1.89-.46V8.8c-.2-.2-.9-.82-2.29-.82-2.22 0-3.32 1.56-3.32 4.82-.05 1.35.35 4.34 3.72 4.34Zm-63.17.36c-.35.46-1.24 1.37-3.13 1.37-1.8 0-2.79-.66-3.22-2.13-.2-.56-.2-1.72-.2-2.4 0-1.86 0-3.38.06-5.16v-.82h-1.55v-.46c.59-.25 1.04-.5 1.45-.82a8.16 8.16 0 0 0 2.14-2.84h.48v2.63h3.93v1.48h-3.93v6.18c0 1.86.35 2.88 2.04 2.88.8 0 1.34-.26 1.64-.46l.29.55ZM73.84 28.55c-.19 0-.45.06-.59.2-.16.1-.16.25-.16.35 0 .2.06.36.2.77l1.1 2.92c.15.46.28.82.34 1.06l1.35-4c.16-.46.2-.55.2-.76 0-.1-.07-.2-.17-.3-.16-.1-.35-.2-.59-.2v-.46c.17 0 .49 0 .65.06.16 0 .45.06.7.06.48 0 1.19-.06 1.48-.06v.47c-.2.06-.64-.06-1.04 1.12l-2.83 7.68c-.4 1.12-.93 2.5-2.87 2.5-.8 0-1.34-.2-1.8-.6v-.2l.7-.85h.2c.19.47.58.66 1.15.66.9 0 1.3-.82 1.9-2.43l.15-.46-2.37-6.32c0-.06-.06-.16-.1-.25a9.41 9.41 0 0 0-.2-.46c-.15-.3-.39-.4-.7-.4v-.47c.46.06 1.25.06 1.65.06.24 0 .64 0 1.04-.06.19 0 .54-.06.7-.06v.4h-.06v.03h-.03Zm-26.3-.1c.49.06 1.04-.06 1.58-.17.46-.1.7-.16.9-.25l.16.06v.66c.35-.36.9-.72 1.68-.72.59 0 .94.16 1.3.46v.26l-.6 1.18h-.29c-.19-.36-.54-.66-1.24-.66-.3 0-.54.1-.8.25v3.8c0 1.02.05 1.49.15 1.68.2.3.8.36 1.16.36v.4c-.48-.06-1.4-.06-2-.06-.7 0-1.44 0-1.98.1v-.4c.4 0 .64-.16.8-.3.25-.25.25-.85.25-2.17v-2.14c0-.9 0-1.31-.16-1.5-.1-.17-.4-.26-.83-.26v-.55h-.08v-.03Zm-33.06 7.34c-2.1 0-3.32-.66-3.78-2.07-.25-.72-.25-1.62-.25-2.33v-4.05c0-1.2-.05-1.41-.29-1.6-.1-.11-.35-.2-.7-.26v-.4c.48.05 1.35.1 1.83.1.83 0 1.35 0 1.89-.1v.46c-.35 0-.59.1-.8.3-.26.25-.26.71-.26 2.03v3.58c0 2.13.2 3.5 2.54 3.5 2.38 0 2.53-1.41 2.53-3.58v-3.94c0-1.2-.06-1.41-.3-1.6-.15-.11-.39-.2-.7-.26v-.4c.46 0 1.04.05 1.64.05.55 0 1.1 0 1.75-.1v.46c-.36 0-.59.1-.8.3-.26.25-.26.72-.26 2.03v3.05c0 .95 0 2.03-.3 2.88-.46 1.3-1.66 1.95-3.74 1.95Zm14.16-.46c.4-.06.64-.1.83-.3.25-.25.25-.85.25-2.18v-2.13c0-.91 0-1.38-.16-1.57-.1-.16-.3-.25-.83-.3v-.46a6.96 6.96 0 0 0 2.49-.42l.16.16c-.06.5-.06 1.57-.06 2.99v2.18c0 1.01.06 1.48.16 1.67.16.2.45.36.9.36v.36c-.4-.06-1.16-.06-1.8-.06-.75 0-1.55.06-1.94.1v-.4Zm1.83-8.66c-.59 0-.94-.36-.94-.9 0-.56.4-.96 1-.96.58 0 .94.35.94.9-.02.6-.41.96-1 .96Zm29.56 8.66c.4-.06.65-.1.84-.3.25-.25.25-.85.25-2.18v-2.13c0-.91 0-1.38-.17-1.57-.1-.16-.29-.25-.83-.3v-.46a6.96 6.96 0 0 0 2.49-.42l.16.16c-.06.5-.06 1.57-.06 2.99v2.18c0 1.01.06 1.48.16 1.67.16.2.46.36.9.36v.36c-.46-.06-1.19-.06-1.83-.06-.75 0-1.54.06-1.94.1v-.4h.03Zm1.83-8.66c-.58 0-.93-.36-.93-.9 0-.56.4-.96 1-.96.58 0 .93.35.93.9 0 .6-.41.96-1 .96Zm-7.85 8.76c0-.76-.05-1.56-.1-1.97h.49c0 .4.1.76.29.96.3.36.64.5 1.29.5h.1c.8 0 1.24-.37 1.24-1.07 0-.55-.35-.82-.93-1.18l-1.04-.65c-.54-.36-1.19-.86-1.19-1.93 0-.85.35-1.5 1.04-1.87.45-.25 1.16-.25 1.48-.25.59 0 1.45.1 1.93.2-.06.19-.06.71-.06.9 0 .17 0 .86.06 1.02h-.48c0-.3-.1-.6-.3-.85-.18-.25-.64-.4-1.18-.4-.75 0-1.16.3-1.16.95 0 .5.4.76.75 1.02h.06l1 .6c.64.4 1.47.9 1.47 2.07 0 1.97-1.8 2.27-2.82 2.27a5.91 5.91 0 0 1-1.94-.32Zm15.6-.49c-.25.25-.8.85-2 .85-1.15 0-1.8-.4-2.03-1.37-.1-.36-.1-1.12-.1-1.5v-3.79h-1v-.3c.4-.16.65-.3.94-.49a6.2 6.2 0 0 0 1.4-1.83h.34v1.67h2.48v.91h-2.48v3.94c0 1.18.2 1.87 1.3 1.87.47 0 .83-.17 1.03-.3l.12.34ZM36 28.15c-.15 0-.47 0-.7.06-.39 0-.8.06-1.1.06-.53 0-1.34-.06-1.57-.06v.46c.1 0 .48-.06.74.46.1.2.16.36.2.47.05.1.1.2.1.25l2.38 6.08.75-.17 2.64-5.97c0-.06.05-.1.1-.2.06-.05.06-.16.25-.46a.9.9 0 0 1 .74-.46v-.46c-.29 0-.93.06-1.45.06-.25 0-.48 0-.74-.06-.2 0-.49-.06-.7-.06v.4c.24 0 .48.1.58.2.06.06.16.2.16.3 0 .16-.06.3-.19.76l-1.45 3.58-.3-.91-.99-2.69c-.16-.4-.19-.55-.19-.76 0-.1 0-.2.1-.25a.9.9 0 0 1 .65-.26v-.4.03Zm-16.21.3c.4.06.93 0 1.47-.1.46-.11.65-.17 1-.3l.16.1v.6a3.5 3.5 0 0 1 2.14-.72c1.35 0 2.18.66 2.44 1.78.06.3.1.95.1 1.37v2.18c0 1.2.07 1.57.3 1.83.1.1.4.2.7.2v.36c-.48 0-1.34-.06-1.83-.06-.7 0-1.45.06-1.83.1v-.36c.35-.06.59-.16.75-.25.19-.2.25-.66.3-1.57V32.3c0-.55 0-1.18-.07-1.72-.1-.95-.58-1.42-1.53-1.42-.65 0-1.1.17-1.4.3v3.97c0 1.21.06 1.57.3 1.84.1.1.4.2.7.2v.35c-.64-.16-1.4-.16-1.89-.16-1 0-1.29 0-1.83.1v-.36c.3 0 .65-.1.8-.3.2-.25.26-.9.26-2.17v-2.14c0-.9 0-1.31-.17-1.5-.1-.17-.35-.3-.83-.26v-.57h-.04v-.01Zm24.13 7.34c-2.23 0-3.45-1.31-3.45-3.7 0-.4.1-4.1 3.48-4.1 1 0 1.88.4 2.28 1.11.45.72.48 1.42.48 2.03v.47h-4.61c0 .4.06.71.1.95.25 1.48 1.04 2.18 2.45 2.18.8 0 1.29-.16 1.74-.46l.2.36c-.48.67-1.47 1.16-2.67 1.16Zm-1.8-5.06h2.88c0-.9-.16-1.92-1.45-1.92-1.13.06-1.36 1.15-1.42 1.92Z" fill="#8C1515"/></svg>