<svg width="95" height="50" fill="none" xmlns="http://www.w3.org/2000/svg"><path d="M40.59 12.32 34.37 6.2c.55-.61 1.1-1.22 1.72-1.76l6.23 6.1-1.73 1.77Zm-4.01-8.28c.76-.68 1.59-1.22 2.49-1.77l5.87 5.77-2.14 2.1-6.22-6.1Zm8.78 3.6L39.62 2c.76-.4 1.59-.74 2.42-1.02l5.04 4.96-1.72 1.7Zm4.77.4L56 2.27c.9.55 1.73 1.09 2.49 1.77l-6.22 6.1-2.14-2.1Zm4.35 12.83 6.22 6.1c-.34.41-.97 1.02-1.31 1.43-.21.2-.28.34-.35.34l-6.22-6.1 1.66-1.77Zm-2.14 2.1 6.22 6.11c-.76.68-1.6 1.22-2.49 1.76l-5.87-5.76 2.14-2.1Zm-2.63 2.58 5.74 5.63c-.76.41-2.21.95-2.42 1.02l-5.05-4.95 1.73-1.7Zm-2.14 2.1 4.84 4.75c-3.18.96-6.57.96-9.68 0l4.84-4.75Zm-2.63-2.57-5.87 5.76c-.9-.54-1.73-1.08-2.5-1.76l6.23-6.1 2.14 2.1Zm5.6-12.36 1.73-1.7 1.73 1.7-1.73 1.7-1.73-1.7Zm-6.01 7.67-1.73 1.7-1.73-1.7 1.73-1.7 1.73 1.7Zm-3.73-4c-.14.14-.14.27 0 .4l1.52 1.5-1.73 1.7-3.46-3.46 3.46-3.4 1.73 1.7-1.52 1.56Zm.2-3.67 1.8-1.76 1.73 1.7-1.73 1.7-1.8-1.64Zm2.21-2.1 2.15-2.1 1.72 1.7-2.14 2.1-1.73-1.7Zm6.92 1.7-2.15-2.1 1.73-1.7 2.14 2.1-1.72 1.7Zm1.72 10.24-2.14 2.1-1.73-1.69 2.15-2.1 1.72 1.7Zm-6.9-1.7 2.13 2.11-1.72 1.77-2.15-2.1 1.73-1.77Zm-.22-4.06c.14-.14.14-.27 0-.41l-1.52-1.5 1.73-1.69 2.14 2.1-1.1 1.09c-.14.14-.14.27 0 .4l1.1 1.1-2.14 2.1-1.73-1.7 1.52-1.5Zm1.94-.2.9-.89.9.88-.9.88-.9-.88Zm.9 1.69 2.14 2.1-2.14 2.1-2.14-2.1 2.14-2.1Zm2.76-1.9c-.13.14-.13.27 0 .4l1.52 1.5-1.72 1.7-2.15-2.1 1.1-1.1c.15-.13.15-.26 0-.4l-1.1-1.09 2.15-2.1 1.8 1.7-1.6 1.49Zm-4.9-3.67 2.14-2.1 2.14 2.1-2.14 2.1-2.14-2.1Zm5.6 3.87 1.3-1.29 1.32 1.3-1.31 1.28-1.32-1.29Zm-6.92 0-1.31 1.3-1.31-1.3 1.3-1.29 1.32 1.3Zm5.19 8.49-1.73 1.7-1.73-1.7 1.73-1.7 1.73 1.7Zm4.77-4.69-1.73 1.7-1.73-1.7 1.73-1.7 1.73 1.7Zm.2-3.6c.14-.13.14-.26 0-.4l-1.52-1.5 1.73-1.69 3.46 3.4-3.46 3.39-1.73-1.7 1.52-1.5Zm-8.5-8.75 1.73-1.7 1.73 1.7-1.73 1.7-1.73-1.7ZM54.9 20.4l3.66-3.6c.14-.13.14-.26 0-.4l-3.66-3.6 6.15-6.04a16.35 16.35 0 0 1 0 19.75l-6.15-6.1Zm-18.46-4c-.14.14-.14.27 0 .4l3.66 3.6-6.15 6.04a16.35 16.35 0 0 1 0-19.75l6.15 6.04-3.66 3.67Zm5.95 6.17-6.23 6.11c-.62-.54-1.17-1.15-1.72-1.76l6.22-6.11 1.73 1.76Zm2.97 3 1.72 1.69-5.04 4.95c-.83-.27-1.66-.6-2.42-1.02l5.74-5.63Zm9.12-13.24-1.73-1.7 6.22-6.1c.63.54 1.18 1.15 1.73 1.76l-6.22 6.04Zm-6.5-6.38L53.03.98c.83.28 1.66.62 2.42 1.02L49.7 7.64l-1.73-1.7ZM42.66.7c3.18-.95 6.57-.95 9.68 0L47.5 5.46 42.66.71Z" fill="#21A6AA"/><path d="M4.16 43.63h-.14c-1.72-.48-2.48-.82-2.48-2.1 0-1.1.69-1.77 1.86-1.77 0 0 2.42 0 3.11 1.97v.06h.76v-2.91h-.76l-.27 1.08a3.98 3.98 0 0 0-2.7-1.09c-2 0-3.39 1.23-3.39 3 0 1.96 1.73 2.57 3.6 3.05 1.86.47 2.7.8 2.7 2.17 0 1.22-.98 1.76-1.94 1.76a4.04 4.04 0 0 1-3.6-1.9v-.07H.15v2.99h.76l.35-1.29c.83.81 2 1.29 3.18 1.29 2 0 3.45-1.36 3.45-3.2-.07-2.1-1.72-2.5-3.73-3.04ZM9.41 41.12h.76v-.2c.21-1.23.28-1.23 1.18-1.23h1.94v9.23h-1.04v.88h3.66v-.88h-1.03v-9.23h1.86c.9 0 .97 0 1.18 1.15v.2h.76v-2.3H9.35v2.38h.06ZM26.76 41.12h.76v-.2c.21-1.23.28-1.23 1.18-1.23h1.93v9.23H29.6v.88h3.66v-.88h-1.04v-9.23h1.87c.9 0 .97 0 1.18 1.15v.2h.76v-2.3h-9.34v2.38h.07ZM20.89 39.69h1.03v9.23H20.9v.88h3.66v-.88h-1.04V39.7h1.04v-.88H20.9v.88ZM55.93 39.69h1.1v4.48h-5.25v-4.48h.97v-.88H49.1v.88h1.1v9.23h-1.03v.88h3.66v-.88h-1.04v-3.87h5.26v3.87h-1.1v.88h3.65v-.88h-.96V39.7h.96v-.88h-3.66v.88ZM78.74 39.69h1.04v9.23h-1.04v.88h3.66v-.88h-1.03V39.7h1.03v-.88h-3.66v.88ZM94.85 39.69v-.88h-3.67v.88h.9l-2.42 3.33-2.28-3.33h.9v-.88h-3.66v.88h1.03l3.18 4.68-3.18 4.55h-1.1v.88h3.66v-.88h-1.17l2.42-3.6 2.48 3.6h-.96v.88h3.66v-.88h-.97l-3.32-4.89 3.04-4.34h1.46ZM68.23 39.69h1.11v9.23h-1.1v.88h3.66v-.88h-.97v-3.87h1.73c.62 0 .69.07.9.68v.14h.76v-2.79h-.76v.07l-.07.14c-.21.54-.28.74-.9.74h-1.73v-4.48h3.8c.76 0 .9.2 1.32 1.23v.06h.83V38.6H68.1l.13 1.09ZM45.77 45.46c-.34 2.1-1.52 3.32-3.32 3.32-2.14 0-3.45-1.76-3.45-4.61 0-2.72 1.31-4.48 3.32-4.48a3.7 3.7 0 0 1 3.45 2.24V42h.76v-3.26h-.83l-.28 1.15a3.9 3.9 0 0 0-3.04-1.15c-2.9 0-5.04 2.38-5.04 5.5a5.6 5.6 0 0 0 1.45 4c.9.95 2.21 1.56 3.52 1.5 2.56 0 4.15-1.57 4.5-4.35v-.13h-.97l-.07.2Z" fill="#303337"/></svg>