<svg width="122" height="20" fill="none" xmlns="http://www.w3.org/2000/svg"><path d="M76.64 6.28h2v.03l-2.68 13.4h-1.94v-.04l.25-1.4a5.02 5.02 0 0 1-3.9 1.6c-2.23 0-3.74-1.54-3.74-3.81 0-.47.06-.82.14-1.22l.02-.11 1.7-8.45h1.95v.03l-1.66 8.24c-.08.45-.14.9-.14 1.23 0 1.46.9 2.34 2.43 2.34.53 0 3.22-.18 3.93-3.65l1.64-8.2Zm11.77-.18a4.6 4.6 0 0 0-3.71 1.7l.3-1.5v-.04h-1.93L80.4 19.65v.04h1.98L84 11.47c.41-2.1 2.05-3.63 3.87-3.63.78 0 1.41.32 1.88.94l.02.02 1.6-1.43-.02-.02a3.75 3.75 0 0 0-2.95-1.25Zm-32.5 1.86V8h6.71L53.7 18.04l-.34 1.65h9.53l.33-1.75h-7.12L65.05 7.9l.33-1.64h-9.13l-.33 1.7ZM91.6 19.65v.04h1.95l2.68-13.41H94.3l-2.7 13.37ZM118.25 6.1c-1.63 0-2.88.49-3.86 1.5l1.53-7.46h-1.98L110 19.69h1.95l1.64-8.22c.7-3.47 3.42-3.65 3.95-3.65 1.5 0 2.4.87 2.4 2.34 0 .33-.05.78-.13 1.23l-1.66 8.28h1.95l1.72-8.45c.08-.45.14-.83.14-1.34.02-2.25-1.49-3.78-3.71-3.78Zm-13.03 0c-3.55 0-6.06 2.49-6.86 6.86-.13.73-.2 1.55-.2 2.06 0 2.98 1.82 4.82 4.76 4.82 1.7 0 3.24-.64 4.5-1.88l.01-.02-1.13-1.37-.02-.02-.02.02c-1.04 1.1-1.97 1.53-3.23 1.53-1.38 0-2.89-.82-2.89-3.14 0-.72.08-1.33.22-2a7.65 7.65 0 0 1 1.74-3.82 4.02 4.02 0 0 1 2.95-1.3c1.17 0 1.92.42 2.62 1.47l.02.02 1.45-1.21.01-.02-.02-.02a4.46 4.46 0 0 0-3.9-1.98ZM95.04 2.59H97l.5-2.45h-1.96l-.51 2.45Zm-19.1 0h1.97L78.4.14h-1.96l-.5 2.45Zm-5.24 0h1.97l.49-2.45h-1.95l-.51 2.45ZM44.44 7.7h-4.42L41.57.14H4L.06 19.69h14.97l.98-4.89H7.17l.53-2.68h8.84l.9-4.4H8.6l.53-2.68h14.02L20.2 19.71h6.14l2.95-14.67h5.16L31.5 19.71h6.14l1.5-7.57h4.42l-1.53 7.57h6.14L52.12.16h-6.14L44.44 7.7Z" fill="#17181A"/></svg>