<?xml version="1.0" standalone="no"?>
<!DOCTYPE svg PUBLIC "-//W3C//DTD SVG 20010904//EN"
 "http://www.w3.org/TR/2001/REC-SVG-20010904/DTD/svg10.dtd">
<svg version="1.0" xmlns="http://www.w3.org/2000/svg"
 width="1120.000000pt" height="1120.000000pt" viewBox="0 0 1120.000000 1120.000000"
 preserveAspectRatio="xMidYMid meet">
<metadata>
Created by potrace 1.14, written by Peter Selinger 2001-2017
</metadata>
<g transform="translate(0.000000,1120.000000) scale(0.100000,-0.100000)"
fill="#000000" stroke="none">
<path d="M5339 11195 c-2 -1 -44 -6 -94 -10 -49 -3 -106 -8 -125 -10 -19 -2
-55 -6 -80 -9 -25 -3 -58 -7 -75 -10 -16 -3 -59 -10 -95 -15 -89 -14 -167 -29
-290 -57 -14 -3 -34 -7 -45 -9 -11 -2 -56 -14 -100 -26 -44 -11 -87 -22 -96
-24 -8 -2 -32 -10 -52 -19 -21 -8 -41 -15 -45 -16 -4 0 -25 -6 -47 -12 -49
-14 -47 -14 -65 -21 -31 -12 -115 -42 -120 -43 -3 0 -14 -4 -25 -9 -11 -4 -58
-24 -105 -43 -163 -66 -373 -168 -525 -255 -78 -44 -337 -207 -345 -217 -3 -3
-36 -28 -75 -55 -81 -57 -67 -47 -215 -167 -164 -134 -324 -286 -475 -450 -63
-69 -73 -80 -145 -168 -25 -30 -49 -60 -55 -66 -5 -6 -19 -23 -30 -39 -11 -15
-30 -39 -41 -54 -17 -21 -123 -170 -164 -231 -42 -62 -150 -241 -150 -249 0
-5 -4 -11 -8 -13 -9 -3 -209 -404 -214 -428 -2 -8 -9 -21 -15 -28 -7 -7 -13
-20 -13 -28 0 -25 -1 -29 -17 -46 -9 -10 -13 -18 -8 -18 4 0 0 -11 -9 -25 -9
-14 -14 -25 -11 -25 3 0 -2 -17 -11 -37 -15 -36 -63 -166 -68 -188 -2 -5 -11
-37 -21 -70 -11 -33 -20 -62 -20 -65 -1 -3 -7 -25 -14 -50 -7 -25 -15 -52 -16
-60 -2 -8 -4 -16 -5 -17 -2 -2 -4 -7 -5 -13 -1 -5 -3 -11 -5 -12 -1 -2 -3 -12
-5 -23 -5 -35 -14 -79 -24 -112 -5 -18 -8 -33 -6 -33 3 0 0 -11 -5 -24 -5 -13
-12 -43 -15 -67 -4 -24 -8 -46 -10 -49 -1 -3 -6 -27 -9 -55 -4 -27 -9 -62 -11
-77 -11 -61 -14 -85 -20 -140 -11 -92 -14 -127 -22 -243 -9 -142 -9 -514 0
-630 12 -156 18 -209 23 -235 3 -14 7 -43 9 -65 2 -22 6 -55 10 -72 3 -18 7
-45 9 -60 8 -51 17 -98 21 -113 2 -8 7 -31 11 -50 3 -19 7 -39 8 -45 1 -5 8
-37 15 -70 7 -33 16 -71 21 -85 5 -14 12 -36 14 -50 8 -44 84 -294 103 -340 3
-8 7 -17 8 -20 1 -3 4 -12 8 -20 15 -40 62 -166 63 -170 10 -43 189 -408 255
-522 22 -36 39 -71 39 -77 0 -6 5 -11 10 -11 6 0 10 -5 10 -11 0 -6 13 -29 28
-52 16 -23 62 -91 102 -152 40 -60 81 -119 91 -131 11 -11 19 -24 19 -28 0 -4
13 -21 30 -39 16 -18 30 -35 30 -39 0 -4 6 -13 13 -20 7 -7 44 -51 82 -98 105
-128 119 -143 270 -294 142 -143 217 -213 294 -276 23 -19 53 -43 64 -54 12
-10 38 -30 57 -45 19 -14 37 -28 40 -31 11 -11 158 -118 215 -155 33 -22 64
-43 70 -48 5 -4 33 -22 60 -39 28 -17 62 -39 77 -49 15 -11 30 -19 33 -19 3 0
30 -15 59 -34 29 -18 63 -37 77 -41 13 -4 26 -11 29 -15 5 -8 333 -170 343
-170 2 0 22 -8 43 -17 22 -9 41 -17 44 -18 3 -1 19 -7 35 -14 56 -24 210 -81
217 -81 4 0 19 -5 35 -12 15 -6 35 -12 43 -14 40 -8 160 -48 198 -67 34 -16
50 -35 87 -98 25 -44 45 -82 44 -85 0 -4 4 -10 9 -13 5 -3 19 -24 31 -46 12
-22 26 -47 31 -55 9 -13 32 -53 90 -155 9 -16 52 -91 95 -165 43 -74 92 -159
109 -188 17 -30 36 -61 41 -70 6 -9 29 -51 53 -92 23 -41 47 -82 52 -90 59
-97 180 -311 180 -319 0 -6 5 -11 10 -11 6 0 10 -5 10 -11 0 -10 19 -44 87
-154 7 -11 25 -44 40 -72 15 -29 31 -53 35 -53 4 0 8 -5 8 -11 0 -6 16 -38 36
-72 20 -34 48 -82 62 -107 14 -25 35 -61 47 -80 12 -19 24 -42 27 -50 3 -11 8
-9 20 10 26 40 279 481 302 525 12 22 23 42 26 45 11 10 80 132 80 141 0 5 5
9 10 9 6 0 9 3 8 7 -1 5 29 62 68 128 39 66 93 158 119 205 26 47 51 87 54 90
3 3 17 26 31 53 13 26 29 47 34 47 5 0 7 3 3 6 -6 6 3 22 62 124 18 30 36 62
41 70 5 8 41 71 81 140 40 69 77 134 83 145 6 11 13 22 16 25 9 8 100 169 101
177 1 14 65 62 90 67 47 10 124 33 162 49 20 9 41 16 45 17 15 1 117 35 122
40 3 3 12 6 20 8 14 3 108 39 170 65 14 6 27 11 30 12 13 4 62 26 135 61 44
21 82 38 85 39 19 4 156 79 158 86 2 5 12 9 22 9 9 0 23 7 30 15 7 8 16 15 21
15 18 0 328 194 341 214 4 6 8 7 8 3 0 -5 15 3 33 17 39 32 38 31 107 81 62
45 265 210 324 264 67 60 328 325 381 386 28 32 81 96 118 144 38 47 77 96 88
109 10 12 19 26 19 32 0 5 6 13 13 17 21 12 224 322 285 433 14 25 36 62 49
82 13 21 20 38 16 38 -5 0 -3 4 2 8 12 9 78 138 75 148 -1 4 2 10 7 13 11 7
116 241 116 259 0 6 4 12 9 12 4 0 8 6 8 13 0 6 20 66 44 132 41 110 76 215
80 240 1 6 4 15 8 20 7 12 85 328 92 372 2 17 6 35 9 40 3 4 8 28 11 53 3 25
8 54 10 65 2 11 7 40 11 65 19 127 28 207 42 380 12 161 6 750 -8 750 -3 0 -6
12 -6 28 -2 38 -11 129 -19 175 -3 20 -7 47 -9 60 -2 12 -6 40 -10 62 -4 22
-9 49 -10 60 -1 11 -5 34 -8 50 -4 17 -9 39 -11 50 -2 11 -12 53 -21 94 -9 40
-19 80 -20 90 -2 9 -4 16 -5 16 -2 0 -5 15 -14 54 -10 45 -59 205 -72 238 -8
18 -14 36 -14 40 0 11 -20 73 -35 108 -7 17 -23 57 -35 89 -11 33 -24 64 -28
70 -3 6 -7 16 -8 21 -3 20 -109 250 -116 253 -5 2 -8 9 -8 15 0 7 -7 25 -15
41 -48 91 -113 209 -147 265 -21 34 -38 67 -38 72 0 5 -4 9 -10 9 -5 0 -10 5
-10 11 0 18 -253 379 -301 429 -8 8 -26 31 -41 50 -113 147 -412 453 -568 580
-17 14 -39 32 -48 40 -52 47 -241 190 -251 190 -5 0 -11 4 -13 8 -4 11 -137
102 -149 102 -5 0 -12 6 -15 14 -3 8 -16 17 -29 20 -13 3 -30 12 -37 19 -12
11 -40 29 -143 89 -16 10 -46 25 -65 35 -19 9 -37 19 -40 23 -14 15 -368 182
-387 183 -7 0 -13 5 -13 10 0 6 -3 7 -7 4 -3 -4 -11 -3 -17 2 -10 7 -148 62
-171 67 -9 3 -110 38 -145 51 -16 7 -33 11 -52 16 -7 1 -17 5 -23 9 -5 3 -26
9 -45 14 -50 11 -50 11 -52 14 -4 2 -39 11 -58 14 -9 1 -20 5 -25 8 -9 5 -114
29 -183 43 -13 2 -32 7 -42 10 -10 3 -33 8 -51 11 -52 8 -94 16 -155 28 -11 2
-45 7 -75 10 -30 3 -65 8 -79 10 -23 4 -117 14 -200 22 -49 5 -627 13 -631 9z
m519 -1354 c31 -5 52 -4 52 2 0 6 5 6 13 0 11 -9 47 -15 167 -29 19 -2 48 -7
65 -10 16 -4 37 -8 45 -9 27 -3 229 -49 268 -61 7 -2 14 -4 17 -4 3 0 21 -6
40 -14 20 -9 36 -15 38 -14 3 1 50 -12 72 -22 40 -16 110 -40 118 -39 4 0 19
-7 33 -15 13 -9 24 -14 24 -11 0 3 13 -1 30 -10 16 -8 32 -15 35 -15 13 1 356
-181 412 -218 34 -23 67 -42 73 -42 5 0 10 -4 10 -10 0 -5 7 -10 15 -10 8 0
15 -4 15 -8 0 -4 15 -16 33 -27 17 -10 34 -21 37 -25 3 -3 30 -23 60 -45 30
-22 57 -42 60 -45 3 -3 30 -25 60 -50 113 -93 253 -229 345 -335 28 -32 57
-65 66 -74 9 -9 53 -65 98 -126 45 -60 89 -118 97 -128 8 -9 14 -22 14 -27 0
-6 8 -18 18 -28 9 -10 24 -31 32 -47 8 -17 18 -32 21 -35 19 -14 189 -346 182
-354 -4 -3 -1 -6 5 -6 7 0 11 -3 10 -7 -1 -5 8 -30 20 -57 12 -27 22 -51 22
-53 0 -3 6 -19 14 -36 26 -57 111 -326 120 -379 3 -15 8 -33 12 -39 4 -7 8
-26 9 -43 2 -17 4 -31 5 -31 1 0 3 -11 5 -25 2 -14 6 -36 10 -50 3 -14 7 -41
10 -60 2 -19 5 -35 6 -35 1 0 3 -9 4 -20 1 -11 5 -42 9 -70 17 -134 20 -206
20 -400 1 -233 -13 -414 -40 -537 -6 -27 -16 -97 -17 -115 0 -7 -4 -13 -9 -13
-5 0 -7 -4 -4 -8 3 -4 0 -26 -5 -48 -5 -21 -11 -46 -13 -54 -28 -115 -95 -324
-127 -395 -11 -25 -32 -78 -33 -85 -2 -5 -44 -98 -74 -160 -9 -19 -25 -47 -34
-61 -10 -14 -15 -28 -12 -31 2 -3 -2 -11 -11 -18 -8 -7 -15 -17 -15 -22 0 -24
-223 -366 -275 -422 -6 -6 -26 -31 -45 -56 -75 -98 -323 -351 -409 -420 -24
-19 -49 -40 -55 -45 -6 -6 -42 -34 -81 -63 -38 -28 -76 -57 -84 -63 -18 -16
-190 -129 -196 -129 -3 0 -29 -15 -58 -34 -54 -35 -334 -173 -397 -196 -19 -7
-48 -19 -65 -26 -51 -22 -274 -94 -345 -111 -72 -17 -247 -53 -290 -58 -25 -4
-52 -8 -60 -10 -19 -6 -123 -17 -177 -19 -24 -2 -46 -5 -49 -9 -3 -3 -16 -2
-29 3 -13 5 -26 6 -30 2 -8 -8 -365 -10 -365 -2 0 3 -24 5 -53 6 -55 1 -165
11 -201 19 -11 2 -37 7 -56 10 -19 2 -44 6 -55 9 -11 2 -40 7 -65 12 -51 9
-59 11 -62 14 -2 1 -12 3 -23 5 -11 2 -29 5 -40 8 -11 3 -40 10 -65 17 -47 11
-55 14 -80 22 -8 3 -60 20 -115 37 -55 18 -115 39 -134 48 -18 8 -39 16 -45
18 -52 12 -331 150 -439 217 -43 26 -81 48 -84 48 -3 0 -22 14 -43 30 -21 17
-43 30 -49 30 -6 0 -11 4 -11 9 0 5 -6 11 -14 13 -7 2 -28 15 -47 30 -19 15
-81 64 -139 110 -185 145 -432 405 -584 615 -50 70 -139 207 -138 213 0 3 -5
12 -12 20 -38 46 -216 402 -216 433 0 7 -4 17 -9 22 -23 26 -149 425 -134 425
3 0 1 6 -5 13 -5 6 -13 28 -16 47 -3 19 -9 53 -14 75 -10 46 -10 50 -17 90
-33 206 -40 304 -39 545 1 268 4 308 44 555 13 75 73 325 89 369 6 14 8 26 5
26 -4 0 -2 6 3 13 6 6 13 25 17 42 22 90 215 525 237 533 5 2 9 9 9 15 0 12
98 178 111 187 3 3 14 19 23 35 23 42 115 169 167 229 14 17 34 42 45 55 57
72 208 228 301 311 106 96 210 180 222 180 6 0 16 8 23 18 15 20 222 158 313
209 124 69 273 142 279 136 3 -4 6 -2 6 4 0 9 10 14 55 28 6 2 36 15 68 29 31
14 57 23 57 20 0 -4 6 -2 13 3 11 10 134 53 160 57 7 1 17 4 22 8 6 4 56 18
112 33 128 33 140 35 251 55 31 6 66 12 77 14 34 6 106 15 180 22 39 3 71 7
73 9 7 6 449 3 500 -4z"/>
<path d="M4724 8951 c-12 -5 -31 -22 -43 -38 -11 -15 -24 -32 -28 -38 -10 -13
-10 -66 0 -82 5 -7 5 -13 2 -13 -4 0 3 -13 15 -29 11 -17 54 -48 95 -71 80
-44 185 -137 185 -164 0 -9 4 -16 9 -16 5 0 7 -23 5 -51 -5 -65 -58 -179 -150
-324 -85 -134 -142 -234 -147 -261 -2 -10 -7 -26 -10 -34 -48 -129 -30 -289
45 -398 29 -42 138 -157 138 -146 0 3 7 -2 16 -10 37 -37 160 -99 204 -104
100 -9 171 92 131 191 -6 15 -15 27 -21 27 -6 0 -8 5 -5 10 3 6 -1 10 -9 10
-9 0 -16 5 -16 10 0 6 -4 10 -10 10 -18 0 -114 63 -157 103 -80 74 -90 136
-40 247 14 30 25 59 25 64 0 5 7 13 16 18 9 5 16 14 16 20 0 9 27 54 149 248
79 127 119 289 96 399 -14 69 -50 148 -86 187 -10 11 -19 26 -19 32 0 7 -3 12
-7 12 -5 0 -24 16 -44 34 -40 38 -176 129 -198 133 -8 1 -17 7 -21 13 -9 15
-109 23 -136 11z"/>
<path d="M5428 8688 c-21 -21 -39 -48 -40 -60 -3 -41 2 -92 10 -97 15 -12 72
-90 72 -100 0 -6 4 -11 9 -11 13 0 30 -77 24 -113 -5 -36 -63 -161 -102 -222
-67 -104 -110 -208 -118 -280 -2 -22 -5 -51 -7 -65 -2 -14 0 -29 2 -35 3 -5 7
-21 7 -35 3 -37 27 -113 42 -131 7 -9 10 -19 6 -22 -3 -4 -1 -7 5 -7 7 0 12
-5 12 -12 0 -6 19 -36 42 -67 45 -60 128 -148 128 -136 0 4 7 2 15 -5 41 -34
145 1 172 58 33 69 17 132 -48 186 -16 14 -29 28 -29 33 0 4 -12 22 -26 38
-14 17 -31 41 -36 55 -13 32 -18 112 -8 125 5 6 8 14 8 18 0 16 37 97 45 97 4
0 7 4 7 10 0 5 14 33 31 62 39 65 92 162 91 165 -1 2 1 8 3 15 24 63 36 198
22 258 -26 111 -69 193 -143 276 -25 27 -70 43 -118 42 -32 -1 -47 -9 -78 -40z"/>
<path d="M3820 6892 c-55 -4 -83 -19 -110 -59 -23 -34 -24 -42 -24 -187 1
-150 10 -391 20 -496 2 -30 6 -80 8 -110 2 -30 5 -55 6 -55 1 0 3 -16 5 -35 9
-118 41 -299 75 -420 11 -41 22 -84 24 -95 6 -31 98 -233 119 -260 4 -5 26
-39 48 -75 23 -36 44 -67 48 -70 3 -3 17 -21 31 -40 13 -19 28 -39 32 -45 91
-111 128 -153 252 -281 100 -104 137 -136 165 -143 36 -9 1281 -12 1327 -3 39
7 308 282 399 406 11 15 30 40 43 54 27 32 132 188 132 197 0 12 45 70 55 71
6 1 37 5 70 8 33 4 67 9 75 11 8 3 29 7 45 9 81 12 162 35 228 65 25 12 51 21
56 21 6 0 11 5 11 11 0 5 3 8 8 6 6 -4 159 88 228 138 96 69 266 277 289 353
3 12 11 22 16 22 5 0 8 3 7 8 -1 4 9 39 22 77 41 122 33 264 -22 388 -12 26
-25 47 -30 47 -4 0 -8 6 -8 13 0 23 -93 108 -150 137 -49 24 -123 46 -142 42
-5 -1 -8 1 -8 6 0 4 -10 8 -22 9 -13 1 -39 4 -58 7 -105 14 -177 20 -286 20
l-121 1 -2 55 c-4 112 -24 153 -87 179 -24 9 -332 12 -1385 14 -745 1 -1370 1
-1389 -1z m3161 -526 c149 -18 219 -42 261 -91 10 -11 17 -25 18 -31 0 -6 6
-17 14 -23 15 -13 16 -114 1 -156 -16 -46 -39 -91 -53 -107 -8 -10 -12 -18 -8
-18 13 0 -47 -74 -109 -135 -60 -59 -197 -156 -265 -187 -70 -33 -130 -57
-130 -54 0 3 -24 -2 -52 -10 -81 -21 -92 -19 -83 14 12 48 23 98 31 137 15 81
25 143 28 170 5 48 17 148 21 175 2 14 7 75 11 135 11 166 11 169 13 180 1 12
208 13 302 1z"/>
</g>
</svg>
