<svg width="185" height="52" fill="none" xmlns="http://www.w3.org/2000/svg"><path d="M74.2 26.51h-4.38l-.02-2.41h3.68c.64 0 1.18-.08 1.59-.25.41-.17.72-.42.93-.74.2-.32.31-.72.31-1.2 0-.52-.1-.95-.3-1.28-.2-.33-.5-.57-.93-.72a4.84 4.84 0 0 0-1.6-.22h-2.44V34h-3.52V16.94h5.96c.99 0 1.88.1 2.66.28a5.8 5.8 0 0 1 2 .85c.55.39.97.87 1.25 1.46a4.56 4.56 0 0 1-.04 4c-.31.6-.81 1.08-1.5 1.46-.66.37-1.54.58-2.63.62l-1.02.9ZM74.05 34h-5.2l1.38-2.74h3.82c.62 0 1.12-.1 1.51-.3a2 2 0 0 0 .87-.82 3.04 3.04 0 0 0 .02-2.48 1.74 1.74 0 0 0-.8-.84 3 3 0 0 0-1.45-.3h-3.38l.02-2.42h4.22l.8.95a4.66 4.66 0 0 1 2.52.55c.64.37 1.1.86 1.39 1.46.3.6.44 1.25.44 1.94 0 1.09-.23 2.01-.71 2.76a4.36 4.36 0 0 1-2.1 1.68c-.91.37-2.03.56-3.35.56Zm8.05-6.21v-.25c0-.93.13-1.78.4-2.56.27-.8.65-1.48 1.16-2.05a5.2 5.2 0 0 1 1.88-1.35c.74-.33 1.59-.5 2.55-.5.96 0 1.82.17 2.57.5.75.32 1.38.77 1.88 1.35.52.57.9 1.26 1.17 2.05.27.78.4 1.63.4 2.56v.25a8 8 0 0 1-.4 2.57 5.98 5.98 0 0 1-1.17 2.05 5.2 5.2 0 0 1-1.87 1.34 6.4 6.4 0 0 1-2.56.48c-.96 0-1.81-.16-2.56-.48a5.31 5.31 0 0 1-3.05-3.4 8 8 0 0 1-.4-2.56Zm3.38-.25v.25c0 .53.04 1.03.14 1.49.1.46.24.86.44 1.22.21.34.49.6.82.8.34.2.75.3 1.23.3a2.23 2.23 0 0 0 2.02-1.1c.2-.36.35-.76.44-1.22.1-.46.16-.96.16-1.5v-.24c0-.51-.05-1-.16-1.45-.09-.46-.24-.87-.45-1.22-.2-.36-.48-.64-.81-.84-.34-.2-.74-.3-1.22-.3s-.88.1-1.22.3c-.33.2-.6.48-.8.84-.21.35-.36.76-.45 1.22-.1.45-.14.94-.14 1.45Zm10.17.25v-.25c0-.93.13-1.78.4-2.56.26-.8.65-1.48 1.16-2.05a5.2 5.2 0 0 1 1.87-1.35c.74-.33 1.6-.5 2.56-.5s1.81.17 2.56.5c.75.32 1.38.77 1.89 1.35.52.57.9 1.26 1.17 2.05.27.78.4 1.63.4 2.56v.25c0 .92-.13 1.78-.4 2.57a6 6 0 0 1-1.17 2.05 5.2 5.2 0 0 1-1.88 1.34 6.4 6.4 0 0 1-2.55.48c-.96 0-1.82-.16-2.57-.48a5.31 5.31 0 0 1-3.04-3.4 8 8 0 0 1-.4-2.56Zm3.37-.25v.25c0 .53.05 1.03.14 1.49.1.46.25.86.45 1.22.21.34.48.6.82.8.34.2.75.3 1.23.3a2.23 2.23 0 0 0 2.02-1.1c.2-.36.35-.76.44-1.22.1-.46.15-.96.15-1.5v-.24c0-.51-.05-1-.15-1.45-.1-.46-.25-.87-.46-1.22-.2-.36-.47-.64-.8-.84-.34-.2-.75-.3-1.22-.3-.48 0-.89.1-1.22.3-.33.2-.6.48-.81.84-.2.35-.35.76-.45 1.22-.09.45-.14.94-.14 1.45ZM113.11 16V34h-3.38V15.99h3.38Zm8 5.33-5.52 6.28-2.95 2.99-1.23-2.44 2.34-2.97 3.3-3.86h4.05ZM117.6 34l-3.75-5.86 2.33-2.04 5.3 7.9h-3.88Zm20.03-4.46c0-.3-.05-.58-.15-.83a1.55 1.55 0 0 0-.49-.67 4.36 4.36 0 0 0-1.02-.63c-.44-.2-1-.41-1.7-.63a21.6 21.6 0 0 1-2.2-.84 9.06 9.06 0 0 1-1.83-1.1 4.92 4.92 0 0 1-1.24-1.46c-.3-.55-.44-1.2-.44-1.93a4 4 0 0 1 .46-1.93c.32-.59.75-1.09 1.32-1.5a6.22 6.22 0 0 1 1.99-.98 9.02 9.02 0 0 1 5.83.34 5.27 5.27 0 0 1 2.18 1.87c.53.79.79 1.69.79 2.7h-3.5c0-.5-.1-.93-.31-1.3-.2-.4-.51-.7-.94-.91a3.34 3.34 0 0 0-1.57-.33c-.6 0-1.12.1-1.52.28-.4.18-.71.43-.91.74-.2.3-.31.65-.31 1.03 0 .29.07.55.21.79.15.23.37.45.66.65.29.2.64.4 1.06.58.43.18.91.35 1.47.52.93.29 1.75.6 2.45.95.7.35 1.3.75 1.78 1.19a4.4 4.4 0 0 1 1.44 3.37 4.1 4.1 0 0 1-1.69 3.48c-.54.4-1.2.72-1.95.93-.76.2-1.6.31-2.55.31-.84 0-1.67-.1-2.5-.32a7.58 7.58 0 0 1-2.23-1.02 4.99 4.99 0 0 1-2.2-4.23h3.53c0 .53.09.98.25 1.34.16.37.4.67.7.9.3.22.66.39 1.07.49.42.1.88.15 1.38.15.61 0 1.11-.09 1.5-.26a1.85 1.85 0 0 0 1.18-1.74Zm11.9-8.22v2.4h-7.38v-2.4h7.38Zm-5.55-3.13h3.37v11.99a2 2 0 0 0 .14.84c.1.2.25.34.45.41.2.07.44.1.74.1a5.99 5.99 0 0 0 1-.08v2.48a6.34 6.34 0 0 1-4-.06 2.68 2.68 0 0 1-1.26-1.2 4.51 4.51 0 0 1-.44-2.15V18.19Zm6.63 9.6v-.25c0-.93.13-1.78.4-2.56.26-.8.65-1.48 1.16-2.05a5.2 5.2 0 0 1 1.87-1.35c.75-.33 1.6-.5 2.56-.5s1.81.17 2.56.5c.75.32 1.38.77 1.9 1.35.5.57.9 1.26 1.16 2.05.27.78.4 1.63.4 2.56v.25c0 .92-.13 1.78-.4 2.57a6 6 0 0 1-1.17 2.05 5.2 5.2 0 0 1-1.87 1.34 6.4 6.4 0 0 1-2.56.48c-.96 0-1.81-.16-2.56-.48a5.3 5.3 0 0 1-3.05-3.4 7.99 7.99 0 0 1-.4-2.56Zm3.37-.25v.25c0 .53.05 1.03.15 1.49.09.46.24.86.44 1.22.21.34.49.6.82.8.34.2.75.3 1.23.3a2.23 2.23 0 0 0 2.02-1.1c.2-.36.35-.76.44-1.22.1-.46.15-.96.15-1.5v-.24c0-.51-.05-1-.15-1.45-.1-.46-.24-.87-.46-1.22-.2-.36-.47-.64-.8-.84-.34-.2-.75-.3-1.22-.3-.48 0-.88.1-1.22.3-.33.2-.6.48-.81.84-.2.35-.35.76-.44 1.22-.1.45-.15.94-.15 1.45Zm14.09-3.45V34h-3.38V21.32h3.18l.2 2.77Zm3.82-2.85-.06 3.13a8.13 8.13 0 0 0-1.22-.1c-.47 0-.89.07-1.24.2-.34.1-.63.28-.87.52-.22.23-.4.52-.51.85-.11.34-.17.72-.19 1.15l-.68-.2c0-.83.08-1.58.25-2.27.16-.7.4-1.3.71-1.82.32-.51.71-.91 1.17-1.2.47-.27 1-.41 1.59-.41a3.64 3.64 0 0 1 1.05.15Zm7.2 13c-.99 0-1.87-.16-2.65-.47a5.81 5.81 0 0 1-3.24-3.29 6.59 6.59 0 0 1-.43-2.39v-.46c0-.97.14-1.84.41-2.64.27-.8.66-1.49 1.17-2.08a5.14 5.14 0 0 1 1.88-1.34 6.15 6.15 0 0 1 2.48-.48c.9 0 1.7.14 2.4.44.69.3 1.27.72 1.74 1.27.47.54.83 1.2 1.08 1.97.24.75.36 1.6.36 2.53v1.4H174.2v-2.25h6.76v-.25c0-.47-.08-.9-.25-1.26a1.99 1.99 0 0 0-.75-.89 2.32 2.32 0 0 0-1.3-.33c-.44 0-.82.1-1.14.3-.32.2-.59.46-.79.82-.2.35-.34.76-.44 1.24-.1.47-.14.98-.14 1.55v.46c0 .51.07.98.2 1.41.16.43.36.8.63 1.11.27.32.6.56.98.73.4.17.84.26 1.33.26a3.68 3.68 0 0 0 3.07-1.44l1.64 1.78a5.82 5.82 0 0 1-2.73 1.97c-.64.22-1.37.32-2.2.32Z" fill="#1D1D1D"/><path d="M29.34 10.65 46.14.78v8.58l-16.8 1.29Z" fill="#B8E8F2"/><path d="m29.34 10.65 20.38-7.56v6.13l-20.38 1.43Z" fill="#88CFE5"/><path d="M29.34 10.65 7.51 0v8.35l21.83 2.3Z" fill="#B8E8F2"/><path d="M29.34 10.65 2.91 1.93V7.8l26.43 2.84Z" fill="#88CFE5"/><path d="M29.38 51.85.03 46.17 0 4.97l29.35 5.68.03 41.2Z" fill="#472758"/><path d="M58.8 34.03c0 7.29-5.73 13.17-12.8 14.55l-16.65 3.24V10.65l15.51-3.02c6.9-1.34 12.52 2.21 12.52 9.33 0 3.41-1.3 6.37-3.45 8.73 2.94 1.36 4.86 4.16 4.86 8.34ZM38.4 17.71V25l6.46-1.26a4.32 4.32 0 0 0 3.46-4.32c0-2.11-1.36-3.38-3.46-2.97l-6.45 1.26Zm11.33 17.38c0-2.3-1.47-3.66-3.74-3.22l-7.58 1.48v7.88l7.58-1.48a4.62 4.62 0 0 0 3.74-4.66Z" fill="#4D2C5E"/></svg>