<svg width="47" height="47" fill="none" xmlns="http://www.w3.org/2000/svg"><path d="M23.725 12.898c-5.98 0-10.828 4.878-10.828 10.893 0 5.462 4 9.972 9.21 10.76v-7.873h-2.68v-2.863h2.68v-1.906c0-3.154 1.527-4.539 4.133-4.539 1.248 0 1.909.094 2.22.136v2.499h-1.777c-1.106 0-1.492 1.056-1.492 2.245v1.565h3.242l-.44 2.863h-2.802v7.896c5.285-.721 9.362-5.267 9.362-10.782 0-6.017-4.848-10.895-10.828-10.895Z" fill="#00B2FF"/><rect x=".5" y=".5" width="45.061" height="45.061" rx="3.5" stroke="#6D6D6D"/></svg>