<svg width="47" height="47" fill="none" xmlns="http://www.w3.org/2000/svg"><path d="M19.272 14.74c-3.018 0-5.473 2.458-5.473 5.48v7.827a5.484 5.484 0 0 0 5.475 5.478h7.82c3.018 0 5.473-2.459 5.473-5.48v-7.828a5.483 5.483 0 0 0-5.475-5.478h-7.82Zm9.542 3.005a.751.751 0 1 1-.002 1.503.751.751 0 0 1 .002-1.503Zm-5.631 1.503c2.692 0 4.88 2.19 4.88 4.884a4.887 4.887 0 0 1-4.88 4.885 4.887 4.887 0 0 1-4.88-4.885 4.887 4.887 0 0 1 4.88-4.884Zm0 1.503a3.38 3.38 0 0 0-3.378 3.381 3.38 3.38 0 0 0 3.378 3.382 3.38 3.38 0 0 0 3.378-3.382 3.38 3.38 0 0 0-3.378-3.381Z" fill="#F33333"/><rect x=".669" y=".5" width="45.061" height="45.061" rx="3.5" stroke="#6D6D6D"/></svg>