<svg width="47" height="47" fill="none" xmlns="http://www.w3.org/2000/svg"><path d="M35.346 15.294c-.88.41-1.827.683-2.826.812a5.117 5.117 0 0 0 2.163-2.836 9.579 9.579 0 0 1-3.122 1.24 4.8 4.8 0 0 0-3.583-1.612c-2.714 0-4.914 2.29-4.914 5.115 0 .4.044.79.128 1.167-4.083-.215-7.705-2.254-10.128-5.349a5.248 5.248 0 0 0-.665 2.576c0 1.776.866 3.34 2.186 4.26a4.819 4.819 0 0 1-2.228-.638v.06c0 2.481 1.694 4.548 3.94 5.018-.41.118-.844.184-1.291.184-.318 0-.627-.038-.926-.094.625 2.028 2.44 3.51 4.589 3.554-1.682 1.37-3.8 2.19-6.104 2.19a9.26 9.26 0 0 1-1.171-.073 13.552 13.552 0 0 0 7.533 2.296c9.038 0 13.982-7.796 13.982-14.56 0-.221-.006-.442-.017-.66a9.943 9.943 0 0 0 2.454-2.65Z" fill="#00B2FF"/><rect x=".84" y=".5" width="45.061" height="45.061" rx="3.5" stroke="#6D6D6D"/></svg>