<svg width="174" height="39" fill="none" xmlns="http://www.w3.org/2000/svg"><path d="M50.4 10.99h4.39v17.44h-4.4V11Zm6.13 10.85c0-4.3 2.7-6.88 6.86-6.88s6.85 2.57 6.85 6.88c0 4.32-2.63 6.9-6.85 6.9s-6.86-2.5-6.86-6.9Zm9.3 0c0-2.37-.95-3.76-2.44-3.76-1.5 0-2.44 1.44-2.44 3.76 0 2.33.93 3.74 2.44 3.74 1.5 0 2.44-1.32 2.44-3.72v-.02Zm6.07 7.44h4.22c.2.44.54.8.96 1.03.43.24.92.33 1.41.26 1.67 0 2.55-.89 2.55-2.18v-2.42h-.09a4.22 4.22 0 0 1-4 2.36c-3.2 0-5.33-2.4-5.33-6.53 0-4.13 2.02-6.73 5.39-6.73a4.26 4.26 0 0 1 4.04 2.53v-2.4h4.4V28.3c0 3.15-2.83 5.1-7 5.1-3.89 0-6.3-1.71-6.55-4.1v-.01Zm9.15-7.45c0-2.1-.98-3.42-2.53-3.42-1.55 0-2.5 1.3-2.5 3.42 0 2.11.93 3.3 2.5 3.3 1.57 0 2.53-1.16 2.53-3.29v-.01Zm6.05 0c0-4.31 2.7-6.89 6.86-6.89s6.87 2.58 6.87 6.89-2.64 6.9-6.87 6.9-6.86-2.5-6.86-6.89v-.01Zm9.3 0c0-2.37-.95-3.77-2.44-3.77-1.5 0-2.36 1.46-2.36 3.8s.92 3.74 2.42 3.74 2.39-1.34 2.39-3.74v-.03Zm6.1-9.76a2.17 2.17 0 0 1 1.33-2.07 2.28 2.28 0 0 1 2.46.42 2.19 2.19 0 0 1 .54 2.39c-.16.4-.44.75-.8 1-.37.25-.8.39-1.25.4a2.18 2.18 0 0 1-1.6-.57 2.1 2.1 0 0 1-.68-1.54v-.03Zm0 3.16h4.4v13.2h-4.4v-13.2Zm20.35 6.6c0 4.31-1.95 6.77-5.3 6.77a4.25 4.25 0 0 1-4.1-2.44h-.08v6.5h-4.4V15.2h4.4v2.36h.09c.33-.78.9-1.45 1.62-1.9a4.27 4.27 0 0 1 2.45-.65c3.37.06 5.38 2.54 5.38 6.85l-.06-.03Zm-4.4 0c0-2.1-.98-3.44-2.52-3.44s-2.52 1.36-2.53 3.44c-.02 2.09 1 3.42 2.53 3.42 1.54 0 2.52-1.3 2.52-3.4v-.02Zm11.94-6.9c3.65 0 5.86 1.7 5.96 4.41h-4c0-.93-.79-1.52-2-1.52-1.22 0-1.76.46-1.76 1.13 0 .68.48.9 1.47 1.1l2.8.56c2.69.56 3.83 1.62 3.83 3.62 0 2.73-2.53 4.49-6.27 4.49-3.73 0-6.18-1.76-6.37-4.45h4.23c.13.98.93 1.56 2.22 1.56 1.28 0 1.87-.42 1.87-1.1 0-.7-.41-.84-1.47-1.06l-2.53-.53c-2.62-.53-4-1.9-4-3.91.03-2.6 2.39-4.27 6.02-4.27v-.03Zm20.97 13.47h-4.24v-2.46h-.09a3.75 3.75 0 0 1-1.45 2.05c-.71.5-1.57.75-2.44.7a4.75 4.75 0 0 1-3.62-1.38 4.57 4.57 0 0 1-1.3-3.58V15.2h4.39v7.54c0 1.56.82 2.4 2.18 2.4a2.28 2.28 0 0 0 1.7-.75 2.19 2.19 0 0 0 .53-1.74V15.2h4.4l-.06 13.2Zm2.12-13.2h4.25v2.55h.09c.23-.82.73-1.53 1.42-2.04.7-.5 1.54-.77 2.4-.75.88-.07 1.75.19 2.44.72.7.53 1.15 1.3 1.3 2.15h.08a4.19 4.19 0 0 1 4.13-2.88 4.34 4.34 0 0 1 3.22 1.29 4.2 4.2 0 0 1 1.18 3.2v9h-4.4v-7.85c0-1.43-.66-2.1-1.89-2.1a1.95 1.95 0 0 0-1.45.64 1.87 1.87 0 0 0-.47 1.5v7.8h-4.17v-7.9c0-1.32-.66-2.04-1.86-2.04a2 2 0 0 0-1.47.65 1.92 1.92 0 0 0-.48 1.51v7.78h-4.4l.08-13.23Z" fill="#02133C"/><path d="M38.1 11.78a19 19 0 0 0-2.93-4.63 19.76 19.76 0 0 0-6.48-5.1A20.12 20.12 0 0 0 5.57 5.94 19.13 19.13 0 0 0 2.4 28.74a19.56 19.56 0 0 0 5.4 6.2c1.43 1.08 3.01 1.97 4.7 2.62a19.94 19.94 0 0 0 21.43-4.28c3.72-3.65 5.8-8.6 5.81-13.76 0-2.67-.55-5.3-1.64-7.74Zm-18.2-7.8c2.3-.01 4.55.48 6.63 1.43-.5.21-1.04.36-1.58.44a8.45 8.45 0 0 0-4.74 2.33 8.18 8.18 0 0 0-2.37 4.65c-.11.99-.57 1.9-1.3 2.6a4.43 4.43 0 0 1-2.67 1.2 8.45 8.45 0 0 0-4.73 2.34 8.18 8.18 0 0 0-2.37 4.64c-.1.94-.5 1.82-1.16 2.5a15.28 15.28 0 0 1 .94-14.95 15.7 15.7 0 0 1 5.74-5.3 16.06 16.06 0 0 1 7.63-1.92l-.01.03ZM7.8 29.57l.52-.47a7.83 7.83 0 0 0 2.37-4.65c.1-1 .55-1.92 1.28-2.62a4.18 4.18 0 0 1 2.65-1.23 8.45 8.45 0 0 0 4.73-2.33 8.19 8.19 0 0 0 2.37-4.65 4.24 4.24 0 0 1 3.96-3.94 8.1 8.1 0 0 0 4.4-2.05 15.19 15.19 0 0 1 3.45 4 4.24 4.24 0 0 1-2.84 1.47 8.42 8.42 0 0 0-4.74 2.32 8.16 8.16 0 0 0-2.37 4.65c-.1.99-.55 1.91-1.27 2.61a4.43 4.43 0 0 1-2.67 1.24 8.5 8.5 0 0 0-4.75 2.32 8.23 8.23 0 0 0-2.4 4.65c-.07.7-.32 1.38-.71 1.97a15.88 15.88 0 0 1-3.99-3.29Zm12.1 5.55c-1.48 0-2.96-.2-4.39-.6.5-.9.8-1.87.94-2.88.1-.99.55-1.9 1.26-2.61a4.43 4.43 0 0 1 2.67-1.24 8.45 8.45 0 0 0 4.74-2.33 8.19 8.19 0 0 0 2.38-4.65c.1-.98.54-1.9 1.26-2.6a4.43 4.43 0 0 1 2.66-1.25 8.46 8.46 0 0 0 3.75-1.44 15.28 15.28 0 0 1-2.75 13.44 15.79 15.79 0 0 1-5.54 4.47 16.1 16.1 0 0 1-6.97 1.62v.07Z" fill="#C40B0B"/></svg>