<svg width="174" height="41" fill="none" xmlns="http://www.w3.org/2000/svg"><path d="M50.4 11.55h4.39V29.9h-4.4V11.55Zm6.13 11.41c0-4.53 2.7-7.24 6.86-7.24s6.85 2.71 6.85 7.24c0 4.54-2.63 7.26-6.85 7.26s-6.86-2.64-6.86-7.25Zm9.3 0c0-2.49-.95-3.96-2.44-3.96-1.5 0-2.44 1.52-2.44 3.96 0 2.45.93 3.94 2.44 3.94 1.5 0 2.44-1.4 2.44-3.92v-.02Zm6.07 7.82h4.22c.2.46.54.84.96 1.09.43.24.92.34 1.41.27 1.67 0 2.55-.94 2.55-2.3V27.3h-.09a4.25 4.25 0 0 1-1.63 1.88c-.71.44-1.54.65-2.37.6-3.2 0-5.33-2.52-5.33-6.86s2.02-7.08 5.39-7.08c.86-.03 1.7.2 2.43.68a4.3 4.3 0 0 1 1.61 1.99v-2.53h4.4v13.76c0 3.3-2.83 5.36-7 5.36-3.89 0-6.3-1.8-6.55-4.3v-.02Zm9.15-7.83c0-2.2-.98-3.6-2.53-3.6-1.55 0-2.5 1.38-2.5 3.6s.93 3.48 2.5 3.48c1.57 0 2.53-1.23 2.53-3.46v-.02Zm6.05 0c0-4.54 2.7-7.24 6.86-7.24s6.87 2.7 6.87 7.24-2.64 7.26-6.87 7.26-6.86-2.63-6.86-7.25v-.01Zm9.3 0c0-2.5-.95-3.96-2.44-3.96-1.5 0-2.36 1.53-2.36 3.99s.92 3.93 2.42 3.93 2.39-1.4 2.39-3.93v-.03Zm6.1-10.26c-.01-.46.1-.91.35-1.3a2.18 2.18 0 0 1 3.44-.44 2.38 2.38 0 0 1-.26 3.57c-.37.26-.8.4-1.25.42a2.08 2.08 0 0 1-1.6-.6 2.21 2.21 0 0 1-.68-1.62v-.03Zm0 3.32h4.4V29.9h-4.4V16Zm20.35 6.94c0 4.54-1.95 7.12-5.3 7.12-.85.06-1.7-.16-2.43-.62a4.28 4.28 0 0 1-1.66-1.95h-.09v6.83h-4.4V15.98h4.4v2.48h.09a4.3 4.3 0 0 1 1.62-2 4.1 4.1 0 0 1 2.45-.68c3.37.06 5.38 2.66 5.38 7.2l-.06-.03Zm-4.4 0c0-2.2-.98-3.61-2.52-3.61s-2.52 1.42-2.53 3.61c-.02 2.2 1 3.6 2.53 3.6 1.54 0 2.52-1.38 2.52-3.57v-.03Zm11.94-7.26c3.65 0 5.86 1.79 5.96 4.64h-4c0-.98-.79-1.6-2-1.6-1.22 0-1.76.49-1.76 1.2 0 .7.48.93 1.47 1.15l2.8.58c2.69.6 3.83 1.71 3.83 3.81 0 2.88-2.53 4.72-6.27 4.72-3.73 0-6.18-1.84-6.37-4.67h4.23c.13 1.03.93 1.63 2.22 1.63 1.28 0 1.87-.44 1.87-1.16 0-.73-.41-.88-1.47-1.1l-2.53-.56c-2.62-.56-4-2-4-4.12.03-2.72 2.39-4.49 6.02-4.49v-.03Zm20.97 14.17h-4.24v-2.59h-.09a3.95 3.95 0 0 1-1.45 2.16c-.71.52-1.57.78-2.44.73a4.54 4.54 0 0 1-3.62-1.45 4.85 4.85 0 0 1-1.3-3.76v-8.97h4.39v7.92c0 1.65.82 2.53 2.18 2.53a2.18 2.18 0 0 0 1.7-.79 2.33 2.33 0 0 0 .53-1.83v-7.83h4.4l-.06 13.88Zm2.12-13.88h4.25v2.68h.09c.23-.86.73-1.61 1.42-2.14.7-.53 1.54-.81 2.4-.8.88-.07 1.75.2 2.44.76.7.56 1.15 1.37 1.3 2.27h.08c.27-.9.82-1.7 1.57-2.24a4.04 4.04 0 0 1 2.56-.79 4.15 4.15 0 0 1 3.22 1.35 4.45 4.45 0 0 1 1.18 3.37v9.45h-4.4v-8.24c0-1.51-.66-2.2-1.89-2.2a1.87 1.87 0 0 0-1.45.66 2 2 0 0 0-.47 1.57v8.2h-4.17v-8.3c0-1.38-.66-2.14-1.86-2.14a1.92 1.92 0 0 0-1.47.68 2.05 2.05 0 0 0-.48 1.59v8.18h-4.4l.08-13.9Z" fill="#fff"/><path d="M38.1 12.38a20.14 20.14 0 0 0-2.93-4.86 19.95 19.95 0 0 0-6.48-5.36A19.34 19.34 0 0 0 5.57 6.24a20.56 20.56 0 0 0-4.4 7.27A21.06 21.06 0 0 0 2.4 30.2a20.3 20.3 0 0 0 10.1 9.28c2.35 1 4.87 1.5 7.42 1.51a19.56 19.56 0 0 0 14.01-6.01 20.84 20.84 0 0 0 5.81-14.47c0-2.8-.55-5.57-1.64-8.14Zm-18.2-8.2c2.3 0 4.55.51 6.63 1.5-.5.23-1.04.39-1.58.47A8.3 8.3 0 0 0 20.2 8.6a8.77 8.77 0 0 0-2.37 4.89 4.6 4.6 0 0 1-1.3 2.73 4.34 4.34 0 0 1-2.67 1.27 8.3 8.3 0 0 0-4.73 2.45 8.77 8.77 0 0 0-2.37 4.88c-.1 1-.5 1.92-1.16 2.63a16.78 16.78 0 0 1 .94-15.72 16.04 16.04 0 0 1 5.74-5.57 15.44 15.44 0 0 1 7.63-2.02l-.01.03ZM7.8 31.1l.52-.5a8.38 8.38 0 0 0 2.37-4.88c.1-1.05.55-2.02 1.28-2.75a4.1 4.1 0 0 1 2.65-1.3 8.3 8.3 0 0 0 4.73-2.45 8.77 8.77 0 0 0 2.37-4.89c.07-1.09.52-2.12 1.28-2.88a4.15 4.15 0 0 1 2.68-1.26 7.93 7.93 0 0 0 4.4-2.16 15.77 15.77 0 0 1 3.45 4.2 4.16 4.16 0 0 1-2.84 1.54 8.27 8.27 0 0 0-4.74 2.45 8.74 8.74 0 0 0-2.37 4.89 4.6 4.6 0 0 1-1.27 2.75 4.34 4.34 0 0 1-2.67 1.3 8.34 8.34 0 0 0-4.75 2.44 8.81 8.81 0 0 0-2.4 4.89 4.85 4.85 0 0 1-.71 2.07 16.09 16.09 0 0 1-3.99-3.46Zm12.1 5.83c-1.48 0-2.96-.2-4.39-.63.5-.94.8-1.97.94-3.02.1-1.04.55-2.01 1.26-2.75a4.34 4.34 0 0 1 2.67-1.3 8.3 8.3 0 0 0 4.74-2.45 8.77 8.77 0 0 0 2.38-4.89c.1-1.04.54-2 1.26-2.74a4.34 4.34 0 0 1 2.66-1.31 8.22 8.22 0 0 0 3.75-1.51 16.86 16.86 0 0 1-2.75 14.13 15.97 15.97 0 0 1-5.54 4.7 15.45 15.45 0 0 1-6.97 1.7v.07Z" fill="#C40B0B"/></svg>