<svg width="694" height="552" fill="none" xmlns="http://www.w3.org/2000/svg"><path d="M590.69 495.69a4.85 4.85 0 1 1-9.7 0 4.85 4.85 0 0 1 9.7 0ZM637.68 537.7a4.84 4.84 0 1 0 0-9.7 4.84 4.84 0 0 0 0 9.7ZM619.44 522.9a10.33 10.33 0 1 0 0-20.67 10.33 10.33 0 0 0 0 20.66Z" stroke="#4D2C5E" stroke-opacity=".1" stroke-width="2" stroke-miterlimit="10" stroke-linecap="round" stroke-linejoin="round"/><path d="m637.44 512.57-3.44 6.02-1.83 6.7-6.7 1.82-6.02 3.45-6.03-3.45-6.7-1.82-1.83-6.7-3.45-6.02 3.45-6.03 1.82-6.7 6.7-1.83 6.04-3.45 6.02 3.45 6.7 1.82 1.83 6.7 3.44 6.04Z" stroke="#4D2C5E" stroke-opacity=".1" stroke-width="2" stroke-miterlimit="10" stroke-linecap="round" stroke-linejoin="round"/><path d="M632.84 532.85a4.85 4.85 0 0 1 8.47-3.2 27.76 27.76 0 1 0-7.2 6.47c-.78-.86-1.27-2-1.27-3.27Z" stroke="#4D2C5E" stroke-opacity=".1" stroke-width="2" stroke-miterlimit="10" stroke-linecap="round" stroke-linejoin="round"/><path d="M619.44 475a37.52 37.52 0 0 0-31.12 16.53 4.84 4.84 0 0 1-4.33 8.64A37.57 37.57 0 1 0 619.45 475Z" stroke="#4D2C5E" stroke-opacity=".1" stroke-width="2" stroke-miterlimit="10" stroke-linecap="round" stroke-linejoin="round"/><path d="m190.84 80.23-23.3-7.92a4.71 4.71 0 0 1 3.02-8.92l23.3 7.92a4.7 4.7 0 0 1-3.02 8.92ZM187.78 89.25l-23.3-7.92a4.7 4.7 0 1 1 3.02-8.9l23.3 7.9a4.7 4.7 0 0 1-3.02 8.92Z" stroke="#4D2C5E" stroke-opacity=".1" stroke-width="3" stroke-miterlimit="10"/><path d="m167.06 39.05.07.24c.53 1.66 3.6 12.19 2.31 23.88l25 8.25c5.93-10.16 14.67-16.78 16.08-17.81l.19-.14a28.28 28.28 0 0 0 10.38-14.15 28.4 28.4 0 1 0-54.03-.27ZM165.75 81.88a11.22 11.22 0 0 0 20.47 6.95l-20.47-6.95Z" stroke="#4D2C5E" stroke-opacity=".1" stroke-width="3" stroke-miterlimit="10"/><path d="m177.27 65.62 7.43-22.52a4.23 4.23 0 1 0-5.34 2.7l8.92 2.94" stroke="#4D2C5E" stroke-opacity=".1" stroke-width="3" stroke-miterlimit="10"/><path d="m187.07 68.85 7.43-22.5a4.23 4.23 0 1 1 2.69 5.33l-8.92-2.94" stroke="#4D2C5E" stroke-opacity=".1" stroke-width="3" stroke-miterlimit="10"/><path d="m226.37 47.08 7.53 2.48M229.82 37.6l7.84-1.19M221.1 55.21l5.6 5.62M156.44 24l-7.53-2.49M159.32 14.32l-5.6-5.62M155.84 33.67 148 34.85" stroke="#4D2C5E" stroke-opacity=".1" stroke-width="3" stroke-miterlimit="10" stroke-linecap="round"/><path d="M78 259.58 8.78 238.9a9.5 9.5 0 0 1-6.39-11.84l13.82-46.28a9.5 9.5 0 0 1 11.83-6.39l69.2 20.67a9.5 9.5 0 0 1 6.4 11.84l-13.82 46.28a9.52 9.52 0 0 1-11.84 6.39ZM4.03 221.6l87.43 26.12" stroke="#4D2C5E" stroke-opacity=".1" stroke-width="4" stroke-miterlimit="10" stroke-linecap="round"/><path d="M47.96 242.24a2.38 2.38 0 1 1-4.56-1.36 2.38 2.38 0 0 1 4.56 1.36Z" fill="#4D2C5E"/><path d="m53.2 252.18-19.6-5.86-2.64 8.85 19.6 5.85 2.64-8.84ZM23.69 253.5l33.84 10.1" stroke="#4D2C5E" stroke-opacity=".1" stroke-width="4" stroke-miterlimit="10" stroke-linecap="round"/><path d="M613.28 81.84c21.7 0 39.28-8.34 39.28-18.62 0-10.29-17.59-18.62-39.28-18.62-21.7 0-39.28 8.33-39.28 18.62 0 10.28 17.59 18.62 39.28 18.62Z" stroke="#4D2C5E" stroke-opacity=".1" stroke-width="3" stroke-miterlimit="10" stroke-linecap="round" stroke-linejoin="round"/><path d="M629.16 72.92c11.29-18.53 13.31-37.88 4.53-43.23-8.79-5.35-25.05 5.34-36.33 23.87-11.28 18.53-13.3 37.88-4.52 43.23 8.78 5.35 25.04-5.34 36.32-23.87Z" stroke="#4D2C5E" stroke-opacity=".1" stroke-width="3" stroke-miterlimit="10" stroke-linecap="round" stroke-linejoin="round"/><path d="M633.68 96.78c8.78-5.35 6.76-24.7-4.52-43.23-11.28-18.53-27.55-29.22-36.33-23.87-8.78 5.35-6.76 24.7 4.52 43.23 11.28 18.53 27.55 29.22 36.33 23.87Z" stroke="#4D2C5E" stroke-opacity=".1" stroke-width="3" stroke-miterlimit="10" stroke-linecap="round" stroke-linejoin="round"/><path d="M613.28 68.14a4.93 4.93 0 1 0 0-9.85 4.93 4.93 0 0 0 0 9.85Z" stroke="#4D2C5E" stroke-opacity=".1" stroke-width="3" stroke-miterlimit="10" stroke-linecap="round" stroke-linejoin="round"/><path d="m92.29 513.64-32.43 7.49-1.46-6.32a2.72 2.72 0 0 1 2.03-3.27l27.14-6.27a2.73 2.73 0 0 1 3.26 2.04l1.46 6.33Z" stroke="#4D2C5E" stroke-opacity=".1" stroke-width="3" stroke-miterlimit="10" stroke-linecap="round"/><path d="M81.63 479.64a33.25 33.25 0 1 0-41.74-51.77 33.25 33.25 0 0 0 41.74 51.77Z" stroke="#4D2C5E" stroke-opacity=".1" stroke-width="3" stroke-miterlimit="10"/><path d="m76.23 483.18-31-58.83-3.88-7.14a41.37 41.37 0 1 0 38.59 73.2l-3.79-7.19" stroke="#4D2C5E" stroke-opacity=".1" stroke-width="3" stroke-miterlimit="10" stroke-linecap="round" stroke-linejoin="round"/><path d="M52.06 437.24c10.15-5.35 16.85-12.59 14.97-16.16-1.88-3.56-11.64-2.12-21.79 3.23-10.15 5.36-16.86 12.59-14.97 16.16 1.88 3.57 11.63 2.12 21.79-3.23ZM54.44 486.4a33.1 33.1 0 0 0 21.8-3.22 33.15 33.15 0 0 0 14.98-16.16 33.1 33.1 0 0 0-21.8 3.23 33.12 33.12 0 0 0-14.98 16.16Z" stroke="#4D2C5E" stroke-opacity=".1" stroke-width="3" stroke-miterlimit="10"/><path d="M76.26 483.14c8.12-4.28 7.76-20.92-.8-37.17-8.57-16.24-22.1-25.94-30.22-21.66-8.12 4.28-7.76 20.92.8 37.17 8.57 16.24 22.1 25.94 30.22 21.66ZM31.31 469.27l58.83-31.01M70.39 494.03l3.43 14.32" stroke="#4D2C5E" stroke-opacity=".1" stroke-width="3" stroke-miterlimit="10"/><path d="m55.96 522.46 41.35-9.91" stroke="#4D2C5E" stroke-opacity=".1" stroke-width="3" stroke-miterlimit="10" stroke-linecap="round"/><path d="m669.73 404.02 17.3-17.3-47.95-47.95-17.3 17.3 47.95 47.95Z" stroke="#4D2C5E" stroke-opacity=".1" stroke-width="3" stroke-miterlimit="10" stroke-linecap="round" stroke-linejoin="round"/><path d="m691.71 408.7-4.68-21.99-17.3 17.31 21.98 4.69ZM689.53 398.44l-8.08 8.08M616.68 342.88l9.2-9.2a5.73 5.73 0 0 1 8.1 0l5.1 5.09-17.31 17.3-5.09-5.08a5.73 5.73 0 0 1 0-8.1ZM643.75 343.44l-17.3 17.31M678.38 395.37 635.1 352.1" stroke="#4D2C5E" stroke-opacity=".1" stroke-width="3" stroke-miterlimit="10" stroke-linecap="round" stroke-linejoin="round"/></svg>