<svg width="933" height="618" fill="none" xmlns="http://www.w3.org/2000/svg"><circle cx="729" cy="204" r="179" stroke="#F2C94C" stroke-opacity=".2" stroke-width="50"/><g opacity=".8"><path opacity=".5" d="M460.64 234.43c-31.24-4.62-60.83-17.34-86.38-36.65-38.15-28.82-117.98-77.87-194.14-53.44-105.04 33.7-105.51 131.18-78.15 184.13 27.36 52.95 221.38 208.02 472.94 183.35C800 489.75 843.86 237 723.8 191.27c-104.11-39.65-139.64 61.42-263.17 43.16ZM784.7 207.54c5.39 0 9.76-4.7 9.76-10.51s-4.37-10.52-9.77-10.52c-5.4 0-9.76 4.7-9.76 10.52 0 5.8 4.37 10.51 9.76 10.51Z" fill="#CED3E6"/><path opacity=".8" d="M147.46 127.75c3-.55 6.03 1.1 7.08 3.96 1.8 4.88-2.9 10.35-9.25 7.9-5.46-4.05-3.07-10.89 2.17-11.86ZM767.03 112.04a12.74 12.74 0 0 0 0-18 12.7 12.7 0 0 0-17.98 0 12.74 12.74 0 0 0 0 18 12.7 12.7 0 0 0 17.98 0ZM186 117.71a12.84 12.84 0 1 1-24.73 6.94 12.85 12.85 0 0 1 8.9-15.84 12.83 12.83 0 0 1 15.84 8.9ZM694.19 500.76a6.3 6.3 0 0 1 7.69 2.57c2.67 4.46-.94 10.7-7.63 9.48-6.11-2.96-5.05-10.13-.06-12.05ZM730.19 483.71a12.85 12.85 0 1 1-23.01 11.43 12.85 12.85 0 0 1 23-11.43ZM741.91 83.55a7.82 7.82 0 1 1-15.64 0 7.82 7.82 0 0 1 15.64 0Z" fill="#CED3E6"/></g><path opacity=".8" d="M762.75 225.4c-.02-69.95-58.2-146.6-130.6-151.22a181.4 181.4 0 0 0-3.86-.21c-103.8-4.85-111.7 121.89-205.63 136.19-93.92 14.3-165.64-57.87-278.02-10.8-100.93 42.3-128.26 279.88 168.29 289.41 237.26 7.62 449.84-54.69 449.81-263.38Z" fill="#CED3E6"/><path d="M476.34 574.5c131.79 0 238.63-5.51 238.63-12.32 0-6.8-106.84-12.32-238.63-12.32-131.8 0-238.63 5.52-238.63 12.32 0 6.81 106.84 12.33 238.63 12.33Z" fill="#CED3E6"/><path d="M631.54 562.12H314.87v-13.73c0-11.43 9.26-20.7 20.68-20.7h275.32a20.69 20.69 0 0 1 20.67 20.7v13.73ZM529.71 453.92H414.92v73.76h114.8v-73.76Z" fill="#fff"/><path d="m414.92 476.56 114.78-9.19.02-13.45-114.78.13-.02 22.51Z" fill="#CED3E6"/><path d="M717.91 149.3v289.3c0 8.47-6.87 15.34-15.33 15.34H231.97a15.35 15.35 0 0 1-15.34-15.35V149.3c0-8.47 6.87-15.35 15.34-15.35h470.6l.68.01.5.03h.01c.12.01.23.01.35.04l.6.06a4 4 0 0 1 .39.07l.18.02a15.35 15.35 0 0 1 12.64 15.12Z" fill="#fff"/><path d="M479.13 441.2a10.61 10.61 0 0 0-13.84-16.07 10.62 10.62 0 0 0 13.84 16.06Z" fill="#CED3E6"/><path d="m705.67 134.26-.38-.08-.18-.02a4 4 0 0 0-.39-.07c-.2-.02-.39-.05-.6-.06l-.35-.04h-.01c-.17-.01-.33-.03-.5-.03l-.67-.01H231.97a15.35 15.35 0 0 0-15.34 15.35v267.9h501.28V149.3c0-7.42-5.25-13.6-12.24-15.04Zm-7.64 256.17a4.17 4.17 0 0 1-4.17 4.17H240.68a4.17 4.17 0 0 1-4.17-4.17v-232.4a4.17 4.17 0 0 1 4.17-4.18h453.18a4.17 4.17 0 0 1 4.17 4.18v232.4Z" fill="#39393B"/><path d="M698.03 158.03v232.4a4.17 4.17 0 0 1-4.17 4.17H240.68a4.17 4.17 0 0 1-4.17-4.17v-232.4a4.17 4.17 0 0 1 4.17-4.18h453.18c2.3 0 4.17 1.88 4.17 4.18Z" fill="#CED3E6"/><path d="M698.03 158.03v21.93H236.51v-21.93a4.17 4.17 0 0 1 4.17-4.18h453.18c2.3 0 4.17 1.88 4.17 4.18Z" fill="#fff"/><path d="M662.28 166.55a3.54 3.54 0 1 1-7.09.01 3.54 3.54 0 0 1 7.1 0Z" fill="#DF615C"/><path d="M673.77 166.55a3.54 3.54 0 1 1-7.08.02 3.54 3.54 0 0 1 7.08-.02Z" fill="#21B573"/><path d="M640.8 170.31H279.97a3.17 3.17 0 0 1-3.16-3.16v-1.18a3.17 3.17 0 0 1 3.16-3.16H640.8a3.17 3.17 0 0 1 3.16 3.16v1.18a3.16 3.16 0 0 1-3.16 3.16Z" fill="#D2DCEC"/><path d="M253.17 166.55v3.47c0 .5-.53.8-.96.55l-3-1.74-3-1.74a.64.64 0 0 1 0-1.1l3-1.75 3-1.74c.43-.25.96.06.96.54v3.51ZM258.46 166.55v3.47c0 .5.53.8.96.55l3-1.74 3-1.74a.64.64 0 0 0 0-1.1l-3-1.75-3-1.74a.64.64 0 0 0-.96.54v3.51Z" fill="#000"/><path d="m678.58 169.54-.2-.2a.85.85 0 0 1 0-1.21l4.8-4.83a.85.85 0 0 1 1.22 0l.2.21c.34.34.34.87 0 1.21l-4.81 4.82a.85.85 0 0 1-1.21 0Z" fill="#39393B"/><path d="m684.37 169.54.2-.2a.85.85 0 0 0 0-1.21l-4.8-4.83a.85.85 0 0 0-1.22 0l-.2.21a.85.85 0 0 0 0 1.21l4.81 4.82c.34.34.89.34 1.21 0Z" fill="#39393B"/><path d="M636.28 385.25H297.02a8.34 8.34 0 0 1-8.34-8.34V193.6a8.34 8.34 0 0 1 8.34-8.35h339.26a8.34 8.34 0 0 1 8.34 8.35v183.31a8.32 8.32 0 0 1-8.34 8.33Z" fill="#fff"/><path d="M386.87 332.52h-82.4a3.92 3.92 0 0 1-3.9-3.9v-42.87a3.92 3.92 0 0 1 3.9-3.91h82.4c2.16 0 3.91 1.75 3.91 3.91v42.86a3.91 3.91 0 0 1-3.9 3.91ZM627.1 247.87h-82.4a3.91 3.91 0 0 1-3.91-3.91v-42.87a3.91 3.91 0 0 1 3.9-3.9h82.4c2.16 0 3.92 1.75 3.92 3.9v42.87a3.91 3.91 0 0 1-3.91 3.9ZM388.72 244.57H302.5a2.08 2.08 0 0 1-2.08-2.08v-.2c0-1.14.92-2.08 2.08-2.08h86.22c1.14 0 2.07.92 2.07 2.08v.2a2.1 2.1 0 0 1-2.07 2.08ZM388.72 226.2H302.5a2.08 2.08 0 0 1-2.08-2.08v-.2c0-1.14.92-2.08 2.08-2.08h86.22c1.14 0 2.07.93 2.07 2.08v.2a2.09 2.09 0 0 1-2.07 2.08ZM388.72 262.92H302.5a2.08 2.08 0 0 1-2.08-2.08v-.2c0-1.14.92-2.07 2.08-2.07h86.22c1.14 0 2.07.92 2.07 2.08v.2a2.09 2.09 0 0 1-2.07 2.07ZM628.94 287.58h-86.07a2.08 2.08 0 0 1-2.08-2.08v-.2c0-1.13.92-2.07 2.08-2.07h86.07c1.15 0 2.08.92 2.08 2.08v.2a2.08 2.08 0 0 1-2.08 2.07ZM628.94 269.23h-86.07a2.08 2.08 0 0 1-2.08-2.08v-.2c0-1.14.92-2.08 2.08-2.08h86.07c1.15 0 2.08.93 2.08 2.08v.2a2.1 2.1 0 0 1-2.08 2.08ZM628.94 305.95h-86.07a2.08 2.08 0 0 1-2.08-2.08v-.2c0-1.14.92-2.07 2.08-2.07h86.07c1.15 0 2.08.92 2.08 2.08v.2a2.1 2.1 0 0 1-2.08 2.07Z" fill="#CED3E6"/><path d="M288.68 354.2h355.95v29.2c0 1.02-.83 1.85-1.84 1.85H290.52a1.84 1.84 0 0 1-1.84-1.84V354.2Z" fill="#39393B"/><path d="M619.1 365.71v-2.63h3.28v-2.34h-4.46c-.65 0-1.17.51-1.17 1.16v3.81h2.35ZM619.1 370.4h-2.34v4c0 .65.52 1.17 1.17 1.17h4.47v-2.34h-3.29v-2.84h-.01ZM629.24 365.71h2.34v-3.8c0-.66-.52-1.18-1.17-1.18h-4.28v2.34h3.11v2.64ZM629.24 370.4v2.83h-3.12v2.34h4.3c.64 0 1.16-.52 1.16-1.17v-4h-2.34Z" fill="#fff"/><path d="M644.63 348.36H288.68v5.84h355.95v-5.84Z" fill="#CED3E6"/><path d="M314.54 191.36h4v8.8h5.38v3.12h-9.38v-11.92ZM325.03 191.36h4.01v11.92h-4.01v-11.92ZM343.72 191.36l-5.04 11.92h-3.95l-5.04-11.92h4.33l2.84 6.97 2.9-6.97h3.96ZM354.02 200.24v3.03h-9.91v-11.93h9.69v3.03h-5.75v1.4h5.04v2.9h-5.03v1.57h5.96Z" fill="#39393B"/><path d="M307.93 197.22a4.9 4.9 0 1 1-9.8 0 4.9 4.9 0 0 1 9.8 0ZM598.24 328.56a4.3 4.3 0 1 1-8.6.01 4.3 4.3 0 0 1 8.6-.01ZM601.98 339.45H585.9s1.84-5.1 7.93-5.1H594.06a8.3 8.3 0 0 1 7.92 5.1Z" fill="#DF615C"/><path d="M616.81 325.95v2.7L612.48 339h-4.8l4.12-9.64h-2.5v1.9h-3.63v-5.3h11.14ZM628.24 335.58v3.4H617.8v-2.7l4.7-4.35c.9-.83 1.03-1.34 1.03-1.8 0-.63-.43-1.02-1.26-1.02-.78 0-1.52.43-1.92 1.2l-3.32-1.65c.95-1.79 2.84-3.01 5.64-3.01 3.1 0 5.26 1.6 5.26 4.08 0 1.29-.34 2.44-2.23 4.16l-1.86 1.69h4.4Z" fill="#39393B"/><path d="M563.45 233.3s3.2 10.33 11.25 11.15c6.5.65 11.57-6.21 13.28-8.88.42-.64.63-1.03.63-1.03s.46 0 1.16-.13c1.64-.24 4.5-.98 5.36-3.17 1.22-3.1-4.97-4.24-4.97-4.24s2.65-3.13 1.63-4.99c-1.01-1.83-5.14-1.66-5.14-1.66s3.97-3.46 2.16-5.73c-2.72-3.42-6.67 1.3-7 1.58.24-.36 10.43-15.88 7.19-16.5-2.84-.55-12.22 11.98-14.73 15.4l-.62.87-.54-.28c-1.6-.78-6.46-2.76-9 .03-3.05 3.37-.66 17.59-.66 17.59Z" fill="#EA9B7A"/><path d="M583.26 228.9c-1.23.98-2.24 2.2-2.47 3.33-.14.73.03 1.37.5 1.85.33.33.85.6 1.47.79 1.56.5 3.74.65 5.21.69.42-.64.62-1.03.62-1.03s.48-.01 1.17-.12a.62.62 0 0 0-.34-.09c-2.32.06-6.35-.2-7.25-1.11-.12-.12-.25-.32-.17-.72.26-1.24 2.26-3.12 4.11-3.85a.62.62 0 0 0-.32-1.2c-1.52.24-5.75.58-7.08-.76-.2-.2-.17-.31-.16-.38.07-.3.38-.64.82-.99.91-.71 2.38-1.45 3.47-1.88a.58.58 0 0 0 .29-.24.6.6 0 0 0 .06-.57.61.61 0 0 0-.8-.35c-.49.2-2.19.89-3.5 1.85-.47.35-.9.73-1.18 1.14-.18.26-.31.52-.38.8-.07.38-.06.96.5 1.52 1.18 1.15 3.54 1.37 5.43 1.32Z" fill="#D46A43"/><path d="M577.23 219.84c.18.18.25.44.14.69a4.03 4.03 0 0 0-.4 1.96c.06.4.25.55.4.61.25.12.63.16 1.08.15a18 18 0 0 0 4.23-.93.64.64 0 0 1-.28.24c-1.1.43-2.56 1.17-3.47 1.88a5.24 5.24 0 0 1-1.68-.07 1.92 1.92 0 0 1-1.53-1.7c-.11-.76.1-1.7.48-2.63.17-.4.68-.5 1-.21l.03.01Z" fill="#D46A43"/><path d="M566.09 221.92c.13.1 2.17 1.42 4.43 2.16 1.26.4 2.58.64 3.68.35a3.05 3.05 0 0 0 2.06-1.57c1.58-2.9-.56-6.11-2-7.76-.4.54-.61.85-.61.85l-.54-.27c1.22 1.35 3.34 4.21 2.05 6.57-.27.5-.68.81-1.25.96-2.15.53-5.89-1.51-7.15-2.34a.6.6 0 0 0-.85.18c-.19.3-.1.69.18.87ZM572.46 238.66c.21.07.45.03.62-.13a.63.63 0 0 0 .05-.88 5.64 5.64 0 0 1-1.59-4.5c.48-4.1 5.38-7.58 5.43-7.62a.63.63 0 0 0-.71-1.02c-.22.15-5.42 3.83-5.96 8.49a6.8 6.8 0 0 0 1.9 5.47c.07.1.16.17.26.2Z" fill="#D46A43"/><path d="m494.8 187.48 6.33 16.02c.95 2.68 1.9 5.36 2.88 8.02.96 2.67 1.94 5.32 2.92 7.96 1 2.64 1.98 5.26 2.98 7.85s2.04 5.15 3.07 7.63c1.03 2.48 2.1 4.91 3.15 7.08a55.52 55.52 0 0 0 1.5 2.88l.29.52.12.2.04.1.06.22c.01.1-.02.17.03.26.04.1.2.23.52.39.66.3 2.09.5 3.88.43 1.8-.08 3.93-.44 6.15-1.02a66.34 66.34 0 0 0 6.94-2.2c4.73-1.8 9.57-4.08 14.35-6.62 4.8-2.54 8.31-4.58 12.97-7.5 1.5 6.92 6.38 12.51 13.46 15.18a169.23 169.23 0 0 1-14.29 11.62 130.94 130.94 0 0 1-16.1 10.09 84.64 84.64 0 0 1-9.22 4.19 57.79 57.79 0 0 1-10.73 2.99 41.4 41.4 0 0 1-6.3.6 35.1 35.1 0 0 1-7.1-.6 28.98 28.98 0 0 1-17.42-10.4l-.6-.77-.51-.68-.47-.65-.44-.63a76.99 76.99 0 0 1-2.9-4.65c-1.7-2.93-3.14-5.73-4.54-8.51a304.72 304.72 0 0 1-7.52-16.54c-1.16-2.74-2.3-5.48-3.42-8.24a541.1 541.1 0 0 1-6.32-16.55l-1.5-4.17-.72-2.1-.73-2.15 29.2-10.25Z" fill="#21B573"/><path d="M512.02 254.12c.25 0 .49-.1.64-.32.03-.04 3.08-4.09 5.73-5.98a.8.8 0 0 0 .18-1.12.8.8 0 0 0-1.12-.18c-2.86 2.04-5.95 6.15-6.08 6.31a.8.8 0 0 0 .65 1.3Z" fill="#217C58"/><path d="M517.45 254.91h.17a.8.8 0 0 0 .61-.96c-.01-.04-.74-3.43-.01-5.99a.8.8 0 0 0-.55-.99.8.8 0 0 0-.98.55c-.85 2.95-.06 6.63-.02 6.78.08.37.4.61.78.61Z" fill="#217C58"/><path d="M510.04 340.27c-14.78 8.52-50.5 12.9-73.8 3.64-8.55-3.39-10.06-5.48-9.4-20.85l.07-1.71c.06-1.21.14-2.42.23-3.62.04-.58.1-1.16.13-1.73.17-2.14.38-4.25.61-6.26l.19-1.66a95.12 95.12 0 0 1 2.58-13.27c.83-3.07 1.5-4.91 1.5-4.91 3.75.6 7.62.96 11.51 1.12l1.65.05c20.16.53 40.66-4.03 50.17-6.51a45 45 0 0 0 1.6-.43c2.46-.67 3.87-1.1 3.87-1.1s.87 1.53 2.09 4.05c.22.47.46.96.7 1.5a83.85 83.85 0 0 1 5.8 16.48c.03.07.04.15.06.23l.35 1.64.06.32c.96 4.57 1.85 9.36 2.44 13.94l.22 1.75c1.19 10.07 1.37 15.03-2.63 17.33Z" fill="#39393B"/><path d="m510.04 307.27-.1-.06c-3-1.63-5.66-4.12-7.93-7.4-.31-.45-.6-.92-.9-1.4-2.3-3.72-4.18-8.34-5.62-13.84.57-.14 1.1-.29 1.6-.43 1.42 5.43 3.26 9.96 5.5 13.55.3.48.62.93.93 1.39a21.87 21.87 0 0 0 6.05 5.99c.03.08.04.16.05.23l.35 1.64c.01.1.04.22.07.33ZM445.32 291.08c-.64 5.8-1.94 10.7-3.84 14.7-.25.51-.5 1.03-.8 1.51a22.44 22.44 0 0 1-5.7 6.9 17.84 17.84 0 0 1-7.84 3.54c.04-.58.1-1.16.13-1.73a16.24 16.24 0 0 0 6.72-3.14 20.26 20.26 0 0 0 5-5.9c.28-.49.56-1 .82-1.51 1.92-3.87 3.2-8.68 3.88-14.43.53.02 1.08.05 1.63.06Z" fill="#585859"/><path d="M503.75 288.58a127.26 127.26 0 0 1-5.23 2.19c-7.61 2.98-17.57 6.03-28.33 7.14l-1.23.11c-9.75.9-19.69.48-27.87-.28-.58-.06-1.15-.1-1.73-.17a189.3 189.3 0 0 1-9.13-1.15l.42-1.6a214.85 214.85 0 0 0 11.1 1.33c8.33.75 18.44 1.13 28.28.12 10.49-1.08 20.22-4.06 27.68-6.96l1.55-.6c1.35-.55 2.6-1.09 3.78-1.6.23.45.46.95.71 1.47Z" fill="#585859"/><path d="M526.7 410.55c-2.16-33.36-7.05-64.28-14.22-89.35l-39.62 18.48c1.23 30.35 7.32 51.38 14.33 70.87h39.5Z" fill="#39393B"/><path d="M493.6 410.55c-11.5-32.82-13.51-59.68-13.54-60.03a.84.84 0 0 0-.88-.77.82.82 0 0 0-.76.88c.02.34 2.03 27.1 13.44 59.92h1.74Z" fill="#585859"/><path d="M464.97 410.55c2.44-23.7 5.26-52.8 5.63-64.08l-43.77-23.42s-7.71 26.65-2.65 87.49h40.8v.01Z" fill="#39393B"/><path d="m460.97 410.55 7.34-60.68a.92.92 0 0 0-.82-1.04.92.92 0 0 0-1.04.82l-7.36 60.9h1.88ZM474.4 341.1c.05.46.47.77.91.73h.01a.83.83 0 0 0 .73-.92 898.9 898.9 0 0 1-1.22-11.05 1219.7 1219.7 0 0 1-2.5-27.66l-.14-1.7-.32-4.15h-1.66l.32 4.2c.04.54.1 1.1.13 1.69.57 7.12 1.43 17.18 2.5 27.44l.16 1.7c.34 3.26.7 6.54 1.08 9.73Z" fill="#585859"/><path d="M470.29 330.73c.27.08 1.5.44 3.03.64a13.85 13.85 0 0 0 3.25.09c1-.12 1.92-.38 2.66-.91.91-.66 1.4-1.67 1.42-2.9.06-3.25-.87-16.47-1.59-25.8-.04-.58-.07-1.14-.13-1.68l-.3-4-1.66.06c.1 1.16.2 2.53.31 4.06.04.54.08 1.1.14 1.67.7 9.32 1.63 22.52 1.57 25.66-.02.73-.25 1.24-.74 1.6-.8.57-2.1.7-3.43.64a20.3 20.3 0 0 1-4.06-.7.82.82 0 1 0-.47 1.57Z" fill="#585859"/><path d="m420.42 200.94 63.16-1.63c-1.96-2.74-1.78-28.95-2.65-34.35-.9-5.58-.2-16.66.63-25.7 1.6-17.37-12.48-32.26-29.88-31.4l-.8.04c-26.56 1.69-28.5 24.46-26.04 38.26 2.26 12.54 3.84 46.77-4.42 54.78Z" fill="#39393B"/><path d="m434.12 283.06 5.09 21.38c12.73-1 27.78-2.86 39.11-8.72 0 0 15.1 5.08 22.77 2.72l-5.61-15.37h-61.36v-.01Z" fill="#fff"/><path d="M508.9 298.88c-14.68-.1-23.49-2-31.48-8.57-15.02 15.62-52.1 16.21-52.1 16.21 3.72-11.98 4.93-33.18 4.93-33.18-.3-2.2-.46-4.49-.7-6.82a46.63 46.63 0 0 0-1.13-6.98c-3.67-10.57-7.94-18.15-11.74-29.08l-.76-2.12-.5-1.38c-1.25-3.41-2.6-6.82-4-10.1-6.15-14.3-7.13-30.46 7.63-35.38l3.16-1.03a229.07 229.07 0 0 1 14.87-4.16l31 2.58 2.94.24c4.34.48 8.93.37 11.82 1 2.55.56 4.1.43 6.7 1.2 6.1 1.8 5.93 10.03 7.82 20.25l.1.54.03.16c.34 1.75.73 3.46 1.18 5.17.51 1.9 1.07 3.78 1.65 5.6 3.57 11.22 7.89 16.37 7.15 23.44-.68 6.4-7.19 15.12-8.91 16.98-.4.43-.64.66-.64.66l.01.1.1.8c.12 1.09.32 2.36.55 3.82.54 5.4 1.3 10.3 2.16 14.65.47 2.35.96 4.55 1.48 6.58 3.1 12.28 6.67 18.82 6.67 18.82Z" fill="#21B573"/><path d="M502.22 280.03c-4.2 2.22-7.59 3.7-7.59 3.7l-3.13-5.9c3-1.07 6.21-2.67 9.24-4.39.69 1.83 1.32 3.7 1.48 6.6ZM434.58 274.5s14.1 5.99 24.55 7l-1.6 6.49s-17.1-2.82-23.95-7.71l1-5.79ZM500.45 252.48c.21 0 .42-.07.59-.24.39-.4 9.33-9.97 6.22-18.7-.87-2.43-1.87-4.87-2.95-7.46-3.25-7.88-6.92-16.8-7.86-28.37a.8.8 0 0 0-.85-.72.79.79 0 0 0-.73.85c.96 11.82 4.69 20.87 7.97 28.85 1.07 2.58 2.07 5 2.93 7.4 2.79 7.8-5.78 16.96-5.88 17.06-.3.32-.28.83.03 1.13.13.14.32.2.53.2ZM474.4 218.38a1.74 1.74 0 1 1-3.48 0 1.74 1.74 0 0 1 3.48 0ZM477 233.82a1.74 1.74 0 1 1-3.48 0 1.74 1.74 0 0 1 3.48 0ZM478.54 249.5a1.74 1.74 0 1 1-3.48 0 1.74 1.74 0 0 1 3.48 0ZM479.22 265.63a1.74 1.74 0 1 1-3.48 0 1.74 1.74 0 0 1 3.48 0ZM479.14 282.4a1.74 1.74 0 1 1-3.48 0 1.74 1.74 0 0 1 3.48 0ZM464.5 178.84s6.73-.61 11.46.65l-.5 17.7-4.03.88 3.39 3.34-4.07 11.88c0-.03-5.56-19.79-6.24-34.45Z" fill="#217C58"/><path d="m437.06 176.3-12.3 3.36 14.46 19.24 10.84-.87-3.8 8.3 24.5 6.92s-28.37-26.96-30.64-36.71l-3.06-.25Z" fill="#217C58"/><path d="M439.22 177.73s7.08 15.08 31.53 35.52c0 0-1.3-16.08-6.23-33.32 0 .01-14.4 5.03-25.3-2.2Z" fill="#fff"/><path d="M474.15 225.89c-8.05 0-24.49-11.55-25.19-12.04a.66.66 0 0 1 .77-1.08c.17.12 16.79 11.8 24.42 11.8 7.32 0 8.93-8 8.95-8.07.07-.36.42-.6.78-.52.37.06.6.42.52.78-.01.06-1.86 9.13-10.25 9.13Z" fill="#217C58"/><path d="m464.5 178.84.33 4.17c.62 7.79-4.92 10-12.97 5.88-6.37-3.26-11.77-8.13-12.65-11.14l25.3 1.09Z" fill="#EA9B7A"/><path d="M452.97 258.39a.71.71 0 0 0 .98.27c.12-.07 11.75-6.63 25.96-3.85 7.22 1.4 13.35 1.26 18.11.2l-.09-.81v-.1l.63-.65c-4.67 1.18-10.9 1.41-18.38-.06a41.87 41.87 0 0 0-26.95 4.02.72.72 0 0 0-.26.98Z" fill="#217C58"/><path d="M477.8 126.84s3.56 14.05 1.28 16.5c-2.29 2.45-5.68-2.81-5.68-2.81s1.68-13.12 4.4-13.7Z" fill="#39393B"/><path d="M473.86 145.46s3.7-4.37 5.79 0c2.09 4.36.48 13.22-5.14 11.77l-.65-11.77Z" fill="#D46A43"/><path d="M470.61 156.32a6.03 6.03 0 1 0 2.9-.56c-.13-.37-.26-.75-.42-1.11h.06a7.17 7.17 0 0 1 7.13 7.14 7.14 7.14 0 1 1-10.66-6.2l.99.73Z" fill="#fff"/><path d="M464.52 167.88v12.05s-6.35 10.41-25.3-2.2c3.58-4.01 3.7-11.76 2.25-16.39 0 0 1.39.94 3.69 1.96l1.5.65c4.73 2 11.86 4.4 17.86 3.93Z" fill="#EA9B7A"/><path d="M464.52 167.88v5.64c-5.16-1.14-14.18-3.96-19.36-10.22l1.5.65c4.73 2 11.86 4.4 17.86 3.93Z" fill="#39393B"/><path d="M474.82 163.94c-10.12 10.48-32.57-2.03-33.3-2.43l-.01-.01a73.5 73.5 0 0 1-1.29-24.69 16.6 16.6 0 0 1 10.75-16.5c7.07-2.57 13.4.54 17.21 1.7 5.74 1.77 9.37 9.21 9.4 19.8 0 13-.26 19.53-2.76 22.13Z" fill="#EA9B7A"/><path d="M476.35 129.72c-2.34.33-4.74.58-7.2.77l-1.36-6.47-.44 6.6c-4.55.31-9.26.43-14.1.43l-.6-6.81-1.33 6.81c-3.58-.01-7.22-.09-10.88-.2-2.93-13.58 11.78-19.5 24.16-16.67 12.36 2.83 11.75 15.54 11.75 15.54Z" fill="#39393B"/><path d="M449.83 126.84s-4.56 6.08-2.06 11.74c2.49 5.65.75 11.2-.43 15.31 0 0-2.59-9.1-8.68-10.79-6.09-1.7-2.95-18.38 11.17-16.26Z" fill="#39393B"/><path d="M466.13 158.22a5.5 5.5 0 0 0 2.48-.18.44.44 0 0 0 .27-.55.44.44 0 0 0-.54-.27c-.03.01-2.12.69-3.86-.59a.43.43 0 0 0-.61.1c-.14.2-.1.46.09.6.73.54 1.48.79 2.17.9Z" fill="#D46A43"/><path d="M472.56 151.45s-7.04 2.46-12.33-1.03c0 0 1.86 4.76 6.42 5.21 4.56.45 5.9-4.18 5.9-4.18Z" fill="#fff"/><path d="M461.35 132.17s2.1.2 1.36 2.13c-.74 1.92-4.94-.2-7.96 3.35 0 .02-1.28-4.61 6.6-5.48ZM470.87 132.17s-2.1.2-1.36 2.13c.74 1.92 4.94-.2 7.96 3.35 0 .02 1.28-4.61-6.6-5.48Z" fill="#39393B"/><path opacity=".8" d="M460.2 146.46c0 .97-2 1.78-4.5 1.78s-4.5-.8-4.5-1.78 2-1.78 4.5-1.78 4.5.8 4.5 1.78Z" fill="#D46A43"/><path d="M478.57 148.19c-.35.03-.71.05-1.09.05-2.5 0-4.5-.8-4.5-1.78s2-1.78 4.5-1.78c.34 0 .66 0 .97.03l.12 3.47Z" fill="#D46A43"/><path d="M460.73 141.8c0 1.35-.61 2.45-1.37 2.45-.75 0-1.36-1.1-1.36-2.45s.61-2.44 1.36-2.44c.76.01 1.37 1.1 1.37 2.44ZM474.04 141.8c0 1.35-.61 2.45-1.37 2.45-.75 0-1.36-1.1-1.36-2.45s.61-2.44 1.37-2.44c.75.01 1.36 1.1 1.36 2.44ZM468.82 146.94c.65 0 1.07-.1 1.11-.12a.57.57 0 0 0 .36-.27c.07-.15.09-.3.03-.45l-2.05-5.87a.55.55 0 1 0-1.04.36l1.82 5.23a4.3 4.3 0 0 1-2.27-.5.57.57 0 0 0-.75.23.57.57 0 0 0 .22.75c.94.52 1.88.64 2.57.64ZM445.9 156.05c-.07.16-1.83 4.26-4.38 5.46l-.01-.01c-.21-.94-.4-1.88-.56-2.78.08-.03 2.65-.47 4.95-2.67Z" fill="#39393B"/><path d="M443.43 146.69s-5.38-7.23-9.33-1.55c-3.24 4.68 2.87 17.16 9.44 12.6l-.11-11.05Z" fill="#EA9B7A"/><path d="M437.86 157.82a6.03 6.03 0 1 0 2.9-.53c-.14-.38-.27-.76-.42-1.12h.06a7.17 7.17 0 0 1 7.13 7.14 7.14 7.14 0 1 1-10.62-6.25c.3.29.61.55.95.76Z" fill="#fff"/><path d="M442.69 155.67h.06c.3-.04.52-.3.5-.6a10.39 10.39 0 0 0-6.07-8.38.54.54 0 0 0-.71.31c-.12.29.02.61.3.72.22.07 4.79 1.99 5.39 7.46 0 .28.26.5.53.5Z" fill="#39393B"/><path d="M437.52 152.32c.12 0 .25-.04.35-.13.48-.4 1.94-1.35 2.9-1.1a.56.56 0 0 0 .27-1.08c-1.66-.43-3.65 1.14-3.87 1.3a.56.56 0 0 0-.08.79c.12.14.27.22.43.22Z" fill="#39393B"/><path d="M400.78 261.2s1.77 3.82-.27 12.15c-2.04 8.34-5.46 13.57-5.46 13.57s-8.56-12.99 5.73-25.73Z" fill="#217C58"/><path d="M363.07 253.21c.02.42.05.85.09 1.25.05.42.11.82.18 1.23.04.2.06.4.12.62l.14.58a20.47 20.47 0 0 0 2.56 6.11l.53.83.55.77a27.68 27.68 0 0 0 4.57 4.81 43.01 43.01 0 0 0 4.53 3.29c.74.48 1.48.9 2.22 1.34a73.3 73.3 0 0 0 6.5 3.33 100.4 100.4 0 0 0 8.51 3.42 184.53 184.53 0 0 0 16.9 5c2.82.68 5.63 1.3 8.48 1.9 1.02.2 2.44.35 3.92.47 2.26.16 4.71.3 6.32.57.4-2.34-1.58-4.23-1.19-6.57.45-2.73.9-5.47 1.4-8.2l-1.13-2.44c-1.71-.42-3.43-.86-5.15-1.32l-.16-.04c-2.5-.67-4.99-1.43-7.45-2.23-2.5-.8-5-1.68-7.46-2.6-2.44-.93-4.83-1.91-7.15-2.97a86.03 86.03 0 0 1-6.66-3.34 41.72 41.72 0 0 1-4.37-2.77c-.43-.32-.84-.65-1.23-.97a16.2 16.2 0 0 1-1.95-1.91l-.03-.03.4-.54.73-1c.38-.51.74-1.02 1.16-1.55.8-1.06 1.58-2.1 2.4-3.15l2.48-3.14c1.69-2.1 3.37-4.22 5.1-6.3l1.28-1.58 1.3-1.58 1.83-2.2.78-.94.95-1.15 1.67-2.01 2.65-3.15c1.75-2.09 3.52-4.2 5.3-6.28l10.6-12.53.07-.08a12.52 12.52 0 0 0-18.99-16.34l-2.77 3.2-2.73 3.2-2.7 3.21-2.69 3.22a864.3 864.3 0 0 0-5.32 6.52l-2.64 3.29-.35.44-2.27 2.87-2.6 3.33-1.3 1.68-.58.76-.7.93a458.85 458.85 0 0 0-5.1 6.82l-2.53 3.5c-.83 1.17-1.66 2.4-2.5 3.59l-1.24 1.84-1.23 1.88-.31.46-.08.12-.04.06-.06.1-.26.41-.51.85-.25.45-.23.47-.47.94c-.14.33-.29.67-.42 1.01l-.19.52c-.06.17-.13.36-.18.55-.12.36-.24.74-.34 1.1-.1.38-.18.78-.27 1.17-.08.4-.17.78-.22 1.2l-.15 1.23c-.03.42-.05.83-.06 1.26l-.01.63c-.02.17 0 .37 0 .58Z" fill="#EA9B7A"/><path d="M417.85 268.66s-2.03-1.98-4.52-1.47c0 0-5.9 10-2.84 18.57 0 0 1.37 1.24 4.24 1-.02 0-2.87-10.3 3.12-18.1Z" fill="#000"/><path d="M406.4 277.4a5.95 5.95 0 1 0 11.9-.67 5.95 5.95 0 0 0-11.9.66Z" fill="#000"/><path d="M412.6 281.5a4.46 4.46 0 1 0-.51-8.9 4.46 4.46 0 0 0 .5 8.9Z" fill="#fff"/><path d="M422.86 287.84c2.26.17 4.71.3 6.32.58.4-2.34-1.58-4.23-1.2-6.57.46-2.73.92-5.47 1.41-8.2l-1.13-2.45c-1.71-.41-3.43-.85-5.15-1.3l-.16-.05c-.7 3.88-1.8 12.03-.1 18Z" fill="#D46A43"/><path d="M428.4 194.66c1.21 3.9.29 8.16-2.39 11.25-5 5.8-14.6 17-19.9 24.03-7.43 9.83-16.81 22.17-16.81 22.17s6.75 5.94 11.5 9.07c0 0-11.6 9.8-5.73 25.73 0 0-20.82-11.46-31.35-22.45-7.7-8.04-5.56-18.06 1.46-27.65 3.55-4.84 30.91-36.05 40.63-46.97a13.43 13.43 0 0 1 14.33-3.89 12.79 12.79 0 0 1 8.26 8.71Z" fill="#21B573"/><path d="M423.34 272.82s.82-4.77 2.05-9.35c1.03-3.82 3.1-5 3.1-5 .46 2.6 1.1 4.17 1.17 8.9 0 0 1.16-1.08 3.26-.65 2.1.43 9.35 1.96 9.46 3.64.2 3.83-8.87 2.01-8.87 2.01s9.72 1.84 9.48 4.53c-.2 2.17-9 2.59-9 2.59s8.49.07 7.46 3.13c-1.07 3.24-8.96 1.2-8.96 1.2s5.68 2.72 5.13 3.87c-.79 1.65-4.15 2.1-9.58.78-5.59-1.37-4.7-15.65-4.7-15.65Z" fill="#EA9B7A"/><path d="M413.31 222.94a.78.78 0 0 1-.6-.17.75.75 0 0 1-.09-1.06l12.57-14.93a.74.74 0 0 1 1.06-.1c.3.28.36.75.09 1.06l-12.57 14.94a.74.74 0 0 1-.46.25Z" fill="#217C58"/><path d="m426.97 211.86-4.75.73a.75.75 0 0 1-.23-1.49l4.75-.72a.75.75 0 0 1 .23 1.48ZM375.82 255.34c.08.1.18.17.3.19.13.02.27 0 .39-.1 3.58-2.66 9.96-2.95 13.12-2.9l-.37-.42-.02-.03.4-.56h-.94c-1.97-1.9-7.3-3.74-7.53-3.82a.5.5 0 0 0-.62.3.5.5 0 0 0 .3.62c.05.02 4.1 1.42 6.33 2.94-3.48.16-8.23.8-11.27 3.08a.52.52 0 0 0-.09.7Z" fill="#217C58"/><path d="M175.57 617.78c91.34 0 165.4-4.52 165.4-10.1s-74.06-10.1-165.4-10.1c-91.35 0-165.4 4.52-165.4 10.1s74.05 10.1 165.4 10.1Z" fill="#CED3E6"/><path d="m199.7 291.95.22.99.15.8.27 1.49a131.48 131.48 0 0 1 1.19 8.49 178.38 178.38 0 0 1 1.05 22.12c-.05 3.68-.21 7.35-.46 11.01-.26 3.67-.63 7.34-1.09 10.99-.26 1.82-.5 3.65-.79 5.47-.14.91-.28 1.82-.44 2.73l-.5 2.72c-.16.9-.37 1.8-.55 2.72-.2.9-.37 1.8-.59 2.7-.41 1.8-.82 3.6-1.3 5.4-.23.9-.45 1.79-.7 2.67l-.75 2.68-.2.66-.09.34-.2.68a23 23 0 0 1-1.25 3.26c-.22.5-.45.92-.69 1.37l-.34.6c-.11.22-.23.41-.35.6l-.35.56-.34.54c-.23.36-.45.67-.68 1a45.16 45.16 0 0 1-5.23 5.95 72.2 72.2 0 0 1-4.9 4.27 109.5 109.5 0 0 1-9.46 6.7c-6.23 3.98-12.43 7.43-18.66 10.66a394.2 394.2 0 0 1-28.25 13.25l-4.76 2.02-2.42.97-2.48.99-10.88-24.62 2.12-1.08 2.17-1.13 4.35-2.28c2.9-1.53 5.79-3.08 8.65-4.67a494.54 494.54 0 0 0 16.93-9.67c2.75-1.65 5.47-3.35 8.12-5.05 2.65-1.7 5.23-3.45 7.67-5.22a91.1 91.1 0 0 0 6.74-5.3c.99-.87 1.88-1.73 2.6-2.48a9.86 9.86 0 0 0 1.34-1.7s.02-.05 0-.05c0 .02 0 .02-.02.03l-.04.04-.03.06c-.06.07-.07.12-.13.24-.04.09-.12.22-.17.36-.08.17-.13.33-.21.55l-.05.15c-.02.06 0 0 0 0l.01-.07.06-.28.13-.56.51-2.2c.17-.75.31-1.49.47-2.23.32-1.48.57-2.98.84-4.47.15-.74.25-1.5.37-2.25.11-.75.24-1.5.33-2.25a161.4 161.4 0 0 0 1.61-18.21 179.15 179.15 0 0 0-.3-18.3 158.14 158.14 0 0 0-1.77-15.5l-.19-.99-.14-.7 33.86-7.57Z" fill="#EA9B7A"/><path d="m163.51 300.34-6.18 46.93c9.24 5.17 17.99 8.88 26.04 10.35l-19.86-57.28Z" fill="#A92F4B"/><path d="M176.64 372.89a.7.7 0 0 1-.39-.1c-4.8-2.62-11.41-4.81-11.48-4.84a.82.82 0 0 1 .52-1.56c.28.1 6.82 2.26 11.76 4.95.4.22.54.72.32 1.12a.83.83 0 0 1-.73.43Z" fill="#D46A43"/><path d="M165.49 368.14a.82.82 0 0 1-.1-1.64c3.42-.37 7.9-.4 8.09-.4.45 0 .81.37.81.82 0 .46-.36.82-.81.83-.06 0-4.59.03-7.91.4h-.08Z" fill="#D46A43"/><path d="m76.57 560.82-8.53 13.93-16.25-7.18 7.38-15 17.4 8.25Z" fill="#EA9B7A"/><path d="m.35 575.48 61.44 27.22c.82-.62 1.6-1.7 2.32-3.05 2.7-5.03 4.7-14.07 6.21-19.67a41.76 41.76 0 0 1 1.27-4.03c1.89-4.28-2.2-5.21-2.2-5.21-8.92 3.35-11.91-8.92-17.35-7.75 0 0-2.34.48-9.16 2.72-6.82 2.23-16.4 1.45-24.76 1.28-10.8-.22-15.08 2.45-16.74 4.84-1.34 1.91-1.03 3.65-1.03 3.65Z" fill="#FAAF3A"/><path d="m.35 575.48 61.44 27.22c.82-.62 1.6-1.7 2.32-3.05l-62.75-27.8c-1.32 1.89-1.01 3.63-1.01 3.63Z" fill="#C77E2E"/><path d="m55.52 599.92 1.83.8c-.9-2.88-1.2-6.83 1.05-11.3 2.99-5.94 8.44-8.43 11.9-9.44.18-.65.35-1.26.52-1.8-3.65.88-10.28 3.4-13.85 10.52a16.35 16.35 0 0 0-1.45 11.22Z" fill="#C77E2E"/><path d="M42.3 569.8a1.11 1.11 0 0 0 1.13-1.9L40 565.25a1.11 1.11 0 0 0-1.36 1.76l3.41 2.65c.08.06.16.12.24.14ZM47.53 568.3a1.11 1.11 0 0 0 1.13-1.9l-3.42-2.66a1.11 1.11 0 0 0-1.36 1.76l3.42 2.65c.07.07.15.12.23.14ZM37.48 570.33a1.12 1.12 0 0 0 1.13-1.9l-3.42-2.65a1.11 1.11 0 0 0-1.36 1.76l3.42 2.65c.07.07.15.12.23.14ZM32.69 570.79a1.12 1.12 0 0 0 1.13-1.9l-3.42-2.65a1.11 1.11 0 0 0-1.36 1.75l3.41 2.66.24.14ZM27.62 570.92a1.11 1.11 0 0 0 1.13-1.9l-3.41-2.65a1.11 1.11 0 0 0-1.37 1.75l3.42 2.66.23.14ZM22.34 570.6a1.12 1.12 0 0 0 1.13-1.9l-3.42-2.66a1.11 1.11 0 0 0-1.36 1.76l3.41 2.65c.08.07.16.12.24.14Z" fill="#fff"/><path d="M114.71 426.3c5.7-5.6 50.69-18.17 80.56-9.82 3.42 6.59 7.78 23.3-2.93 38.75-39.25 6.42-61.16 19.64-61.16 19.64s-13.92 32.2-22.2 44.02c-8.27 11.82-27.24 49.35-27.24 49.35l-28.59-12.22S99.2 441.6 114.71 426.31Z" fill="#39393B"/><path d="M84.79 561.17a.9.9 0 0 1-.31-.07L56.5 549.47a.82.82 0 0 1-.44-1.08.82.82 0 0 1 1.08-.44l27.97 11.63c.42.17.63.67.45 1.08a.85.85 0 0 1-.77.5Z" fill="#585859"/><path d="M80.09 558.82a.83.83 0 0 1-.77-1.12c.05-.15 5.91-14.77 19.56-35.5 13.56-20.6 27.74-55.42 27.88-55.78a.83.83 0 0 1 1.08-.45c.42.17.62.65.45 1.08-.14.35-14.37 35.32-28.02 56.06-13.56 20.59-19.35 35.06-19.4 35.2a.87.87 0 0 1-.78.5Z" fill="#585859"/><path d="m148.7 563.27-2.16 16.2h-17.76l.68-16.68 19.24.49Z" fill="#EA9B7A"/><path d="M84.94 607.57h67.2c.5-.91.76-2.2.88-3.74.42-5.69-1.39-14.76-2.28-20.48l-.28-1.86c-.13-.96-.2-1.76-.2-2.34 0-4.67-4.12-3.88-4.12-3.88-6.8 6.67-14.5-3.34-18.99-.05 0 0-1.93 1.4-7.27 6.19-5.34 4.81-14.4 7.97-22.13 11.2-9.97 4.18-12.8 8.34-13.35 11.21-.44 2.28.54 3.75.54 3.75Z" fill="#FAAF3A"/><path d="M84.95 607.57h67.19c.5-.91.76-2.2.88-3.74H84.4a5.3 5.3 0 0 0 .56 3.74Z" fill="#C77E2E"/><path d="M145.28 607.57h2a14.77 14.77 0 0 1-3.6-10.77c.31-6.64 4.3-11.13 7.07-13.45a94 94 0 0 1-.27-1.86c-3 2.29-8.02 7.28-8.4 15.23a16.27 16.27 0 0 0 3.2 10.85Z" fill="#C77E2E"/><path d="M121 585.38c.5 0 .96-.34 1.09-.85.14-.6-.21-1.2-.8-1.34l-4.2-1.04c-.6-.14-1.2.2-1.34.8-.14.6.22 1.2.8 1.35l4.2 1.04c.08.02.17.03.26.03ZM125.18 581.88c.5 0 .95-.34 1.08-.85.14-.6-.21-1.2-.8-1.34l-4.2-1.04a1.1 1.1 0 0 0-1.34.81c-.14.6.22 1.2.8 1.34l4.2 1.04c.08.02.17.04.26.04ZM116.81 587.82c.5 0 .95-.34 1.08-.85.14-.6-.2-1.2-.8-1.34l-4.2-1.03c-.6-.15-1.2.2-1.33.8-.15.6.2 1.2.8 1.34l4.2 1.04c.07.03.16.04.25.04ZM112.62 590.17c.5 0 .95-.34 1.08-.84.14-.6-.21-1.2-.8-1.34l-4.2-1.04c-.6-.15-1.2.2-1.34.8-.14.6.22 1.2.8 1.34l4.2 1.04c.08.03.17.04.26.04ZM108.03 592.34c.5 0 .95-.34 1.08-.84.15-.6-.22-1.2-.8-1.34l-4.2-1.04c-.6-.14-1.2.2-1.33.8-.15.6.22 1.2.8 1.34l4.2 1.04c.07.03.16.04.25.04ZM103.07 594.19c.5 0 .95-.34 1.08-.85.14-.6-.2-1.2-.8-1.34l-4.2-1.03c-.6-.15-1.2.2-1.34.8-.14.6.23 1.2.81 1.34l4.2 1.04c.07.03.16.04.25.04Z" fill="#fff"/><path d="m283.32 429.23-.1.78-.4.31c-10.43 8.01-22.6 13.34-35.02 16.37l-1.31.31a111.12 111.12 0 0 1-22.65 2.78c-10.76.2-20.95-1.2-29.57-3.95-.33-.1-.67-.2-.99-.32a60.93 60.93 0 0 1-6.47-2.58c-.3-.14-.62-.28-.92-.44a45.43 45.43 0 0 1-3.61-1.96c.18-4.15.23-9.11.2-14.42 0-.44 0-.88-.02-1.32a815.17 815.17 0 0 0-.62-23.66c-.16-3.81-.34-7.43-.5-10.64l-.05-1.01c-.14-2.72-.28-5.15-.41-7.14l-.1-1.5-.08-1.16a331.17 331.17 0 0 0-1.77-17.15 224.04 224.04 0 0 0-6.87-33.16l-.34-1.15c-.66-2.23-1.31-4.3-1.95-6.25l-.41-1.28c-3.61-10.72-6.6-17.2-6.65-21.54-.1-9.03 6.5-11.93 13.38-15.57l.97-.52a53.8 53.8 0 0 0 4.84-2.94c.33-.22.63-.45.93-.67a20.47 20.47 0 0 0 6.67-8.5l26.01-5.48a36.51 36.51 0 0 0 7.89 2.72c.49.12 1 .23 1.53.34l1.01.2c.26.04.53.1.8.13 2.5.4 5.38.64 8.64.58l.99-.03.7-.03a17.5 17.5 0 0 1 7.48 1.24c8.46 3.38 15.1 13.5 19.4 29.03l3.52 12.63.38 1.34.74 2.7.27.97c.88 3.18 1.74 6.33 2.57 9.44v.01c.1.32.19.66.26.99v.01l.15.52.46 1.82c2.89 11.12 5.29 21.83 6.83 32.63a170.17 170.17 0 0 1 1.04 8.6l.04.38.08.72.04.36c.42 4.1.95 9.77 1.48 16.02l.1 1c1.19 14.5 2.26 31.82 1.4 39.44Z" fill="#DF615C"/><path d="M204.15 286.26c10.39-2.2 16-15.2 16.23-15.77a.75.75 0 0 0-.39-.98.74.74 0 0 0-.97.4c-.05.12-5.75 13.37-15.78 15-9.86 1.6-13.78-5.66-13.95-5.97a.74.74 0 0 0-1-.31c-.36.2-.5.63-.3 1 .03.09 4.55 8.53 15.5 6.75l.66-.12ZM214.68 424.63c9.77-2.05 19.86-7.08 29.95-14.98a130.92 130.92 0 0 0 23.02-23.51.74.74 0 1 0-1.2-.87c-.1.13-9.08 12.53-22.76 23.23-12.54 9.81-31.73 20.16-51.89 13.71a.74.74 0 1 0-.46 1.42 45.06 45.06 0 0 0 23.34 1Z" fill="#A92F4B"/><path d="M208.84 417.17c.01 0 .01 0 0 0 15.22-3.47 23.39-26.46 23.74-27.43a.75.75 0 0 0-.46-.95.75.75 0 0 0-.94.45c-.08.24-8.25 23.18-22.65 26.47a.75.75 0 0 0 .3 1.46ZM180.75 380.82a22.5 22.5 0 0 0 5.06-4.75c3.4-4.42 3.85-8.94 1.29-12.74l-1.43-2.09c-5.23-7.64-5.78-8.44-5.32-21 .14-3.96-.98-7.08-3.32-9.24a12.42 12.42 0 0 0-5.33-2.8l.33 1.14c1.54.47 3.07 1.22 4.33 2.4 2.11 1.95 3.11 4.81 2.98 8.47-.46 12.9.21 13.88 5.5 21.6.44.65.9 1.34 1.43 2.1 3.11 4.59.55 9.21-1.25 11.57-1.2 1.57-2.73 3-4.35 4.18.03.38.07.77.08 1.16ZM280.32 372.72a19.9 19.9 0 0 1-5.86 2.33c-5.05 1.06-9.43-.47-12.25-3.3-3.36-3.4-4.67-9.23-.66-13.81 3.87-4.43 2.2-6.79.1-9.78-2.07-2.93-4.66-6.6-1.97-13.04 1.55-3.7 3.92-6.24 7.06-7.5 1.58-.65 3.17-.9 4.68-.94.1.32.18.66.26.98-1.47.02-3.04.25-4.57.87-2.88 1.17-5.08 3.53-6.52 6.97-2.48 5.93-.26 9.05 1.87 12.08 2.17 3.08 4.22 6-.17 11-3.23 3.69-2.99 8.81.62 12.44 3.64 3.66 10.12 4.94 17.29.58a123.82 123.82 0 0 1 .12 1.12ZM212.47 376.46c2.51 4.32 7.94 6.39 12.9 4.94.75-.22 1.54-.5 2.34-.84 6.37-2.73 13.72-9.17 16.54-16.65 2.17-5.78 1.5-11.69-1.93-17.09-5.1-7.98-8.04-15.4-8.53-21.43a7.71 7.71 0 0 0-6.25-7.06 7.73 7.73 0 0 0-8.55 4.04l-.27.5c-4.28 8.38-1.73 14.44.53 19.78 2.37 5.6 4.4 10.42-2.05 16.68-5.87 5.7-7.63 12.1-4.73 17.13Zm5.43-16.43c6.96-6.74 4.68-12.11 2.28-17.78-2.3-5.4-4.64-10.96-.56-18.93.09-.17.16-.34.26-.5a6.85 6.85 0 0 1 3.36-3.14 6.85 6.85 0 0 1 4.1-.39 6.76 6.76 0 0 1 5.47 6.18 37.5 37.5 0 0 0 3.1 11.49 72.92 72.92 0 0 0 5.59 10.39c3.31 5.2 3.92 10.64 1.84 16.2-3.05 8.14-11.67 14.98-18.23 16.9-4.55 1.32-9.48-.57-11.77-4.5-2.67-4.6-.97-10.55 4.56-15.92ZM169.32 320.67l.42 1.26a15.61 15.61 0 0 0 9.2.8c1.3-.28 2.43-.68 3.35-1.07 6.35-2.75 10.67-8.64 10.56-12.2-.04-1.34-.71-2.31-1.9-2.74-6.83-2.5-9.6-7-10.64-17.26-.29-2.79-1.4-4.94-3.3-6.44l-.98.52.25.18c1.75 1.32 2.77 3.28 3.03 5.84 1.07 10.73 4.03 15.46 11.3 18.1.8.3 1.2.9 1.23 1.83.09 3.24-4.15 8.74-9.96 11.26a15.02 15.02 0 0 1-12.56-.08ZM204.58 322.32a5.46 5.46 0 0 0 5.15 1.42 7.1 7.1 0 0 0 1.91-.72c3.15-1.74 4.31-5.38 3.13-9.72-1.23-4.53 1.12-6.7 3.4-8.79 2-1.83 4.04-3.73 2.42-6.98-1.25-2.5-3.56-3.67-6.65-3.38a10.75 10.75 0 0 0-8.56 6c-2.9 5.75-5.7 16.87-.8 22.17Zm1.69-21.74a9.96 9.96 0 0 1 7.76-5.46c2.7-.26 4.61.7 5.68 2.84 1.3 2.59-.18 3.94-2.22 5.8-2.26 2.09-5.07 4.68-3.68 9.79 1.05 3.87.07 7.08-2.65 8.59-2.04 1.13-4.56.92-5.85-.5-4.55-4.92-1.84-15.53.96-21.06ZM189.97 357.51c.56 2.63 1.6 4.76 3.43 5.82 2.72 1.6 5.4 2.23 7.37 1.81a4 4 0 0 0 2.12-1.13c1.61-1.73 1.08-4.83-1.45-8.53-2.94-4.27-.37-7 2.37-9.88 2.33-2.45 4.74-4.99 3.4-8.46-.98-2.5-3.22-3.65-6.48-3.37-5.46.5-9.97 4.9-10.71 10.47-.58 4.34-.88 9.36-.05 13.27Zm1.02-13.13a11.3 11.3 0 0 1 2.86-6.12 10.85 10.85 0 0 1 6.96-3.49c2.85-.24 4.64.64 5.46 2.73 1.13 2.89-.96 5.1-3.17 7.43-2.75 2.9-5.87 6.19-2.48 11.13 2.24 3.26 2.82 5.92 1.54 7.27-1.41 1.53-4.8 1.18-8.26-.85-3.16-1.86-4.2-8.3-2.9-18.1ZM181.86 402.14c4-1.44 5.33.56 7.26 3.46 1.74 2.58 3.9 5.8 8.74 6.95 1.65.4 3.24.38 4.73.07 3.91-.82 7.1-3.75 8.64-7.02 2.06-4.4 1.15-8.8-2.4-11.48-1.54-1.16-2.34-2.26-2.5-3.37-.2-1.56.96-3.07 2.2-4.67 1.74-2.22 3.7-4.73 2.2-7.95a7.23 7.23 0 0 0-6.27-4.26c-4.75-.36-10.08 2.87-13.57 8.19a17.41 17.41 0 0 1-9.64 7.4l.06 1c3.07-.88 7.19-2.97 10.4-7.86 2.65-4.03 6.38-6.79 10.01-7.55.9-.2 1.8-.26 2.66-.2 2.48.19 4.4 1.5 5.43 3.7 1.23 2.66-.38 4.73-2.08 6.91-1.3 1.7-2.67 3.43-2.41 5.4.18 1.39 1.13 2.7 2.88 4.04 3.75 2.83 3.55 7.16 2.1 10.27-1.96 4.16-6.79 7.7-12.24 6.4-4.47-1.05-6.43-3.96-8.14-6.53-1.94-2.9-3.63-5.42-8.13-3.94.05.35.06.69.07 1.04Z" fill="#A92F4B"/><path d="M232.36 390.09c.33 1.73 1.37 2.91 2.9 3.33.82.22 1.73.22 2.7.02 2.14-.45 4.49-1.9 6.4-4.1 1.98-2.23 3.96-1.94 6.68-1.55 2.65.38 5.95.86 10.16-1.06 4.68-2.13 5.45-6.55 4.2-9.76-1.13-2.9-4.21-5.42-8.3-4.07-2.91.97-4.8 2.46-6.5 3.76-2.57 2-4.78 3.73-9.85 3.42-2.52-.16-4.55.52-6 2-2.8 2.87-2.42 7.75-2.4 7.94v.07Zm.97-.16c-.03-.37-.26-4.69 2.14-7.15 1.24-1.26 2.99-1.83 5.21-1.7 5.44.32 7.91-1.59 10.52-3.63 1.7-1.32 3.46-2.69 6.22-3.61 3.47-1.14 6.1 1.01 7.05 3.5 1.1 2.78.4 6.63-3.69 8.49-3.94 1.79-6.96 1.36-9.6.98-1.54-.22-2.94-.41-4.3-.13-1.12.24-2.2.82-3.26 2.02-2.51 2.83-5.85 4.4-8.1 3.78-1.16-.34-1.92-1.2-2.19-2.55ZM275.84 414c-3.4 5.65-1.98 11.93 1.4 14.75a6.87 6.87 0 0 0 5.58 1.57l.4-.3.1-.79c-2 .48-3.86.08-5.44-1.25-3.04-2.54-4.33-8.28-1.19-13.45 3.19-5.25.68-6.88-1.97-8.6-2.43-1.58-4.96-3.2-4.57-7.92a7.7 7.7 0 0 1 2.8-5.57 12.17 12.17 0 0 1 5.13-2.26c1.35-.29 2.7-.4 3.83-.44l-.07-1c-2.82.1-6.76.69-9.51 2.94a8.62 8.62 0 0 0-3.16 6.25c-.43 5.3 2.6 7.26 5.03 8.84 2.58 1.69 4.31 2.82 1.64 7.24ZM193.28 445.5l.99.32c.04-1.53.4-4.82 2.67-7.03 1.9-1.84 4.73-2.56 8.42-2.16 4.9.55 7.11 2.57 9.06 4.37 3.29 3.01 5.57 4.44 14.15-1.16a26.7 26.7 0 0 1 8.92-3.94c4.26-.9 7.53-.01 9.24 1.76 2.1 2.17 2 5.61-.24 9.33l1.3-.31c2.05-3.82 1.94-7.37-.33-9.73-3.05-3.14-10.43-3.84-19.43 2.05-8.35 5.47-10.08 3.88-12.93 1.26-1.96-1.81-4.42-4.06-9.64-4.63-4-.44-7.1.38-9.22 2.44-2.39 2.36-2.88 5.64-2.96 7.43ZM249.03 429.5c1.25 2.67 5.35 4.87 9.18 4.06l.5-.13c5.84-1.65 9.2-6.4 9.46-13.35.2-5.38-.3-10.66-5.27-12.95l-.09-.02c-.23-.06-5.74-1.4-9.17.93a5.94 5.94 0 0 0-2.54 4.38c-.46 3.4.58 5.5 1.32 7.02.94 1.88 1.35 2.73-1.5 4.68-2.12 1.47-2.81 3.44-1.89 5.38Zm2.44-4.53c3.4-2.33 2.91-3.77 1.85-5.94-.73-1.48-1.65-3.34-1.25-6.45a5.09 5.09 0 0 1 2.13-3.7c2.92-2 7.82-.93 8.32-.81 3.56 1.65 4.91 5.13 4.65 11.97-.17 4.59-1.83 10.48-8.74 12.44-3.44.96-7.4-1.03-8.5-3.4-.72-1.51-.18-2.93 1.54-4.11ZM185.89 442.48l.92.44c2.08-2.43 2.94-5.08 2.53-7.85-.64-4.5-4.4-8.27-6.88-10.3l.01 1.33c2.32 2.04 5.35 5.34 5.9 9.11.36 2.52-.44 4.93-2.39 7.18-.04.02-.06.06-.09.09Z" fill="#A92F4B"/><path d="M166.76 226.16s-14.74-3.12-15.09-8.75c-.31-5.2 5.82-4.65 5.82-4.65s-7.16-11.76-3.05-14.06c4.1-2.31 9.28 4.28 9.28 4.28s-3.75-13.94 1.26-12.94c5.02 1 5.66 8.66 5.66 8.66s16.67-5.94 26.13-3.1c6.46 1.95 7.98 8.16 7.98 8.16s3.83-2.29 6.56-.88c2.71 1.4.23 6.18.23 6.18s4.2 3.24 2.92 8.39c-1.28 5.15-4.96 15.31-4.96 15.31l-42.74-6.6Z" fill="#39393B"/><path d="m187.57 267.1 1.42 6.8c.93.46 1.85.85 2.76 1.17 13.24 4.58 24.09-6.84 24.09-6.84l-4.95-23.5-20.54 19.71-2.78 2.67Z" fill="#EA9B7A"/><path d="m187.57 267.1 1.42 6.8c.93.46 1.85.85 2.76 1.17 9.18-6.09 14.26-18.14 14.26-18.14l-15.65 7.51-2.8 2.67ZM174.53 212.21s-16.04 5-6.52 20.9c-.01-.02 7.83-16.5 6.52-20.9Z" fill="#39393B"/><path d="M172.77 238.85s-4.8-3.75-6.02 1.27c-1.22 5 2.39 13.86 7.93 11.13l-1.9-12.4Z" fill="#D46A43"/><path d="M172.03 255.67s2.94 14.03 17.5 10.92c14.46-3.08 21.93-16.54 22.33-17.17l.02-.02-.47-2.97-2.4-15.47-1.29-8.27s-1.25-15.1-15.78-14.85c-10.62.2-19.83 3.91-23.54 10.26a12.85 12.85 0 0 0-1.65 8.06l2.63 14.78.65 3.63 2 11.1Z" fill="#EA9B7A"/><path d="M201.73 232.78s-2.14 8.6-6.88 8.21c-4.74-.4-10 .14-13.66 2.89 0 0-7.34-1.1-10.8 2.56-2.33 2.46 3.14 20.73 13.28 21.38 10.14.67 22.34-5.43 23.55-15.13 1.2-9.7-.62-17.35-.62-17.35l-4.87-2.56Z" fill="#39393B"/><path d="M178.2 247.97s8.2-.84 12.21-3.14c0 0 1.8 8-5.13 8.7-5.56.55-7.08-5.56-7.08-5.56Z" fill="#fff"/><path d="M188.77 238.73c.22 1.03 2.5 1.4 5.08.86 2.59-.55 4.52-1.82 4.3-2.84-.22-1.02-2.5-1.4-5.08-.85-2.58.54-4.5 1.8-4.3 2.83ZM170.05 244.55c.36-.04.75-.1 1.14-.18 2.58-.54 4.52-1.82 4.3-2.83-.22-1.02-2.5-1.4-5.08-.86-.35.08-.69.16-1.01.26l.65 3.61Z" fill="#D46A43"/><path d="M187.75 233.07c.3 1.4 1.17 2.41 1.94 2.24.78-.17 1.19-1.43.89-2.83-.3-1.4-1.17-2.4-1.95-2.24-.78.17-1.18 1.43-.88 2.83ZM173.89 236c.3 1.4 1.17 2.4 1.95 2.24.78-.17 1.18-1.43.88-2.84-.3-1.4-1.17-2.4-1.95-2.23-.78.17-1.18 1.43-.88 2.83ZM182.5 241.55a.59.59 0 0 0 .46-.7.6.6 0 0 0-.7-.46c-2.12.45-3.34-.45-3.78-.88 1.3-5.23 2.57-10.5 2.58-10.54a.6.6 0 0 0-.43-.72.6.6 0 0 0-.71.43c-.02.05-1.34 5.51-2.67 10.84-.03.17 0 .35.1.5.09.11 1.74 2.26 5.15 1.53ZM193.4 225.17c-.64-1.42-2.46-3.92-7.22-3.14-.59.09-1.03.58-1.06 1.16-.03.75.55 1.37 1.29 1.36 1.3-.04 3.26.26 4.74 2.09.45.57 1.32.6 1.84.1l.12-.13c.4-.37.5-.95.29-1.44ZM169.18 230.28c0-1.55.65-4.59 5.33-5.8.58-.14 1.17.13 1.45.65.33.66.05 1.47-.64 1.76a5.7 5.7 0 0 0-3.5 3.82c-.19.7-.95 1.08-1.64.83l-.16-.05a1.27 1.27 0 0 1-.84-1.21ZM206.1 244.68c.1.15 2.84 4.03 5.75 4.74l.01-.02-.46-2.97c0-.02-2.37.07-5.3-1.75Z" fill="#39393B"/><path d="M206.62 234.41s4.01-8.7 9.36-3.65c4.4 4.16.69 18.21-6.92 15.28l-2.44-11.63Z" fill="#EA9B7A"/><path d="M209.36 243.6a.6.6 0 0 0 .46-.64 9.86 9.86 0 0 1 3.97-8.95.59.59 0 0 0 .15-.82.6.6 0 0 0-.82-.17c-.2.15-5.13 3.5-4.48 10.04a.6.6 0 0 0 .65.53c.02.01.04.01.07 0Z" fill="#39393B"/><path d="M214 238.96a.6.6 0 0 0 .4-.3.59.59 0 0 0-.26-.8c-.28-.14-2.68-1.34-4.31-.52a.6.6 0 0 0-.28.8c.14.28.5.4.8.27.93-.47 2.7.23 3.25.52.12.05.26.06.4.03ZM168.41 218.1c.2.47.5.84.9 1.12 3.45 2.38 9.92-.1 15.71-3.32 5.8-3.22 11.1.37 11.1.37-.48 6.3 5.46 5.55 5.16 10.32-.3 4.77 1.43 10.6 1.43 10.6l3.53-1.24a9.1 9.1 0 0 1 2.75-5l-1.28-8.26s-1.25-15.1-15.78-14.85c-10.6.2-19.82 3.9-23.52 10.26ZM276.9 416.93s13.87 54.77-58.04 54.77c-38.4 0-56.66-3.7-56.66-3.7s-.92 33.94-2.71 48.27c-1.8 14.32-8.12 50-8.12 50l-30.24 2.34s-4.83-124.29 13.7-135.73c18.53-11.44 45.19-11.77 90.96-16.18 0 0 41.1-6.95 51.11.23Z" fill="#39393B"/><path d="M147.24 556.33a1 1 0 0 1-.2-.02.82.82 0 0 1-.6-1c4.18-17.48 5.84-42.51 7.16-62.64 1.32-19.84 2.1-30.28 4.16-32.1 2.27-2 9-1.28 20.16-.1 13.83 1.47 34.71 3.7 57.24 1.1 11.2-1.28 19.77-5.66 25.5-13.03 10.27-13.22 7.92-31.78 7.89-31.96a.81.81 0 0 1 .7-.92c.46-.06.87.26.92.7.1.78 2.48 19.41-8.22 33.18-6.01 7.73-14.96 12.33-26.6 13.67-22.72 2.62-43.72.38-57.62-1.1-9.6-1.03-17.16-1.83-18.9-.3-.38.35-1.16 2.05-1.95 9.58-.6 5.56-1.08 12.9-1.64 21.4-1.34 20.19-3 45.3-7.22 62.92a.8.8 0 0 1-.78.62Z" fill="#585859"/><path d="M121.46 558.8a.83.83 0 0 1-.05-1.65l30.94-1.87c.45-.03.84.33.87.77a.83.83 0 0 1-.77.87l-30.93 1.87-.06.01Z" fill="#585859"/><path d="M204.67 432.61h-90.6a.38.38 0 0 1-.39-.38v-11.16c0-.21.17-.38.38-.38h90.6c.22 0 .38.17.38.38v11.17c0 .2-.16.37-.37.37Z" fill="#CED3E6"/><path d="M104.15 432.61a7.6 7.6 0 0 1-7.34-5.64l-17.09-64.05a6.17 6.17 0 0 1 5.95-7.76h40.91a6.17 6.17 0 0 1 5.93 4.5l20.47 72.94h-48.83v.01Z" fill="#fff"/><path d="m132.53 359.67 20.3 72.34h4.67l-20.3-72.34a6.16 6.16 0 0 0-5.93-4.5h-4.68a6.16 6.16 0 0 1 5.94 4.5ZM120.97 394.93c.94 4.01-1.57 7.27-5.6 7.27-4.01 0-8.02-3.26-8.96-7.27-.93-4.02 1.57-7.29 5.6-7.29 4.01 0 8.02 3.27 8.96 7.29Z" fill="#CED3E6"/><path d="M176.76 406.5s-18.54 1.28-24.47 6.96l3.61 12.85s11.1-4.54 14.16-4.1c3.08.44 4.9 5.49 15.18 2.42l-8.48-18.12Z" fill="#EA9B7A"/><path d="m176.85 405.66 2.1-.86 2.16-.9a304.11 304.11 0 0 0 12.97-5.89c5.7-2.75 11.3-5.66 16.7-8.74 5.38-3.1 10.6-6.37 15.36-9.88a100.33 100.33 0 0 0 6.7-5.4 48.74 48.74 0 0 0 5.37-5.6 18.53 18.53 0 0 0 3.06-5.12c.74-1.83 1.3-4 1.7-6.38.76-4.79.79-10.31.3-15.97-.5-5.67-1.5-11.52-2.81-17.33a167.16 167.16 0 0 0-3.52-12.97l-.67-2.1-.34-1-.17-.47-.08-.23-.04-.1-.01-.04a16.38 16.38 0 1 1 30.48-11.78l.5 1.7.12.46.1.37.2.7.35 1.35.65 2.65a191.88 191.88 0 0 1 3.04 15.77 160.07 160.07 0 0 1 1.86 21.7c.05 3.71-.08 7.5-.42 11.35-.35 3.86-.95 7.8-1.92 11.83a58.22 58.22 0 0 1-4.43 12.26 45.22 45.22 0 0 1-7.88 11.12 74.98 74.98 0 0 1-8.86 7.95c-3 2.3-6.04 4.36-9.09 6.29a185.2 185.2 0 0 1-18.5 10.05 293.19 293.19 0 0 1-18.8 8.12 349.73 349.73 0 0 1-14.32 5.25l-2.43.82-2.53.82a10.47 10.47 0 0 1-7.2-19.64l.3-.16Z" fill="#EA9B7A"/><path d="M252.73 370.42a.77.77 0 0 1-.18-.03c-6.32-1.9-13.39-1.6-13.45-1.6a.64.64 0 0 1-.68-.62.64.64 0 0 1 .63-.68c.3 0 7.35-.3 13.9 1.66.33.1.52.46.43.8a.72.72 0 0 1-.65.47Z" fill="#D46A43"/><path d="M240.68 368.77a.67.67 0 0 1-.5-.22.66.66 0 0 1 .07-.93 16.56 16.56 0 0 1 5.46-2.97c.33-.1.7.09.8.44.1.34-.09.7-.44.8-.03.02-2.83.86-4.97 2.71a.55.55 0 0 1-.42.17Z" fill="#D46A43"/><path d="m275.85 329.01-13.44 3.7-.99.27-9.29 2.55-1.12.31-11.95 3.28-.92-4.24-.21-1.02-2.16-9.95-.22-1-4.06-18.79c-1.1-4.34-1.83-9.78-1.22-14.2.9-6.57 6.64-15.09 17.25-15.66a13.23 13.23 0 0 1 6.34 1.18c3.21 1.46 5.99 4.14 8.38 7.58.2.27.38.55.55.83 4.54 6.92 7.64 16.6 9.72 25.64.1.35.17.7.25 1.05a179.03 179.03 0 0 1 3.09 18.47Z" fill="#DF615C"/><path d="M275 322.58c-1.6-1.46-3.76-2.47-7.09-1.87-3.94.7-7.05-.57-8.3-3.42-.94-2.13-.5-4.63 1.02-5.8 3.04-2.34 7.7-2.14 12.13-.95l-.25-1.05c-4.54-1.16-9.3-1.24-12.5 1.2a5.46 5.46 0 0 0-1.85 5.03c.08.66.26 1.32.53 1.97 1.46 3.3 4.98 4.79 9.4 4 3.58-.66 5.55.73 7.14 2.53l-.24-1.64ZM260.95 293.17c-2.75-3.99-.69-6.63 1.84-9.3-.17-.29-.36-.56-.55-.84-2.66 2.8-5.35 6.01-2.1 10.72 2.24 3.26 2.8 5.91 1.54 7.28-1.42 1.52-4.82 1.17-8.26-.86-3.17-1.87-4.2-8.3-2.9-18.1a11.3 11.3 0 0 1 3.34-6.62 9.44 9.44 0 0 0-1-.38 12.21 12.21 0 0 0-3.34 6.86c-.55 4.33-.85 9.36-.03 13.26.55 2.63 1.6 4.76 3.42 5.84 2.73 1.6 5.42 2.22 7.38 1.8a3.95 3.95 0 0 0 2.12-1.13c1.6-1.73 1.08-4.83-1.46-8.53ZM235.8 323.04c-2.2-13.15-5-25.45-5.03-25.58a.49.49 0 0 0-.58-.36.49.49 0 0 0-.37.58c.03.13 2.81 12.37 5 25.45.15.5.98.53.98-.1Z" fill="#A92F4B"/><path d="M232.24 307.18a.47.47 0 0 1-.26-.08l-5.06-3.25a.48.48 0 0 1-.15-.68c.14-.23.44-.3.68-.14l5.06 3.25c.22.14.3.44.15.67a.5.5 0 0 1-.42.23Z" fill="#A92F4B"/><path d="M199.41 308.58a6.95 6.95 0 0 1-4.69-1.86c-8.01-7.06-7.97-32.72-7.97-33.81 0-.51.41-.93.93-.93s.94.42.92.94c0 .26-.03 25.9 7.34 32.4a5.05 5.05 0 0 0 4.18 1.33c9.86-1.3 14.34-30.01 15.24-40.97.04-.5.5-.9 1-.86.5.04.9.5.85 1 0 .1-.85 10.22-3.25 20.43-3.32 14-7.89 21.5-13.59 22.25-.31.07-.64.08-.96.08Z" fill="#fff"/><path d="M273.86 548.27h-97.11a4.12 4.12 0 0 1 0-8.24h97.11a4.12 4.12 0 0 1 0 8.24Z" fill="#084FC7"/><path d="M167.81 611.15c-.18 0-.36 0-.54-.03a4.12 4.12 0 0 1-3.53-4.63l17.68-132.21a4.12 4.12 0 0 1 4.08-3.58h79.23c2.07 0 3.8 1.54 4.08 3.58l17.42 132.22a4.1 4.1 0 1 1-8.16 1.07l-16.95-128.64H189.1l-17.2 128.65a4.12 4.12 0 0 1-4.09 3.57Z" fill="#0875F7"/><path d="M208.45 474.82h51.45c16.3 0 33.77-8.93 36.26-25.05a306.87 306.87 0 0 0 3.25-61.6c-1.06-21.68-9.47-41.8-26.5-55.23 0 0 7.35 83.6.72 106.68-8.85 30.85-65.18 35.2-65.18 35.2ZM50.97 302.69v24.73a5.92 5.92 0 0 0 5.91 5.91h44.86l13.54 4.86c1.4.5 2.73-.87 2.18-2.25l-5.11-13.24v-20.02a5.92 5.92 0 0 0-5.92-5.92H56.88a5.92 5.92 0 0 0-5.9 5.93Z" fill="#0875F7"/><path d="M89.93 315.75a4.27 4.27 0 1 0 8.54.02 4.27 4.27 0 0 0-8.54-.01ZM76.4 315.75a4.27 4.27 0 1 0 8.54.02 4.27 4.27 0 0 0-8.54-.01ZM62.85 315.75a4.28 4.28 0 1 0 8.56 0 4.28 4.28 0 0 0-8.56 0Z" fill="#084FC7"/><path d="M805.8 240.08c19.32 0 34.98-15.48 34.98-34.58 0-19.1-15.66-34.58-34.97-34.58-19.32 0-34.97 15.48-34.97 34.58 0 19.1 15.65 34.58 34.97 34.58Z" fill="#CED3E6"/><path d="M805.8 235.58c19.32 0 34.98-15.48 34.98-34.58 0-19.1-15.66-34.58-34.97-34.58-19.32 0-34.97 15.49-34.97 34.58 0 19.1 15.65 34.58 34.97 34.58Z" fill="#21B573"/><path d="M805.8 229.11c15.72 0 28.45-12.58 28.45-28.1 0-15.53-12.73-28.11-28.44-28.11-15.7 0-28.44 12.58-28.44 28.1 0 15.53 12.73 28.11 28.44 28.11Z" fill="#fff"/><path d="M834.25 201a25 25 0 0 1-.1 2.23c-1.15-14.47-13.42-25.9-28.34-25.9s-27.2 11.43-28.35 25.9c-.05-.73-.1-1.47-.1-2.23 0-15.5 12.76-28.1 28.45-28.1 15.67 0 28.44 12.6 28.44 28.1Z" fill="#CED3E6"/><path d="M805.8 203.93a.72.72 0 0 1-.56-.29l-13.95-18.56a.7.7 0 0 1 .14-.99.72.72 0 0 1 1 .14l13.61 18.13 15.47-6.71a.7.7 0 0 1 .94.36.7.7 0 0 1-.37.93l-15.99 6.94c-.09.04-.19.05-.28.05Z" fill="#39393B"/><path d="M94.11 247.28h-9.46c-.86 0-1.55-.69-1.55-1.54v-50.52c0-.86.69-1.55 1.55-1.55h9.46c.86 0 1.55.7 1.55 1.55v50.52c0 .85-.69 1.54-1.55 1.54Z" fill="#0875F7"/><path d="M92.24 222.31h-5.71c-.83 0-1.52-.68-1.52-1.52v-.64c0-.83.68-1.52 1.52-1.52h5.71c.83 0 1.52.68 1.52 1.52v.64a1.53 1.53 0 0 1-1.52 1.52ZM95.66 198H83.1v2.07h12.56V198ZM95.66 202.33H83.1v2.07h12.56v-2.07ZM95.66 234.28H83.1v2.07h12.56v-2.07ZM95.66 238.61H83.1v2.07h12.56v-2.07Z" fill="#084FC7"/><path d="M70.17 247.28H58.39a.4.4 0 0 1-.4-.39v-52.83c0-.2.18-.39.4-.39h11.78c.2 0 .39.17.39.4v52.82a.4.4 0 0 1-.4.4Z" fill="#21B573"/><path d="M67.13 222.31H61.4c-.83 0-1.52-.68-1.52-1.52v-.64c0-.83.68-1.52 1.52-1.52h5.72c.83 0 1.52.68 1.52 1.52v.64c0 .84-.7 1.52-1.52 1.52ZM70.56 198H58v2.07h12.56V198ZM70.56 202.33H58v2.07h12.56v-2.07ZM70.56 234.28H58v2.07h12.56v-2.07ZM70.56 238.61H58v2.07h12.56v-2.07Z" fill="#217C58"/><path d="M81.56 247.28h-9.47c-.86 0-1.55-.69-1.55-1.54v-50.52c0-.86.7-1.55 1.55-1.55h9.47c.85 0 1.54.7 1.54 1.55v50.52c0 .85-.69 1.54-1.54 1.54Z" fill="#DF615C"/><path d="M79.69 222.31h-5.72c-.83 0-1.52-.68-1.52-1.52v-.64c0-.83.68-1.52 1.52-1.52h5.72c.83 0 1.51.68 1.51 1.52v.64c0 .84-.68 1.52-1.51 1.52ZM83.11 198H70.56v2.07H83.1V198ZM83.11 202.33H70.56v2.07H83.1v-2.07ZM83.11 234.28H70.56v2.07H83.1v-2.07ZM83.11 238.61H70.56v2.07H83.1v-2.07Z" fill="#A92F4B"/><path d="m116.06 245.4-11.64 1.87a.38.38 0 0 1-.44-.32l-8.4-52.16c-.04-.2.1-.42.33-.44l11.63-1.87c.21-.04.42.1.44.32l8.4 52.16a.4.4 0 0 1-.32.44Z" fill="#FAAF3A"/><path d="m110.26 221.04-7.97 1.28a.35.35 0 0 1-.39-.27l-.48-2.96a.35.35 0 0 1 .28-.4l7.96-1.28c.18-.03.35.1.39.27l.48 2.97c.03.18-.1.36-.27.39ZM108.62 196.68l-12.4 2 .33 2.04 12.4-2-.33-2.04ZM109.31 200.96l-12.4 2 .33 2.04 12.4-2-.33-2.04ZM114.39 232.5l-12.4 2 .33 2.04 12.4-2-.33-2.04ZM115.08 236.77l-12.4 2 .33 2.04 12.4-2-.33-2.04Z" fill="#C77E2E"/><path opacity=".8" d="M148.35 261.65H34.62l-2.5-6.62H151.2l-2.84 6.62Z" fill="#CED3E6"/><path d="M151.19 247.17H32.13v7.86h119.06v-7.86Z" fill="#39393B"/><path d="m44.26 255.03 3.18 6.68h7.5l2.15-6.68H44.26ZM139.06 255.03l-3.18 6.68h-7.5l-2.14-6.68h12.82Z" fill="#39393B"/><path d="M708.33 617.78c94.71 0 171.49-4.52 171.49-10.1s-76.78-10.1-171.49-10.1c-94.71 0-171.49 4.52-171.49 10.1s76.78 10.1 171.5 10.1Z" fill="#CED3E6"/><path d="M775.56 612.41c-53.57-1.88-108.98-9.2-137.67-108.02-8.53-29.38-2.99-51.63 6.38-68.4 2.3-4.14 4.86-7.94 7.48-11.44a134.6 134.6 0 0 1 2.99-3.82c20.93-25.7 56.03-34.92 87.16-23.56 17.46 6.37 39.84 15.79 59.8 28.03 40.1 24.61 49.52 52.67 62.63 100.78 1.13 4.13 2.24 8.76 3.1 13.69.46 2.62.83 5.34 1.1 8.1 2.9 30.77-8.96 67.6-92.97 64.64Z" fill="#39393B"/><path d="M868.52 547.77c-1.78 5-4.31 10.1-7.69 14.93-10.13 14.54-31.23 32.09-74.19 33.23-1.9.05-3.75.08-5.6.08-16.41 0-30.9-1.99-44.13-6.03a107.77 107.77 0 0 1-36.93-19.52c-18.4-14.87-33.58-36.62-49.18-70.5-6.17-13.4-9.36-26.97-9.5-40.35-.07-7.97.92-15.88 2.98-23.6 2.31-4.15 4.86-7.95 7.48-11.44a87.94 87.94 0 0 0-1.92 4.82c-5.61 15.4-9.48 39.92 3.99 69.17 27.38 59.5 59.14 95.98 132.73 94.06 41.59-1.1 61.87-17.9 71.56-31.8a58.39 58.39 0 0 0 9.32-21.14c.44 2.61.82 5.33 1.08 8.09Z" fill="#585859"/><path d="M791.89 365.39s33.63 45.68 41.3 68.44c7.68 22.75-10.94 38.93-10.94 38.93l-17.3 6.5c0-.02-17.78-80.36-13.06-113.87Z" fill="#084FC7"/><path d="M788.91 493.36c-14.7 4.88-50.62 17.67-66.22 12.5-.66-.23-1.27-.47-1.85-.76a9.89 9.89 0 0 1-4.03-3.4c-6.11-9.33-12.18-48.44-9.45-71.43.34-2.87.5-6 .56-9.27.07-4.82-.08-9.98-.29-15.17-.77-19.52-3.84-33 4.5-37.75a97.16 97.16 0 0 1 23.02-9.03c3.74-.9 9.87-2.77 14.17-2.7l18.6 3.38s16.05 2.68 19.75 5.42c3.7 2.74 5.6 14.79 12.28 25.82 6.69 11.04 8.14 22.12 1.75 34.23-5.55 10.55-4.58 6.54-5.3 23.83-.9 21.2 21.23 34.8-7.49 44.33Z" fill="#fff"/><path opacity=".8" d="M739.54 394.08s20.15-5.21 45.88-.4l.62 17.8s-28.28-3.15-46.1 1.38l-.4-18.78ZM762.7 379.05l-.84-.02c-11.01-.58-21.11-10.3-21.53-10.72a.76.76 0 0 1-.01-1.06c.28-.3.76-.3 1.06-.01.1.09 10.12 9.75 20.56 10.28 10 .53 11.2-9.4 11.26-9.83a.75.75 0 0 1 .83-.66c.42.04.72.41.66.83 0 .1-1.32 11.2-12 11.2ZM731.47 468.14a1.13 1.13 0 0 1-.2-.22.8.8 0 0 1 .25-1.08 92.44 92.44 0 0 1 37.07-12.78c9.78-1.13 16.08-.22 16.34-.18a.79.79 0 0 1-.23 1.56c-.07-.01-6.41-.92-16 .2a91 91 0 0 0-36.37 12.55.74.74 0 0 1-.86-.05Z" fill="#CED3E6"/><path d="M750.2 500.45c-13.23-4.2-25.2-12.65-33.38-20.18a84 84 0 0 1-1.87-1.77c-4.23-4.12-7.22-2-8.52-4.37-4.94-9.06-2.14-44.61 0-57.68 2.15-13.05-6.85-36.97-2-45.52 4.84-8.56 21.52-11.55 21.52-11.55s-2.36-2.75 2.12-5.91 16.4-1.85 16.4-1.85c.57 56.5 8.56 109 5.73 148.83Z" fill="#0875F7"/><path d="M737.19 484.25a.73.73 0 0 1-.73-.63c-6.03-39.2-.07-112.93 0-113.67a.74.74 0 0 1 1.47.12c-.07.74-6 74.3 0 113.32.06.4-.22.78-.63.85h-.11Z" fill="#fff"/><path d="M749.3 490.12a.74.74 0 0 1-.72-.6c-7.89-45.03-8.51-122.71-8.51-123.5 0-.4.32-.73.73-.73.4 0 .74.32.74.72 0 .78.63 78.34 8.5 123.24.06.4-.2.78-.6.86l-.14.01ZM736.23 365.57l-.2-.02c-6.23-1.67-10.05-5.35-10.22-5.5a.74.74 0 0 1-.01-1.04.74.74 0 0 1 1.04-.02c.04.04 3.71 3.58 9.55 5.14.4.1.63.5.52.9a.68.68 0 0 1-.68.54Z" fill="#084FC7"/><path d="M807.54 475.77s-4.72 15.9-22.28 23.48c-2.18-43.1-7.11-92.34-13.49-144.7 0 0 6.72-1.19 9.5 2.66 1.22 1.65 1.48 4.46 1.48 4.46s3.42.66 7.18 2.42c3.75 1.75 3.32 4.16 4.22 10.27.9 6.1 10.32 15.56 13.39 28.37 3.06 12.8-5.07 20.96-7.6 31.71-2.55 10.73 7.6 41.33 7.6 41.33Z" fill="#0875F7"/><path d="M792.46 482.44a.74.74 0 0 1-.74-.71c-1.7-58.65-12.4-111.05-12.5-111.57-.09-.4.16-.8.56-.87.4-.08.8.17.87.57.1.52 10.83 53.04 12.54 111.83 0 .4-.32.75-.72.75h-.01Z" fill="#fff"/><path d="M776.3 367.2a.75.75 0 0 1-.72-.62c-.07-.4.2-.77.6-.85.05-.02 4.77-.87 5.85-4.3a.72.72 0 0 1 .92-.47c.4.11.6.53.48.92-1.36 4.29-6.79 5.26-7.01 5.3-.04.02-.08.02-.12.02ZM790.75 482.44a.73.73 0 0 1-.73-.65c-5.2-43.24-13.4-112.33-13.48-113.02a.74.74 0 0 1 .65-.82c.4-.05.76.25.81.65.08.69 8.29 69.8 13.49 113.02.05.4-.24.77-.65.82h-.1Z" fill="#084FC7"/><path d="M747.12 513.49c2.25 1.6 5.78 3.28 11.1 4.97 30.12 9.6 57.74-5.88 57.74-5.88 1.68-8.26.64-17.65-2.14-21.1.87-1.21.3-2.67.3-2.67l27.73-28.8c-15.77 13.07-35.27 17.35-50.46 26.54a443.94 443.94 0 0 1-11.2 6.6c-4.4 2.47-10.02 2.72-15.52 1.95-10.73-1.48-21.01-6.77-21.01-6.77s-34.54-15.66-41-15.14c-5.03.38 22.06 28.7 44.46 40.3Z" fill="#21B573"/><path d="M800.48 537.63s-8.88-2.56-11.62-5.45l-6.18 14.56 21.03 6.56s.3-12.77-3.23-15.67Z" fill="#EA9B7A"/><path d="m851.22 579.7-27.18-60.4a9.38 9.38 0 0 0-3.71.72c-5.28 1.93-12.7 7.23-17.46 10.34l-1.55 1c-.81.5-1.5.88-2.02 1.13-4.2 1.89-1.98 4.15-1.98 4.15 7.81 3.91 3.05 15.5 7.81 18.21 0 0 2.03 1.18 8.5 4.03 6.46 2.85 12.97 9.73 19 15.35 7.77 7.28 12.66 8.13 15.45 7.47 2.23-.52 3.14-2 3.14-2Z" fill="#EBB12B"/><path d="m851.22 579.7-27.18-60.4a9.37 9.37 0 0 0-3.71.72l27.75 61.68c2.23-.52 3.14-2 3.14-2Z" fill="#C77E2E"/><path d="m826.82 525.47-.8-1.8a14.53 14.53 0 0 1-8.2 7.61c-6.09 2.4-11.73.63-14.93-.9l-1.56 1c3.26 1.75 9.76 4.24 17.06 1.38a16.27 16.27 0 0 0 8.43-7.29Z" fill="#C77E2E"/><path d="M816.73 556.25a1.1 1.1 0 0 0-2.08.65l.77 4.2a1.1 1.1 0 1 0 2.15-.39l-.76-4.2a.86.86 0 0 0-.08-.25ZM811.91 553.91a1.1 1.1 0 0 0-2.08.66l.77 4.2a1.1 1.1 0 1 0 2.16-.4l-.77-4.2a.86.86 0 0 0-.08-.25ZM820.63 559.04a1.1 1.1 0 0 0-2.08.65l.76 4.2a1.1 1.1 0 1 0 2.16-.4l-.77-4.2-.07-.25ZM824.43 561.86a1.1 1.1 0 0 0-2.08.65l.77 4.2a1.1 1.1 0 1 0 2.15-.4l-.76-4.2-.08-.25ZM828.22 565.1a1.1 1.1 0 0 0-2.07.64l.76 4.2a1.1 1.1 0 1 0 2.16-.39l-.77-4.2a.86.86 0 0 0-.08-.25ZM831.89 568.81a1.1 1.1 0 0 0-2.08.65l.76 4.2a1.1 1.1 0 1 0 2.16-.39l-.77-4.2a.76.76 0 0 0-.07-.26Z" fill="#fff"/><path d="M702.66 473.17s-21.86-11.8-34.51-2.68c-23.14 16.7 16.13 48.8 61.06 64.47 44.94 15.68 59.52 13.53 59.52 13.53s9.77-2.69 6.3-18.52c0 0-25.9-9.86-39.38-20.18-13.48-10.32-22.66-22.97-53-36.62Z" fill="#21B573"/><path d="M793.28 534.58c-9.43-2.26-28.63-11.09-51.37-23.58-17-9.35-36.62-21.3-39.5-25.44-1.56-2.24-1.95-4.07-1.17-5.45 1.17-2.05 4.55-2.26 6.08-2.25a.68.68 0 0 1-.02 1.37c-1.5-.01-4.14.25-4.88 1.56-.62 1.1.26 2.77 1.1 3.98 2.33 3.34 18.75 13.87 39.04 25.02 17.48 9.61 40.07 20.82 51.03 23.45l-.31 1.34Z" fill="#217C58"/><path d="M791.5 527.88c-1.07 8.32-3.22 15.88-7.91 21.7 0 0 4.02 2.9 7.7.81 2.8-1.58 8.22-14.58 6.16-21.53-2.36-1.3-4.38-1.74-5.95-.98Z" fill="#217C58"/><path d="M734.49 535.99s8.93-1.73 11.46-4.8l7.13 14.1-20.53 7.96c-.01.01-1.39-14.14 1.94-17.26Z" fill="#EA9B7A"/><path d="M686.9 582.76 710 520.7a9.1 9.1 0 0 1 3.75.47c5.39 1.57 13.14 6.36 18.1 9.15.58.32 1.12.62 1.62.88.85.45 1.55.8 2.1 1 4.3 1.6 2.51 2.81 2.51 2.81-8.49 4-2.27 16.86-6.84 19.9 0 0-1.95 1.3-8.2 4.58-6.27 3.28-12.3 10.57-17.94 16.59-7.27 7.77-12.1 8.96-14.93 8.48-2.25-.38-3.27-1.8-3.27-1.8Z" fill="#EBB12B"/><path d="M686.9 582.76 710 520.7a9.1 9.1 0 0 1 3.75.47l-23.59 63.39a5.18 5.18 0 0 1-3.26-1.8Z" fill="#C77E2E"/><path d="m707.63 527.03.69-1.85c1.41 2.63 4 5.56 8.69 7.04 6.23 1.99 11.74-.16 14.84-1.91.58.32 1.12.62 1.62.88-3.13 1.98-9.46 4.9-16.93 2.52a16.06 16.06 0 0 1-8.91-6.68Z" fill="#C77E2E"/><path d="M719.75 557.07c.16-.45.63-.76 1.14-.7.6.07 1.02.61.96 1.21l-.48 4.24a1.1 1.1 0 0 1-2.17-.25l.48-4.24c.01-.09.04-.18.07-.26ZM724.4 554.42a1.1 1.1 0 0 1 2.1.5l-.47 4.25a1.1 1.1 0 0 1-1.2.96 1.1 1.1 0 0 1-.97-1.21l.48-4.24.07-.26ZM716.06 560.1a1.1 1.1 0 0 1 1.14-.7c.6.07 1.03.61.96 1.21l-.48 4.24a1.1 1.1 0 0 1-2.17-.25l.48-4.24c.02-.09.03-.17.07-.26ZM712.45 563.18a1.1 1.1 0 0 1 1.14-.7c.6.07 1.03.61.96 1.21l-.48 4.24a1.1 1.1 0 0 1-1.2.96 1.1 1.1 0 0 1-.97-1.2l.48-4.25c.01-.09.04-.18.07-.26ZM708.88 566.65a1.1 1.1 0 0 1 1.14-.7c.6.07 1.02.61.96 1.21l-.48 4.24a1.1 1.1 0 0 1-2.17-.25l.48-4.24c.01-.09.04-.16.07-.25ZM705.46 570.6c.17-.45.64-.76 1.14-.7.6.07 1.03.62.97 1.21l-.49 4.24a1.1 1.1 0 0 1-2.17-.25l.49-4.23c0-.1.03-.19.06-.26Z" fill="#fff"/><path d="M832.94 463.6s20.67-13.78 34.11-5.85c24.59 14.5-11.58 50.07-54.9 69.8-43.29 19.74-58.01 18.94-58.01 18.94s-9.97-1.78-7.98-17.87c0 0 24.88-12.2 37.36-23.72 12.48-11.5 20.47-24.94 49.42-41.3Z" fill="#21B573"/><path d="M795.12 534.97c-2.39.78-4.8 1.58-7.31 2.37a513.41 513.41 0 0 1-30.77 8.71l-.03 1.43a501.59 501.59 0 0 0 38.07-11.06l.04-1.45ZM748.34 533.05c9.18-3.12 27.5-13.66 48.99-28.2 16.08-10.87 34.52-24.57 37-28.96 1.33-2.37 1.57-4.23.66-5.53-1.35-1.93-4.73-1.84-6.26-1.69a.69.69 0 0 0-.61.8c.06.35.38.6.74.57 1.5-.14 4.14-.13 5.01 1.1.72 1.03 0 2.79-.72 4.07-2 3.54-17.4 15.53-36.59 28.51-16.52 11.17-37.98 24.4-48.66 28.04l.44 1.29Z" fill="#217C58"/><path d="M749.49 526.21c1.81 8.2 4.66 15.52 9.87 20.88 0 0-3.75 3.26-7.59 1.52-2.93-1.33-9.52-13.78-8.1-20.88 2.22-1.5 4.2-2.13 5.82-1.52Z" fill="#217C58"/><path d="m746.7 460.54-1.67 23.75s-28.22-4.03-42.06-7.57c-4.04-1.03-8.56-2.35-12.72-4.56-7.65-4.07-13.98-11.16-13.52-24.96.15-4.44 1-9.56 2.75-15.51 10.07-34.49 26.95-63.45 26.95-63.45 21.73 9.3 19.9 24.8 19.9 24.8-6.2 16.55-19.9 51.8-19.9 51.8 7.97 9.73 40.26 15.7 40.26 15.7Z" fill="#0875F7"/><path d="M706.43 445.59a.72.72 0 0 1-.38-.12c-2.4-1.48-8.94-3.03-9-3.04a.72.72 0 0 1-.55-.89c.1-.4.5-.63.88-.54.24.05 4.82 1.13 7.85 2.43a13.23 13.23 0 0 0-2.17-3.19.74.74 0 0 1 1.1-.98c1.74 1.98 2.73 3.78 3 5.48a.72.72 0 0 1-.31.73.8.8 0 0 1-.42.12ZM690.25 472.17c-7.65-4.07-13.98-11.15-13.52-24.96 6.07 3.17 16.63 10.86 13.52 24.96Z" fill="#084FC7"/><path d="m728.95 456.9-.18-.03c-13.97-3.61-22.47-11.15-22.82-11.48a.75.75 0 0 1-.16-.88c9.96-19.62 16.27-35.2 19.84-49.03.1-.39.5-.63.9-.53.38.1.63.5.53.9-3.57 13.82-9.83 29.33-19.7 48.8a58.76 58.76 0 0 0 21.78 10.78c.38.1.63.5.53.9a.74.74 0 0 1-.72.57Z" fill="#084FC7"/><path d="M723.36 406.5a.73.73 0 0 1-.57-1.2l5.18-6.51a.73.73 0 0 1 1.03-.12c.33.26.38.71.12 1.04l-5.18 6.51a.83.83 0 0 1-.58.27Z" fill="#084FC7"/><path d="m747.51 346.62 25.07 3.58c16.28-1.62 21.46-8.1 24.13-21.8a37.23 37.23 0 0 0-.86-17.5c-.34-5.15-1.52-9.6-3.95-12.54-11-13.27-20.69-12.75-20.69-12.75-4.92-2.26-21.18-3.81-31.9 9.23-.34.28-6.89 7.23-8.4 21.79-1.45 13.9 7.8 31.63 16.6 29.99Z" fill="#39393B"/><path d="M761.51 289.26s2.61-23.14-17.9-20.2c-13.4 1.91-21.7 20.1-9.45 28.35 12.25 8.26 27.35-8.15 27.35-8.15Z" fill="#39393B"/><path d="M736.21 299.8c-.1 0-.2-.04-.3-.09a.66.66 0 0 1-.27-.88c4.75-8.65 11.53-12.47 16.38-14.16 5.26-1.82 9.35-1.6 9.52-1.6.36.03.63.33.6.7a.64.64 0 0 1-.68.6 28.08 28.08 0 0 0-24.68 15.08.66.66 0 0 1-.57.34Z" fill="#EBB12B"/><path d="M749.47 341.4s-15.98-8.95-12.84-27.6c3.14-18.64 15.4-29.86 34.2-24.45 0 0-1.83 53.89-21.36 52.05ZM793.94 307.12s1.63 16-1.29 18.32c-2.9 2.31-5.76-4.02-5.76-4.02s3.97-14.12 7.05-14.3Z" fill="#39393B"/><path d="M786.58 326.9s4.76-4.19 6.35.95c1.58 5.13-1.63 14.58-7.56 12.07l1.2-13.02Z" fill="#D46A43"/><path d="M792.45 338.75a10.8 10.8 0 0 1-2.17 1.55c-3 1.61-6.91 1.8-11.61-.66 0 0-6.02-7.83 2.87-21.64 0 0 8.14-2.14 12.8 2.79a9.7 9.7 0 0 1 2.1 3.34c1.64 4.2.1 10.9-4 14.62Z" fill="#21B573"/><path d="M792.23 319.1c.37-1.84.75-4.13 1-6.66a.89.89 0 0 1-.37.1c-.5.03-1-.18-1.5-.54a67.97 67.97 0 0 1-.89 6.29l1.75.82Z" fill="#fff"/><path d="M792.45 338.75a10.8 10.8 0 0 1-2.17 1.55 41.08 41.08 0 0 0 4.06-19.51 9.7 9.7 0 0 1 1.4 1.9c0 3.58-.54 9.48-3.3 16.06Z" fill="#217C58"/><path d="m772.68 349.98-1.96 13.24s-8.1 10.38-26.82-6.55c2.13-5.39 5.4-12.31 4.56-17.62 0 0 1.36 1.26 3.73 2.76l1.54.96c4.86 2.95 12.29 6.75 18.95 7.21Z" fill="#EA9B7A"/><path d="m772.68 349.98-.92 6.2c-5.47-2.11-14.92-6.68-19.59-14.39.48.32 1 .64 1.55.97 4.87 2.96 12.3 6.76 18.96 7.22Z" fill="#39393B"/><path d="M790.64 327.48c-.2 1.37-.4 2.65-.61 3.88-1.5 9.12-2.88 14.03-5.42 15.99-12.81 9.84-35.41-7.56-36.14-8.12l-.01-.01a81.21 81.21 0 0 1 2.62-27.31 18.39 18.39 0 0 1 14.48-16.34c8.17-1.67 14.61 2.78 18.6 4.68 6.01 2.88 8.77 11.63 7.08 23.25l-.6 3.98Z" fill="#EA9B7A"/><path d="M779.19 338.12c-7.17 0-10.04-6.87-10.07-6.95a.65.65 0 0 1 .37-.84c.33-.13.7.02.84.36.13.3 3.13 7.43 10.95 5.92.35-.07.69.17.76.52a.67.67 0 0 1-.52.76c-.83.15-1.6.23-2.33.23ZM773.67 313.34c1.84-.64 1.46-3.36-.48-3.49-3.32-.2-8.64-.13-9.08 2.55-.65 3.91 5.53 2.29 9.44.98l.12-.04ZM783.45 314.5c-1.43-1.33 0-3.67 1.84-3 3.12 1.15 7.96 3.37 7.29 6-.98 3.85-6-.15-9.04-2.92l-.1-.09Z" fill="#39393B"/><path d="M773.9 341.31c1.31.33 2.42.08 2.5.06a.43.43 0 0 0-.2-.85c-.03 0-2.17.48-3.8-.95a.43.43 0 1 0-.56.65c.66.6 1.38.92 2.06 1.1Z" fill="#D46A43"/><path d="M778.4 332.4a.5.5 0 0 1-.25-.28.48.48 0 0 1 .3-.6l3.13-1.02-1.86-1.89a.44.44 0 0 1-.13-.39l.57-5.19a.47.47 0 0 1 .53-.41c.26.02.46.26.42.52l-.56 4.95 2.23 2.26c.12.12.17.29.13.45a.48.48 0 0 1-.3.33l-3.87 1.28c-.11.06-.23.05-.35-.02Z" fill="#39393B"/><path d="M770.29 327.44c-.16 1.08-2.5 1.61-5.23 1.21-2.73-.4-4.82-1.61-4.65-2.69.15-1.08 2.5-1.61 5.23-1.2 2.72.4 4.8 1.6 4.65 2.68Z" fill="#D46A43"/><path opacity=".8" d="M790.64 328.74c-.2 1.37-.4 2.65-.61 3.88-2.5-.47-4.32-1.6-4.17-2.6.14-1.03 2.25-1.56 4.78-1.28Z" fill="#D46A43"/><path d="M772.95 323.6c-.22 1.48-1.06 2.57-1.9 2.45-.82-.12-1.3-1.42-1.1-2.9.22-1.48 1.07-2.57 1.9-2.45.83.11 1.32 1.41 1.1 2.9ZM787.55 325.76c-.22 1.49-1.06 2.58-1.9 2.46-.83-.12-1.3-1.42-1.1-2.9.22-1.48 1.07-2.57 1.9-2.45.84.13 1.32 1.43 1.1 2.9ZM754.17 333.95c-.09.16-2.7 4.37-5.7 5.28l-.01-.01a66.14 66.14 0 0 1-.16-3.15c.1 0 3-.09 5.87-2.12Z" fill="#39393B"/><path d="M753 323.28s-4.74-8.81-9.98-3.22c-4.33 4.6.35 19.29 8.31 15.36l1.66-12.14Z" fill="#EA9B7A"/><path d="M750.72 333.02a.61.61 0 0 1-.52-.64 10.27 10.27 0 0 0-4.68-9.06.63.63 0 0 1-.22-.84c.17-.3.55-.4.85-.23a11.5 11.5 0 0 1 5.28 10.18c0 .34-.3.6-.63.59h-.08Z" fill="#39393B"/><path d="M745.6 328.48a.62.62 0 0 1-.22-1.14c.27-.16 2.7-1.56 4.46-.82.3.13.45.5.32.8a.62.62 0 0 1-.8.33c-1.02-.43-2.81.42-3.36.74-.13.1-.27.12-.4.1Z" fill="#39393B"/><path d="M767.63 331.36a8.98 8.98 0 1 1 6.41-16.78 8.98 8.98 0 0 1-6.41 16.78Zm5.93-15.57a7.67 7.67 0 1 0-5.45 14.35 7.67 7.67 0 0 0 5.45-14.35Z" fill="#fff"/><path d="M762.73 320.95a.53.53 0 0 1-.23-.06 13.29 13.29 0 0 0-9.47-.5.65.65 0 0 1-.47-1.22c.21-.09 5.13-1.92 10.48.54.33.15.47.54.33.87a.68.68 0 0 1-.64.38ZM787.48 333.6a8.98 8.98 0 1 1 6.41-16.78 8.98 8.98 0 0 1-6.4 16.78Zm5.95-15.56a7.67 7.67 0 1 0-5.45 14.35 7.67 7.67 0 0 0 5.45-14.35Z" fill="#fff"/><path d="M778.8 322.36a.6.6 0 0 1-.25-.24.66.66 0 0 1 .2-.9c.1-.06 2.28-1.4 4.55.35.29.22.34.63.12.92a.66.66 0 0 1-.92.12c-1.56-1.2-3.04-.29-3.05-.29a.62.62 0 0 1-.65.04Z" fill="#fff"/><path d="M783.6 292.17c5.46 2.46 9.74 7.01 11.65 12.68 1.2 3.55 2.2 8.24-2.8 7.63-13.6-1.65-20.89-15.8-20.89-15.8s-2.65 13.03-13.33 11.44c-10.7-1.6-10.36-9.66-4.28-14.22 4.95-3.72 17.56-7.17 29.65-1.73Z" fill="#39393B"/><path d="M758.64 306.63s-6.08 6.54-3.9 13.57c2.19 7.03 2.33 12.68.06 16.46 0 0-.59-7.41-3.3-13.03-2.22-4.61-4.3-8.12-2.69-13.44 1.1-3.65 3.77-7.15 9.83-3.56Z" fill="#39393B"/><path d="M748.76 338.53c-4.72 1.15-8.37.48-11.07-1.22-.43-.27-.83-.57-1.22-.88-5.66-4.75-6.08-14.6-2.6-19.41a11 11 0 0 1 5.49-4.14c5.85-1.92 12.2 1.6 12.2 1.6 6.64 18.3-2.8 24.05-2.8 24.05Z" fill="#21B573"/><path d="M765.34 346.54c-13.78-2.82-19.63-12.75-19.9-13.24a.8.8 0 0 1 .3-1.09.8.8 0 0 1 1.08.3c.1.16 7.25 12.2 23.95 13.1a.8.8 0 0 1-.09 1.6 36.9 36.9 0 0 1-5.34-.67Z" fill="#fff"/><path d="M775.16 347a2.56 2.56 0 1 1-5-1.02 2.56 2.56 0 0 1 5 1.03Z" fill="#243434"/><path d="M737.7 337.32c-.44-.27-.84-.57-1.23-.88a32.82 32.82 0 0 0 1.51-22.99c.45-.23.9-.41 1.36-.56a34.42 34.42 0 0 1-1.65 24.43Z" fill="#217C58"/><path d="M793.63 301.14a21.45 21.45 0 0 0-3.08-4.33c-.53-1.54-1.1-3-1.96-4.35-2.88-4.58-7.44-7.38-13.57-8.33-6.61-1.03-12.35.28-17.05 3.88a24.42 24.42 0 0 0-3.94 3.84 34.08 34.08 0 0 0-4.04 6.3c-3.79 7.6-4.7 15.4-4.71 15.5l-1.8-.2c.07-.74 2.1-18.26 13.37-26.9 5.1-3.9 11.31-5.34 18.44-4.23 6.68 1.03 11.66 4.12 14.83 9.16a26.12 26.12 0 0 1 3.5 9.66Z" fill="#fff"/><path d="m725.1 501.21-6.28-11.96a4.46 4.46 0 0 1 4-6.52l98.73 1.06-2.91 15.32-93.53 2.1Z" fill="#39393B"/><path d="M816.92 497.85h-88.36a3.38 3.38 0 0 1-3.42-3.87l6.02-54.65a4.42 4.42 0 0 1 4.29-3.86h88.36a3.38 3.38 0 0 1 3.43 3.86L821.2 494a4.42 4.42 0 0 1-4.29 3.86Z" fill="#39393B"/><path d="M727.25 500.2h-.09a.75.75 0 0 1-.65-.83l7.34-58.53c.05-.4.43-.7.83-.65.4.05.7.43.65.83l-7.34 58.53a.75.75 0 0 1-.74.65Z" fill="#564C54"/><path d="M770.24 467.63a7.78 7.78 0 0 0 7.2 8.45 8.03 8.03 0 0 0 8.45-7.44 7.78 7.78 0 0 0-7.21-8.45 8.03 8.03 0 0 0-8.44 7.44Z" fill="#585859"/><path d="M817.35 502.6h-89.58a3.25 3.25 0 0 1-3.22-3.69l.86-6.25h96.14l-.97 7.12a3.25 3.25 0 0 1-3.23 2.82Z" fill="#39393B"/><path d="m752.43 484.96-.65 3.12h2.95l-.32 3.72h-3.42l-.71 3.4h-3.91l.71-3.4h-2.41l-.72 3.4h-3.9l.7-3.4h-2.94l.33-3.7h3.41l.65-3.12h-2.95l.33-3.72h3.41l.72-3.4h3.9l-.7 3.4h2.4l.72-3.4h3.91l-.71 3.4h2.94l-.32 3.72-3.42-.02Zm-3.9 0h-2.4l-.66 3.12h2.42l.65-3.12Z" fill="#EBB12B"/><path d="M841.7 398.6a24.4 24.4 0 0 0 24.38 24.4 24.4 24.4 0 0 0 24.38-24.4 24.38 24.38 0 1 0-48.75 0Z" fill="#DF615C"/><path d="m853.61 418.55-13.1 2.76 5.67-11.3 7.43 8.54Z" fill="#DF615C"/><path d="M868.14 393.35c0-1.14-1.1-1.73-2.46-1.73-1.59 0-3.05.96-3.83 2.51l-6.56-3.27c1.88-3.54 5.6-5.97 11.5-5.97 5.77 0 10.08 2.43 10.08 7.05 0 5.64-5.9 6.63-5.9 9.47h-7.58c0-4.48 4.75-5.8 4.75-8.06Zm-5.81 13.86c0-2.47 1.98-4.35 4.85-4.35 2.87 0 4.86 1.88 4.86 4.35 0 2.43-1.99 4.42-4.86 4.42s-4.85-1.99-4.85-4.42Z" fill="#fff"/><path d="M599.45 537.24s-9.96-15.67-34.13-29.9c-17.08-10.05-27.02-38.44-27.02-38.44s32.71 1.43 46.93 21.35c14.22 19.95 14.22 46.99 14.22 46.99Z" fill="#21B573"/><path d="M599.57 537.66a.47.47 0 0 1-.47-.36c-4.6-17.38-14.66-29.98-22.3-37.5-8.27-8.13-15.53-12.2-15.6-12.24a.5.5 0 0 1-.2-.66.49.49 0 0 1 .66-.2c.08.04 7.45 4.18 15.82 12.42 7.72 7.6 17.9 20.35 22.55 37.93a.5.5 0 0 1-.35.6l-.11.01Z" fill="#39393B"/><path d="M595.16 536.88s-2.84-5.69-15.64-4.27c-12.8 1.43-19.91 8.54-42.66-4.28 0 0 17.06-14.23 35.55-11.39 18.48 2.86 19.91 9.97 22.75 19.94Z" fill="#21B573"/><path d="M595.23 537.37a.48.48 0 0 1-.41-.24c-.06-.09-5.78-9.1-15-10.77-16.08-2.93-27.04 2.22-27.15 2.27a.48.48 0 0 1-.65-.23.48.48 0 0 1 .24-.65c.11-.06 11.34-5.35 27.75-2.36 9.64 1.76 15.4 10.83 15.64 11.22.14.24.07.53-.16.68a.4.4 0 0 1-.26.08Z" fill="#39393B"/><path d="M600.75 535.5s-1.12-6.26 10-12.77c11.12-6.51 21.06-5.06 31.67-28.94 0 0-22.18-1.22-35.3 12.12-13.14 13.35-10.03 19.9-6.37 29.6Z" fill="#21B573"/><path d="M600.7 536.03a.48.48 0 0 1-.48-.44c-.04-.46-.83-11.19 5.85-18.35 11.4-12.2 23.55-14.68 23.67-14.7.25-.05.51.12.57.39a.49.49 0 0 1-.4.57c-.1.03-11.97 2.44-23.13 14.4-6.4 6.86-5.62 17.5-5.6 17.6.02.28-.18.51-.44.53h-.04Z" fill="#39393B"/><path d="M613.84 543.24h-31.17a3.35 3.35 0 0 1-3.34-3.34v-1.4c0-1.85 1.51-3.34 3.34-3.34h31.17c1.84 0 3.34 1.5 3.34 3.34v1.4a3.33 3.33 0 0 1-3.34 3.34Z" fill="#DF615C"/><path d="M598.41 612.96c-25.43 0-41.6-4.06-39.01-21.98 1.65-11.38 10.52-22.53 16.78-29.16.88-.94 1.71-1.78 2.45-2.52a73.05 73.05 0 0 1 3.89-3.62l.07-.41.44-2.52.51-2.9 1.17-6.62.4-2.32 13.3-.58 13.87.58.31 2.32.5 3.63.8 5.87.35 2.52.05.42s1.58 1.33 3.89 3.61c.75.75 1.58 1.59 2.47 2.53 6.25 6.63 15.12 17.77 16.77 29.16 2.6 17.95-13.58 22-39 22Z" fill="#DF615C"/><path d="M614.24 555.28h-31.66l.44-2.52h30.87l.35 2.52ZM620.64 561.82h-44.47c.88-.94 1.71-1.78 2.45-2.52h39.56c.75.75 1.58 1.6 2.47 2.52ZM613.09 546.88l-29.55 2.98 1.17-6.62h27.88l.5 3.64Z" fill="#A92F4B"/><path d="M337.98 376.06h-12c-1.2 0-2.16-.96-2.16-2.16v-8.28c0-1.2.96-2.16 2.16-2.16h12c1.2 0 2.15.97 2.15 2.16v8.28a2.14 2.14 0 0 1-2.15 2.16Z" fill="#fff"/><path d="M344.86 363.46v12.6l-5.08-4.27v-4.05l5.08-4.28Z" fill="#fff"/><path d="M366.77 380.26a10.49 10.49 0 1 0-.01-20.97 10.49 10.49 0 0 0 0 20.97Z" fill="#DD615C"/><path d="M361.82 375.81c.29 0 .56-.1.78-.32l9.88-9.9a1.1 1.1 0 0 0-1.56-1.56l-9.88 9.9a1.1 1.1 0 0 0 .78 1.88Z" fill="#fff"/><path d="M371.7 375.81c.29 0 .56-.1.78-.32a1.1 1.1 0 0 0 0-1.56l-9.88-9.9a1.1 1.1 0 0 0-1.56 1.57l9.88 9.89c.22.22.51.32.78.32ZM307.43 375.09h1a2.39 2.39 0 0 0 2.38-2.38v-10.27a2.39 2.39 0 0 0-2.38-2.38h-1a2.39 2.39 0 0 0-2.37 2.38v10.27a2.38 2.38 0 0 0 2.37 2.38Z" fill="#fff"/><path d="M307.82 378.65h.21a.5.5 0 0 0 .5-.5v-6.08a.5.5 0 0 0-.5-.5h-.2a.5.5 0 0 0-.5.5v6.08c.01.28.23.5.5.5Z" fill="#fff"/><path d="M303.16 379.2h9.53c.56 0 1.03-.46 1.03-1.03v-.43c0-.56-.46-1.03-1.03-1.03h-9.53c-.56 0-1.03.47-1.03 1.03v.43c0 .56.47 1.02 1.03 1.02Z" fill="#fff"/><path d="M262.36 332.15a12.05 12.05 0 0 0-10.68-10.5c-4.34-.47-9.36-.66-13.25.25-1.05.25-2.02.58-2.88 1.02l.22 1c3.03-1.63 8.46-2.08 15.8-1.28 2.34.26 4.49 1.25 6.18 2.74a10.89 10.89 0 0 1 3.62 6.88c.02.25.05.5.05.73l.99-.27-.05-.57Zm-22.25.36c-.77.55-1.5 1-2.18 1.35l.2 1.02c.81-.4 1.67-.93 2.56-1.56 4.21-3.04 6.98-.52 9.93 2.16l.38.36 1.13-.31a665 665 0 0 0-.85-.78c-2.95-2.68-6.31-5.75-11.17-2.24Z" fill="#A92F4B"/></svg>