<svg width="1789" height="760" fill="none" xmlns="http://www.w3.org/2000/svg"><path d="M1150.69 703.69a4.85 4.85 0 1 1-9.7 0 4.85 4.85 0 0 1 9.7 0ZM1197.68 745.7a4.84 4.84 0 1 0 0-9.68 4.84 4.84 0 0 0 0 9.68ZM1179.44 730.9a10.33 10.33 0 1 0 0-20.66 10.33 10.33 0 0 0 0 20.65Z" stroke="#4D2C5E" stroke-opacity=".1" stroke-width="2" stroke-miterlimit="10" stroke-linecap="round" stroke-linejoin="round"/><path d="m1197.44 720.57-3.44 6.02-1.83 6.7-6.7 1.82-6.03 3.45-6.02-3.45-6.71-1.82-1.82-6.7-3.45-6.02 3.45-6.03 1.82-6.7 6.71-1.83 6.02-3.45 6.03 3.45 6.7 1.82 1.83 6.7 3.44 6.04Z" stroke="#4D2C5E" stroke-opacity=".1" stroke-width="2" stroke-miterlimit="10" stroke-linecap="round" stroke-linejoin="round"/><path d="M1192.84 740.85a4.85 4.85 0 0 1 8.47-3.2 27.76 27.76 0 1 0-7.2 6.47c-.78-.86-1.27-2-1.27-3.27Z" stroke="#4D2C5E" stroke-opacity=".1" stroke-width="2" stroke-miterlimit="10" stroke-linecap="round" stroke-linejoin="round"/><path d="M1179.44 683a37.51 37.51 0 0 0-31.12 16.53 4.85 4.85 0 0 1-2.48 9 4.8 4.8 0 0 1-1.85-.37 37.57 37.57 0 1 0 35.45-25.16Z" stroke="#4D2C5E" stroke-opacity=".1" stroke-width="2" stroke-miterlimit="10" stroke-linecap="round" stroke-linejoin="round"/><path d="m1291.84 80.23-23.3-7.92a4.71 4.71 0 0 1 3.02-8.92l23.3 7.92a4.7 4.7 0 1 1-3.02 8.92ZM1288.78 89.25l-23.31-7.92a4.7 4.7 0 1 1 3.03-8.9l23.31 7.9a4.7 4.7 0 1 1-3.03 8.92Z" stroke="#4D2C5E" stroke-opacity=".1" stroke-width="3" stroke-miterlimit="10"/><path d="m1268.06 39.05.07.24c.53 1.66 3.6 12.19 2.31 23.88l25.01 8.25c5.92-10.16 14.66-16.78 16.07-17.81l.19-.14a28.26 28.26 0 0 0 10.38-14.15 28.4 28.4 0 1 0-54.03-.27ZM1266.75 81.88a11.22 11.22 0 0 0 20.47 6.95l-20.47-6.95Z" stroke="#4D2C5E" stroke-opacity=".1" stroke-width="3" stroke-miterlimit="10"/><path d="m1278.27 65.62 7.43-22.52a4.22 4.22 0 1 0-5.34 2.7l8.92 2.94" stroke="#4D2C5E" stroke-opacity=".1" stroke-width="3" stroke-miterlimit="10"/><path d="m1288.07 68.85 7.43-22.5a4.23 4.23 0 1 1 2.69 5.33l-8.92-2.94" stroke="#4D2C5E" stroke-opacity=".1" stroke-width="3" stroke-miterlimit="10"/><path d="m1327.37 47.08 7.53 2.48M1330.82 37.6l7.84-1.19M1322.1 55.21l5.59 5.62M1257.44 24l-7.53-2.49M1260.32 14.32l-5.59-5.62M1256.84 33.67l-7.84 1.18" stroke="#4D2C5E" stroke-opacity=".1" stroke-width="3" stroke-miterlimit="10" stroke-linecap="round"/><path d="m1055.99 158.58-69.2-20.67a9.5 9.5 0 0 1-6.39-11.84l13.82-46.28a9.5 9.5 0 0 1 11.83-6.39l69.21 20.67a9.51 9.51 0 0 1 6.39 11.84l-13.82 46.28a9.52 9.52 0 0 1-11.84 6.39ZM982.03 120.6l87.43 26.12" stroke="#4D2C5E" stroke-opacity=".1" stroke-width="4" stroke-miterlimit="10" stroke-linecap="round"/><path d="M1025.96 141.24a2.37 2.37 0 1 1-4.55-1.36 2.37 2.37 0 0 1 4.55 1.36Z" fill="#4D2C5E" fill-opacity=".5"/><path d="m1031.2 151.18-19.6-5.86-2.64 8.85 19.6 5.85 2.64-8.84ZM1001.69 152.5l33.84 10.1" stroke="#4D2C5E" stroke-opacity=".1" stroke-width="4" stroke-miterlimit="10" stroke-linecap="round"/><path d="M1728.72 85.64c21.69 0 39.28-8.34 39.28-18.62 0-10.29-17.59-18.62-39.28-18.62s-39.28 8.33-39.28 18.62c0 10.28 17.59 18.62 39.28 18.62Z" stroke="#4D2C5E" stroke-opacity=".1" stroke-width="3" stroke-miterlimit="10" stroke-linecap="round" stroke-linejoin="round"/><path d="M1744.6 76.72c11.29-18.53 13.31-37.88 4.53-43.23-8.78-5.35-25.05 5.34-36.33 23.87-11.28 18.53-13.31 37.88-4.52 43.23 8.78 5.35 25.04-5.34 36.32-23.87Z" stroke="#4D2C5E" stroke-opacity=".1" stroke-width="3" stroke-miterlimit="10" stroke-linecap="round" stroke-linejoin="round"/><path d="M1749.12 100.58c8.78-5.35 6.76-24.7-4.52-43.23-11.28-18.53-27.55-29.21-36.33-23.87-8.78 5.35-6.76 24.7 4.52 43.23 11.28 18.53 27.55 29.22 36.33 23.87Z" stroke="#4D2C5E" stroke-opacity=".1" stroke-width="3" stroke-miterlimit="10" stroke-linecap="round" stroke-linejoin="round"/><path d="M1728.72 71.94a4.93 4.93 0 1 0 0-9.86 4.93 4.93 0 0 0 0 9.86Z" stroke="#4D2C5E" stroke-opacity=".1" stroke-width="3" stroke-miterlimit="10" stroke-linecap="round" stroke-linejoin="round"/><path d="m1742.54 654.64-32.44 7.49-1.45-6.32a2.72 2.72 0 0 1 2.03-3.27l27.13-6.26a2.73 2.73 0 0 1 3.27 2.03l1.46 6.33Z" stroke="#4D2C5E" stroke-opacity=".1" stroke-width="3" stroke-miterlimit="10" stroke-linecap="round"/><path d="M1731.88 620.64a33.25 33.25 0 1 0-41.75-51.76 33.25 33.25 0 0 0 41.75 51.76Z" stroke="#4D2C5E" stroke-opacity=".1" stroke-width="3" stroke-miterlimit="10"/><path d="m1726.48 624.17-31.01-58.82-3.87-7.14a41.38 41.38 0 1 0 38.59 73.2l-3.79-7.19" stroke="#4D2C5E" stroke-opacity=".1" stroke-width="3" stroke-miterlimit="10" stroke-linecap="round" stroke-linejoin="round"/><path d="M1702.3 578.24c10.16-5.35 16.86-12.59 14.98-16.16-1.88-3.57-11.64-2.12-21.79 3.23-10.15 5.36-16.86 12.59-14.98 16.16 1.89 3.57 11.64 2.12 21.79-3.23ZM1704.69 627.4a33.1 33.1 0 0 0 21.79-3.23 33.13 33.13 0 0 0 14.98-16.15 33.1 33.1 0 0 0-21.79 3.23 33.13 33.13 0 0 0-14.98 16.16Z" stroke="#4D2C5E" stroke-opacity=".1" stroke-width="3" stroke-miterlimit="10"/><path d="M1726.51 624.14c8.12-4.28 7.76-20.92-.81-37.17-8.56-16.24-22.09-25.94-30.21-21.66-8.12 4.28-7.76 20.92.8 37.17 8.57 16.24 22.1 25.94 30.22 21.66ZM1681.56 610.27l58.83-31.01M1720.63 635.03l3.44 14.32" stroke="#4D2C5E" stroke-opacity=".1" stroke-width="3" stroke-miterlimit="10"/><path d="m1706.21 663.46 41.35-9.91" stroke="#4D2C5E" stroke-opacity=".1" stroke-width="3" stroke-miterlimit="10" stroke-linecap="round"/><path d="m1764.73 447.02 17.31-17.3-47.95-47.95-17.31 17.3 47.95 47.95Z" stroke="#4D2C5E" stroke-opacity=".1" stroke-width="3" stroke-miterlimit="10" stroke-linecap="round" stroke-linejoin="round"/><path d="m1786.71 451.7-4.68-21.99-17.31 17.31 21.99 4.69ZM1784.53 441.44l-8.08 8.08M1711.68 385.88l9.2-9.2a5.73 5.73 0 0 1 8.11 0l5.08 5.09-17.3 17.3-5.09-5.08a5.73 5.73 0 0 1 0-8.1ZM1738.75 386.44l-17.3 17.31M1773.38 438.37l-43.28-43.27" stroke="#4D2C5E" stroke-opacity=".1" stroke-width="3" stroke-miterlimit="10" stroke-linecap="round" stroke-linejoin="round"/><path d="m412.03 656.2-3.19 7.27M435.14 666.35l-3.18 7.26M458.27 676.48l-3.19 7.26M396.56 649.42l-1.6 3.64M404.29 652.82l-1.6 3.62M419.72 659.58l-1.6 3.63M427.45 662.97l-1.59 3.63M442.88 669.74l-1.6 3.63M466.38 680.04l-1.59 3.63M450.61 673.13l-1.58 3.63M453.27 738.09l-76.34-97.27 99.8 43.76-23.46 53.51Z" stroke="#4D2C5E" stroke-opacity=".1" stroke-width="4" stroke-miterlimit="10" stroke-linecap="round" stroke-linejoin="round"/><path d="m449.38 707.39-20.89-26.6 27.3 11.96-6.41 14.64ZM639.77 24 611 37.91l57.35 118.62 28.77-13.92L639.77 24ZM646.64 38.23l-14.38 6.95M659.93 65.71l-14.39 6.96M673.22 93.2l-14.39 6.95M686.5 120.68l-14.38 6.95M651.04 47.33l-7.19 3.47M655.48 56.52 648.29 60M664.35 74.86l-7.19 3.47M668.79 84.05l-7.19 3.48M677.66 102.4l-7.19 3.46M682.11 111.58l-7.2 3.48" stroke="#4D2C5E" stroke-opacity=".1" stroke-width="4" stroke-miterlimit="10" stroke-linecap="round" stroke-linejoin="round"/><path d="M40 624.63 8.77 639.3a3.34 3.34 0 0 1-4.45-1.6l-2-4.26a3.34 3.34 0 0 1 1.6-4.45l31.23-14.67a3.34 3.34 0 0 1 4.45 1.6l2 4.26a3.34 3.34 0 0 1-1.6 4.45ZM52.13 657.95l-15.28-31.82L12.13 638l15.28 31.82 9.64 53.24a13.26 13.26 0 0 0 17.7 6.22l26.7-12.82a13.26 13.26 0 0 0 6.21-17.7l-35.53-40.8Z" stroke="#4D2C5E" stroke-opacity=".1" stroke-width="4" stroke-miterlimit="10" stroke-linecap="round"/><path d="M31.75 693.83s5.1-8.26 18.66-7.79c13.56.47 15.84-11.88 15.84-11.88" stroke="#4D2C5E" stroke-opacity=".1" stroke-width="4" stroke-miterlimit="10" stroke-linecap="round"/><path d="M83.48 109.96a21.48 21.48 0 1 0 0-42.96 21.48 21.48 0 0 0 0 42.96ZM113.59 131.18a8.59 8.59 0 1 0 0-17.18 8.59 8.59 0 0 0 0 17.18Z" stroke="#4D2C5E" stroke-opacity=".1" stroke-width="4" stroke-miterlimit="10" stroke-linecap="round" stroke-linejoin="round"/></svg>