<svg width="517" height="645" fill="none" xmlns="http://www.w3.org/2000/svg"><path d="M257.72 644.1c142.34 0 257.73-7.03 257.73-15.68 0-8.66-115.39-15.68-257.73-15.68C115.4 612.74 0 619.76 0 628.42c0 8.65 115.39 15.67 257.72 15.67Z" fill="#CED3E6"/><path d="m241.66 191.87 26.03 95.2-9.3-10.7a46.68 46.68 0 0 0 11.82 4.22c4.4 1 9.2 1.56 14.22 1.81 5.02.27 10.25.22 15.6 0 5.36-.23 10.83-.62 16.38-1.1h.03a14.88 14.88 0 0 1 3.61 29.52c-5.73.9-11.54 1.78-17.5 2.47-5.98.7-12.1 1.21-18.44 1.35-6.33.15-12.9-.1-19.7-1.08a81.91 81.91 0 0 1-20.67-5.71 16.2 16.2 0 0 1-8.95-9.72l-.34-1-31.23-93.6a20.09 20.09 0 1 1 38.44-11.66Z" fill="#EA9B7A"/><path d="M251.67 536.96c-.39 0-.78-.07-1.17-.22l-136.37-49.16a3.44 3.44 0 0 1 2.33-6.46l136.37 49.16a3.43 3.43 0 0 1 2.06 4.4 3.4 3.4 0 0 1-3.22 2.28Z" fill="#C77E2E"/><path d="M109.63 536.96a3.46 3.46 0 0 1-1.18-6.7l138-49.98a3.47 3.47 0 0 1 4.4 2.07 3.47 3.47 0 0 1-2.06 4.41L110.8 536.74c-.39.15-.78.22-1.17.22Z" fill="#C77E2E"/><path d="M263.8 624.82a5.91 5.91 0 0 1-5.83-5.1l-24.63-183.94H130.28L106 619.72a5.89 5.89 0 0 1-11.67-1.54l24.93-189.02a5.9 5.9 0 0 1 5.84-5.12h113.4a5.9 5.9 0 0 1 5.83 5.1l25.32 189.03a5.9 5.9 0 0 1-5.05 6.62l-.8.03Z" fill="#FAAF3A"/><path d="M205.66 429.91H132c-23.33 0-48.3-12.78-51.9-35.82a437.84 437.84 0 0 1-4.65-88.08A107.32 107.32 0 0 1 116.12 227s14.72 64.11-3.79 152.6c7.08 33.6 93.33 50.32 93.33 50.32Z" fill="#FAAF3A"/><path d="M190.3 53.91s-8.75-21.1-31.94-17.11c-16.19 2.77-23.1 22.95-22.15 54.12 1.39 45.36-13.95 72.7-13.95 72.7l20.36 4.62c.01-.02 51.85-77.78 47.68-114.33ZM376.03 546.01h-32.9s-7.61-36.5-10.16-56.97c-2.56-20.48-3.88-69-3.88-69s-26.2 8.52-81.08 5.3c-121.59-7.1-75.48-96.43-75.48-96.43 4.1 5.68 29.27 1.75 46.47 4.45 52.8 5.07 98.56 25.78 126.04 37.63 6.61 2.85 12.49 5.88 17.65 9.06 6.62 4.08 10.76 16.48 13.27 32.76 7.5 48.95.07 133.2.07 133.2Z" fill="#39393B"/><path d="M347.23 528.42a1.2 1.2 0 0 1-1.16-.95c-4.75-23.49-6.34-52.72-7.62-76.2-1.06-19.5-2.06-37.89-4.57-40.1-2.03-1.8-10.44-.39-21.09 1.37-21.19 3.53-53.22 8.83-88.52.63-19.23-4.49-33.38-13.83-42.03-27.78-14.93-24.06-8.11-53.9-8.04-54.2.14-.64.78-1.03 1.42-.87.64.14 1.03.78.88 1.42-.08.29-6.64 29.2 7.77 52.42 8.31 13.4 21.96 22.39 40.55 26.71 34.86 8.12 66.6 2.85 87.62-.64 12.58-2.08 20.18-3.35 23.04-.82 3.1 2.74 3.97 16.2 5.36 41.73 1.28 23.41 2.86 52.54 7.58 75.87.12.64-.29 1.26-.93 1.39-.12.02-.2.02-.26.02Z" fill="#585859"/><path d="M376.65 529.04h-.01l-36.59-.78a1.18 1.18 0 0 1-1.15-1.22c.02-.65.55-1.17 1.2-1.15l36.6.78c.65.02 1.17.55 1.15 1.21a1.2 1.2 0 0 1-1.2 1.16Z" fill="#585859"/><path d="M375.13 588.15H351.9l-4.46-27.23-2.46-14.9h28.85l.46 14.9.83 27.23Z" fill="#EA9B7A"/><path d="M375.13 588.15H351.9l-3.32-20.27-1.14-6.96h26.85l.23 7.21.6 20.02Z" fill="#FAAF3A"/><path d="m374.52 568.13-25.94-.25-1.14-6.96h26.85l.23 7.21Z" fill="#C77E2E"/><path d="M432.42 624.82h-87.81c-.66-1.2-1.01-2.86-1.16-4.87-.55-7.44 1.82-19.3 2.97-26.77.15-.87.27-1.69.36-2.41.16-1.25.27-2.3.27-3.07 0-6.1 5.39-5.05 5.39-5.05 8.88 8.72 18.95-4.36 24.82-.07l.78.59a233.38 233.38 0 0 1 8.72 7.5c6.98 6.27 18.83 10.4 28.92 14.61a79.87 79.87 0 0 1 5.97 2.83c8.26 4.45 10.88 8.72 11.48 11.82.59 2.99-.71 4.9-.71 4.9Z" fill="#0875F7"/><path d="M421.67 608.13c-2.26 1.8-7.3 5.41-11.33 5.41-.18 0-.36 0-.53-.02-2.85-.23-13.31-5.37-21.84-10.05a193.42 193.42 0 0 1-12.54-7.44c-5.25-3.47-6.18-4.78-6.37-5.71-.77-3.47 4.96-5.87 8.98-7.14.5.4 1.25 1 2.28 1.87-4.98 1.36-9.1 3.49-8.9 4.72.5 1.03 5.7 4.98 18.12 11.8 9.48 5.2 18.47 9.37 20.46 9.55 2.7.21 6.67-2.24 9.27-4.18.86.39 1.66.8 2.4 1.2ZM432.42 624.82h-87.81c-.66-1.2-1.02-2.86-1.16-4.87h89.7c.57 2.97-.73 4.87-.73 4.87Z" fill="#084FC7"/><path d="M353.56 624.82h-2.62a19.29 19.29 0 0 0 4.72-14.06c-.43-8.68-5.62-14.51-9.25-17.58.14-.87.26-1.69.35-2.42 3.9 2.98 10.46 9.5 10.98 19.9a21.07 21.07 0 0 1-4.18 14.16Z" fill="#084FC7"/><path d="M385.29 595.85a1.46 1.46 0 0 1-.36-2.86l5.48-1.37c.78-.2 1.56.28 1.76 1.05.2.78-.28 1.56-1.05 1.76l-5.48 1.37c-.12.04-.25.05-.35.05ZM379.84 591.3a1.46 1.46 0 0 1-.36-2.87l5.48-1.37c.79-.2 1.57.29 1.77 1.05.2.79-.29 1.57-1.05 1.75l-5.48 1.37a.9.9 0 0 1-.36.07ZM390.76 599.04c-.63 0-1.24-.45-1.4-1.1-.2-.79.28-1.57 1.05-1.75l5.48-1.37c.78-.2 1.57.29 1.76 1.05.2.78-.28 1.57-1.05 1.76l-5.48 1.37c-.12.04-.23.04-.36.04ZM396.25 602.12a1.46 1.46 0 0 1-.36-2.87l5.48-1.37c.78-.2 1.57.29 1.76 1.05.2.79-.28 1.57-1.05 1.75l-5.48 1.37a.8.8 0 0 1-.35.07ZM402.24 604.95c-.64 0-1.24-.45-1.4-1.1-.2-.79.28-1.57 1.05-1.75l5.48-1.37c.78-.2 1.56.28 1.76 1.05.2.78-.29 1.57-1.05 1.76l-5.48 1.37c-.13.02-.25.04-.36.04ZM408.72 607.37a1.46 1.46 0 0 1-.36-2.87l5.48-1.37c.79-.2 1.57.29 1.77 1.05.2.78-.29 1.57-1.05 1.75l-5.49 1.37a.85.85 0 0 1-.35.07Z" fill="#fff"/><path d="M111.64 300.59s-1.03 7.1 8.47 9.09l99.07 3.3s6.7-3.36 5.48-11.65c0-.01-41.83-23.52-113.02-.74Z" fill="#084FC7"/><path d="M220.53 333.34c-51.42 28.3-107.58 5.52-107.58 5.52 2.74-7.5 4.79-15.94 6.27-23.63a267.5 267.5 0 0 0 3.11-21c21.87-1.19 75.5-3.48 96.51 1.5l.16 8.41 1.53 29.2Z" fill="#EA9B7A"/><path d="M182.54 319.79c-.37 2.65-1.58 4.67-2.66 4.51-1.1-.16-1.68-2.43-1.3-5.08.37-2.66 1.58-4.68 2.66-4.52 1.1.16 1.68 2.43 1.3 5.09ZM218.99 304.14c-21.9-1.33-64.99-1.8-99.8 11.07 1.72-8.95 2.68-16.85 3.12-21 21.87-1.19 75.5-3.48 96.52 1.5l.16 8.44Z" fill="#D96C63"/><path d="M243.42 263.45a12.48 12.48 0 0 1-1.07 2.4c-2.76 5.1-7.01 9.54-10.59 12.69a70.93 70.93 0 0 1-5.32 4.23l-1.12.77c0 .05 0 .09-.02.16a103.29 103.29 0 0 0-.4 6.96 247 247 0 0 0-.17 5.8c-.01 1.55-.05 3.17-.07 4.84-29.06-13-88.91-4.79-113.02-.73.44-2.08.83-4.13 1.2-6.12 1.72-9.2 2.68-17.48 3.05-24.9.57-11.03-.4-27.61-2.74-44.75-.14-1.12-.3-2.22-.46-3.33l-.34-2.16a306.75 306.75 0 0 0-2.87-16c-4.75-22.81-1.42-46.75 21.71-49.57a346.31 346.31 0 0 1 27.3-2.22c.46-.03.7-.03.7-.03l44.69 13 4.25 1.22a231.5 231.5 0 0 1 9.38 3.24c2.17.82 4.13 1.6 5.92 2.4a50.26 50.26 0 0 1 8.65 4.72c9.8 6.95 8.3 14.82 8.04 30.35V209.41a152.22 152.22 0 0 0 .96 14.7 220.36 220.36 0 0 0 .8 6.58c1.75 13.6 3.97 25.52 1.54 32.76Z" fill="#0875F7"/><path d="M240.1 206.63v2.78l-9.39 5.9c-.28.17-.6.22-.92.17a1.32 1.32 0 0 1-.9-.59c-.38-.62-.19-1.42.42-1.81l9.96-6.25c.25-.16.55-.21.84-.2ZM178.19 256.96c-.36 0-.72-.15-.98-.43a1.32 1.32 0 0 1 .08-1.85l8.74-7.87a1.32 1.32 0 0 1 1.85.1c.48.53.45 1.36-.09 1.84l-8.73 7.87c-.25.21-.57.34-.88.34ZM241.85 230.7l-5.98 5.38c-.25.23-.57.34-.87.34-.36 0-.71-.14-.98-.42a1.32 1.32 0 0 1 .09-1.86l7.33-6.6.41 3.15ZM160.46 225.32c-.2-.3-.28-.68-.2-1.05.17-.71.88-1.14 1.6-.98l11.43 2.7c.71.16 1.14.88.98 1.59a1.31 1.31 0 0 1-1.58.98l-11.44-2.7c-.34-.08-.6-.28-.79-.54ZM119.63 247.77c-.36 0-.72-.14-.98-.42a1.32 1.32 0 0 1 .09-1.85l8.73-7.87a1.32 1.32 0 0 1 1.85.1c.48.53.45 1.36-.08 1.84l-8.74 7.87c-.25.23-.55.33-.87.33ZM221.34 245.9c.1-.33.37-.64.7-.78.67-.28 1.45.02 1.73.68l4.7 10.78c.28.66-.02 1.44-.68 1.73a1.32 1.32 0 0 1-1.72-.68l-4.7-10.78a1.44 1.44 0 0 1-.03-.94ZM243.42 263.45a12.48 12.48 0 0 1-1.07 2.4l-6.39-2c-.32-.12-.57-.33-.73-.6a1.3 1.3 0 0 1 1.51-1.9l6.68 2.1ZM207.33 264.4c.36-.04.73.06 1.01.33.54.48.57 1.32.1 1.85l-7.9 8.7c-.49.54-1.32.57-1.86.1a1.32 1.32 0 0 1-.09-1.86l7.9-8.7c.24-.25.54-.4.84-.43ZM202.69 244.32a1.31 1.31 0 0 1-.9-.58c-.38-.61-.19-1.43.42-1.82l9.96-6.24c.6-.4 1.42-.2 1.82.4.39.6.2 1.43-.41 1.82l-9.97 6.24c-.28.18-.62.24-.92.18ZM209.04 206.46a1.3 1.3 0 0 1-1.12 2.17l-11.7-1.28a1.3 1.3 0 0 1-1.15-1.44 1.3 1.3 0 0 1 1.44-1.16l11.7 1.28c.31.04.62.2.83.43ZM192.05 181.1c.08-.35.32-.66.66-.84.63-.33 1.44-.1 1.77.54l5.57 10.35a1.32 1.32 0 0 1-2.31 1.25l-5.57-10.36c-.18-.3-.21-.64-.12-.94ZM231.78 278.56c-.75.66-1.46 1.24-2.12 1.78l-1.53-3.92a1.23 1.23 0 0 1 0-.94c.13-.34.4-.62.75-.77.68-.26 1.44.08 1.7.75l1.2 3.1ZM124.3 258.63c-.17-.32-.2-.7-.06-1.07a1.3 1.3 0 0 1 1.67-.78l11.06 3.98a1.3 1.3 0 0 1-.88 2.46l-11.07-3.99a1.15 1.15 0 0 1-.71-.6ZM129.72 273.6a1.32 1.32 0 0 1 .87 2.3l-8.81 7.78c-.53.48-1.37.43-1.85-.1a1.32 1.32 0 0 1 .1-1.85l8.81-7.8c.25-.23.57-.34.88-.34ZM145.68 285.96a1.3 1.3 0 0 1-1.24 2.1l-11.6-1.98a1.31 1.31 0 0 1 .45-2.58l11.59 1.98c.32.05.6.23.8.48ZM155.37 175.89a1.3 1.3 0 0 1 .16-1.05c.4-.6 1.21-.78 1.82-.4l9.87 6.38c.6.39.79 1.2.4 1.81-.4.6-1.21.78-1.82.4l-9.88-6.38a1.3 1.3 0 0 1-.55-.76ZM222.78 183.4c.32-.18.69-.22 1.06-.1.68.26 1.04 1 .8 1.68l-3.93 11.09c-.25.67-1 1.03-1.67.8-.68-.25-1.03-1-.8-1.68l3.93-11.08c.1-.3.34-.55.6-.71ZM217.5 168.97l-6.08 7.79a1.3 1.3 0 1 1-2.06-1.6l5.55-7.12c.9.29 1.76.6 2.58.93Z" fill="#084FC7"/><path d="M158.11 276.5c.13.37.45.63.8.7.18.04.38.04.56-.03.2-.07 19.21-6.23 39.21 2.06 10.16 4.22 19.2 5.82 26.52 5.68l.1-1.21.02-.14 1.12-.77c-7.19.36-16.39-1.17-26.94-5.53-20.76-8.61-39.9-2.39-40.71-2.12-.55.2-.85.8-.68 1.35ZM203.86 164.48c-2.5 3.88-7.67 8.28-18.13 7.53-14.43-1.05-23.93-14.82-27.24-20.48l.7-.02 44.67 12.97Z" fill="#084FC7"/><path d="M188.52 190.03c.43.1.86.15 1.28.18 3.99.32 7.23-.83 9.61-3.43 6.94-7.58 4.1-24.88 3.97-25.6-.1-.6-.66-.99-1.23-.88-.58.1-.97.66-.87 1.23.04.18 2.8 17-3.43 23.8-1.94 2.12-4.52 3.03-7.85 2.76-13.99-1.12-29.66-36.65-29.82-37a1.08 1.08 0 0 0-1.4-.56c-.54.23-.8.87-.56 1.4.6 1.48 15.48 35.1 30.3 38.1Z" fill="#fff"/><path d="M232.08 176.07c-.92 10.25 1.6 27.17 8.22 39.34-.16-2.62-.23-5.27-.2-7.9v-.27c0-.27.03-.53.03-.8.23-15.53 1.74-23.42-8.05-30.37ZM149.86 194.1c-5.13 19.8-23.88 35.67-36.7 30.72l-.46-3.33a304.81 304.81 0 0 0-3.2-18.17c-4.75-22.8-1.4-46.74 21.71-49.57 1.67-.21 3.33-.39 4.95-.57 11.54 4.93 19.6 18.15 13.7 40.93Z" fill="#EA9B7A"/><path d="m152.5 179.02 30.03 109.86-10.72-12.35a54.77 54.77 0 0 0 13.65 4.87 99.24 99.24 0 0 0 16.4 2.1c5.8.3 11.84.25 18.02 0 6.17-.25 12.49-.7 18.9-1.26h.03a17.16 17.16 0 0 1 4.14 34.06 486.6 486.6 0 0 1-20.21 2.84c-6.89.8-13.95 1.4-21.28 1.57-7.31.16-14.9-.1-22.72-1.25a94.1 94.1 0 0 1-23.87-6.6 18.66 18.66 0 0 1-10.31-11.2l-.38-1.15-36.05-108.04a23.18 23.18 0 0 1 43.97-14.68c.16.4.28.86.4 1.23Z" fill="#EA9B7A"/><path d="M165.94 285.37a.88.88 0 0 1-.42-1.65c.28-.16 6.85-3.86 13.72-4.4.5-.03.92.32.96.82.03.5-.32.93-.82.96-6.46.5-12.92 4.13-12.97 4.17-.16.07-.32.1-.47.1Z" fill="#D96C63"/><path d="M176.87 281.4a.86.86 0 0 1-.46-.12 23.52 23.52 0 0 0-9.22-2.9.88.88 0 0 1-.82-.94c.04-.5.44-.86.94-.82.22.02 5.5.4 10 3.15.43.25.56.8.3 1.23a.92.92 0 0 1-.74.4Z" fill="#D96C63"/><path d="M203.65 223.5c13.29 2.7 19.1-11.05 19.16-11.19a1.05 1.05 0 0 0-.59-1.39 1.05 1.05 0 0 0-1.38.6c-.22.5-5.24 12.23-16.77 9.9-12.11-2.45-34.71-26.28-34.92-26.53a1.07 1.07 0 1 0-1.55 1.48c.92.98 23.29 24.54 36.05 27.13Z" fill="#084FC7"/><path d="M182.76 136.97s-21.34-4.02-27.35-25.55c-5.73-20.5-1.32-31.14 4.64-42.2 4.49-8.35 18.72-19.61 38.67-15.57 20.14 4.07 35.21 14.43 37.44 31 4.14 30.99-20.86 68.8-53.4 52.32Z" fill="#39393B"/><path d="M156.4 114.75c-.39 0-.76-.2-.96-.57-.39-.68-9.35-16.82-1.9-38.06 4.66-13.28 13.83-19.2 20.71-21.85 7.44-2.87 13.69-2.58 13.95-2.58a1.12 1.12 0 0 1-.1 2.22c-.06 0-6.13-.25-13.14 2.46-9.32 3.61-15.81 10.5-19.32 20.48-7.1 20.25 1.66 36.07 1.74 36.23.3.53.13 1.2-.4 1.5-.2.12-.38.17-.57.17Z" fill="#FAAF3A"/><path d="M224.13 115.09s6.94-5.48 8.77 1.78c1.83 7.26-3.33 20.16-11.4 16.24l2.63-18.02Z" fill="#D96C63"/><path d="M217.35 128.43a11.06 11.06 0 0 0-7.28 8 10.49 10.49 0 0 0 8.17 12.32 10.44 10.44 0 1 0 4.15-20.48l-.11-.02c-.2.72-.13 1.29.28 1.73a8.84 8.84 0 0 1-4 17.19 8.85 8.85 0 0 1-6.9-10.41 8.6 8.6 0 0 1 6.49-6.7l-.8-1.63Z" fill="#FAAF3A"/><path d="m203.1 146.2-2.9 18.2s-13.62 13.89-38.47-11.04c6.67-4.96 9.21-16.5 8.43-23.93 0 0 1.96 1.17 4.98 3.91.59.54 1.36.95 2.08 1.46 6.57 4.45 16.64 10.27 25.88 11.4Z" fill="#EA9B7A"/><path d="m203.1 146.2-1.37 8.62c-7.46-3.33-20.64-10.43-26.59-21.5.64.47 1.36.95 2.08 1.47 6.57 4.46 16.64 10.28 25.88 11.42Z" fill="#39393B"/><path d="M230.85 110.71c-.39 1.92-.74 3.76-1.12 5.5-.39 1.89-.76 3.66-1.13 5.34-2.76 12.58-5.02 19.32-8.69 21.85-18.56 12.75-48.75-13.08-49.73-13.92l-.02-.01a113.6 113.6 0 0 1 5.62-37.8c1.66-11.1 10.27-20 21.35-21.67 11.5-1.73 20.15 4.93 25.56 7.86 8.16 4.45 11.37 16.82 8.16 32.85Z" fill="#EA9B7A"/><path d="M176.42 80.25s13-24.98 38.9-18.01c25.9 6.98 27.28 19 27.74 25.02.46 6.01-13.42-4.65-13.42-4.65s-.48 12.03-5.1 8.33c-5.68-4.55-12.01-14.36-12.01-14.36s-15.43 15.16-30.1 11.07c-8.34-2.31-6-7.4-6-7.4Z" fill="#39393B"/><path d="M208.24 135.21a8.64 8.64 0 0 1-5.78-2.45.93.93 0 0 1 .01-1.32.9.9 0 0 1 1.3.02c.13.12 2.8 2.77 6.32 1.56a.93.93 0 0 1 1.17.57.93.93 0 0 1-.57 1.18 6.9 6.9 0 0 1-2.45.44Z" fill="#D96C63"/><path d="M200.5 120.09s12.49 3.7 18.97 3.7c0 0-3.24 9.25-12.5 6.01-7.2-2.52-6.47-9.71-6.47-9.71Z" fill="#fff"/><path d="M223.68 94.07s-3.24-.33-2.72 2.81c.53 3.15 7.56 1.23 11.05 7.53 0 0 3.36-6.6-8.33-10.34ZM209.25 91.15s3.12.97 1.4 3.65c-1.7 2.69-7.43-1.81-13.09 2.64 0 0-.51-7.39 11.7-6.29Z" fill="#39393B"/><path d="M203.63 113.7c-.3 1.48-3.6 2.06-7.38 1.3-3.78-.77-6.59-2.58-6.28-4.08.3-1.47 3.59-2.06 7.38-1.3 3.77.77 6.58 2.6 6.28 4.08Z" fill="#D96C63"/><path d="m240.5 114.68-10.1-1.73c-.04.43-.15.86-.24 1.27l-.07.2 10.16 1.73c.4.08.8-.2.87-.62a.74.74 0 0 0-.62-.85ZM213.56 106.07a12.8 12.8 0 0 0-10-12.44l-.13-.04a12.73 12.73 0 0 0-13.4 19.13 12.93 12.93 0 0 0 8.24 5.77c4.11.85 8.15-.4 11.05-3a12.65 12.65 0 0 0 3.97-6.88v-.03c.18-.84.27-1.68.27-2.51ZM198.59 117l-.17-.04a11.22 11.22 0 0 1-8.04-14.86c.01-.03.03-.06.03-.1a11.21 11.21 0 0 1 21.44 6.3 11.24 11.24 0 0 1-13.26 8.7Z" fill="#fff"/><path d="M236.17 100.87c-.33-.18-.69-.34-1.06-.5-.43-.18-.88-.32-1.32-.46-.32-.09-.62-.18-.96-.23a12.5 12.5 0 0 0-3.9-.18 12.76 12.76 0 0 0-10.44 7.86l-.04.1a12.73 12.73 0 0 0 8.17 16.87c.23.06.46.14.71.17l.36.09c1.22.25 2.45.32 3.65.21l.56-.05a13.24 13.24 0 0 0 4.27-1.35c3.26-1.71 5.75-4.8 6.55-8.69a12.78 12.78 0 0 0-6.55-13.84Zm5.06 13.52c-.06.25-.1.48-.18.72a10.97 10.97 0 0 1-4.91 6.54 11.47 11.47 0 0 1-4.54 1.59c-1.17.14-2.4.1-3.63-.14l-.34-.08a10.99 10.99 0 0 1-4.9-2.6c-.19-.17-.36-.35-.54-.53a11.22 11.22 0 0 1-2.14-12.44 11.25 11.25 0 0 1 10.2-6.54l.82.03a9.63 9.63 0 0 1 2.47.46c.46.15.9.32 1.35.52a11.24 11.24 0 0 1 6.34 12.47ZM173.22 103.04a.64.64 0 0 1-.25-.1.75.75 0 0 1-.23-1.04c5.05-7.9 17.2-.8 17.31-.73a.75.75 0 0 1-.76 1.3c-.1-.07-11.02-6.42-15.29.25a.78.78 0 0 1-.78.32Z" fill="#fff"/><path d="M219.02 107.8a.8.8 0 0 1-.48-.33c-1.62-2.49-5.07-1.37-5.1-1.37a.75.75 0 0 1-.95-.48.75.75 0 0 1 .48-.94c1.59-.54 5.06-.8 6.85 1.97.23.36.13.82-.23 1.03-.18.11-.37.15-.57.11Z" fill="#fff"/><path opacity=".8" d="M229.73 116.2c-.39 1.9-.76 3.67-1.13 5.35-3.44-.84-5.91-2.53-5.63-3.94.3-1.38 3.26-1.99 6.76-1.4Z" fill="#D96C63"/><path d="M206.28 106.24c-.4 2.05-1.67 3.5-2.81 3.28-1.14-.23-1.73-2.07-1.32-4.11.41-2.05 1.68-3.5 2.81-3.28 1.14.23 1.73 2.07 1.32 4.11ZM226.46 110.34c-.41 2.04-1.67 3.5-2.81 3.27-1.14-.23-1.73-2.06-1.32-4.11.41-2.05 1.67-3.5 2.81-3.27 1.14.23 1.73 2.06 1.32 4.1ZM216.03 115.82c.98.2 1.68.16 1.73.16a.95.95 0 0 0 .62-.3.89.89 0 0 0 .2-.66l-1.3-9.52a.86.86 0 0 0-.96-.73c-.47.07-.8.5-.73.96l1.15 8.48a6.69 6.69 0 0 1-3.29-1.44.87.87 0 0 0-1.2.11c-.31.36-.26.9.1 1.21a8.52 8.52 0 0 0 3.68 1.73ZM178.5 122.54c-.14.22-4.09 5.9-8.3 6.92l-.02-.01c-.04-1.48-.02-2.96 0-4.4.14.02 4.16.13 8.33-2.5Z" fill="#39393B"/><path d="M177.63 107.63s-5.94-12.6-13.64-5.21c-6.36 6.1-.8 26.46 10.23 22.1l3.41-16.89Z" fill="#EA9B7A"/><path d="M163.03 118.5a11.06 11.06 0 0 0-7.28 8 10.49 10.49 0 0 0 8.16 12.32 10.44 10.44 0 1 0 4.15-20.48l-.1-.01c-.2.7-.11 1.28.28 1.72a8.84 8.84 0 0 1-4 17.19 8.85 8.85 0 0 1-6.9-10.4 8.58 8.58 0 0 1 6.49-6.72l-.8-1.62Z" fill="#FAAF3A"/><path d="m173.75 121.01.1.02c.46.04.88-.3.92-.78a16.02 16.02 0 0 0-6.62-14.54.86.86 0 0 0-1.2.25c-.26.4-.13.93.26 1.2a14.3 14.3 0 0 1 5.85 12.95.9.9 0 0 0 .7.9Z" fill="#39393B"/><path d="M166.96 114.34c.18.04.39.02.57-.09.85-.44 3.36-1.44 4.73-.78.43.21.94.03 1.14-.4a.84.84 0 0 0-.4-1.13c-2.38-1.16-5.86.6-6.26.8a.83.83 0 0 0-.35 1.16c.1.23.34.39.57.44ZM185.28 86.26s-7.98 21.7-8.41 26.07c-.59 5.96-8.47-14.47-.55-31.9l8.97 5.83ZM318.77 546.12h-32.9s-7.61-36.51-10.16-56.98c-2.56-20.47-3.88-69-3.88-69s-26.2 8.53-81.08 5.3c-121.59-7.1-75.48-96.42-75.48-96.42 4.1 5.68 34.93 13.49 52.11 16.21 52.8 5.07 92.92 14.04 120.4 25.89 6.62 2.85 12.49 5.87 17.65 9.06 6.62 4.07 10.76 16.47 13.27 32.75 7.5 48.95.07 133.2.07 133.2Z" fill="#39393B"/><path d="M289.95 528.54a1.2 1.2 0 0 1-1.16-.94c-4.75-23.49-6.33-52.73-7.62-76.21-1.06-19.49-2.06-37.88-4.57-40.1-2.03-1.79-10.44-.38-21.08 1.38-21.2 3.52-53.23 8.82-88.53.62-19.23-4.48-33.38-13.82-42.03-27.78-14.92-24.05-8.11-53.9-8.04-54.2.14-.63.78-1.03 1.42-.87.65.15 1.04.79.88 1.43-.07.28-6.64 29.2 7.77 52.42 8.31 13.4 21.96 22.38 40.55 26.7 34.86 8.12 66.6 2.85 87.62-.63 12.58-2.09 20.18-3.35 23.04-.82 3.1 2.74 3.97 16.19 5.36 41.72 1.28 23.42 2.86 52.55 7.58 75.88.12.63-.29 1.26-.93 1.38l-.26.02Z" fill="#585859"/><path d="M319.4 529.14h-.02l-36.59-.78a1.18 1.18 0 0 1-1.15-1.2c.01-.67.55-1.18 1.2-1.16l36.6.78c.65.02 1.17.55 1.15 1.2a1.2 1.2 0 0 1-1.2 1.16Z" fill="#585859"/><path d="M317.87 588.27h-23.23l-4.46-27.24-2.46-14.9h28.85l.46 14.9.84 27.24Z" fill="#EA9B7A"/><path d="M317.87 588.27h-23.23L291.32 568l-1.14-6.96h26.85l.21 7.2.63 20.04Z" fill="#FAAF3A"/><path d="m317.24 568.24-25.92-.25-1.14-6.96h26.85l.21 7.2Z" fill="#C77E2E"/><path d="M375.16 624.95h-87.83c-.66-1.2-1.01-2.87-1.15-4.88-.56-7.44 1.81-19.29 2.97-26.76.14-.87.26-1.7.35-2.42.16-1.25.27-2.3.27-3.06 0-6.1 5.4-5.05 5.4-5.05 8.87 8.71 18.94-4.35 24.81-.08l.79.6a228.23 228.23 0 0 1 8.72 7.5c6.97 6.26 18.82 10.4 28.9 14.6a63.78 63.78 0 0 1 5.99 2.84c8.25 4.45 10.87 8.72 11.48 11.81.58 2.98-.7 4.9-.7 4.9Z" fill="#0875F7"/><path d="M364.4 608.26c-2.26 1.8-7.3 5.4-11.34 5.4l-.53-.01c-2.85-.23-13.31-5.38-21.84-10.06a193.64 193.64 0 0 1-12.54-7.43c-5.25-3.47-6.17-4.79-6.37-5.71-.76-3.48 4.96-5.88 8.99-7.14.5.4 1.24 1 2.27 1.87-4.98 1.35-9.09 3.49-8.9 4.7.5 1.03 5.7 4.98 18.12 11.8 9.48 5.19 18.47 9.37 20.46 9.55 2.7.21 6.68-2.24 9.27-4.18.88.39 1.66.8 2.4 1.2ZM375.16 624.95h-87.83c-.66-1.2-1.01-2.87-1.15-4.88h89.7c.56 2.95-.72 4.88-.72 4.88Z" fill="#084FC7"/><path d="M296.3 624.95h-2.62a19.29 19.29 0 0 0 4.72-14.06c-.43-8.68-5.62-14.52-9.25-17.58.14-.87.26-1.7.35-2.42 3.9 2.97 10.46 9.5 10.98 19.9a21.26 21.26 0 0 1-4.18 14.16Z" fill="#084FC7"/><path d="M328.03 595.98a1.46 1.46 0 0 1-.36-2.87l5.48-1.37c.78-.2 1.57.29 1.76 1.05.2.79-.28 1.57-1.05 1.76l-5.48 1.38a1.3 1.3 0 0 1-.35.05ZM322.56 591.4a1.46 1.46 0 0 1-.36-2.86l5.49-1.37c.78-.2 1.56.29 1.76 1.05.2.78-.29 1.57-1.05 1.76l-5.48 1.37c-.13.04-.23.05-.36.05ZM333.5 599.16c-.63 0-1.24-.44-1.4-1.1-.2-.78.28-1.57 1.05-1.74l5.48-1.37c.78-.2 1.57.28 1.76 1.05.2.78-.28 1.56-1.05 1.76l-5.48 1.37-.35.03ZM338.99 602.22c-.64 0-1.25-.44-1.4-1.1-.2-.78.28-1.57 1.04-1.74l5.48-1.37c.78-.2 1.57.28 1.76 1.05.2.78-.28 1.56-1.05 1.76l-5.48 1.37c-.12.02-.23.03-.35.03ZM344.96 605.05c-.63 0-1.24-.44-1.4-1.1-.2-.78.28-1.57 1.05-1.74l5.48-1.37c.78-.2 1.57.28 1.76 1.05.2.78-.28 1.56-1.05 1.76l-5.48 1.37c-.12.03-.23.03-.36.03ZM351.46 607.47a1.46 1.46 0 0 1-.36-2.87l5.48-1.36c.79-.2 1.57.28 1.77 1.05.2.78-.29 1.56-1.05 1.76l-5.48 1.37c-.13.04-.25.05-.36.05Z" fill="#fff"/><path d="M439.95 327.7v7.3c0 4.2-2.53 7.6-5.66 7.6H40.2c-3.13 0-5.65-3.4-5.65-7.6v-7.3c0-4.2 2.52-7.6 5.65-7.6h394.06c3.13 0 5.68 3.4 5.68 7.6Z" fill="#21B573"/><path d="M439.95 330.02H34.55v3.34h405.4v-3.34ZM428.1 361.33H57.69c-1.66 0-3.01-1.35-3.01-3v-15.84H431.1v15.84c0 1.65-1.35 3-3 3ZM411.46 454.29H80.2v12.92h331.26v-12.92Z" fill="#217C58"/><path d="m56.32 627.24 64.13-265.9H97.91l-64.13 265.9h22.53ZM434.91 627.24l-64.14-265.9h22.52l64.13 265.9h-22.5Z" fill="#21B573"/><path d="m70.52 259-6.95 1.06 8.03 52.43 6.95-1.06-8.03-52.44Z" fill="#FAAF3A"/><path d="m70.53 258.97-6.94 1.06 1.53-5.3.79-2.76 1.58 2.39 3.04 4.6Z" fill="#EA9B7A"/><path d="m77.96 307.61-6.95 1.06.59 3.82 6.94-1.06-.58-3.82Z" fill="#39393B"/><path d="m78.58 314.5-6.04.93a.48.48 0 0 1-.53-.4l-.4-2.57 6.97-1.07.39 2.58c.03.26-.14.5-.4.53Z" fill="#DF615C"/><path d="m67.5 254.36-2.38.37.79-2.76 1.58 2.39Z" fill="#39393B"/><path d="m77.57 304.87-6.95 1.06.42 2.73 6.94-1.06-.41-2.73ZM65.71 262.35l5.94 38.82c.06.3.33.5.61.45.28-.06.5-.32.44-.6l-5.94-38.83a.53.53 0 1 0-1.05.16ZM68.43 261.94l5.95 38.82c.05.29.32.5.6.45.3-.06.5-.32.45-.6l-5.95-38.83c-.05-.29-.32-.5-.6-.45-.29.04-.5.3-.45.6Z" fill="#C77E2E"/><path d="m83.12 259.2-7.03.03.17 53.04 7.03-.02-.17-53.04Z" fill="#21B573"/><path d="m83.11 259.22-7.02.01 2.3-5.01 1.18-2.62 1.21 2.6 2.33 5.02Z" fill="#EA9B7A"/><path d="m83.27 308.4-7.03.03.01 3.86 7.03-.02-.01-3.86Z" fill="#39393B"/><path d="m82.83 315.32-6.1.02a.46.46 0 0 1-.47-.47v-2.6l7.03-.01v2.6c0 .25-.2.46-.46.46Z" fill="#DF615C"/><path d="m80.78 254.2-2.4.02 1.2-2.62 1.2 2.6Z" fill="#39393B"/><path d="m83.25 305.63-7.03.02.01 2.76 7.03-.02v-2.76ZM77.83 261.85l.12 39.27c0 .3.25.53.54.53.3 0 .53-.25.53-.53l-.12-39.27c0-.3-.25-.54-.54-.54-.28-.01-.53.24-.53.54ZM80.59 261.83l.12 39.27c0 .3.25.54.54.54.3 0 .53-.25.53-.54l-.13-39.27a.53.53 0 0 0-1.06 0Z" fill="#217C58"/><path d="m88.3 258.94-7.46 52.52 6.96.99 7.46-52.52-6.96-.99Z" fill="#0875F7"/><path d="m95.25 259.96-6.96-1 3-4.64 1.56-2.4.82 2.74 1.58 5.3Z" fill="#EA9B7A"/><path d="m88.36 308.67-6.96-.98-.54 3.82 6.96.99.54-3.83Z" fill="#39393B"/><path d="m86.9 315.44-6.03-.85a.47.47 0 0 1-.39-.53l.37-2.58 6.96 1-.37 2.57a.49.49 0 0 1-.54.4Z" fill="#DF615C"/><path d="m93.67 254.66-2.39-.34 1.57-2.4.82 2.74Z" fill="#39393B"/><path d="m81.78 304.93-.39 2.73 6.96.98.39-2.73-6.96-.99ZM89.64 261.8l-5.51 38.88c-.04.3.16.56.46.6.3.04.57-.16.6-.46l5.52-38.88a.53.53 0 0 0-.46-.6.56.56 0 0 0-.6.46ZM92.38 262.19l-5.51 38.88c-.04.3.16.57.46.6.3.04.57-.16.6-.46l5.52-38.88a.53.53 0 0 0-.46-.6.53.53 0 0 0-.6.46Z" fill="#084FC7"/><path d="m97.54 280.2-.37 2.84-.34 2.58-.5 3.92-.33 2.56-.5 3.95-.34 2.52-.52 4-.32 2.48-.51 4.02-.32 2.46-.52 4.06-.32 2.42-.27 2.1H64.73l-.26-2.1-.32-2.42-.52-4.06-.32-2.46-.52-4.02-.32-2.49-.51-3.99-.32-2.52-.52-3.95-.32-2.56-.52-3.92-.33-2.58-.36-2.85h37.95Z" fill="#DF615C"/><path d="m97.17 283.04-.34 2.58H60.28l-.33-2.58h37.22ZM96.33 289.54 96 292.1H61.12l-.32-2.56h35.53ZM95.5 296.05l-.34 2.52h-33.2l-.32-2.52H95.5ZM94.64 302.56l-.32 2.5H62.8l-.32-2.5h32.17ZM93.8 309.07l-.31 2.46H63.63l-.32-2.46h30.5ZM92.97 315.59l-.32 2.42H64.47l-.32-2.42h28.82Z" fill="#B11722"/><path d="m437.65 179.1-23.57 99.7-.63 2.62-1.58 6.71a6.43 6.43 0 0 1-6.26 4.97H246.76a6.43 6.43 0 0 1-6.26-7.92l25.78-109.06a6.43 6.43 0 0 1 6.27-4.95h158.82a6.45 6.45 0 0 1 6.28 7.92Z" fill="#39393B"/><path d="m414.06 278.79-.6 2.63H248.51v-2.63h165.54Z" fill="#585859"/><path d="M310.76 195.84c-1.31 7.06-8.1 12.79-15.17 12.79s-11.73-5.73-10.41-12.8c1.31-7.06 8.11-12.79 15.18-12.79 7.08 0 11.72 5.73 10.4 12.8Z" fill="#FAAF3A"/><path d="M296.32 193.4c-.27 1.4-.98 2.56-1.59 2.56-.62 0-.9-1.14-.64-2.56.27-1.4.98-2.56 1.59-2.56.62 0 .9 1.13.64 2.56ZM302.99 193.4c-.27 1.4-.98 2.56-1.58 2.56-.6 0-.91-1.14-.64-2.56.26-1.4.97-2.56 1.58-2.56.62 0 .9 1.13.64 2.56Z" fill="#39393B"/><path d="M296.92 202.08c-5.5 0-5.73-5.5-5.73-5.55-.01-.3.23-.6.55-.66.32-.07.57.13.6.43 0 .2.2 4.68 4.81 4.68 4.6 0 6.48-4.49 6.57-4.68.12-.3.46-.48.75-.43.28.07.42.36.3.66-.06.03-2.35 5.55-7.85 5.55Z" fill="#39393B"/><path d="M384.2 255.59c.14 6.61 11.35 14.9 11.35 14.9s13.03-8.29 14.61-14.9c1.7-7.18-6.48-9.38-12.54-3.97-4.9-5.41-13.58-3.2-13.42 3.97Z" fill="#DF615C"/><path d="M360.46 236.39c-.76 6.87-6.94 12.42-13.79 12.42-6.85 0-11.81-5.57-11.05-12.42.77-6.87 6.94-12.42 13.8-12.42s11.8 5.57 11.04 12.42ZM278.84 171.17 251.4 293.1h-4.63a6.43 6.43 0 0 1-6.26-7.92l25.78-109.06a6.45 6.45 0 0 1 6.27-4.97h6.3v.02Z" fill="#585859"/><path d="m324.84 293.1-4.82 27.1h15.92l4.82-27.1h-15.92Z" fill="#fff"/><path d="m296.21 315.53 3.26-4.57a6.18 6.18 0 0 1 5.05-2.6h43.63a6.2 6.2 0 0 1 5.5 3.33l2.19 4.2a2.95 2.95 0 0 1-2.62 4.32h-54.6c-2.41-.01-3.8-2.74-2.41-4.68Z" fill="#fff"/><path d="M205.3 320.18h131.07l1.42-4.95a4.87 4.87 0 0 0-4.68-6.21H212.17a4.88 4.88 0 0 0-4.68 3.52l-2.19 7.64Z" fill="#fff"/><path d="m377.15 138.61-57.97-.04a4.09 4.09 0 0 1-4.07-4.07l.01-35.62a4.09 4.09 0 0 1 4.08-4.08l57.97.04a4.08 4.08 0 0 1 4.08 4.07l-.02 35.63a4.06 4.06 0 0 1-4.08 4.07Z" fill="#DF615C"/><path d="m373.7 132.04-5.28 19.97-9.24-18.77 14.52-1.2Z" fill="#DF615C"/><path d="M362.83 113.49c-1.18 7.47-15.14 16.83-15.14 16.83s-13.44-9.38-14.2-16.87c-.84-8.11 8.77-10.59 14.8-4.47 6.35-6.1 15.82-3.6 14.54 4.5Z" fill="#fff"/><path d="M418.23 604.69c54.52 0 98.72-4.37 98.72-9.75 0-5.39-44.2-9.76-98.72-9.76-54.52 0-98.72 4.37-98.72 9.76 0 5.38 44.2 9.75 98.72 9.75Z" fill="#CED3E6"/><path d="M478.68 524.42H354.05a4.29 4.29 0 0 1-4.29-4.29v-1.97a4.29 4.29 0 0 1 4.3-4.3h124.62a4.3 4.3 0 0 1 4.29 4.3v1.97a4.3 4.3 0 0 1-4.3 4.29Z" fill="#39393B"/><path d="M355.62 396.98h121.76a3.66 3.66 0 0 1 3.67 3.67v14.96a3.66 3.66 0 0 1-3.67 3.67H355.62a3.66 3.66 0 0 1-3.67-3.67v-14.96a3.66 3.66 0 0 1 3.67-3.67Z" fill="#585859"/><path d="M384.37 302.14s-51.33-10.14-65.66-45.96c-14.32-35.82 38.06-62.69 65.66-43.45 29.54 20.57 0 89.41 0 89.41Z" fill="#21B573"/><path d="M414.9 396.25a.95.95 0 0 1-.92-.8c-4.91-33.27-24.75-81.14-40.5-115.43-17.1-37.18-33.22-66.86-33.38-67.17a.94.94 0 0 1 .38-1.26.94.94 0 0 1 1.26.37c.16.3 16.32 30.04 33.45 67.28 15.82 34.41 35.71 82.46 40.66 115.94a.91.91 0 0 1-.78 1.06l-.16.01Z" fill="#39393B"/><path d="M382.45 298.67a.92.92 0 0 1-.82-.48c-22.33-41.58-58.6-71.76-58.95-72.06a.93.93 0 0 1-.12-1.3c.32-.4.9-.45 1.3-.13.37.3 36.9 30.7 59.4 72.62a.94.94 0 0 1-.36 1.26c-.16.06-.3.1-.45.1Z" fill="#39393B"/><path d="M383.46 301.66a.95.95 0 0 1-.7-.32c-16.29-19.16-32.98-31.08-44.1-37.7-12.06-7.18-20.37-9.86-20.44-9.88a.94.94 0 0 1-.6-1.17.94.94 0 0 1 1.17-.6c.33.1 8.55 2.73 20.78 10 11.26 6.7 28.15 18.76 44.6 38.14.34.4.3.98-.1 1.32a1 1 0 0 1-.6.21ZM378.94 290.75a.92.92 0 0 1-.87-.62c-12.52-36.74-7.92-81.39-7.86-81.83a.92.92 0 0 1 1.01-.82c.52.05.88.52.82 1.01-.05.45-4.6 44.7 7.78 81.04a.92.92 0 0 1-.59 1.17.82.82 0 0 1-.29.05Z" fill="#39393B"/><path d="M382.1 298.03a.92.92 0 0 1-.91-.78c-3.83-23.26-.9-42.23 2.26-54.04 3.41-12.83 7.68-20.05 7.86-20.36a.93.93 0 0 1 1.28-.32c.45.27.6.84.32 1.28-.03.07-4.34 7.35-7.68 19.97-3.08 11.62-5.96 30.3-2.21 53.18.09.5-.27.98-.76 1.07-.08-.02-.13 0-.16 0Z" fill="#39393B"/><path d="M438.52 311.5s51.85-7.1 68.27-42c16.43-34.9-34.29-64.81-62.97-47.25-30.71 18.79-5.3 89.25-5.3 89.25Z" fill="#21B573"/><path d="M418.86 393.21a.92.92 0 0 1-.93-.94c.2-17.14 3.93-36.66 11.1-58.01 5.73-17.06 13.63-35.34 23.53-54.3 16.81-32.3 33.75-55.77 33.93-56a.94.94 0 0 1 1.3-.22c.4.3.51.9.21 1.3-.16.23-17.03 23.61-33.79 55.78-15.44 29.67-33.95 73.07-34.4 111.46a.97.97 0 0 1-.95.93Z" fill="#39393B"/><path d="M440.7 308.16a.8.8 0 0 1-.47-.15.92.92 0 0 1-.3-1.28c24.94-40.51 63.21-68.7 63.6-68.98.42-.3 1-.22 1.3.2.3.4.22.99-.19 1.3-.37.28-38.36 28.25-63.11 68.44-.2.3-.5.47-.82.47Z" fill="#39393B"/><path d="M439.51 311.07a.97.97 0 0 1-.64-.25.93.93 0 0 1-.03-1.31c17.6-18.38 35.16-29.41 46.8-35.43 12.63-6.53 20.98-8.68 21.33-8.77.5-.13 1 .18 1.12.68.13.5-.18 1-.67 1.12-.1.01-8.55 2.2-21 8.64-11.5 5.95-28.85 16.87-46.25 35.04a.9.9 0 0 1-.66.28ZM444.68 300.45a.94.94 0 0 1-.87-1.28c14.51-35.55 12.57-79.98 12.56-80.43a.95.95 0 0 1 .88-.98c.5-.03.95.38.98.9.02.44 1.98 45.28-12.68 81.22a.95.95 0 0 1-.88.57Z" fill="#39393B"/><path d="m441.1 307.53-.22-.01a.9.9 0 0 1-.69-1.1c5.13-22.64 3.35-41.45.96-53.23-2.6-12.77-6.44-20.3-6.47-20.39a.93.93 0 0 1 .39-1.25.93.93 0 0 1 1.24.4c.16.3 3.99 7.77 6.64 20.8 2.44 11.99 4.25 31.1-.94 54.07a.93.93 0 0 1-.91.71Z" fill="#39393B"/><path d="M418.55 243.96s-43.93-28.44-43.98-67.01c-.06-38.58 58.56-44.13 77.08-16.05 19.84 30.05-33.1 83.06-33.1 83.06Z" fill="#21B573"/><path d="M412.42 342.73c-.08 0-.15 0-.22-.02a.95.95 0 0 1-.7-1.12c7.77-32.72 7.07-84.54 5.13-122.22-2.1-40.88-6.1-74.44-6.14-74.75a.92.92 0 0 1 .82-1.04c.5-.05.98.3 1.03.82.04.34 4.04 33.95 6.16 74.88 1.96 37.8 2.63 89.8-5.16 122.74a.97.97 0 0 1-.92.7Z" fill="#39393B"/><path d="M418.4 240.1a.94.94 0 0 1-.93-.82c-5.34-46.9-27.85-88.37-28.08-88.78a.92.92 0 0 1 .37-1.26.92.92 0 0 1 1.27.37c.23.41 22.92 42.2 28.29 89.47.05.52-.3.98-.82 1.03-.04-.02-.07-.02-.1-.02Z" fill="#39393B"/><path d="M418.23 243.23a.91.91 0 0 1-.87-.64c-8.02-23.85-19.1-41.09-27-51.36-8.53-11.13-15.26-16.69-15.33-16.74a.91.91 0 0 1-.12-1.3c.32-.39.9-.46 1.3-.12.28.23 6.92 5.7 15.58 16.99 8 10.4 19.2 27.83 27.32 51.94a.92.92 0 0 1-.6 1.17.73.73 0 0 1-.28.06ZM418.07 231.43h-.05a.91.91 0 0 1-.87-.98c1.97-38.75 22.8-78.52 22.99-78.93a.93.93 0 1 1 1.66.87c-.22.4-20.84 39.8-22.78 78.15a.95.95 0 0 1-.95.89Z" fill="#39393B"/><path d="M418.3 239.35c-.07 0-.12 0-.2-.02a.93.93 0 0 1-.7-1.1c5.05-23.03 14.84-39.68 22.17-49.61 7.95-10.78 14.6-16.03 14.9-16.25.4-.32.99-.25 1.3.16.31.41.24 1-.17 1.3-.07.05-6.78 5.36-14.59 15.94-7.2 9.77-16.83 26.18-21.8 48.85a.91.91 0 0 1-.9.73Z" fill="#39393B"/><path d="m472.24 337.75-1.53 4.05-.96 2.58-2.78 7.37-.98 2.58-2.85 7.58-.96 2.56-12.24 32.5h-66.87l-12.24-32.5-.96-2.56-2.85-7.58-.97-2.58-2.78-7.37-.96-2.58-1.53-4.05a4.26 4.26 0 0 1 3.98-5.77h103.5a4.26 4.26 0 0 1 3.98 5.77Z" fill="#0875F7"/><path d="m470.7 341.8-.95 2.58H363.27l-.98-2.58h108.42ZM466.95 351.75l-.96 2.58h-98.98l-.96-2.58h100.9ZM463.13 361.91l-.96 2.56h-91.34l-.96-2.56h93.26Z" fill="#084FC7"/><path d="m398.59 419.26-3.7 11.96-51.62 166.37h-10.09L365.9 434.6l3.1-15.35h29.59ZM500.12 597.59h-10.09l-53.13-171.3-2.19-7.03h29.6l.74 3.74 35.07 174.59Z" fill="#39393B"/><path d="M478.68 501.48H354.05a4.29 4.29 0 0 1-4.29-4.28v-1.98a4.29 4.29 0 0 1 4.3-4.29h124.6a4.3 4.3 0 0 1 4.29 4.29v1.98a4.26 4.26 0 0 1-4.27 4.28Z" fill="#585859"/><path d="M321.7 101.5c26.65 0 48.26-21.34 48.26-47.66 0-26.31-21.6-47.65-48.26-47.65-26.65 0-48.25 21.34-48.25 47.65 0 26.32 21.6 47.66 48.25 47.66Z" fill="#CED3E6"/><path d="M321.7 95.3c26.65 0 48.26-21.33 48.26-47.65S348.36 0 321.7 0c-26.65 0-48.25 21.33-48.25 47.65s21.6 47.65 48.25 47.65Z" fill="#0875F7"/><path d="M321.7 86.39c21.66 0 39.22-17.34 39.22-38.74 0-21.4-17.56-38.74-39.22-38.74S282.5 26.26 282.5 47.65c0 21.4 17.55 38.74 39.21 38.74Z" fill="#fff"/><path d="M360.92 47.65c0 1.03-.04 2.05-.13 3.06-1.58-19.93-18.52-35.67-39.1-35.67-20.6 0-37.51 15.74-39.12 35.67a43.65 43.65 0 0 1-.12-3.06c0-21.37 17.6-38.74 39.22-38.74 21.65 0 39.25 17.37 39.25 38.74Z" fill="#CED3E6"/><path d="M321.7 51.67c-.3 0-.6-.14-.78-.39L301.68 25.7a.97.97 0 0 1 .2-1.35.99.99 0 0 1 1.37.2l18.77 24.96 21.34-9.25a1 1 0 0 1 1.3.5c.21.5 0 1.06-.5 1.28l-22.05 9.55a.9.9 0 0 1-.4.1Z" fill="#39393B"/></svg>