<svg width="88" height="16" fill="none" xmlns="http://www.w3.org/2000/svg"><g clip-path="url(#a)"><path d="m80.77.83 1.8 3.66c.13.25.38.43.66.47l4.03.58c.7.1.99.98.48 1.47l-2.92 2.85c-.2.2-.3.48-.25.76l.69 4.02a.86.86 0 0 1-1.25.91l-3.6-1.9a.86.86 0 0 0-.81 0l-3.61 1.9a.86.86 0 0 1-1.25-.9l.69-4.03a.86.86 0 0 0-.25-.76l-2.92-2.85a.86.86 0 0 1 .48-1.47l4.03-.58a.86.86 0 0 0 .65-.47l1.8-3.66a.86.86 0 0 1 1.55 0Z" fill="#F9D4AB"/></g><g clip-path="url(#b)"><path d="m62.77.83 1.8 3.66c.13.25.38.43.66.47l4.03.58c.7.1.99.98.48 1.47l-2.92 2.85c-.2.2-.3.48-.25.76l.69 4.02a.86.86 0 0 1-1.25.91l-3.6-1.9a.86.86 0 0 0-.81 0l-3.61 1.9a.86.86 0 0 1-1.25-.9l.69-4.03a.86.86 0 0 0-.25-.76l-2.92-2.85a.86.86 0 0 1 .48-1.47l4.03-.58a.86.86 0 0 0 .65-.47l1.8-3.66a.86.86 0 0 1 1.55 0Z" fill="#FFA135"/></g><g clip-path="url(#c)"><path d="m44.77.83 1.8 3.66c.13.25.38.43.66.47l4.03.58c.7.1.99.98.48 1.47l-2.92 2.85c-.2.2-.3.48-.25.76l.69 4.02a.86.86 0 0 1-1.25.91l-3.6-1.9a.86.86 0 0 0-.81 0l-3.61 1.9a.86.86 0 0 1-1.25-.9l.69-4.03a.86.86 0 0 0-.25-.76l-2.92-2.85a.86.86 0 0 1 .48-1.47l4.03-.58a.86.86 0 0 0 .65-.47l1.8-3.66a.86.86 0 0 1 1.55 0Z" fill="#FFA135"/></g><g clip-path="url(#d)"><path d="m26.77.83 1.8 3.66c.13.25.38.43.66.47l4.03.58c.7.1.99.98.48 1.47l-2.92 2.85c-.2.2-.3.48-.25.76l.69 4.02a.86.86 0 0 1-1.25.91l-3.6-1.9a.86.86 0 0 0-.81 0l-3.61 1.9a.86.86 0 0 1-1.25-.9l.69-4.03a.86.86 0 0 0-.25-.76l-2.92-2.85a.86.86 0 0 1 .48-1.47l4.03-.58a.86.86 0 0 0 .65-.47l1.8-3.66a.86.86 0 0 1 1.55 0Z" fill="#FFA135"/></g><g clip-path="url(#e)"><path d="m8.77.83 1.8 3.66c.13.25.38.43.66.47l4.03.58c.7.1.99.98.48 1.47l-2.92 2.85c-.2.2-.3.48-.25.76l.69 4.02a.86.86 0 0 1-1.25.91l-3.6-1.9a.86.86 0 0 0-.81 0l-3.61 1.9a.86.86 0 0 1-1.25-.9l.69-4.03a.86.86 0 0 0-.25-.76L.26 7.01a.86.86 0 0 1 .48-1.47l4.03-.58a.86.86 0 0 0 .65-.47L7.22.83a.86.86 0 0 1 1.55 0Z" fill="#FFA135"/></g><defs><clipPath id="a"><path fill="#fff" d="M72 0h16v16H72z"/></clipPath><clipPath id="b"><path fill="#fff" d="M54 0h16v16H54z"/></clipPath><clipPath id="c"><path fill="#fff" d="M36 0h16v16H36z"/></clipPath><clipPath id="d"><path fill="#fff" d="M18 0h16v16H18z"/></clipPath><clipPath id="e"><path fill="#fff" d="M0 0h16v16H0z"/></clipPath></defs></svg>