<svg width="19" height="19" fill="none" xmlns="http://www.w3.org/2000/svg"><g clip-path="url(#a)" fill="#000"><path d="M9.5 0a9.51 9.51 0 0 0 0 19 9.51 9.51 0 0 0 0-19Zm0 17.63a8.14 8.14 0 0 1 0-16.26 8.14 8.14 0 0 1 0 16.26Z"/><path d="M12.25 10.37h-.01l-2.05.04V5.03a.69.69 0 1 0-1.38 0V11.1l.01.08v.05l.03.09.02.04.04.08.02.04.06.07.03.03.07.06.03.02.08.05.03.02a.7.7 0 0 0 .11.03h.02a.7.7 0 0 0 .14.02h.01l2.75-.04a.69.69 0 0 0-.01-1.38Z"/></g><defs><clipPath id="a"><path fill="#fff" d="M0 0h19v19H0z"/></clipPath></defs></svg>