<?xml version="1.0" standalone="no"?>
<!DOCTYPE svg PUBLIC "-//W3C//DTD SVG 20010904//EN"
 "http://www.w3.org/TR/2001/REC-SVG-20010904/DTD/svg10.dtd">
<svg version="1.0" xmlns="http://www.w3.org/2000/svg"
 width="944.000000pt" height="944.000000pt" viewBox="0 0 944.000000 944.000000"
 preserveAspectRatio="xMidYMid meet">
<metadata>
Created by potrace 1.14, written by Peter Selinger 2001-2017
</metadata>
<g transform="translate(0.000000,944.000000) scale(0.100000,-0.100000)"
fill="#000000" stroke="none">
<path d="M1203 8607 c0 -228 -2 -272 -14 -273 -8 0 -19 3 -25 8 -6 4 -19 9
-30 11 -10 1 -23 5 -29 9 -11 6 -128 41 -133 39 -1 -1 -16 6 -32 14 -16 8 -33
15 -37 15 -7 0 -238 74 -273 87 -8 4 -17 7 -20 8 -3 1 -32 10 -65 20 -33 11
-64 20 -70 20 -6 0 -10 -101 -11 -275 -1 -151 -2 -279 -3 -283 -1 -8 -45 -4
-106 10 -40 8 -255 50 -295 57 -14 2 -32 6 -40 8 -13 3 -15 -368 -15 -3285 0
-1809 3 -3293 6 -3299 4 -6 19 -12 35 -13 16 -2 40 -6 54 -9 36 -8 100 -21
155 -31 11 -2 43 -8 70 -14 28 -6 64 -13 80 -15 17 -3 41 -7 55 -10 14 -4 41
-9 60 -12 19 -3 51 -9 70 -14 20 -5 53 -12 75 -16 61 -9 66 -10 129 -23 33 -7
69 -15 80 -16 26 -4 67 -12 126 -25 25 -5 59 -11 75 -14 17 -2 41 -7 55 -10
14 -3 36 -8 50 -10 22 -4 79 -15 160 -31 14 -3 50 -9 80 -15 53 -10 73 -14
123 -25 12 -3 37 -7 56 -10 18 -2 41 -7 50 -9 9 -3 30 -8 46 -10 17 -3 41 -8
55 -11 14 -2 37 -7 53 -10 15 -3 39 -7 55 -10 38 -7 73 -14 102 -21 14 -3 39
-7 55 -9 35 -6 100 -18 200 -40 6 -1 33 -6 60 -10 57 -10 64 -12 68 -15 1 -1
16 -4 32 -6 17 -3 65 -11 108 -20 42 -8 87 -17 100 -19 12 -3 45 -9 72 -15 28
-6 64 -12 80 -15 17 -2 50 -9 75 -14 71 -16 92 -20 130 -26 20 -3 47 -8 60
-10 14 -3 57 -12 95 -20 39 -8 82 -17 97 -19 46 -8 142 -26 168 -32 14 -3 36
-7 50 -10 14 -2 48 -9 75 -14 52 -11 442 -86 485 -94 14 -3 63 -12 110 -21 47
-9 96 -18 110 -20 14 -2 25 -4 25 -5 0 -1 11 -3 25 -6 27 -4 109 -21 150 -30
14 -3 42 -7 63 -9 21 -3 42 -7 45 -9 4 -2 26 -7 49 -11 23 -3 63 -11 90 -18
30 -8 61 -10 83 -5 73 17 382 78 422 83 15 2 37 7 49 10 11 4 31 8 42 10 45 6
104 17 147 27 25 5 59 12 75 14 17 3 41 9 55 13 14 4 33 7 43 5 9 -1 17 1 17
5 0 4 8 7 18 7 18 1 79 11 116 19 12 3 35 7 51 10 46 9 73 14 158 31 42 8 90
18 105 20 15 3 72 14 127 25 55 11 114 22 130 25 17 3 46 9 65 14 19 5 53 11
75 15 22 3 47 7 55 10 8 2 31 6 50 9 19 3 44 8 55 10 11 3 70 14 130 26 61 12
119 24 130 26 11 2 34 7 50 10 87 15 77 13 148 29 12 3 36 7 52 10 36 5 65 11
165 32 41 8 86 17 100 19 102 18 438 114 465 133 6 4 33 16 60 26 46 17 188
83 245 116 102 57 273 165 321 203 14 12 40 32 59 46 97 73 294 266 379 370
29 36 58 72 65 81 32 39 106 150 106 158 0 5 4 11 8 13 17 7 131 222 179 338
63 151 128 376 135 462 1 16 5 28 8 28 3 0 5 12 6 28 0 15 5 63 9 107 15 135
9 444 -10 515 -2 8 -7 38 -11 65 -3 28 -11 59 -17 70 -6 11 -9 20 -8 20 10 0
-46 171 -62 193 -5 6 -6 12 -3 12 4 0 0 10 -8 22 -9 12 -16 30 -16 40 0 10 -5
18 -11 18 -5 0 -8 4 -5 9 4 5 3 11 -1 13 -5 1 -16 19 -25 38 -27 54 -36 66
-109 160 -77 98 -112 134 -215 219 -39 32 -120 85 -187 121 l-78 43 28 31 c15
17 31 33 34 36 3 3 40 52 82 110 42 58 80 110 85 115 4 6 11 17 15 25 3 8 20
38 37 65 59 97 155 312 166 370 3 19 11 35 17 35 6 0 8 2 5 5 -3 4 5 47 18 98
14 51 27 108 30 127 3 19 7 46 10 60 14 87 19 165 19 320 -1 156 -4 206 -20
315 -10 73 -51 233 -74 290 -29 73 -57 131 -66 137 -5 4 -7 8 -3 8 7 0 -47
106 -74 144 -162 227 -319 363 -549 474 -57 28 -147 64 -199 81 -97 30 -212
58 -219 52 -13 -10 -16 53 -16 363 0 190 -1 346 -3 346 -7 0 -136 -45 -212
-75 -47 -18 -112 -43 -145 -54 -33 -12 -67 -24 -75 -28 -8 -3 -42 -15 -76 -27
l-61 -21 1 278 c1 154 -1 283 -4 287 -4 7 -122 -56 -242 -129 -68 -42 -121
-71 -129 -71 -5 0 -9 -4 -9 -10 0 -5 -4 -10 -9 -10 -8 0 -75 -39 -256 -147
-22 -13 -48 -26 -57 -30 -10 -3 -18 -9 -18 -14 0 -5 -6 -9 -14 -9 -8 0 -21 -6
-28 -12 -13 -13 -36 -26 -108 -65 -19 -10 -40 -23 -46 -29 -7 -6 -26 -17 -43
-24 -17 -7 -31 -16 -31 -21 0 -5 -5 -9 -10 -9 -8 0 -82 -42 -368 -211 -15 -9
-43 -25 -62 -36 -19 -11 -70 -41 -113 -67 -43 -25 -83 -46 -88 -46 -5 0 -9 -4
-9 -10 0 -5 -4 -10 -9 -10 -6 0 -47 -22 -93 -50 -46 -27 -89 -50 -95 -50 -7 0
-13 -4 -13 -8 0 -5 -23 -22 -52 -38 -90 -51 -121 -68 -211 -122 -48 -28 -90
-52 -93 -52 -3 0 -10 -5 -17 -10 -13 -12 -435 -260 -454 -267 -6 -2 -71 25
-145 60 -150 73 -403 196 -778 379 -140 68 -270 131 -287 139 -18 7 -33 17
-33 21 0 5 -5 8 -12 8 -6 0 -66 27 -132 59 -456 222 -536 261 -546 261 -5 0
-10 5 -10 10 0 6 -4 10 -10 10 -5 0 -90 39 -187 87 -98 48 -180 87 -183 88 -3
1 -70 34 -150 73 -80 40 -151 72 -157 72 -7 0 -13 5 -13 10 0 6 -4 10 -9 10
-5 0 -129 59 -277 131 -147 72 -277 135 -288 140 -12 5 -28 13 -36 18 -8 5
-60 31 -115 57 -55 26 -107 51 -117 55 -15 8 -16 -13 -15 -264z m6162 -2353
c67 -10 76 -13 128 -38 59 -27 137 -92 137 -112 0 -8 4 -14 8 -14 8 0 40 -58
58 -105 33 -87 42 -275 17 -368 -8 -29 -16 -61 -18 -71 -6 -28 -72 -164 -87
-180 -7 -8 -22 -26 -33 -42 -30 -42 -64 -75 -126 -122 -52 -39 -167 -98 -206
-105 -10 -2 -29 -7 -43 -10 -14 -4 -38 -9 -55 -12 -30 -5 -359 -70 -405 -80
-14 -3 -38 -7 -55 -10 -37 -7 -72 -14 -105 -21 -14 -3 -35 -6 -47 -7 -13 -1
-23 -5 -23 -10 0 -4 -4 -5 -10 -2 -5 3 -27 1 -47 -4 -21 -5 -53 -12 -70 -15
-59 -10 -95 -17 -162 -31 -36 -8 -68 -12 -70 -9 -7 7 -8 1143 -1 1154 3 5 19
11 35 14 36 7 71 14 105 21 14 3 41 8 60 11 19 3 64 12 98 20 35 8 68 12 73 8
5 -3 9 -1 9 3 0 5 9 9 20 10 11 1 55 9 98 18 94 19 110 22 153 29 46 8 76 14
129 26 25 6 61 12 80 14 19 3 35 5 35 6 0 2 26 8 70 15 22 3 47 8 55 12 8 3
41 6 73 8 32 2 61 6 64 9 3 3 9 3 13 1 4 -3 25 -7 45 -11z m280 -2486 c163
-53 277 -197 302 -378 8 -61 7 -204 -2 -265 -18 -123 -98 -289 -183 -380 -46
-50 -135 -125 -146 -125 -4 0 -23 -11 -44 -23 -42 -27 -133 -63 -146 -59 -4 1
-14 -3 -22 -9 -8 -6 -14 -9 -14 -6 0 3 -26 -1 -57 -8 -32 -7 -74 -16 -93 -19
-19 -3 -46 -8 -60 -11 -14 -3 -37 -7 -53 -10 -15 -3 -59 -12 -97 -20 -38 -8
-84 -17 -102 -20 -31 -5 -100 -18 -158 -30 -14 -3 -36 -8 -50 -10 -14 -2 -38
-7 -55 -10 -178 -35 -234 -46 -255 -51 -14 -3 -34 -6 -45 -8 -16 -3 -147 -28
-205 -40 -13 -2 -15 72 -15 626 l0 628 33 11 c18 6 36 8 39 5 4 -3 12 -1 20 5
7 6 13 9 13 6 0 -3 17 -1 38 5 20 5 48 11 62 13 14 1 63 11 110 20 47 10 94
19 105 20 11 2 54 10 95 19 78 16 121 24 155 31 11 2 45 8 75 14 30 6 66 13
80 15 14 3 26 5 28 7 1 1 11 3 22 4 11 1 21 3 23 5 1 1 11 3 22 4 25 4 83 14
115 21 14 3 39 8 55 11 17 3 50 10 75 15 25 6 68 13 95 16 28 3 51 6 52 7 10
8 140 -10 188 -26z"/>
</g>
</svg>
