<svg width="506" height="515" fill="none" xmlns="http://www.w3.org/2000/svg"><g opacity=".3" clip-path="url(#a)" fill="#17181A"><g clip-path="url(#b)"><circle cx="440" cy="2" r="2"/><circle cx="456" cy="2" r="2"/><circle cx="472" cy="2" r="2"/><circle cx="488" cy="2" r="2"/><circle cx="504" cy="2" r="2"/></g><g clip-path="url(#c)"><circle cx="440" cy="18" r="2"/><circle cx="456" cy="18" r="2"/><circle cx="472" cy="18" r="2"/><circle cx="488" cy="18" r="2"/><circle cx="504" cy="18" r="2"/></g><g clip-path="url(#d)"><circle cx="440" cy="34" r="2"/><circle cx="456" cy="34" r="2"/><circle cx="472" cy="34" r="2"/><circle cx="488" cy="34" r="2"/><circle cx="504" cy="34" r="2"/></g><g clip-path="url(#e)"><circle cx="440" cy="50" r="2"/><circle cx="456" cy="50" r="2"/><circle cx="472" cy="50" r="2"/><circle cx="488" cy="50" r="2"/><circle cx="504" cy="50" r="2"/></g><g clip-path="url(#f)"><circle cx="440" cy="66" r="2"/><circle cx="456" cy="66" r="2"/><circle cx="472" cy="66" r="2"/><circle cx="488" cy="66" r="2"/><circle cx="504" cy="66" r="2"/></g><g clip-path="url(#g)"><circle cx="440" cy="82" r="2"/><circle cx="456" cy="82" r="2"/><circle cx="472" cy="82" r="2"/><circle cx="488" cy="82" r="2"/><circle cx="504" cy="82" r="2"/></g><g clip-path="url(#h)"><circle cx="440" cy="98" r="2"/><circle cx="456" cy="98" r="2"/><circle cx="472" cy="98" r="2"/><circle cx="488" cy="98" r="2"/><circle cx="504" cy="98" r="2"/></g></g><path opacity=".3" fill-rule="evenodd" clip-rule="evenodd" d="M36.88 470.17a57.75 57.75 0 0 0 7.17 7.17l-7.17-7.17Zm16.17 13.35L30.7 461.17a56.61 56.61 0 0 1-2.77-5.76l30.88 30.88a56.34 56.34 0 0 1-5.76-2.77Zm10.21 4.4c1.37.43 2.75.82 4.14 1.15l-42.25-42.25c.33 1.4.72 2.77 1.15 4.14l36.96 36.96Zm-38.83-44.65 46.52 46.52c1.15.2 2.31.36 3.47.48L23.95 439.8c.12 1.16.28 2.32.48 3.47Zm-.74-6.55 53.8 53.8c1.03.06 2.06.09 3.08.09l-56.96-56.96c0 1.02.03 2.05.08 3.07Zm-.02-5.83 59.66 59.66c.93-.05 1.86-.12 2.79-.2L23.88 428.1c-.1.93-.16 1.86-.2 2.79Zm.5-5.31 64.47 64.46c.86-.12 1.72-.26 2.57-.42L24.6 423.01c-.16.85-.3 1.7-.42 2.57Zm.92-4.9 68.46 68.45c.8-.18 1.59-.39 2.38-.6L25.7 418.28c-.22.8-.43 1.59-.61 2.38Zm1.26-4.56 71.75 71.75c.75-.24 1.49-.5 2.22-.76l-73.2-73.21c-.28.73-.53 1.47-.77 2.22Zm1.56-4.26 74.45 74.45c.7-.28 1.39-.59 2.08-.9L28.8 409.78a57.1 57.1 0 0 0-.9 2.08Zm1.82-3.98 76.61 76.6c.66-.32 1.31-.67 1.96-1.03l-77.53-77.53c-.36.65-.7 1.3-1.04 1.96Zm2.08-3.74 78.27 78.27c.62-.37 1.23-.76 1.84-1.15L32.96 402.3c-.4.6-.78 1.22-1.15 1.84Zm2.3-3.51 79.48 79.48c.58-.41 1.16-.84 1.72-1.27L35.38 398.9a56 56 0 0 0-1.27 1.72Zm2.53-3.3 80.24 80.25c.55-.44 1.08-.9 1.61-1.38l-80.47-80.47c-.48.53-.94 1.06-1.38 1.6Zm2.73-3.07 80.6 80.59a52.32 52.32 0 0 0 1.5-1.49l-80.61-80.6a58.26 58.26 0 0 0-1.49 1.5Zm2.95-2.87 80.51 80.51c.48-.52.94-1.05 1.4-1.59L43.9 390c-.54.46-1.07.92-1.6 1.4Zm3.15-2.66 80.02 80.02c.45-.56.87-1.13 1.29-1.7l-79.61-79.61c-.57.42-1.14.85-1.7 1.29Zm3.36-2.45 79.11 79.1c.4-.6.8-1.2 1.18-1.8L50.65 385.1c-.61.37-1.22.76-1.82 1.17Zm3.6-2.23 77.74 77.75c.36-.64.71-1.29 1.05-1.94L54.36 383c-.65.34-1.3.69-1.94 1.05Zm3.82-1.99 75.9 75.92c.33-.69.64-1.38.93-2.07l-74.77-74.77c-.7.3-1.38.6-2.06.92Zm4.07-1.73 73.57 73.57a55 55 0 0 0 .79-2.2l-72.15-72.16c-.74.25-1.48.51-2.2.79Zm4.36-1.46 70.67 70.67c.23-.78.44-1.57.63-2.36l-68.94-68.94c-.79.2-1.58.4-2.36.63Zm4.67-1.14 67.14 67.14c.17-.85.32-1.7.45-2.54L71.9 377.28c-.85.13-1.7.28-2.54.45Zm5.04-.78 62.88 62.88c.1-.91.18-1.83.23-2.75L77.14 376.7c-.92.06-1.84.14-2.75.24Zm5.48-.33 57.73 57.73c.02-1 0-2.02-.03-3.03L82.9 376.66c-1.01-.05-2.02-.06-3.03-.05Zm6.05.24 51.44 51.44c-.1-1.14-.24-2.28-.42-3.41l-47.6-47.61a56.78 56.78 0 0 0-3.42-.42Zm6.88 1.06 43.5 43.5c-.3-1.35-.64-2.7-1.03-4.02l-38.45-38.45c-1.33-.39-2.67-.73-4.02-1.03Zm8.3 2.48 32.72 32.72c-.7-1.83-1.5-3.63-2.4-5.4l-24.93-24.91c-1.76-.9-3.56-1.7-5.39-2.4Zm12.59 6.78 13.35 13.35a57.47 57.47 0 0 0-13.35-13.35Z" fill="#575757"/><defs><clipPath id="a"><path fill="#fff" d="M438 0h68v100h-68z"/></clipPath><clipPath id="b"><path fill="#fff" d="M438 0h68v4h-68z"/></clipPath><clipPath id="c"><path fill="#fff" d="M438 16h68v4h-68z"/></clipPath><clipPath id="d"><path fill="#fff" d="M438 32h68v4h-68z"/></clipPath><clipPath id="e"><path fill="#fff" d="M438 48h68v4h-68z"/></clipPath><clipPath id="f"><path fill="#fff" d="M438 64h68v4h-68z"/></clipPath><clipPath id="g"><path fill="#fff" d="M438 80h68v4h-68z"/></clipPath><clipPath id="h"><path fill="#fff" d="M438 96h68v4h-68z"/></clipPath></defs></svg>